%TF.GenerationSoftware,KiCad,Pcbnew,(6.0.0)*%
%TF.CreationDate,2023-06-08T10:59:27-04:00*%
%TF.ProjectId,OUTPUT,4f555450-5554-42e6-9b69-6361645f7063,rev?*%
%TF.SameCoordinates,Original*%
%TF.FileFunction,Soldermask,Top*%
%TF.FilePolarity,Negative*%
%FSLAX46Y46*%
G04 Gerber Fmt 4.6, Leading zero omitted, Abs format (unit mm)*
G04 Created by KiCad (PCBNEW (6.0.0)) date 2023-06-08 10:59:27*
%MOMM*%
%LPD*%
G01*
G04 APERTURE LIST*
G04 Aperture macros list*
%AMRoundRect*
0 Rectangle with rounded corners*
0 $1 Rounding radius*
0 $2 $3 $4 $5 $6 $7 $8 $9 X,Y pos of 4 corners*
0 Add a 4 corners polygon primitive as box body*
4,1,4,$2,$3,$4,$5,$6,$7,$8,$9,$2,$3,0*
0 Add four circle primitives for the rounded corners*
1,1,$1+$1,$2,$3*
1,1,$1+$1,$4,$5*
1,1,$1+$1,$6,$7*
1,1,$1+$1,$8,$9*
0 Add four rect primitives between the rounded corners*
20,1,$1+$1,$2,$3,$4,$5,0*
20,1,$1+$1,$4,$5,$6,$7,0*
20,1,$1+$1,$6,$7,$8,$9,0*
20,1,$1+$1,$8,$9,$2,$3,0*%
G04 Aperture macros list end*
%ADD10C,1.587500*%
%ADD11RoundRect,0.635000X0.476250X0.476250X-0.476250X0.476250X-0.476250X-0.476250X0.476250X-0.476250X0*%
%ADD12C,5.080000*%
%ADD13C,2.222500*%
%ADD14R,11.430000X7.620000*%
%ADD15C,1.905000*%
%ADD16RoundRect,0.381000X-0.571500X-0.571500X0.571500X-0.571500X0.571500X0.571500X-0.571500X0.571500X0*%
%ADD17RoundRect,0.635000X-0.476250X-0.476250X0.476250X-0.476250X0.476250X0.476250X-0.476250X0.476250X0*%
%ADD18C,3.175000*%
%ADD19R,3.175000X3.175000*%
%ADD20R,1.905000X1.905000*%
%ADD21RoundRect,0.635000X-0.317500X-0.317500X0.317500X-0.317500X0.317500X0.317500X-0.317500X0.317500X0*%
G04 APERTURE END LIST*
D10*
%TO.C,D4*%
X133350000Y-86360000D03*
X135890000Y-86360000D03*
%TD*%
D11*
%TO.C,T4*%
X143510000Y-96520000D03*
D12*
X140970000Y-113030000D03*
D13*
X140970000Y-96520000D03*
D14*
X140970000Y-113030000D03*
D13*
X138430000Y-96520000D03*
%TD*%
D15*
%TO.C,F3*%
X146050000Y-67310000D03*
X146050000Y-77470000D03*
%TD*%
D10*
%TO.C,D1*%
X115570000Y-91440000D03*
X113030000Y-91440000D03*
%TD*%
D15*
%TO.C,D8*%
X161290000Y-74930000D03*
X153670000Y-74930000D03*
%TD*%
%TO.C,C2*%
X160020000Y-72390000D03*
X154940000Y-72390000D03*
%TD*%
D16*
%TO.C,IC0*%
X153670000Y-87630000D03*
D15*
X153670000Y-90170000D03*
X153670000Y-92710000D03*
X153670000Y-95250000D03*
X153670000Y-97790000D03*
X153670000Y-100330000D03*
X153670000Y-102870000D03*
X153670000Y-105410000D03*
X161290000Y-105410000D03*
X161290000Y-102870000D03*
X161290000Y-100330000D03*
X161290000Y-97790000D03*
X161290000Y-95250000D03*
X161290000Y-92710000D03*
X161290000Y-90170000D03*
X161290000Y-87630000D03*
%TD*%
%TO.C,F4*%
X133350000Y-110490000D03*
X133350000Y-100330000D03*
%TD*%
D17*
%TO.C,T1*%
X105410000Y-81280000D03*
D12*
X107950000Y-64770000D03*
D14*
X107950000Y-64770000D03*
D13*
X107950000Y-81280000D03*
X110490000Y-81280000D03*
%TD*%
D15*
%TO.C,F2*%
X130810000Y-67310000D03*
X130810000Y-77470000D03*
%TD*%
D18*
%TO.C,H1*%
X109220000Y-54610000D03*
X114300000Y-54610000D03*
X119380000Y-54610000D03*
D19*
X124460000Y-54610000D03*
%TD*%
D11*
%TO.C,T5*%
X128270000Y-96520000D03*
D14*
X125730000Y-113030000D03*
D13*
X125730000Y-96520000D03*
D12*
X125730000Y-113030000D03*
D13*
X123190000Y-96520000D03*
%TD*%
D18*
%TO.C,H2*%
X124460000Y-123190000D03*
X119380000Y-123190000D03*
X114300000Y-123190000D03*
D19*
X109220000Y-123190000D03*
%TD*%
D11*
%TO.C,T7*%
X97790000Y-96520000D03*
D12*
X95250000Y-113030000D03*
D13*
X95250000Y-96520000D03*
D14*
X95250000Y-113030000D03*
D13*
X92710000Y-96520000D03*
%TD*%
D15*
%TO.C,R5*%
X128270000Y-93980000D03*
X120650000Y-93980000D03*
%TD*%
D20*
%TO.C,T15*%
X92710000Y-90170000D03*
D15*
X90170000Y-90170000D03*
X87630000Y-90170000D03*
%TD*%
D17*
%TO.C,T3*%
X135890000Y-81280000D03*
D12*
X138430000Y-64770000D03*
D14*
X138430000Y-64770000D03*
D13*
X138430000Y-81280000D03*
X140970000Y-81280000D03*
%TD*%
D15*
%TO.C,R1*%
X105410000Y-83820000D03*
X113030000Y-83820000D03*
%TD*%
D10*
%TO.C,D9*%
X158750000Y-80010000D03*
X156210000Y-80010000D03*
%TD*%
D15*
%TO.C,F7*%
X87630000Y-110490000D03*
X87630000Y-100330000D03*
%TD*%
%TO.C,R3*%
X135890000Y-83820000D03*
X143510000Y-83820000D03*
%TD*%
%TO.C,R2*%
X120650000Y-83820000D03*
X128270000Y-83820000D03*
%TD*%
%TO.C,C1*%
X158750000Y-66040000D03*
X156210000Y-66040000D03*
%TD*%
D20*
%TO.C,T13*%
X123190000Y-90170000D03*
D15*
X120650000Y-90170000D03*
X118110000Y-90170000D03*
%TD*%
D10*
%TO.C,D6*%
X102870000Y-86360000D03*
X105410000Y-86360000D03*
%TD*%
D15*
%TO.C,R6*%
X113030000Y-93980000D03*
X105410000Y-93980000D03*
%TD*%
D20*
%TO.C,T10*%
X125730000Y-87630000D03*
D15*
X128270000Y-87630000D03*
X130810000Y-87630000D03*
%TD*%
D17*
%TO.C,T0*%
X90170000Y-81280000D03*
D13*
X92710000Y-81280000D03*
D14*
X92710000Y-64770000D03*
D12*
X92710000Y-64770000D03*
D13*
X95250000Y-81280000D03*
%TD*%
D15*
%TO.C,R4*%
X143510000Y-93980000D03*
X135890000Y-93980000D03*
%TD*%
D10*
%TO.C,D3*%
X146050000Y-91440000D03*
X143510000Y-91440000D03*
%TD*%
%TO.C,D5*%
X118110000Y-86360000D03*
X120650000Y-86360000D03*
%TD*%
%TO.C,D2*%
X130810000Y-91440000D03*
X128270000Y-91440000D03*
%TD*%
D15*
%TO.C,F5*%
X118110000Y-110490000D03*
X118110000Y-100330000D03*
%TD*%
D10*
%TO.C,D7*%
X87630000Y-86360000D03*
X90170000Y-86360000D03*
%TD*%
D17*
%TO.C,T2*%
X120650000Y-81280000D03*
D14*
X123190000Y-64770000D03*
D13*
X123190000Y-81280000D03*
D12*
X123190000Y-64770000D03*
D13*
X125730000Y-81280000D03*
%TD*%
D11*
%TO.C,T6*%
X113030000Y-96520000D03*
D13*
X110490000Y-96520000D03*
D12*
X110490000Y-113030000D03*
D14*
X110490000Y-113030000D03*
D13*
X107950000Y-96520000D03*
%TD*%
D15*
%TO.C,C0*%
X158750000Y-55880000D03*
X156210000Y-55880000D03*
%TD*%
%TO.C,R7*%
X97790000Y-93980000D03*
X90170000Y-93980000D03*
%TD*%
D20*
%TO.C,T9*%
X110490000Y-87630000D03*
D15*
X113030000Y-87630000D03*
X115570000Y-87630000D03*
%TD*%
D21*
%TO.C,H0*%
X166370000Y-87630000D03*
D15*
X166370000Y-90170000D03*
X166370000Y-92710000D03*
X166370000Y-95250000D03*
X166347408Y-97788592D03*
X166347408Y-100328592D03*
X166347408Y-102870000D03*
X166347408Y-105410000D03*
%TD*%
D20*
%TO.C,T14*%
X107950000Y-90170000D03*
D15*
X105410000Y-90170000D03*
X102870000Y-90170000D03*
%TD*%
D20*
%TO.C,T8*%
X95250000Y-87630000D03*
D15*
X97790000Y-87630000D03*
X100330000Y-87630000D03*
%TD*%
D20*
%TO.C,T12*%
X138430000Y-90170000D03*
D15*
X135890000Y-90170000D03*
X133350000Y-90170000D03*
%TD*%
D20*
%TO.C,T11*%
X140970000Y-87630000D03*
D15*
X143510000Y-87630000D03*
X146050000Y-87630000D03*
%TD*%
%TO.C,F1*%
X115570000Y-67310000D03*
X115570000Y-77470000D03*
%TD*%
%TO.C,R0*%
X90170000Y-83820000D03*
X97790000Y-83820000D03*
%TD*%
D10*
%TO.C,D0*%
X100330000Y-91440000D03*
X97790000Y-91440000D03*
%TD*%
D15*
%TO.C,F0*%
X100330000Y-67310000D03*
X100330000Y-77470000D03*
%TD*%
%TO.C,R8*%
X161290000Y-77470000D03*
X153670000Y-77470000D03*
%TD*%
%TO.C,F6*%
X102870000Y-110490000D03*
X102870000Y-100330000D03*
%TD*%
M02*
