M48
; DRILL file {KiCad (6.0.0)} date Thu Jun  8 10:59:19 2023
; FORMAT={-:-/ absolute / inch / decimal}
; #@! TF.CreationDate,2023-06-08T10:59:19-04:00
; #@! TF.GenerationSoftware,Kicad,Pcbnew,(6.0.0)
; #@! TF.FileFunction,Plated,1,2,PTH
FMAT,2
INCH
; #@! TA.AperFunction,Plated,PTH,ComponentDrill
T1C0.0375
; #@! TA.AperFunction,Plated,PTH,ViaDrill
T2C0.0500
; #@! TA.AperFunction,Plated,PTH,ComponentDrill
T3C0.0500
; #@! TA.AperFunction,Plated,PTH,ComponentDrill
T4C0.0625
; #@! TA.AperFunction,Plated,PTH,ViaDrill
T5C0.1250
; #@! TA.AperFunction,Plated,PTH,ComponentDrill
T6C0.1500
%
G90
G05
T1
X3.45Y-3.4
X3.45Y-3.55
X3.45Y-3.95
X3.45Y-4.35
X3.55Y-3.3
X3.55Y-3.4
X3.55Y-3.55
X3.55Y-3.7
X3.65Y-3.55
X3.75Y-3.45
X3.85Y-3.3
X3.85Y-3.45
X3.85Y-3.6
X3.85Y-3.7
X3.95Y-2.65
X3.95Y-3.05
X3.95Y-3.45
X3.95Y-3.6
X4.05Y-3.4
X4.05Y-3.55
X4.05Y-3.95
X4.05Y-4.35
X4.15Y-3.3
X4.15Y-3.4
X4.15Y-3.55
X4.15Y-3.7
X4.25Y-3.55
X4.35Y-3.45
X4.45Y-3.3
X4.45Y-3.45
X4.45Y-3.6
X4.45Y-3.7
X4.55Y-2.65
X4.55Y-3.05
X4.55Y-3.45
X4.55Y-3.6
X4.65Y-3.4
X4.65Y-3.55
X4.65Y-3.95
X4.65Y-4.35
X4.75Y-3.3
X4.75Y-3.4
X4.75Y-3.55
X4.75Y-3.7
X4.85Y-3.55
X4.95Y-3.45
X5.05Y-3.3
X5.05Y-3.45
X5.05Y-3.6
X5.05Y-3.7
X5.15Y-2.65
X5.15Y-3.05
X5.15Y-3.45
X5.15Y-3.6
X5.25Y-3.4
X5.25Y-3.55
X5.25Y-3.95
X5.25Y-4.35
X5.35Y-3.3
X5.35Y-3.4
X5.35Y-3.55
X5.35Y-3.7
X5.45Y-3.55
X5.55Y-3.45
X5.65Y-3.3
X5.65Y-3.45
X5.65Y-3.6
X5.65Y-3.7
X5.75Y-2.65
X5.75Y-3.05
X5.75Y-3.45
X5.75Y-3.6
X6.05Y-2.95
X6.05Y-3.05
X6.05Y-3.45
X6.05Y-3.55
X6.05Y-3.65
X6.05Y-3.75
X6.05Y-3.85
X6.05Y-3.95
X6.05Y-4.05
X6.05Y-4.15
X6.1Y-2.85
X6.15Y-2.2
X6.15Y-2.6
X6.15Y-3.15
X6.25Y-2.2
X6.25Y-2.6
X6.25Y-3.15
X6.3Y-2.85
X6.35Y-2.95
X6.35Y-3.05
X6.35Y-3.45
X6.35Y-3.55
X6.35Y-3.65
X6.35Y-3.75
X6.35Y-3.85
X6.35Y-3.95
X6.35Y-4.05
X6.35Y-4.15
X6.5491Y-3.8499
X6.5491Y-3.9499
X6.5491Y-4.05
X6.5491Y-4.15
X6.55Y-3.45
X6.55Y-3.55
X6.55Y-3.65
X6.55Y-3.75
T2
X3.35Y-3.1
X3.35Y-3.8
X5.85Y-3.8
T3
X3.55Y-3.2
X3.65Y-3.2
X3.65Y-3.8
X3.75Y-3.2
X3.75Y-3.8
X3.85Y-3.8
X4.15Y-3.2
X4.25Y-3.2
X4.25Y-3.8
X4.35Y-3.2
X4.35Y-3.8
X4.45Y-3.8
X4.75Y-3.2
X4.85Y-3.2
X4.85Y-3.8
X4.95Y-3.2
X4.95Y-3.8
X5.05Y-3.8
X5.35Y-3.2
X5.45Y-3.2
X5.45Y-3.8
X5.55Y-3.2
X5.55Y-3.8
X5.65Y-3.8
T4
X4.3Y-2.15
X4.3Y-4.85
X4.5Y-2.15
X4.5Y-4.85
X4.7Y-2.15
X4.7Y-4.85
X4.9Y-2.15
X4.9Y-4.85
T5
X3.25Y-1.75
X3.25Y-5.25
X6.75Y-1.75
X6.75Y-5.25
T6
X3.65Y-2.55
X3.75Y-4.45
X4.25Y-2.55
X4.35Y-4.45
X4.85Y-2.55
X4.95Y-4.45
X5.45Y-2.55
X5.55Y-4.45
T0
M30
