%TF.GenerationSoftware,KiCad,Pcbnew,(6.0.0)*%
%TF.CreationDate,2023-06-08T10:59:27-04:00*%
%TF.ProjectId,OUTPUT,4f555450-5554-42e6-9b69-6361645f7063,rev?*%
%TF.SameCoordinates,Original*%
%TF.FileFunction,Legend,Top*%
%TF.FilePolarity,Positive*%
%FSLAX46Y46*%
G04 Gerber Fmt 4.6, Leading zero omitted, Abs format (unit mm)*
G04 Created by KiCad (PCBNEW (6.0.0)) date 2023-06-08 10:59:27*
%MOMM*%
%LPD*%
G01*
G04 APERTURE LIST*
%ADD10C,0.127000*%
%ADD11C,0.254000*%
%ADD12C,0.150000*%
%ADD13C,0.120000*%
G04 APERTURE END LIST*
D10*
X168493621Y-100670178D02*
X168448264Y-100715535D01*
X168312192Y-100760892D01*
X168221478Y-100760892D01*
X168085407Y-100715535D01*
X167994692Y-100624821D01*
X167949335Y-100534107D01*
X167903978Y-100352678D01*
X167903978Y-100216607D01*
X167949335Y-100035178D01*
X167994692Y-99944464D01*
X168085407Y-99853750D01*
X168221478Y-99808392D01*
X168312192Y-99808392D01*
X168448264Y-99853750D01*
X168493621Y-99899107D01*
X169355407Y-100760892D02*
X168901835Y-100760892D01*
X168901835Y-99808392D01*
X169672907Y-100760892D02*
X169672907Y-99808392D01*
X170217192Y-100760892D02*
X169808978Y-100216607D01*
X170217192Y-99808392D02*
X169672907Y-100352678D01*
X170398621Y-100851607D02*
X171124335Y-100851607D01*
X171305764Y-100715535D02*
X171441835Y-100760892D01*
X171668621Y-100760892D01*
X171759335Y-100715535D01*
X171804692Y-100670178D01*
X171850050Y-100579464D01*
X171850050Y-100488750D01*
X171804692Y-100398035D01*
X171759335Y-100352678D01*
X171668621Y-100307321D01*
X171487192Y-100261964D01*
X171396478Y-100216607D01*
X171351121Y-100171250D01*
X171305764Y-100080535D01*
X171305764Y-99989821D01*
X171351121Y-99899107D01*
X171396478Y-99853750D01*
X171487192Y-99808392D01*
X171713978Y-99808392D01*
X171850050Y-99853750D01*
X172258264Y-100760892D02*
X172258264Y-99808392D01*
X172258264Y-100261964D02*
X172802550Y-100261964D01*
X172802550Y-100760892D02*
X172802550Y-99808392D01*
X173573621Y-100261964D02*
X173256121Y-100261964D01*
X173256121Y-100760892D02*
X173256121Y-99808392D01*
X173709692Y-99808392D01*
X113755714Y-118223392D02*
X113937142Y-118223392D01*
X114027857Y-118268750D01*
X114118571Y-118359464D01*
X114163928Y-118540892D01*
X114163928Y-118858392D01*
X114118571Y-119039821D01*
X114027857Y-119130535D01*
X113937142Y-119175892D01*
X113755714Y-119175892D01*
X113665000Y-119130535D01*
X113574285Y-119039821D01*
X113528928Y-118858392D01*
X113528928Y-118540892D01*
X113574285Y-118359464D01*
X113665000Y-118268750D01*
X113755714Y-118223392D01*
X114980357Y-118223392D02*
X114798928Y-118223392D01*
X114708214Y-118268750D01*
X114662857Y-118314107D01*
X114572142Y-118450178D01*
X114526785Y-118631607D01*
X114526785Y-118994464D01*
X114572142Y-119085178D01*
X114617500Y-119130535D01*
X114708214Y-119175892D01*
X114889642Y-119175892D01*
X114980357Y-119130535D01*
X115025714Y-119085178D01*
X115071071Y-118994464D01*
X115071071Y-118767678D01*
X115025714Y-118676964D01*
X114980357Y-118631607D01*
X114889642Y-118586250D01*
X114708214Y-118586250D01*
X114617500Y-118631607D01*
X114572142Y-118676964D01*
X114526785Y-118767678D01*
X123915714Y-118223392D02*
X124097142Y-118223392D01*
X124187857Y-118268750D01*
X124278571Y-118359464D01*
X124323928Y-118540892D01*
X124323928Y-118858392D01*
X124278571Y-119039821D01*
X124187857Y-119130535D01*
X124097142Y-119175892D01*
X123915714Y-119175892D01*
X123825000Y-119130535D01*
X123734285Y-119039821D01*
X123688928Y-118858392D01*
X123688928Y-118540892D01*
X123734285Y-118359464D01*
X123825000Y-118268750D01*
X123915714Y-118223392D01*
X125140357Y-118540892D02*
X125140357Y-119175892D01*
X124913571Y-118178035D02*
X124686785Y-118858392D01*
X125276428Y-118858392D01*
X167949335Y-95680892D02*
X167949335Y-94728392D01*
X168312192Y-94728392D01*
X168402907Y-94773750D01*
X168448264Y-94819107D01*
X168493621Y-94909821D01*
X168493621Y-95045892D01*
X168448264Y-95136607D01*
X168402907Y-95181964D01*
X168312192Y-95227321D01*
X167949335Y-95227321D01*
X168811121Y-94728392D02*
X169037907Y-95680892D01*
X169219335Y-95000535D01*
X169400764Y-95680892D01*
X169627550Y-94728392D01*
X169990407Y-95680892D02*
X169990407Y-94728392D01*
X170307907Y-95408750D01*
X170625407Y-94728392D01*
X170625407Y-95680892D01*
X168493621Y-98130178D02*
X168448264Y-98175535D01*
X168312192Y-98220892D01*
X168221478Y-98220892D01*
X168085407Y-98175535D01*
X167994692Y-98084821D01*
X167949335Y-97994107D01*
X167903978Y-97812678D01*
X167903978Y-97676607D01*
X167949335Y-97495178D01*
X167994692Y-97404464D01*
X168085407Y-97313750D01*
X168221478Y-97268392D01*
X168312192Y-97268392D01*
X168448264Y-97313750D01*
X168493621Y-97359107D01*
X169355407Y-98220892D02*
X168901835Y-98220892D01*
X168901835Y-97268392D01*
X169672907Y-98220892D02*
X169672907Y-97268392D01*
X170217192Y-98220892D02*
X169808978Y-97676607D01*
X170217192Y-97268392D02*
X169672907Y-97812678D01*
X170398621Y-98311607D02*
X171124335Y-98311607D01*
X171305764Y-98175535D02*
X171441835Y-98220892D01*
X171668621Y-98220892D01*
X171759335Y-98175535D01*
X171804692Y-98130178D01*
X171850050Y-98039464D01*
X171850050Y-97948750D01*
X171804692Y-97858035D01*
X171759335Y-97812678D01*
X171668621Y-97767321D01*
X171487192Y-97721964D01*
X171396478Y-97676607D01*
X171351121Y-97631250D01*
X171305764Y-97540535D01*
X171305764Y-97449821D01*
X171351121Y-97359107D01*
X171396478Y-97313750D01*
X171487192Y-97268392D01*
X171713978Y-97268392D01*
X171850050Y-97313750D01*
X172122192Y-97268392D02*
X172666478Y-97268392D01*
X172394335Y-98220892D02*
X172394335Y-97268392D01*
X173528264Y-98220892D02*
X173210764Y-97767321D01*
X172983978Y-98220892D02*
X172983978Y-97268392D01*
X173346835Y-97268392D01*
X173437550Y-97313750D01*
X173482907Y-97359107D01*
X173528264Y-97449821D01*
X173528264Y-97585892D01*
X173482907Y-97676607D01*
X173437550Y-97721964D01*
X173346835Y-97767321D01*
X172983978Y-97767321D01*
X113755714Y-58533392D02*
X113937142Y-58533392D01*
X114027857Y-58578750D01*
X114118571Y-58669464D01*
X114163928Y-58850892D01*
X114163928Y-59168392D01*
X114118571Y-59349821D01*
X114027857Y-59440535D01*
X113937142Y-59485892D01*
X113755714Y-59485892D01*
X113665000Y-59440535D01*
X113574285Y-59349821D01*
X113528928Y-59168392D01*
X113528928Y-58850892D01*
X113574285Y-58669464D01*
X113665000Y-58578750D01*
X113755714Y-58533392D01*
X115071071Y-59485892D02*
X114526785Y-59485892D01*
X114798928Y-59485892D02*
X114798928Y-58533392D01*
X114708214Y-58669464D01*
X114617500Y-58760178D01*
X114526785Y-58805535D01*
D11*
X95816964Y-43572717D02*
X96724107Y-43572717D01*
X96270535Y-45160217D02*
X96270535Y-43572717D01*
X97253273Y-45160217D02*
X97253273Y-43572717D01*
X97858035Y-43572717D01*
X98009226Y-43648313D01*
X98084821Y-43723908D01*
X98160416Y-43875098D01*
X98160416Y-44101884D01*
X98084821Y-44253074D01*
X98009226Y-44328670D01*
X97858035Y-44404265D01*
X97253273Y-44404265D01*
X99596726Y-45160217D02*
X98840773Y-45160217D01*
X98840773Y-43572717D01*
X101033035Y-45009027D02*
X100957440Y-45084622D01*
X100730654Y-45160217D01*
X100579464Y-45160217D01*
X100352678Y-45084622D01*
X100201488Y-44933432D01*
X100125892Y-44782241D01*
X100050297Y-44479860D01*
X100050297Y-44253074D01*
X100125892Y-43950693D01*
X100201488Y-43799503D01*
X100352678Y-43648313D01*
X100579464Y-43572717D01*
X100730654Y-43572717D01*
X100957440Y-43648313D01*
X101033035Y-43723908D01*
X103225297Y-43572717D02*
X103527678Y-43572717D01*
X103678869Y-43648313D01*
X103830059Y-43799503D01*
X103905654Y-44101884D01*
X103905654Y-44631051D01*
X103830059Y-44933432D01*
X103678869Y-45084622D01*
X103527678Y-45160217D01*
X103225297Y-45160217D01*
X103074107Y-45084622D01*
X102922916Y-44933432D01*
X102847321Y-44631051D01*
X102847321Y-44101884D01*
X102922916Y-43799503D01*
X103074107Y-43648313D01*
X103225297Y-43572717D01*
X104586011Y-43572717D02*
X104586011Y-44857836D01*
X104661607Y-45009027D01*
X104737202Y-45084622D01*
X104888392Y-45160217D01*
X105190773Y-45160217D01*
X105341964Y-45084622D01*
X105417559Y-45009027D01*
X105493154Y-44857836D01*
X105493154Y-43572717D01*
X106022321Y-43572717D02*
X106929464Y-43572717D01*
X106475892Y-45160217D02*
X106475892Y-43572717D01*
X107458630Y-45160217D02*
X107458630Y-43572717D01*
X108063392Y-43572717D01*
X108214583Y-43648313D01*
X108290178Y-43723908D01*
X108365773Y-43875098D01*
X108365773Y-44101884D01*
X108290178Y-44253074D01*
X108214583Y-44328670D01*
X108063392Y-44404265D01*
X107458630Y-44404265D01*
X109046130Y-43572717D02*
X109046130Y-44857836D01*
X109121726Y-45009027D01*
X109197321Y-45084622D01*
X109348511Y-45160217D01*
X109650892Y-45160217D01*
X109802083Y-45084622D01*
X109877678Y-45009027D01*
X109953273Y-44857836D01*
X109953273Y-43572717D01*
X110482440Y-43572717D02*
X111389583Y-43572717D01*
X110936011Y-45160217D02*
X110936011Y-43572717D01*
X113128273Y-45160217D02*
X113128273Y-43572717D01*
X113657440Y-44706646D01*
X114186607Y-43572717D01*
X114186607Y-45160217D01*
X115244940Y-43572717D02*
X115547321Y-43572717D01*
X115698511Y-43648313D01*
X115849702Y-43799503D01*
X115925297Y-44101884D01*
X115925297Y-44631051D01*
X115849702Y-44933432D01*
X115698511Y-45084622D01*
X115547321Y-45160217D01*
X115244940Y-45160217D01*
X115093750Y-45084622D01*
X114942559Y-44933432D01*
X114866964Y-44631051D01*
X114866964Y-44101884D01*
X114942559Y-43799503D01*
X115093750Y-43648313D01*
X115244940Y-43572717D01*
X116605654Y-45160217D02*
X116605654Y-43572717D01*
X116983630Y-43572717D01*
X117210416Y-43648313D01*
X117361607Y-43799503D01*
X117437202Y-43950693D01*
X117512797Y-44253074D01*
X117512797Y-44479860D01*
X117437202Y-44782241D01*
X117361607Y-44933432D01*
X117210416Y-45084622D01*
X116983630Y-45160217D01*
X116605654Y-45160217D01*
X118193154Y-43572717D02*
X118193154Y-44857836D01*
X118268750Y-45009027D01*
X118344345Y-45084622D01*
X118495535Y-45160217D01*
X118797916Y-45160217D01*
X118949107Y-45084622D01*
X119024702Y-45009027D01*
X119100297Y-44857836D01*
X119100297Y-43572717D01*
X120612202Y-45160217D02*
X119856250Y-45160217D01*
X119856250Y-43572717D01*
X121141369Y-44328670D02*
X121670535Y-44328670D01*
X121897321Y-45160217D02*
X121141369Y-45160217D01*
X121141369Y-43572717D01*
X121897321Y-43572717D01*
X123560416Y-43572717D02*
X124089583Y-45160217D01*
X124618750Y-43572717D01*
X125147916Y-44328670D02*
X125677083Y-44328670D01*
X125903869Y-45160217D02*
X125147916Y-45160217D01*
X125147916Y-43572717D01*
X125903869Y-43572717D01*
X127491369Y-45160217D02*
X126962202Y-44404265D01*
X126584226Y-45160217D02*
X126584226Y-43572717D01*
X127188988Y-43572717D01*
X127340178Y-43648313D01*
X127415773Y-43723908D01*
X127491369Y-43875098D01*
X127491369Y-44101884D01*
X127415773Y-44253074D01*
X127340178Y-44328670D01*
X127188988Y-44404265D01*
X126584226Y-44404265D01*
X128171726Y-45009027D02*
X128247321Y-45084622D01*
X128171726Y-45160217D01*
X128096130Y-45084622D01*
X128171726Y-45009027D01*
X128171726Y-45160217D01*
X129986011Y-43572717D02*
X131044345Y-45160217D01*
X131044345Y-43572717D02*
X129986011Y-45160217D01*
X131649107Y-44555455D02*
X132858630Y-44555455D01*
X133916964Y-43572717D02*
X134068154Y-43572717D01*
X134219345Y-43648313D01*
X134294940Y-43723908D01*
X134370535Y-43875098D01*
X134446130Y-44177479D01*
X134446130Y-44555455D01*
X134370535Y-44857836D01*
X134294940Y-45009027D01*
X134219345Y-45084622D01*
X134068154Y-45160217D01*
X133916964Y-45160217D01*
X133765773Y-45084622D01*
X133690178Y-45009027D01*
X133614583Y-44857836D01*
X133538988Y-44555455D01*
X133538988Y-44177479D01*
X133614583Y-43875098D01*
X133690178Y-43723908D01*
X133765773Y-43648313D01*
X133916964Y-43572717D01*
X137243154Y-45160217D02*
X136713988Y-44404265D01*
X136336011Y-45160217D02*
X136336011Y-43572717D01*
X136940773Y-43572717D01*
X137091964Y-43648313D01*
X137167559Y-43723908D01*
X137243154Y-43875098D01*
X137243154Y-44101884D01*
X137167559Y-44253074D01*
X137091964Y-44328670D01*
X136940773Y-44404265D01*
X136336011Y-44404265D01*
X137923511Y-44328670D02*
X138452678Y-44328670D01*
X138679464Y-45160217D02*
X137923511Y-45160217D01*
X137923511Y-43572717D01*
X138679464Y-43572717D01*
X139133035Y-43572717D02*
X139662202Y-45160217D01*
X140191369Y-43572717D01*
X140720535Y-45009027D02*
X140796130Y-45084622D01*
X140720535Y-45160217D01*
X140644940Y-45084622D01*
X140720535Y-45009027D01*
X140720535Y-45160217D01*
X142534821Y-43572717D02*
X143517559Y-43572717D01*
X142988392Y-44177479D01*
X143215178Y-44177479D01*
X143366369Y-44253074D01*
X143441964Y-44328670D01*
X143517559Y-44479860D01*
X143517559Y-44857836D01*
X143441964Y-45009027D01*
X143366369Y-45084622D01*
X143215178Y-45160217D01*
X142761607Y-45160217D01*
X142610416Y-45084622D01*
X142534821Y-45009027D01*
X145029464Y-45160217D02*
X144122321Y-45160217D01*
X144575892Y-45160217D02*
X144575892Y-43572717D01*
X144424702Y-43799503D01*
X144273511Y-43950693D01*
X144122321Y-44026289D01*
X145709821Y-44555455D02*
X146919345Y-44555455D01*
X147977678Y-43572717D02*
X148128869Y-43572717D01*
X148280059Y-43648313D01*
X148355654Y-43723908D01*
X148431250Y-43875098D01*
X148506845Y-44177479D01*
X148506845Y-44555455D01*
X148431250Y-44857836D01*
X148355654Y-45009027D01*
X148280059Y-45084622D01*
X148128869Y-45160217D01*
X147977678Y-45160217D01*
X147826488Y-45084622D01*
X147750892Y-45009027D01*
X147675297Y-44857836D01*
X147599702Y-44555455D01*
X147599702Y-44177479D01*
X147675297Y-43875098D01*
X147750892Y-43723908D01*
X147826488Y-43648313D01*
X147977678Y-43572717D01*
X149036011Y-43572717D02*
X150094345Y-43572717D01*
X149413988Y-45160217D01*
X150699107Y-44555455D02*
X151908630Y-44555455D01*
X152588988Y-43723908D02*
X152664583Y-43648313D01*
X152815773Y-43572717D01*
X153193750Y-43572717D01*
X153344940Y-43648313D01*
X153420535Y-43723908D01*
X153496130Y-43875098D01*
X153496130Y-44026289D01*
X153420535Y-44253074D01*
X152513392Y-45160217D01*
X153496130Y-45160217D01*
X154478869Y-43572717D02*
X154630059Y-43572717D01*
X154781250Y-43648313D01*
X154856845Y-43723908D01*
X154932440Y-43875098D01*
X155008035Y-44177479D01*
X155008035Y-44555455D01*
X154932440Y-44857836D01*
X154856845Y-45009027D01*
X154781250Y-45084622D01*
X154630059Y-45160217D01*
X154478869Y-45160217D01*
X154327678Y-45084622D01*
X154252083Y-45009027D01*
X154176488Y-44857836D01*
X154100892Y-44555455D01*
X154100892Y-44177479D01*
X154176488Y-43875098D01*
X154252083Y-43723908D01*
X154327678Y-43648313D01*
X154478869Y-43572717D01*
X155612797Y-43723908D02*
X155688392Y-43648313D01*
X155839583Y-43572717D01*
X156217559Y-43572717D01*
X156368750Y-43648313D01*
X156444345Y-43723908D01*
X156519940Y-43875098D01*
X156519940Y-44026289D01*
X156444345Y-44253074D01*
X155537202Y-45160217D01*
X156519940Y-45160217D01*
X157124702Y-43723908D02*
X157200297Y-43648313D01*
X157351488Y-43572717D01*
X157729464Y-43572717D01*
X157880654Y-43648313D01*
X157956250Y-43723908D01*
X158031845Y-43875098D01*
X158031845Y-44026289D01*
X157956250Y-44253074D01*
X157049107Y-45160217D01*
X158031845Y-45160217D01*
X103678869Y-47716092D02*
X103678869Y-46128592D01*
X104208035Y-47262521D01*
X104737202Y-46128592D01*
X104737202Y-47716092D01*
X106022321Y-46884545D02*
X105493154Y-46884545D01*
X105493154Y-47716092D02*
X105493154Y-46128592D01*
X106249107Y-46128592D01*
X107761011Y-47716092D02*
X107231845Y-46960140D01*
X106853869Y-47716092D02*
X106853869Y-46128592D01*
X107458630Y-46128592D01*
X107609821Y-46204188D01*
X107685416Y-46279783D01*
X107761011Y-46430973D01*
X107761011Y-46657759D01*
X107685416Y-46808949D01*
X107609821Y-46884545D01*
X107458630Y-46960140D01*
X106853869Y-46960140D01*
X108441369Y-47564902D02*
X108516964Y-47640497D01*
X108441369Y-47716092D01*
X108365773Y-47640497D01*
X108441369Y-47564902D01*
X108441369Y-47716092D01*
X110709226Y-46128592D02*
X110860416Y-46128592D01*
X111011607Y-46204188D01*
X111087202Y-46279783D01*
X111162797Y-46430973D01*
X111238392Y-46733354D01*
X111238392Y-47111330D01*
X111162797Y-47413711D01*
X111087202Y-47564902D01*
X111011607Y-47640497D01*
X110860416Y-47716092D01*
X110709226Y-47716092D01*
X110558035Y-47640497D01*
X110482440Y-47564902D01*
X110406845Y-47413711D01*
X110331250Y-47111330D01*
X110331250Y-46733354D01*
X110406845Y-46430973D01*
X110482440Y-46279783D01*
X110558035Y-46204188D01*
X110709226Y-46128592D01*
X113128273Y-47716092D02*
X113128273Y-46128592D01*
X113657440Y-47262521D01*
X114186607Y-46128592D01*
X114186607Y-47716092D01*
X115471726Y-46884545D02*
X114942559Y-46884545D01*
X114942559Y-47716092D02*
X114942559Y-46128592D01*
X115698511Y-46128592D01*
X116303273Y-47716092D02*
X116303273Y-46128592D01*
X116681250Y-46128592D01*
X116908035Y-46204188D01*
X117059226Y-46355378D01*
X117134821Y-46506568D01*
X117210416Y-46808949D01*
X117210416Y-47035735D01*
X117134821Y-47338116D01*
X117059226Y-47489307D01*
X116908035Y-47640497D01*
X116681250Y-47716092D01*
X116303273Y-47716092D01*
X117890773Y-47564902D02*
X117966369Y-47640497D01*
X117890773Y-47716092D01*
X117815178Y-47640497D01*
X117890773Y-47564902D01*
X117890773Y-47716092D01*
X119856250Y-47716092D02*
X119856250Y-46128592D01*
X120234226Y-46128592D01*
X120461011Y-46204188D01*
X120612202Y-46355378D01*
X120687797Y-46506568D01*
X120763392Y-46808949D01*
X120763392Y-47035735D01*
X120687797Y-47338116D01*
X120612202Y-47489307D01*
X120461011Y-47640497D01*
X120234226Y-47716092D01*
X119856250Y-47716092D01*
X121443750Y-47716092D02*
X121443750Y-46128592D01*
X121821726Y-46128592D01*
X122048511Y-46204188D01*
X122199702Y-46355378D01*
X122275297Y-46506568D01*
X122350892Y-46808949D01*
X122350892Y-47035735D01*
X122275297Y-47338116D01*
X122199702Y-47489307D01*
X122048511Y-47640497D01*
X121821726Y-47716092D01*
X121443750Y-47716092D01*
X123031250Y-47111330D02*
X124240773Y-47111330D01*
X124996726Y-47716092D02*
X124996726Y-46128592D01*
X125525892Y-47262521D01*
X126055059Y-46128592D01*
X126055059Y-47716092D01*
X126811011Y-47716092D02*
X126811011Y-46128592D01*
X127340178Y-47262521D01*
X127869345Y-46128592D01*
X127869345Y-47716092D01*
X128625297Y-47111330D02*
X129834821Y-47111330D01*
X130893154Y-46960140D02*
X130893154Y-47716092D01*
X130363988Y-46128592D02*
X130893154Y-46960140D01*
X131422321Y-46128592D01*
X132253869Y-46960140D02*
X132253869Y-47716092D01*
X131724702Y-46128592D02*
X132253869Y-46960140D01*
X132783035Y-46128592D01*
X133614583Y-46960140D02*
X133614583Y-47716092D01*
X133085416Y-46128592D02*
X133614583Y-46960140D01*
X134143750Y-46128592D01*
X134975297Y-46960140D02*
X134975297Y-47716092D01*
X134446130Y-46128592D02*
X134975297Y-46960140D01*
X135504464Y-46128592D01*
X137167559Y-47640497D02*
X137394345Y-47716092D01*
X137772321Y-47716092D01*
X137923511Y-47640497D01*
X137999107Y-47564902D01*
X138074702Y-47413711D01*
X138074702Y-47262521D01*
X137999107Y-47111330D01*
X137923511Y-47035735D01*
X137772321Y-46960140D01*
X137469940Y-46884545D01*
X137318750Y-46808949D01*
X137243154Y-46733354D01*
X137167559Y-46582164D01*
X137167559Y-46430973D01*
X137243154Y-46279783D01*
X137318750Y-46204188D01*
X137469940Y-46128592D01*
X137847916Y-46128592D01*
X138074702Y-46204188D01*
X138755059Y-46884545D02*
X139284226Y-46884545D01*
X139511011Y-47716092D02*
X138755059Y-47716092D01*
X138755059Y-46128592D01*
X139511011Y-46128592D01*
X141098511Y-47716092D02*
X140569345Y-46960140D01*
X140191369Y-47716092D02*
X140191369Y-46128592D01*
X140796130Y-46128592D01*
X140947321Y-46204188D01*
X141022916Y-46279783D01*
X141098511Y-46430973D01*
X141098511Y-46657759D01*
X141022916Y-46808949D01*
X140947321Y-46884545D01*
X140796130Y-46960140D01*
X140191369Y-46960140D01*
X141778869Y-47564902D02*
X141854464Y-47640497D01*
X141778869Y-47716092D01*
X141703273Y-47640497D01*
X141778869Y-47564902D01*
X141778869Y-47716092D01*
X143668750Y-47262521D02*
X144424702Y-47262521D01*
X143517559Y-47716092D02*
X144046726Y-46128592D01*
X144575892Y-47716092D01*
X145634226Y-46884545D02*
X145861011Y-46960140D01*
X145936607Y-47035735D01*
X146012202Y-47186926D01*
X146012202Y-47413711D01*
X145936607Y-47564902D01*
X145861011Y-47640497D01*
X145709821Y-47716092D01*
X145105059Y-47716092D01*
X145105059Y-46128592D01*
X145634226Y-46128592D01*
X145785416Y-46204188D01*
X145861011Y-46279783D01*
X145936607Y-46430973D01*
X145936607Y-46582164D01*
X145861011Y-46733354D01*
X145785416Y-46808949D01*
X145634226Y-46884545D01*
X145105059Y-46884545D01*
X147599702Y-47564902D02*
X147524107Y-47640497D01*
X147297321Y-47716092D01*
X147146130Y-47716092D01*
X146919345Y-47640497D01*
X146768154Y-47489307D01*
X146692559Y-47338116D01*
X146616964Y-47035735D01*
X146616964Y-46808949D01*
X146692559Y-46506568D01*
X146768154Y-46355378D01*
X146919345Y-46204188D01*
X147146130Y-46128592D01*
X147297321Y-46128592D01*
X147524107Y-46204188D01*
X147599702Y-46279783D01*
X148280059Y-47716092D02*
X148280059Y-46128592D01*
X148658035Y-46128592D01*
X148884821Y-46204188D01*
X149036011Y-46355378D01*
X149111607Y-46506568D01*
X149187202Y-46808949D01*
X149187202Y-47035735D01*
X149111607Y-47338116D01*
X149036011Y-47489307D01*
X148884821Y-47640497D01*
X148658035Y-47716092D01*
X148280059Y-47716092D01*
D10*
X167949335Y-90600892D02*
X167949335Y-89648392D01*
X168493621Y-90600892D01*
X168493621Y-89648392D01*
X169627550Y-89603035D02*
X168811121Y-90827678D01*
X170489335Y-90510178D02*
X170443978Y-90555535D01*
X170307907Y-90600892D01*
X170217192Y-90600892D01*
X170081121Y-90555535D01*
X169990407Y-90464821D01*
X169945050Y-90374107D01*
X169899692Y-90192678D01*
X169899692Y-90056607D01*
X169945050Y-89875178D01*
X169990407Y-89784464D01*
X170081121Y-89693750D01*
X170217192Y-89648392D01*
X170307907Y-89648392D01*
X170443978Y-89693750D01*
X170489335Y-89739107D01*
X168402907Y-102348392D02*
X167949335Y-102348392D01*
X167903978Y-102801964D01*
X167949335Y-102756607D01*
X168040050Y-102711250D01*
X168266835Y-102711250D01*
X168357550Y-102756607D01*
X168402907Y-102801964D01*
X168448264Y-102892678D01*
X168448264Y-103119464D01*
X168402907Y-103210178D01*
X168357550Y-103255535D01*
X168266835Y-103300892D01*
X168040050Y-103300892D01*
X167949335Y-103255535D01*
X167903978Y-103210178D01*
X168720407Y-102348392D02*
X169037907Y-103300892D01*
X169355407Y-102348392D01*
X167903978Y-93095535D02*
X168040050Y-93140892D01*
X168266835Y-93140892D01*
X168357550Y-93095535D01*
X168402907Y-93050178D01*
X168448264Y-92959464D01*
X168448264Y-92868750D01*
X168402907Y-92778035D01*
X168357550Y-92732678D01*
X168266835Y-92687321D01*
X168085407Y-92641964D01*
X167994692Y-92596607D01*
X167949335Y-92551250D01*
X167903978Y-92460535D01*
X167903978Y-92369821D01*
X167949335Y-92279107D01*
X167994692Y-92233750D01*
X168085407Y-92188392D01*
X168312192Y-92188392D01*
X168448264Y-92233750D01*
X168856478Y-92641964D02*
X169173978Y-92641964D01*
X169310050Y-93140892D02*
X168856478Y-93140892D01*
X168856478Y-92188392D01*
X169310050Y-92188392D01*
X170262550Y-93140892D02*
X169945050Y-92687321D01*
X169718264Y-93140892D02*
X169718264Y-92188392D01*
X170081121Y-92188392D01*
X170171835Y-92233750D01*
X170217192Y-92279107D01*
X170262550Y-92369821D01*
X170262550Y-92505892D01*
X170217192Y-92596607D01*
X170171835Y-92641964D01*
X170081121Y-92687321D01*
X169718264Y-92687321D01*
X108675714Y-118223392D02*
X108857142Y-118223392D01*
X108947857Y-118268750D01*
X109038571Y-118359464D01*
X109083928Y-118540892D01*
X109083928Y-118858392D01*
X109038571Y-119039821D01*
X108947857Y-119130535D01*
X108857142Y-119175892D01*
X108675714Y-119175892D01*
X108585000Y-119130535D01*
X108494285Y-119039821D01*
X108448928Y-118858392D01*
X108448928Y-118540892D01*
X108494285Y-118359464D01*
X108585000Y-118268750D01*
X108675714Y-118223392D01*
X109401428Y-118223392D02*
X110036428Y-118223392D01*
X109628214Y-119175892D01*
X168402907Y-87108392D02*
X167949335Y-87108392D01*
X167903978Y-87561964D01*
X167949335Y-87516607D01*
X168040050Y-87471250D01*
X168266835Y-87471250D01*
X168357550Y-87516607D01*
X168402907Y-87561964D01*
X168448264Y-87652678D01*
X168448264Y-87879464D01*
X168402907Y-87970178D01*
X168357550Y-88015535D01*
X168266835Y-88060892D01*
X168040050Y-88060892D01*
X167949335Y-88015535D01*
X167903978Y-87970178D01*
X168720407Y-87108392D02*
X169037907Y-88060892D01*
X169355407Y-87108392D01*
X118835714Y-58533392D02*
X119017142Y-58533392D01*
X119107857Y-58578750D01*
X119198571Y-58669464D01*
X119243928Y-58850892D01*
X119243928Y-59168392D01*
X119198571Y-59349821D01*
X119107857Y-59440535D01*
X119017142Y-59485892D01*
X118835714Y-59485892D01*
X118745000Y-59440535D01*
X118654285Y-59349821D01*
X118608928Y-59168392D01*
X118608928Y-58850892D01*
X118654285Y-58669464D01*
X118745000Y-58578750D01*
X118835714Y-58533392D01*
X119606785Y-58624107D02*
X119652142Y-58578750D01*
X119742857Y-58533392D01*
X119969642Y-58533392D01*
X120060357Y-58578750D01*
X120105714Y-58624107D01*
X120151071Y-58714821D01*
X120151071Y-58805535D01*
X120105714Y-58941607D01*
X119561428Y-59485892D01*
X120151071Y-59485892D01*
X108675714Y-58533392D02*
X108857142Y-58533392D01*
X108947857Y-58578750D01*
X109038571Y-58669464D01*
X109083928Y-58850892D01*
X109083928Y-59168392D01*
X109038571Y-59349821D01*
X108947857Y-59440535D01*
X108857142Y-59485892D01*
X108675714Y-59485892D01*
X108585000Y-59440535D01*
X108494285Y-59349821D01*
X108448928Y-59168392D01*
X108448928Y-58850892D01*
X108494285Y-58669464D01*
X108585000Y-58578750D01*
X108675714Y-58533392D01*
X109673571Y-58533392D02*
X109764285Y-58533392D01*
X109855000Y-58578750D01*
X109900357Y-58624107D01*
X109945714Y-58714821D01*
X109991071Y-58896250D01*
X109991071Y-59123035D01*
X109945714Y-59304464D01*
X109900357Y-59395178D01*
X109855000Y-59440535D01*
X109764285Y-59485892D01*
X109673571Y-59485892D01*
X109582857Y-59440535D01*
X109537500Y-59395178D01*
X109492142Y-59304464D01*
X109446785Y-59123035D01*
X109446785Y-58896250D01*
X109492142Y-58714821D01*
X109537500Y-58624107D01*
X109582857Y-58578750D01*
X109673571Y-58533392D01*
X123915714Y-58533392D02*
X124097142Y-58533392D01*
X124187857Y-58578750D01*
X124278571Y-58669464D01*
X124323928Y-58850892D01*
X124323928Y-59168392D01*
X124278571Y-59349821D01*
X124187857Y-59440535D01*
X124097142Y-59485892D01*
X123915714Y-59485892D01*
X123825000Y-59440535D01*
X123734285Y-59349821D01*
X123688928Y-59168392D01*
X123688928Y-58850892D01*
X123734285Y-58669464D01*
X123825000Y-58578750D01*
X123915714Y-58533392D01*
X124641428Y-58533392D02*
X125231071Y-58533392D01*
X124913571Y-58896250D01*
X125049642Y-58896250D01*
X125140357Y-58941607D01*
X125185714Y-58986964D01*
X125231071Y-59077678D01*
X125231071Y-59304464D01*
X125185714Y-59395178D01*
X125140357Y-59440535D01*
X125049642Y-59485892D01*
X124777500Y-59485892D01*
X124686785Y-59440535D01*
X124641428Y-59395178D01*
X168130764Y-104888392D02*
X168221478Y-104888392D01*
X168312192Y-104933750D01*
X168357550Y-104979107D01*
X168402907Y-105069821D01*
X168448264Y-105251250D01*
X168448264Y-105478035D01*
X168402907Y-105659464D01*
X168357550Y-105750178D01*
X168312192Y-105795535D01*
X168221478Y-105840892D01*
X168130764Y-105840892D01*
X168040050Y-105795535D01*
X167994692Y-105750178D01*
X167949335Y-105659464D01*
X167903978Y-105478035D01*
X167903978Y-105251250D01*
X167949335Y-105069821D01*
X167994692Y-104979107D01*
X168040050Y-104933750D01*
X168130764Y-104888392D01*
X168720407Y-104888392D02*
X169037907Y-105840892D01*
X169355407Y-104888392D01*
X118835714Y-118223392D02*
X119017142Y-118223392D01*
X119107857Y-118268750D01*
X119198571Y-118359464D01*
X119243928Y-118540892D01*
X119243928Y-118858392D01*
X119198571Y-119039821D01*
X119107857Y-119130535D01*
X119017142Y-119175892D01*
X118835714Y-119175892D01*
X118745000Y-119130535D01*
X118654285Y-119039821D01*
X118608928Y-118858392D01*
X118608928Y-118540892D01*
X118654285Y-118359464D01*
X118745000Y-118268750D01*
X118835714Y-118223392D01*
X120105714Y-118223392D02*
X119652142Y-118223392D01*
X119606785Y-118676964D01*
X119652142Y-118631607D01*
X119742857Y-118586250D01*
X119969642Y-118586250D01*
X120060357Y-118631607D01*
X120105714Y-118676964D01*
X120151071Y-118767678D01*
X120151071Y-118994464D01*
X120105714Y-119085178D01*
X120060357Y-119130535D01*
X119969642Y-119175892D01*
X119742857Y-119175892D01*
X119652142Y-119130535D01*
X119606785Y-119085178D01*
D12*
%TO.C,D4*%
X137691904Y-86812380D02*
X137691904Y-85812380D01*
X137930000Y-85812380D01*
X138072857Y-85860000D01*
X138168095Y-85955238D01*
X138215714Y-86050476D01*
X138263333Y-86240952D01*
X138263333Y-86383809D01*
X138215714Y-86574285D01*
X138168095Y-86669523D01*
X138072857Y-86764761D01*
X137930000Y-86812380D01*
X137691904Y-86812380D01*
X139120476Y-86145714D02*
X139120476Y-86812380D01*
X138882380Y-85764761D02*
X138644285Y-86479047D01*
X139263333Y-86479047D01*
%TO.C,T4*%
X140208095Y-107402380D02*
X140779523Y-107402380D01*
X140493809Y-108402380D02*
X140493809Y-107402380D01*
X141541428Y-107735714D02*
X141541428Y-108402380D01*
X141303333Y-107354761D02*
X141065238Y-108069047D01*
X141684285Y-108069047D01*
%TO.C,F3*%
X145978571Y-71453333D02*
X145978571Y-71786666D01*
X146502380Y-71786666D02*
X145502380Y-71786666D01*
X145502380Y-71310476D01*
X145502380Y-71024761D02*
X145502380Y-70405714D01*
X145883333Y-70739047D01*
X145883333Y-70596190D01*
X145930952Y-70500952D01*
X145978571Y-70453333D01*
X146073809Y-70405714D01*
X146311904Y-70405714D01*
X146407142Y-70453333D01*
X146454761Y-70500952D01*
X146502380Y-70596190D01*
X146502380Y-70881904D01*
X146454761Y-70977142D01*
X146407142Y-71024761D01*
%TO.C,D1*%
X109751904Y-91892380D02*
X109751904Y-90892380D01*
X109990000Y-90892380D01*
X110132857Y-90940000D01*
X110228095Y-91035238D01*
X110275714Y-91130476D01*
X110323333Y-91320952D01*
X110323333Y-91463809D01*
X110275714Y-91654285D01*
X110228095Y-91749523D01*
X110132857Y-91844761D01*
X109990000Y-91892380D01*
X109751904Y-91892380D01*
X111275714Y-91892380D02*
X110704285Y-91892380D01*
X110990000Y-91892380D02*
X110990000Y-90892380D01*
X110894761Y-91035238D01*
X110799523Y-91130476D01*
X110704285Y-91178095D01*
%TO.C,D8*%
X154836904Y-75382380D02*
X154836904Y-74382380D01*
X155075000Y-74382380D01*
X155217857Y-74430000D01*
X155313095Y-74525238D01*
X155360714Y-74620476D01*
X155408333Y-74810952D01*
X155408333Y-74953809D01*
X155360714Y-75144285D01*
X155313095Y-75239523D01*
X155217857Y-75334761D01*
X155075000Y-75382380D01*
X154836904Y-75382380D01*
X155979761Y-74810952D02*
X155884523Y-74763333D01*
X155836904Y-74715714D01*
X155789285Y-74620476D01*
X155789285Y-74572857D01*
X155836904Y-74477619D01*
X155884523Y-74430000D01*
X155979761Y-74382380D01*
X156170238Y-74382380D01*
X156265476Y-74430000D01*
X156313095Y-74477619D01*
X156360714Y-74572857D01*
X156360714Y-74620476D01*
X156313095Y-74715714D01*
X156265476Y-74763333D01*
X156170238Y-74810952D01*
X155979761Y-74810952D01*
X155884523Y-74858571D01*
X155836904Y-74906190D01*
X155789285Y-75001428D01*
X155789285Y-75191904D01*
X155836904Y-75287142D01*
X155884523Y-75334761D01*
X155979761Y-75382380D01*
X156170238Y-75382380D01*
X156265476Y-75334761D01*
X156313095Y-75287142D01*
X156360714Y-75191904D01*
X156360714Y-75001428D01*
X156313095Y-74906190D01*
X156265476Y-74858571D01*
X156170238Y-74810952D01*
%TO.C,C2*%
X157313333Y-72747142D02*
X157265714Y-72794761D01*
X157122857Y-72842380D01*
X157027619Y-72842380D01*
X156884761Y-72794761D01*
X156789523Y-72699523D01*
X156741904Y-72604285D01*
X156694285Y-72413809D01*
X156694285Y-72270952D01*
X156741904Y-72080476D01*
X156789523Y-71985238D01*
X156884761Y-71890000D01*
X157027619Y-71842380D01*
X157122857Y-71842380D01*
X157265714Y-71890000D01*
X157313333Y-71937619D01*
X157694285Y-71937619D02*
X157741904Y-71890000D01*
X157837142Y-71842380D01*
X158075238Y-71842380D01*
X158170476Y-71890000D01*
X158218095Y-71937619D01*
X158265714Y-72032857D01*
X158265714Y-72128095D01*
X158218095Y-72270952D01*
X157646666Y-72842380D01*
X158265714Y-72842380D01*
%TO.C,IC0*%
X156503809Y-91892380D02*
X156503809Y-90892380D01*
X157551428Y-91797142D02*
X157503809Y-91844761D01*
X157360952Y-91892380D01*
X157265714Y-91892380D01*
X157122857Y-91844761D01*
X157027619Y-91749523D01*
X156980000Y-91654285D01*
X156932380Y-91463809D01*
X156932380Y-91320952D01*
X156980000Y-91130476D01*
X157027619Y-91035238D01*
X157122857Y-90940000D01*
X157265714Y-90892380D01*
X157360952Y-90892380D01*
X157503809Y-90940000D01*
X157551428Y-90987619D01*
X158170476Y-90892380D02*
X158265714Y-90892380D01*
X158360952Y-90940000D01*
X158408571Y-90987619D01*
X158456190Y-91082857D01*
X158503809Y-91273333D01*
X158503809Y-91511428D01*
X158456190Y-91701904D01*
X158408571Y-91797142D01*
X158360952Y-91844761D01*
X158265714Y-91892380D01*
X158170476Y-91892380D01*
X158075238Y-91844761D01*
X158027619Y-91797142D01*
X157980000Y-91701904D01*
X157932380Y-91511428D01*
X157932380Y-91273333D01*
X157980000Y-91082857D01*
X158027619Y-90987619D01*
X158075238Y-90940000D01*
X158170476Y-90892380D01*
%TO.C,F4*%
X133278571Y-107013333D02*
X133278571Y-107346666D01*
X133802380Y-107346666D02*
X132802380Y-107346666D01*
X132802380Y-106870476D01*
X133135714Y-106060952D02*
X133802380Y-106060952D01*
X132754761Y-106299047D02*
X133469047Y-106537142D01*
X133469047Y-105918095D01*
%TO.C,T1*%
X107188095Y-69302380D02*
X107759523Y-69302380D01*
X107473809Y-70302380D02*
X107473809Y-69302380D01*
X108616666Y-70302380D02*
X108045238Y-70302380D01*
X108330952Y-70302380D02*
X108330952Y-69302380D01*
X108235714Y-69445238D01*
X108140476Y-69540476D01*
X108045238Y-69588095D01*
%TO.C,F2*%
X130738571Y-71453333D02*
X130738571Y-71786666D01*
X131262380Y-71786666D02*
X130262380Y-71786666D01*
X130262380Y-71310476D01*
X130357619Y-70977142D02*
X130310000Y-70929523D01*
X130262380Y-70834285D01*
X130262380Y-70596190D01*
X130310000Y-70500952D01*
X130357619Y-70453333D01*
X130452857Y-70405714D01*
X130548095Y-70405714D01*
X130690952Y-70453333D01*
X131262380Y-71024761D01*
X131262380Y-70405714D01*
%TO.C,H1*%
X116078095Y-57602380D02*
X116078095Y-56602380D01*
X116078095Y-57078571D02*
X116649523Y-57078571D01*
X116649523Y-57602380D02*
X116649523Y-56602380D01*
X117649523Y-57602380D02*
X117078095Y-57602380D01*
X117363809Y-57602380D02*
X117363809Y-56602380D01*
X117268571Y-56745238D01*
X117173333Y-56840476D01*
X117078095Y-56888095D01*
%TO.C,T5*%
X124968095Y-107402380D02*
X125539523Y-107402380D01*
X125253809Y-108402380D02*
X125253809Y-107402380D01*
X126349047Y-107402380D02*
X125872857Y-107402380D01*
X125825238Y-107878571D01*
X125872857Y-107830952D01*
X125968095Y-107783333D01*
X126206190Y-107783333D01*
X126301428Y-107830952D01*
X126349047Y-107878571D01*
X126396666Y-107973809D01*
X126396666Y-108211904D01*
X126349047Y-108307142D01*
X126301428Y-108354761D01*
X126206190Y-108402380D01*
X125968095Y-108402380D01*
X125872857Y-108354761D01*
X125825238Y-108307142D01*
%TO.C,H2*%
X116078095Y-121102380D02*
X116078095Y-120102380D01*
X116078095Y-120578571D02*
X116649523Y-120578571D01*
X116649523Y-121102380D02*
X116649523Y-120102380D01*
X117078095Y-120197619D02*
X117125714Y-120150000D01*
X117220952Y-120102380D01*
X117459047Y-120102380D01*
X117554285Y-120150000D01*
X117601904Y-120197619D01*
X117649523Y-120292857D01*
X117649523Y-120388095D01*
X117601904Y-120530952D01*
X117030476Y-121102380D01*
X117649523Y-121102380D01*
%TO.C,T7*%
X94488095Y-107402380D02*
X95059523Y-107402380D01*
X94773809Y-108402380D02*
X94773809Y-107402380D01*
X95297619Y-107402380D02*
X95964285Y-107402380D01*
X95535714Y-108402380D01*
%TO.C,R5*%
X124293333Y-94432380D02*
X123960000Y-93956190D01*
X123721904Y-94432380D02*
X123721904Y-93432380D01*
X124102857Y-93432380D01*
X124198095Y-93480000D01*
X124245714Y-93527619D01*
X124293333Y-93622857D01*
X124293333Y-93765714D01*
X124245714Y-93860952D01*
X124198095Y-93908571D01*
X124102857Y-93956190D01*
X123721904Y-93956190D01*
X125198095Y-93432380D02*
X124721904Y-93432380D01*
X124674285Y-93908571D01*
X124721904Y-93860952D01*
X124817142Y-93813333D01*
X125055238Y-93813333D01*
X125150476Y-93860952D01*
X125198095Y-93908571D01*
X125245714Y-94003809D01*
X125245714Y-94241904D01*
X125198095Y-94337142D01*
X125150476Y-94384761D01*
X125055238Y-94432380D01*
X124817142Y-94432380D01*
X124721904Y-94384761D01*
X124674285Y-94337142D01*
%TO.C,T15*%
X88931904Y-87717380D02*
X89503333Y-87717380D01*
X89217619Y-88717380D02*
X89217619Y-87717380D01*
X90360476Y-88717380D02*
X89789047Y-88717380D01*
X90074761Y-88717380D02*
X90074761Y-87717380D01*
X89979523Y-87860238D01*
X89884285Y-87955476D01*
X89789047Y-88003095D01*
X91265238Y-87717380D02*
X90789047Y-87717380D01*
X90741428Y-88193571D01*
X90789047Y-88145952D01*
X90884285Y-88098333D01*
X91122380Y-88098333D01*
X91217619Y-88145952D01*
X91265238Y-88193571D01*
X91312857Y-88288809D01*
X91312857Y-88526904D01*
X91265238Y-88622142D01*
X91217619Y-88669761D01*
X91122380Y-88717380D01*
X90884285Y-88717380D01*
X90789047Y-88669761D01*
X90741428Y-88622142D01*
%TO.C,T3*%
X137668095Y-69302380D02*
X138239523Y-69302380D01*
X137953809Y-70302380D02*
X137953809Y-69302380D01*
X138477619Y-69302380D02*
X139096666Y-69302380D01*
X138763333Y-69683333D01*
X138906190Y-69683333D01*
X139001428Y-69730952D01*
X139049047Y-69778571D01*
X139096666Y-69873809D01*
X139096666Y-70111904D01*
X139049047Y-70207142D01*
X139001428Y-70254761D01*
X138906190Y-70302380D01*
X138620476Y-70302380D01*
X138525238Y-70254761D01*
X138477619Y-70207142D01*
%TO.C,R1*%
X109053333Y-84272380D02*
X108720000Y-83796190D01*
X108481904Y-84272380D02*
X108481904Y-83272380D01*
X108862857Y-83272380D01*
X108958095Y-83320000D01*
X109005714Y-83367619D01*
X109053333Y-83462857D01*
X109053333Y-83605714D01*
X109005714Y-83700952D01*
X108958095Y-83748571D01*
X108862857Y-83796190D01*
X108481904Y-83796190D01*
X110005714Y-84272380D02*
X109434285Y-84272380D01*
X109720000Y-84272380D02*
X109720000Y-83272380D01*
X109624761Y-83415238D01*
X109529523Y-83510476D01*
X109434285Y-83558095D01*
%TO.C,D9*%
X152931904Y-80462380D02*
X152931904Y-79462380D01*
X153170000Y-79462380D01*
X153312857Y-79510000D01*
X153408095Y-79605238D01*
X153455714Y-79700476D01*
X153503333Y-79890952D01*
X153503333Y-80033809D01*
X153455714Y-80224285D01*
X153408095Y-80319523D01*
X153312857Y-80414761D01*
X153170000Y-80462380D01*
X152931904Y-80462380D01*
X153979523Y-80462380D02*
X154170000Y-80462380D01*
X154265238Y-80414761D01*
X154312857Y-80367142D01*
X154408095Y-80224285D01*
X154455714Y-80033809D01*
X154455714Y-79652857D01*
X154408095Y-79557619D01*
X154360476Y-79510000D01*
X154265238Y-79462380D01*
X154074761Y-79462380D01*
X153979523Y-79510000D01*
X153931904Y-79557619D01*
X153884285Y-79652857D01*
X153884285Y-79890952D01*
X153931904Y-79986190D01*
X153979523Y-80033809D01*
X154074761Y-80081428D01*
X154265238Y-80081428D01*
X154360476Y-80033809D01*
X154408095Y-79986190D01*
X154455714Y-79890952D01*
%TO.C,F7*%
X87558571Y-107013333D02*
X87558571Y-107346666D01*
X88082380Y-107346666D02*
X87082380Y-107346666D01*
X87082380Y-106870476D01*
X87082380Y-106584761D02*
X87082380Y-105918095D01*
X88082380Y-106346666D01*
%TO.C,R3*%
X139533333Y-84272380D02*
X139200000Y-83796190D01*
X138961904Y-84272380D02*
X138961904Y-83272380D01*
X139342857Y-83272380D01*
X139438095Y-83320000D01*
X139485714Y-83367619D01*
X139533333Y-83462857D01*
X139533333Y-83605714D01*
X139485714Y-83700952D01*
X139438095Y-83748571D01*
X139342857Y-83796190D01*
X138961904Y-83796190D01*
X139866666Y-83272380D02*
X140485714Y-83272380D01*
X140152380Y-83653333D01*
X140295238Y-83653333D01*
X140390476Y-83700952D01*
X140438095Y-83748571D01*
X140485714Y-83843809D01*
X140485714Y-84081904D01*
X140438095Y-84177142D01*
X140390476Y-84224761D01*
X140295238Y-84272380D01*
X140009523Y-84272380D01*
X139914285Y-84224761D01*
X139866666Y-84177142D01*
%TO.C,R2*%
X124293333Y-84272380D02*
X123960000Y-83796190D01*
X123721904Y-84272380D02*
X123721904Y-83272380D01*
X124102857Y-83272380D01*
X124198095Y-83320000D01*
X124245714Y-83367619D01*
X124293333Y-83462857D01*
X124293333Y-83605714D01*
X124245714Y-83700952D01*
X124198095Y-83748571D01*
X124102857Y-83796190D01*
X123721904Y-83796190D01*
X124674285Y-83367619D02*
X124721904Y-83320000D01*
X124817142Y-83272380D01*
X125055238Y-83272380D01*
X125150476Y-83320000D01*
X125198095Y-83367619D01*
X125245714Y-83462857D01*
X125245714Y-83558095D01*
X125198095Y-83700952D01*
X124626666Y-84272380D01*
X125245714Y-84272380D01*
%TO.C,C1*%
X157313333Y-63857142D02*
X157265714Y-63904761D01*
X157122857Y-63952380D01*
X157027619Y-63952380D01*
X156884761Y-63904761D01*
X156789523Y-63809523D01*
X156741904Y-63714285D01*
X156694285Y-63523809D01*
X156694285Y-63380952D01*
X156741904Y-63190476D01*
X156789523Y-63095238D01*
X156884761Y-63000000D01*
X157027619Y-62952380D01*
X157122857Y-62952380D01*
X157265714Y-63000000D01*
X157313333Y-63047619D01*
X158265714Y-63952380D02*
X157694285Y-63952380D01*
X157980000Y-63952380D02*
X157980000Y-62952380D01*
X157884761Y-63095238D01*
X157789523Y-63190476D01*
X157694285Y-63238095D01*
%TO.C,T13*%
X119411904Y-87717380D02*
X119983333Y-87717380D01*
X119697619Y-88717380D02*
X119697619Y-87717380D01*
X120840476Y-88717380D02*
X120269047Y-88717380D01*
X120554761Y-88717380D02*
X120554761Y-87717380D01*
X120459523Y-87860238D01*
X120364285Y-87955476D01*
X120269047Y-88003095D01*
X121173809Y-87717380D02*
X121792857Y-87717380D01*
X121459523Y-88098333D01*
X121602380Y-88098333D01*
X121697619Y-88145952D01*
X121745238Y-88193571D01*
X121792857Y-88288809D01*
X121792857Y-88526904D01*
X121745238Y-88622142D01*
X121697619Y-88669761D01*
X121602380Y-88717380D01*
X121316666Y-88717380D01*
X121221428Y-88669761D01*
X121173809Y-88622142D01*
%TO.C,D6*%
X107211904Y-86812380D02*
X107211904Y-85812380D01*
X107450000Y-85812380D01*
X107592857Y-85860000D01*
X107688095Y-85955238D01*
X107735714Y-86050476D01*
X107783333Y-86240952D01*
X107783333Y-86383809D01*
X107735714Y-86574285D01*
X107688095Y-86669523D01*
X107592857Y-86764761D01*
X107450000Y-86812380D01*
X107211904Y-86812380D01*
X108640476Y-85812380D02*
X108450000Y-85812380D01*
X108354761Y-85860000D01*
X108307142Y-85907619D01*
X108211904Y-86050476D01*
X108164285Y-86240952D01*
X108164285Y-86621904D01*
X108211904Y-86717142D01*
X108259523Y-86764761D01*
X108354761Y-86812380D01*
X108545238Y-86812380D01*
X108640476Y-86764761D01*
X108688095Y-86717142D01*
X108735714Y-86621904D01*
X108735714Y-86383809D01*
X108688095Y-86288571D01*
X108640476Y-86240952D01*
X108545238Y-86193333D01*
X108354761Y-86193333D01*
X108259523Y-86240952D01*
X108211904Y-86288571D01*
X108164285Y-86383809D01*
%TO.C,R6*%
X109053333Y-94432380D02*
X108720000Y-93956190D01*
X108481904Y-94432380D02*
X108481904Y-93432380D01*
X108862857Y-93432380D01*
X108958095Y-93480000D01*
X109005714Y-93527619D01*
X109053333Y-93622857D01*
X109053333Y-93765714D01*
X109005714Y-93860952D01*
X108958095Y-93908571D01*
X108862857Y-93956190D01*
X108481904Y-93956190D01*
X109910476Y-93432380D02*
X109720000Y-93432380D01*
X109624761Y-93480000D01*
X109577142Y-93527619D01*
X109481904Y-93670476D01*
X109434285Y-93860952D01*
X109434285Y-94241904D01*
X109481904Y-94337142D01*
X109529523Y-94384761D01*
X109624761Y-94432380D01*
X109815238Y-94432380D01*
X109910476Y-94384761D01*
X109958095Y-94337142D01*
X110005714Y-94241904D01*
X110005714Y-94003809D01*
X109958095Y-93908571D01*
X109910476Y-93860952D01*
X109815238Y-93813333D01*
X109624761Y-93813333D01*
X109529523Y-93860952D01*
X109481904Y-93908571D01*
X109434285Y-94003809D01*
%TO.C,T10*%
X127031904Y-88987380D02*
X127603333Y-88987380D01*
X127317619Y-89987380D02*
X127317619Y-88987380D01*
X128460476Y-89987380D02*
X127889047Y-89987380D01*
X128174761Y-89987380D02*
X128174761Y-88987380D01*
X128079523Y-89130238D01*
X127984285Y-89225476D01*
X127889047Y-89273095D01*
X129079523Y-88987380D02*
X129174761Y-88987380D01*
X129270000Y-89035000D01*
X129317619Y-89082619D01*
X129365238Y-89177857D01*
X129412857Y-89368333D01*
X129412857Y-89606428D01*
X129365238Y-89796904D01*
X129317619Y-89892142D01*
X129270000Y-89939761D01*
X129174761Y-89987380D01*
X129079523Y-89987380D01*
X128984285Y-89939761D01*
X128936666Y-89892142D01*
X128889047Y-89796904D01*
X128841428Y-89606428D01*
X128841428Y-89368333D01*
X128889047Y-89177857D01*
X128936666Y-89082619D01*
X128984285Y-89035000D01*
X129079523Y-88987380D01*
%TO.C,T0*%
X91948095Y-69302380D02*
X92519523Y-69302380D01*
X92233809Y-70302380D02*
X92233809Y-69302380D01*
X93043333Y-69302380D02*
X93138571Y-69302380D01*
X93233809Y-69350000D01*
X93281428Y-69397619D01*
X93329047Y-69492857D01*
X93376666Y-69683333D01*
X93376666Y-69921428D01*
X93329047Y-70111904D01*
X93281428Y-70207142D01*
X93233809Y-70254761D01*
X93138571Y-70302380D01*
X93043333Y-70302380D01*
X92948095Y-70254761D01*
X92900476Y-70207142D01*
X92852857Y-70111904D01*
X92805238Y-69921428D01*
X92805238Y-69683333D01*
X92852857Y-69492857D01*
X92900476Y-69397619D01*
X92948095Y-69350000D01*
X93043333Y-69302380D01*
%TO.C,R4*%
X139533333Y-94432380D02*
X139200000Y-93956190D01*
X138961904Y-94432380D02*
X138961904Y-93432380D01*
X139342857Y-93432380D01*
X139438095Y-93480000D01*
X139485714Y-93527619D01*
X139533333Y-93622857D01*
X139533333Y-93765714D01*
X139485714Y-93860952D01*
X139438095Y-93908571D01*
X139342857Y-93956190D01*
X138961904Y-93956190D01*
X140390476Y-93765714D02*
X140390476Y-94432380D01*
X140152380Y-93384761D02*
X139914285Y-94099047D01*
X140533333Y-94099047D01*
%TO.C,D3*%
X140231904Y-91892380D02*
X140231904Y-90892380D01*
X140470000Y-90892380D01*
X140612857Y-90940000D01*
X140708095Y-91035238D01*
X140755714Y-91130476D01*
X140803333Y-91320952D01*
X140803333Y-91463809D01*
X140755714Y-91654285D01*
X140708095Y-91749523D01*
X140612857Y-91844761D01*
X140470000Y-91892380D01*
X140231904Y-91892380D01*
X141136666Y-90892380D02*
X141755714Y-90892380D01*
X141422380Y-91273333D01*
X141565238Y-91273333D01*
X141660476Y-91320952D01*
X141708095Y-91368571D01*
X141755714Y-91463809D01*
X141755714Y-91701904D01*
X141708095Y-91797142D01*
X141660476Y-91844761D01*
X141565238Y-91892380D01*
X141279523Y-91892380D01*
X141184285Y-91844761D01*
X141136666Y-91797142D01*
%TO.C,D5*%
X122451904Y-86812380D02*
X122451904Y-85812380D01*
X122690000Y-85812380D01*
X122832857Y-85860000D01*
X122928095Y-85955238D01*
X122975714Y-86050476D01*
X123023333Y-86240952D01*
X123023333Y-86383809D01*
X122975714Y-86574285D01*
X122928095Y-86669523D01*
X122832857Y-86764761D01*
X122690000Y-86812380D01*
X122451904Y-86812380D01*
X123928095Y-85812380D02*
X123451904Y-85812380D01*
X123404285Y-86288571D01*
X123451904Y-86240952D01*
X123547142Y-86193333D01*
X123785238Y-86193333D01*
X123880476Y-86240952D01*
X123928095Y-86288571D01*
X123975714Y-86383809D01*
X123975714Y-86621904D01*
X123928095Y-86717142D01*
X123880476Y-86764761D01*
X123785238Y-86812380D01*
X123547142Y-86812380D01*
X123451904Y-86764761D01*
X123404285Y-86717142D01*
%TO.C,D2*%
X124991904Y-91892380D02*
X124991904Y-90892380D01*
X125230000Y-90892380D01*
X125372857Y-90940000D01*
X125468095Y-91035238D01*
X125515714Y-91130476D01*
X125563333Y-91320952D01*
X125563333Y-91463809D01*
X125515714Y-91654285D01*
X125468095Y-91749523D01*
X125372857Y-91844761D01*
X125230000Y-91892380D01*
X124991904Y-91892380D01*
X125944285Y-90987619D02*
X125991904Y-90940000D01*
X126087142Y-90892380D01*
X126325238Y-90892380D01*
X126420476Y-90940000D01*
X126468095Y-90987619D01*
X126515714Y-91082857D01*
X126515714Y-91178095D01*
X126468095Y-91320952D01*
X125896666Y-91892380D01*
X126515714Y-91892380D01*
%TO.C,F5*%
X118038571Y-107013333D02*
X118038571Y-107346666D01*
X118562380Y-107346666D02*
X117562380Y-107346666D01*
X117562380Y-106870476D01*
X117562380Y-106013333D02*
X117562380Y-106489523D01*
X118038571Y-106537142D01*
X117990952Y-106489523D01*
X117943333Y-106394285D01*
X117943333Y-106156190D01*
X117990952Y-106060952D01*
X118038571Y-106013333D01*
X118133809Y-105965714D01*
X118371904Y-105965714D01*
X118467142Y-106013333D01*
X118514761Y-106060952D01*
X118562380Y-106156190D01*
X118562380Y-106394285D01*
X118514761Y-106489523D01*
X118467142Y-106537142D01*
%TO.C,D7*%
X91971904Y-86812380D02*
X91971904Y-85812380D01*
X92210000Y-85812380D01*
X92352857Y-85860000D01*
X92448095Y-85955238D01*
X92495714Y-86050476D01*
X92543333Y-86240952D01*
X92543333Y-86383809D01*
X92495714Y-86574285D01*
X92448095Y-86669523D01*
X92352857Y-86764761D01*
X92210000Y-86812380D01*
X91971904Y-86812380D01*
X92876666Y-85812380D02*
X93543333Y-85812380D01*
X93114761Y-86812380D01*
%TO.C,T2*%
X122428095Y-69302380D02*
X122999523Y-69302380D01*
X122713809Y-70302380D02*
X122713809Y-69302380D01*
X123285238Y-69397619D02*
X123332857Y-69350000D01*
X123428095Y-69302380D01*
X123666190Y-69302380D01*
X123761428Y-69350000D01*
X123809047Y-69397619D01*
X123856666Y-69492857D01*
X123856666Y-69588095D01*
X123809047Y-69730952D01*
X123237619Y-70302380D01*
X123856666Y-70302380D01*
%TO.C,T6*%
X109728095Y-107402380D02*
X110299523Y-107402380D01*
X110013809Y-108402380D02*
X110013809Y-107402380D01*
X111061428Y-107402380D02*
X110870952Y-107402380D01*
X110775714Y-107450000D01*
X110728095Y-107497619D01*
X110632857Y-107640476D01*
X110585238Y-107830952D01*
X110585238Y-108211904D01*
X110632857Y-108307142D01*
X110680476Y-108354761D01*
X110775714Y-108402380D01*
X110966190Y-108402380D01*
X111061428Y-108354761D01*
X111109047Y-108307142D01*
X111156666Y-108211904D01*
X111156666Y-107973809D01*
X111109047Y-107878571D01*
X111061428Y-107830952D01*
X110966190Y-107783333D01*
X110775714Y-107783333D01*
X110680476Y-107830952D01*
X110632857Y-107878571D01*
X110585238Y-107973809D01*
%TO.C,C0*%
X157313333Y-53697142D02*
X157265714Y-53744761D01*
X157122857Y-53792380D01*
X157027619Y-53792380D01*
X156884761Y-53744761D01*
X156789523Y-53649523D01*
X156741904Y-53554285D01*
X156694285Y-53363809D01*
X156694285Y-53220952D01*
X156741904Y-53030476D01*
X156789523Y-52935238D01*
X156884761Y-52840000D01*
X157027619Y-52792380D01*
X157122857Y-52792380D01*
X157265714Y-52840000D01*
X157313333Y-52887619D01*
X157932380Y-52792380D02*
X158027619Y-52792380D01*
X158122857Y-52840000D01*
X158170476Y-52887619D01*
X158218095Y-52982857D01*
X158265714Y-53173333D01*
X158265714Y-53411428D01*
X158218095Y-53601904D01*
X158170476Y-53697142D01*
X158122857Y-53744761D01*
X158027619Y-53792380D01*
X157932380Y-53792380D01*
X157837142Y-53744761D01*
X157789523Y-53697142D01*
X157741904Y-53601904D01*
X157694285Y-53411428D01*
X157694285Y-53173333D01*
X157741904Y-52982857D01*
X157789523Y-52887619D01*
X157837142Y-52840000D01*
X157932380Y-52792380D01*
%TO.C,R7*%
X93813333Y-94432380D02*
X93480000Y-93956190D01*
X93241904Y-94432380D02*
X93241904Y-93432380D01*
X93622857Y-93432380D01*
X93718095Y-93480000D01*
X93765714Y-93527619D01*
X93813333Y-93622857D01*
X93813333Y-93765714D01*
X93765714Y-93860952D01*
X93718095Y-93908571D01*
X93622857Y-93956190D01*
X93241904Y-93956190D01*
X94146666Y-93432380D02*
X94813333Y-93432380D01*
X94384761Y-94432380D01*
%TO.C,T9*%
X112268095Y-88987380D02*
X112839523Y-88987380D01*
X112553809Y-89987380D02*
X112553809Y-88987380D01*
X113220476Y-89987380D02*
X113410952Y-89987380D01*
X113506190Y-89939761D01*
X113553809Y-89892142D01*
X113649047Y-89749285D01*
X113696666Y-89558809D01*
X113696666Y-89177857D01*
X113649047Y-89082619D01*
X113601428Y-89035000D01*
X113506190Y-88987380D01*
X113315714Y-88987380D01*
X113220476Y-89035000D01*
X113172857Y-89082619D01*
X113125238Y-89177857D01*
X113125238Y-89415952D01*
X113172857Y-89511190D01*
X113220476Y-89558809D01*
X113315714Y-89606428D01*
X113506190Y-89606428D01*
X113601428Y-89558809D01*
X113649047Y-89511190D01*
X113696666Y-89415952D01*
%TO.C,H0*%
X165608095Y-85542380D02*
X165608095Y-84542380D01*
X165608095Y-85018571D02*
X166179523Y-85018571D01*
X166179523Y-85542380D02*
X166179523Y-84542380D01*
X166846190Y-84542380D02*
X166941428Y-84542380D01*
X167036666Y-84590000D01*
X167084285Y-84637619D01*
X167131904Y-84732857D01*
X167179523Y-84923333D01*
X167179523Y-85161428D01*
X167131904Y-85351904D01*
X167084285Y-85447142D01*
X167036666Y-85494761D01*
X166941428Y-85542380D01*
X166846190Y-85542380D01*
X166750952Y-85494761D01*
X166703333Y-85447142D01*
X166655714Y-85351904D01*
X166608095Y-85161428D01*
X166608095Y-84923333D01*
X166655714Y-84732857D01*
X166703333Y-84637619D01*
X166750952Y-84590000D01*
X166846190Y-84542380D01*
%TO.C,T14*%
X104171904Y-87717380D02*
X104743333Y-87717380D01*
X104457619Y-88717380D02*
X104457619Y-87717380D01*
X105600476Y-88717380D02*
X105029047Y-88717380D01*
X105314761Y-88717380D02*
X105314761Y-87717380D01*
X105219523Y-87860238D01*
X105124285Y-87955476D01*
X105029047Y-88003095D01*
X106457619Y-88050714D02*
X106457619Y-88717380D01*
X106219523Y-87669761D02*
X105981428Y-88384047D01*
X106600476Y-88384047D01*
%TO.C,T8*%
X97028095Y-88987380D02*
X97599523Y-88987380D01*
X97313809Y-89987380D02*
X97313809Y-88987380D01*
X98075714Y-89415952D02*
X97980476Y-89368333D01*
X97932857Y-89320714D01*
X97885238Y-89225476D01*
X97885238Y-89177857D01*
X97932857Y-89082619D01*
X97980476Y-89035000D01*
X98075714Y-88987380D01*
X98266190Y-88987380D01*
X98361428Y-89035000D01*
X98409047Y-89082619D01*
X98456666Y-89177857D01*
X98456666Y-89225476D01*
X98409047Y-89320714D01*
X98361428Y-89368333D01*
X98266190Y-89415952D01*
X98075714Y-89415952D01*
X97980476Y-89463571D01*
X97932857Y-89511190D01*
X97885238Y-89606428D01*
X97885238Y-89796904D01*
X97932857Y-89892142D01*
X97980476Y-89939761D01*
X98075714Y-89987380D01*
X98266190Y-89987380D01*
X98361428Y-89939761D01*
X98409047Y-89892142D01*
X98456666Y-89796904D01*
X98456666Y-89606428D01*
X98409047Y-89511190D01*
X98361428Y-89463571D01*
X98266190Y-89415952D01*
%TO.C,T12*%
X134651904Y-87717380D02*
X135223333Y-87717380D01*
X134937619Y-88717380D02*
X134937619Y-87717380D01*
X136080476Y-88717380D02*
X135509047Y-88717380D01*
X135794761Y-88717380D02*
X135794761Y-87717380D01*
X135699523Y-87860238D01*
X135604285Y-87955476D01*
X135509047Y-88003095D01*
X136461428Y-87812619D02*
X136509047Y-87765000D01*
X136604285Y-87717380D01*
X136842380Y-87717380D01*
X136937619Y-87765000D01*
X136985238Y-87812619D01*
X137032857Y-87907857D01*
X137032857Y-88003095D01*
X136985238Y-88145952D01*
X136413809Y-88717380D01*
X137032857Y-88717380D01*
%TO.C,T11*%
X142271904Y-88987380D02*
X142843333Y-88987380D01*
X142557619Y-89987380D02*
X142557619Y-88987380D01*
X143700476Y-89987380D02*
X143129047Y-89987380D01*
X143414761Y-89987380D02*
X143414761Y-88987380D01*
X143319523Y-89130238D01*
X143224285Y-89225476D01*
X143129047Y-89273095D01*
X144652857Y-89987380D02*
X144081428Y-89987380D01*
X144367142Y-89987380D02*
X144367142Y-88987380D01*
X144271904Y-89130238D01*
X144176666Y-89225476D01*
X144081428Y-89273095D01*
%TO.C,F1*%
X115498571Y-71453333D02*
X115498571Y-71786666D01*
X116022380Y-71786666D02*
X115022380Y-71786666D01*
X115022380Y-71310476D01*
X116022380Y-70405714D02*
X116022380Y-70977142D01*
X116022380Y-70691428D02*
X115022380Y-70691428D01*
X115165238Y-70786666D01*
X115260476Y-70881904D01*
X115308095Y-70977142D01*
%TO.C,R0*%
X93813333Y-84272380D02*
X93480000Y-83796190D01*
X93241904Y-84272380D02*
X93241904Y-83272380D01*
X93622857Y-83272380D01*
X93718095Y-83320000D01*
X93765714Y-83367619D01*
X93813333Y-83462857D01*
X93813333Y-83605714D01*
X93765714Y-83700952D01*
X93718095Y-83748571D01*
X93622857Y-83796190D01*
X93241904Y-83796190D01*
X94432380Y-83272380D02*
X94527619Y-83272380D01*
X94622857Y-83320000D01*
X94670476Y-83367619D01*
X94718095Y-83462857D01*
X94765714Y-83653333D01*
X94765714Y-83891428D01*
X94718095Y-84081904D01*
X94670476Y-84177142D01*
X94622857Y-84224761D01*
X94527619Y-84272380D01*
X94432380Y-84272380D01*
X94337142Y-84224761D01*
X94289523Y-84177142D01*
X94241904Y-84081904D01*
X94194285Y-83891428D01*
X94194285Y-83653333D01*
X94241904Y-83462857D01*
X94289523Y-83367619D01*
X94337142Y-83320000D01*
X94432380Y-83272380D01*
%TO.C,D0*%
X94511904Y-91892380D02*
X94511904Y-90892380D01*
X94750000Y-90892380D01*
X94892857Y-90940000D01*
X94988095Y-91035238D01*
X95035714Y-91130476D01*
X95083333Y-91320952D01*
X95083333Y-91463809D01*
X95035714Y-91654285D01*
X94988095Y-91749523D01*
X94892857Y-91844761D01*
X94750000Y-91892380D01*
X94511904Y-91892380D01*
X95702380Y-90892380D02*
X95797619Y-90892380D01*
X95892857Y-90940000D01*
X95940476Y-90987619D01*
X95988095Y-91082857D01*
X96035714Y-91273333D01*
X96035714Y-91511428D01*
X95988095Y-91701904D01*
X95940476Y-91797142D01*
X95892857Y-91844761D01*
X95797619Y-91892380D01*
X95702380Y-91892380D01*
X95607142Y-91844761D01*
X95559523Y-91797142D01*
X95511904Y-91701904D01*
X95464285Y-91511428D01*
X95464285Y-91273333D01*
X95511904Y-91082857D01*
X95559523Y-90987619D01*
X95607142Y-90940000D01*
X95702380Y-90892380D01*
%TO.C,F0*%
X100258571Y-71453333D02*
X100258571Y-71786666D01*
X100782380Y-71786666D02*
X99782380Y-71786666D01*
X99782380Y-71310476D01*
X99782380Y-70739047D02*
X99782380Y-70643809D01*
X99830000Y-70548571D01*
X99877619Y-70500952D01*
X99972857Y-70453333D01*
X100163333Y-70405714D01*
X100401428Y-70405714D01*
X100591904Y-70453333D01*
X100687142Y-70500952D01*
X100734761Y-70548571D01*
X100782380Y-70643809D01*
X100782380Y-70739047D01*
X100734761Y-70834285D01*
X100687142Y-70881904D01*
X100591904Y-70929523D01*
X100401428Y-70977142D01*
X100163333Y-70977142D01*
X99972857Y-70929523D01*
X99877619Y-70881904D01*
X99830000Y-70834285D01*
X99782380Y-70739047D01*
%TO.C,R8*%
X157313333Y-77922380D02*
X156980000Y-77446190D01*
X156741904Y-77922380D02*
X156741904Y-76922380D01*
X157122857Y-76922380D01*
X157218095Y-76970000D01*
X157265714Y-77017619D01*
X157313333Y-77112857D01*
X157313333Y-77255714D01*
X157265714Y-77350952D01*
X157218095Y-77398571D01*
X157122857Y-77446190D01*
X156741904Y-77446190D01*
X157884761Y-77350952D02*
X157789523Y-77303333D01*
X157741904Y-77255714D01*
X157694285Y-77160476D01*
X157694285Y-77112857D01*
X157741904Y-77017619D01*
X157789523Y-76970000D01*
X157884761Y-76922380D01*
X158075238Y-76922380D01*
X158170476Y-76970000D01*
X158218095Y-77017619D01*
X158265714Y-77112857D01*
X158265714Y-77160476D01*
X158218095Y-77255714D01*
X158170476Y-77303333D01*
X158075238Y-77350952D01*
X157884761Y-77350952D01*
X157789523Y-77398571D01*
X157741904Y-77446190D01*
X157694285Y-77541428D01*
X157694285Y-77731904D01*
X157741904Y-77827142D01*
X157789523Y-77874761D01*
X157884761Y-77922380D01*
X158075238Y-77922380D01*
X158170476Y-77874761D01*
X158218095Y-77827142D01*
X158265714Y-77731904D01*
X158265714Y-77541428D01*
X158218095Y-77446190D01*
X158170476Y-77398571D01*
X158075238Y-77350952D01*
%TO.C,F6*%
X102798571Y-107013333D02*
X102798571Y-107346666D01*
X103322380Y-107346666D02*
X102322380Y-107346666D01*
X102322380Y-106870476D01*
X102322380Y-106060952D02*
X102322380Y-106251428D01*
X102370000Y-106346666D01*
X102417619Y-106394285D01*
X102560476Y-106489523D01*
X102750952Y-106537142D01*
X103131904Y-106537142D01*
X103227142Y-106489523D01*
X103274761Y-106441904D01*
X103322380Y-106346666D01*
X103322380Y-106156190D01*
X103274761Y-106060952D01*
X103227142Y-106013333D01*
X103131904Y-105965714D01*
X102893809Y-105965714D01*
X102798571Y-106013333D01*
X102750952Y-106060952D01*
X102703333Y-106156190D01*
X102703333Y-106346666D01*
X102750952Y-106441904D01*
X102798571Y-106489523D01*
X102893809Y-106537142D01*
D13*
%TO.C,D4*%
X132080000Y-85090000D02*
X137160000Y-85090000D01*
X132334000Y-85598000D02*
X132334000Y-85852000D01*
X136652000Y-85725000D02*
X136779000Y-85598000D01*
X136652000Y-85725000D02*
X136652000Y-85852000D01*
X136652000Y-85344000D02*
X136906000Y-85344000D01*
X136779000Y-85598000D02*
X136906000Y-85725000D01*
X134289800Y-86360000D02*
X134924800Y-86995000D01*
X132334000Y-85852000D02*
X132588000Y-85852000D01*
X132334000Y-85598000D02*
X132588000Y-85598000D01*
X134924800Y-85725000D02*
X134289800Y-86360000D01*
X132334000Y-85344000D02*
X132588000Y-85344000D01*
X136652000Y-85725000D02*
X136906000Y-85725000D01*
X134289800Y-86995000D02*
X134289800Y-85725000D01*
X137160000Y-87630000D02*
X132080000Y-87630000D01*
X134924800Y-86995000D02*
X134924800Y-85725000D01*
X132080000Y-87630000D02*
X132080000Y-85090000D01*
X136779000Y-85217000D02*
X136779000Y-85471000D01*
X137160000Y-85090000D02*
X137160000Y-87630000D01*
X136906000Y-85725000D02*
X136906000Y-85852000D01*
%TO.C,T4*%
X134620000Y-109220000D02*
X147320000Y-109220000D01*
X134620000Y-100330000D02*
X134620000Y-95250000D01*
X134620000Y-118110000D02*
X134620000Y-100330000D01*
X143510000Y-100330000D02*
X143510000Y-97790000D01*
X147320000Y-100330000D02*
X147320000Y-95250000D01*
X140970000Y-100330000D02*
X140970000Y-97790000D01*
X147320000Y-95250000D02*
X134620000Y-95250000D01*
X147320000Y-100330000D02*
X147320000Y-118110000D01*
X147320000Y-118110000D02*
X134620000Y-118110000D01*
X134620000Y-100330000D02*
X147320000Y-100330000D01*
X138430000Y-100330000D02*
X138430000Y-97790000D01*
%TO.C,F3*%
X147320000Y-59690000D02*
X147320000Y-85090000D01*
X144780000Y-59690000D02*
X147320000Y-59690000D01*
X147320000Y-85090000D02*
X144780000Y-85090000D01*
X144780000Y-85090000D02*
X144780000Y-59690000D01*
%TO.C,D1*%
X112268000Y-92075000D02*
X112268000Y-91948000D01*
X116586000Y-92202000D02*
X116586000Y-91948000D01*
X112014000Y-92075000D02*
X112014000Y-91948000D01*
X113995200Y-92075000D02*
X114630200Y-91440000D01*
X112268000Y-92075000D02*
X112014000Y-92075000D01*
X112268000Y-92456000D02*
X112014000Y-92456000D01*
X114630200Y-91440000D02*
X113995200Y-90805000D01*
X113995200Y-90805000D02*
X113995200Y-92075000D01*
X111760000Y-90170000D02*
X116840000Y-90170000D01*
X116586000Y-92456000D02*
X116332000Y-92456000D01*
X116840000Y-90170000D02*
X116840000Y-92710000D01*
X112141000Y-92202000D02*
X112014000Y-92075000D01*
X111760000Y-92710000D02*
X111760000Y-90170000D01*
X116586000Y-92202000D02*
X116332000Y-92202000D01*
X112268000Y-92075000D02*
X112141000Y-92202000D01*
X112141000Y-92583000D02*
X112141000Y-92329000D01*
X116840000Y-92710000D02*
X111760000Y-92710000D01*
X116586000Y-91948000D02*
X116332000Y-91948000D01*
X114630200Y-90805000D02*
X114630200Y-92075000D01*
%TO.C,D8*%
X158750000Y-74930000D02*
X158115000Y-74930000D01*
X158750000Y-75565000D02*
X159385000Y-74930000D01*
X158750000Y-74295000D02*
X158750000Y-75565000D01*
X158242000Y-74549000D02*
X158242000Y-74422000D01*
X152400000Y-76200000D02*
X152400000Y-73660000D01*
X158496000Y-74549000D02*
X158242000Y-74549000D01*
X158369000Y-75438000D02*
X158369000Y-75184000D01*
X152400000Y-73660000D02*
X162560000Y-73660000D01*
X158496000Y-74549000D02*
X158496000Y-74422000D01*
X159385000Y-74930000D02*
X158750000Y-74295000D01*
X159893000Y-74676000D02*
X159893000Y-74422000D01*
X158496000Y-74549000D02*
X158369000Y-74676000D01*
X159385000Y-74295000D02*
X159385000Y-75565000D01*
X158369000Y-74676000D02*
X158242000Y-74549000D01*
X159893000Y-74422000D02*
X159639000Y-74422000D01*
X159893000Y-74676000D02*
X159639000Y-74676000D01*
X162560000Y-76200000D02*
X152400000Y-76200000D01*
X159893000Y-75311000D02*
X159639000Y-75311000D01*
X158496000Y-75311000D02*
X158242000Y-75311000D01*
X159385000Y-74930000D02*
X160020000Y-74930000D01*
X162560000Y-73660000D02*
X162560000Y-76200000D01*
%TO.C,C2*%
X153670000Y-73660000D02*
X153670000Y-71120000D01*
X161290000Y-71120000D02*
X161290000Y-73660000D01*
X161290000Y-73660000D02*
X153670000Y-73660000D01*
X153670000Y-71120000D02*
X161290000Y-71120000D01*
%TO.C,IC0*%
X162560000Y-106680000D02*
X162560000Y-86360000D01*
X162560000Y-86360000D02*
X152400000Y-86360000D01*
X152400000Y-86360000D02*
X152400000Y-106680000D01*
X152400000Y-106680000D02*
X162560000Y-106680000D01*
X156210000Y-86360000D02*
G75*
G03*
X158750000Y-86360000I1270000J0D01*
G01*
%TO.C,F4*%
X134620000Y-118110000D02*
X132080000Y-118110000D01*
X134620000Y-92710000D02*
X134620000Y-118110000D01*
X132080000Y-118110000D02*
X132080000Y-92710000D01*
X132080000Y-92710000D02*
X134620000Y-92710000D01*
%TO.C,T1*%
X114300000Y-68580000D02*
X101600000Y-68580000D01*
X101600000Y-77470000D02*
X101600000Y-82550000D01*
X114300000Y-77470000D02*
X114300000Y-82550000D01*
X101600000Y-77470000D02*
X101600000Y-59690000D01*
X101600000Y-59690000D02*
X114300000Y-59690000D01*
X101600000Y-82550000D02*
X114300000Y-82550000D01*
X110490000Y-77470000D02*
X110490000Y-80010000D01*
X107950000Y-77470000D02*
X107950000Y-80010000D01*
X105410000Y-77470000D02*
X105410000Y-80010000D01*
X114300000Y-77470000D02*
X101600000Y-77470000D01*
X114300000Y-59690000D02*
X114300000Y-77470000D01*
%TO.C,F2*%
X132080000Y-59690000D02*
X132080000Y-85090000D01*
X129540000Y-85090000D02*
X129540000Y-59690000D01*
X132080000Y-85090000D02*
X129540000Y-85090000D01*
X129540000Y-59690000D02*
X132080000Y-59690000D01*
%TO.C,H1*%
X127000000Y-59690000D02*
X106680000Y-59690000D01*
X127000000Y-50800000D02*
X106680000Y-50800000D01*
X127000000Y-52070000D02*
X106680000Y-52070000D01*
X106680000Y-59690000D02*
X106680000Y-50800000D01*
X127000000Y-50800000D02*
X127000000Y-59690000D01*
%TO.C,T5*%
X123190000Y-100330000D02*
X123190000Y-97790000D01*
X132080000Y-100330000D02*
X132080000Y-95250000D01*
X119380000Y-100330000D02*
X132080000Y-100330000D01*
X132080000Y-118110000D02*
X119380000Y-118110000D01*
X119380000Y-109220000D02*
X132080000Y-109220000D01*
X119380000Y-100330000D02*
X119380000Y-95250000D01*
X132080000Y-95250000D02*
X119380000Y-95250000D01*
X125730000Y-100330000D02*
X125730000Y-97790000D01*
X128270000Y-100330000D02*
X128270000Y-97790000D01*
X132080000Y-100330000D02*
X132080000Y-118110000D01*
X119380000Y-118110000D02*
X119380000Y-100330000D01*
%TO.C,H2*%
X106680000Y-127000000D02*
X106680000Y-118110000D01*
X106680000Y-118110000D02*
X127000000Y-118110000D01*
X106680000Y-127000000D02*
X127000000Y-127000000D01*
X127000000Y-118110000D02*
X127000000Y-127000000D01*
X106680000Y-125730000D02*
X127000000Y-125730000D01*
%TO.C,T7*%
X101600000Y-100330000D02*
X101600000Y-95250000D01*
X88900000Y-118110000D02*
X88900000Y-100330000D01*
X88900000Y-109220000D02*
X101600000Y-109220000D01*
X88900000Y-100330000D02*
X101600000Y-100330000D01*
X101600000Y-118110000D02*
X88900000Y-118110000D01*
X101600000Y-95250000D02*
X88900000Y-95250000D01*
X92710000Y-100330000D02*
X92710000Y-97790000D01*
X88900000Y-100330000D02*
X88900000Y-95250000D01*
X101600000Y-100330000D02*
X101600000Y-118110000D01*
X95250000Y-100330000D02*
X95250000Y-97790000D01*
X97790000Y-100330000D02*
X97790000Y-97790000D01*
%TO.C,R5*%
X119380000Y-95250000D02*
X119380000Y-92710000D01*
X129540000Y-92710000D02*
X129540000Y-95250000D01*
X119380000Y-92710000D02*
X129540000Y-92710000D01*
X129540000Y-95250000D02*
X119380000Y-95250000D01*
%TO.C,T15*%
X93980000Y-92710000D02*
X86360000Y-92710000D01*
X90805000Y-91440000D02*
X89535000Y-91440000D01*
X93980000Y-87630000D02*
X93980000Y-92710000D01*
X86360000Y-92710000D02*
X86360000Y-87630000D01*
X86360000Y-87630000D02*
X93980000Y-87630000D01*
X89535000Y-91440000D02*
G75*
G03*
X90805000Y-91440000I635000J0D01*
G01*
%TO.C,T3*%
X144780000Y-77470000D02*
X144780000Y-82550000D01*
X144780000Y-77470000D02*
X132080000Y-77470000D01*
X132080000Y-77470000D02*
X132080000Y-82550000D01*
X140970000Y-77470000D02*
X140970000Y-80010000D01*
X135890000Y-77470000D02*
X135890000Y-80010000D01*
X132080000Y-82550000D02*
X144780000Y-82550000D01*
X132080000Y-77470000D02*
X132080000Y-59690000D01*
X144780000Y-68580000D02*
X132080000Y-68580000D01*
X138430000Y-77470000D02*
X138430000Y-80010000D01*
X132080000Y-59690000D02*
X144780000Y-59690000D01*
X144780000Y-59690000D02*
X144780000Y-77470000D01*
%TO.C,R1*%
X114300000Y-82550000D02*
X114300000Y-85090000D01*
X114300000Y-85090000D02*
X104140000Y-85090000D01*
X104140000Y-82550000D02*
X114300000Y-82550000D01*
X104140000Y-85090000D02*
X104140000Y-82550000D01*
%TO.C,D9*%
X155321000Y-81153000D02*
X155321000Y-80899000D01*
X155448000Y-80645000D02*
X155321000Y-80772000D01*
X155194000Y-80645000D02*
X155194000Y-80518000D01*
X155448000Y-81026000D02*
X155194000Y-81026000D01*
X159766000Y-81026000D02*
X159512000Y-81026000D01*
X154940000Y-81280000D02*
X154940000Y-78740000D01*
X160020000Y-78740000D02*
X160020000Y-81280000D01*
X155448000Y-80645000D02*
X155194000Y-80645000D01*
X159766000Y-80772000D02*
X159766000Y-80518000D01*
X159766000Y-80772000D02*
X159512000Y-80772000D01*
X155448000Y-80645000D02*
X155448000Y-80518000D01*
X154940000Y-78740000D02*
X160020000Y-78740000D01*
X159766000Y-80518000D02*
X159512000Y-80518000D01*
X157175200Y-79375000D02*
X157175200Y-80645000D01*
X157810200Y-80010000D02*
X157175200Y-79375000D01*
X157175200Y-80645000D02*
X157810200Y-80010000D01*
X157810200Y-79375000D02*
X157810200Y-80645000D01*
X160020000Y-81280000D02*
X154940000Y-81280000D01*
X155321000Y-80772000D02*
X155194000Y-80645000D01*
%TO.C,F7*%
X86360000Y-92710000D02*
X88900000Y-92710000D01*
X86360000Y-118110000D02*
X86360000Y-92710000D01*
X88900000Y-92710000D02*
X88900000Y-118110000D01*
X88900000Y-118110000D02*
X86360000Y-118110000D01*
%TO.C,R3*%
X134620000Y-82550000D02*
X144780000Y-82550000D01*
X144780000Y-82550000D02*
X144780000Y-85090000D01*
X134620000Y-85090000D02*
X134620000Y-82550000D01*
X144780000Y-85090000D02*
X134620000Y-85090000D01*
%TO.C,R2*%
X119380000Y-85090000D02*
X119380000Y-82550000D01*
X129540000Y-85090000D02*
X119380000Y-85090000D01*
X129540000Y-82550000D02*
X129540000Y-85090000D01*
X119380000Y-82550000D02*
X129540000Y-82550000D01*
%TO.C,C1*%
X154940000Y-66040000D02*
X153670000Y-66040000D01*
X162560000Y-66040000D02*
G75*
G03*
X162560000Y-66040000I-5080000J0D01*
G01*
%TO.C,T13*%
X124460000Y-92710000D02*
X116840000Y-92710000D01*
X116840000Y-92710000D02*
X116840000Y-87630000D01*
X124460000Y-87630000D02*
X124460000Y-92710000D01*
X116840000Y-87630000D02*
X124460000Y-87630000D01*
X121285000Y-91440000D02*
X120015000Y-91440000D01*
X120015000Y-91440000D02*
G75*
G03*
X121285000Y-91440000I635000J0D01*
G01*
%TO.C,D6*%
X101600000Y-87630000D02*
X101600000Y-85090000D01*
X101854000Y-85598000D02*
X101854000Y-85852000D01*
X103809800Y-86995000D02*
X103809800Y-85725000D01*
X106172000Y-85344000D02*
X106426000Y-85344000D01*
X106172000Y-85725000D02*
X106426000Y-85725000D01*
X104444800Y-85725000D02*
X103809800Y-86360000D01*
X103809800Y-86360000D02*
X104444800Y-86995000D01*
X101854000Y-85598000D02*
X102108000Y-85598000D01*
X106172000Y-85725000D02*
X106299000Y-85598000D01*
X101854000Y-85344000D02*
X102108000Y-85344000D01*
X106426000Y-85725000D02*
X106426000Y-85852000D01*
X106299000Y-85598000D02*
X106426000Y-85725000D01*
X106680000Y-87630000D02*
X101600000Y-87630000D01*
X101854000Y-85852000D02*
X102108000Y-85852000D01*
X106680000Y-85090000D02*
X106680000Y-87630000D01*
X101600000Y-85090000D02*
X106680000Y-85090000D01*
X106172000Y-85725000D02*
X106172000Y-85852000D01*
X106299000Y-85217000D02*
X106299000Y-85471000D01*
X104444800Y-86995000D02*
X104444800Y-85725000D01*
%TO.C,R6*%
X104140000Y-92710000D02*
X114300000Y-92710000D01*
X104140000Y-95250000D02*
X104140000Y-92710000D01*
X114300000Y-95250000D02*
X104140000Y-95250000D01*
X114300000Y-92710000D02*
X114300000Y-95250000D01*
%TO.C,T10*%
X132080000Y-90170000D02*
X124460000Y-90170000D01*
X124460000Y-85090000D02*
X132080000Y-85090000D01*
X132080000Y-85090000D02*
X132080000Y-90170000D01*
X127635000Y-86360000D02*
X128905000Y-86360000D01*
X124460000Y-90170000D02*
X124460000Y-85090000D01*
X128905000Y-86360000D02*
G75*
G03*
X127635000Y-86360000I-635000J0D01*
G01*
%TO.C,T0*%
X99060000Y-68580000D02*
X86360000Y-68580000D01*
X92710000Y-77470000D02*
X92710000Y-80010000D01*
X90170000Y-77470000D02*
X90170000Y-80010000D01*
X86360000Y-59690000D02*
X99060000Y-59690000D01*
X95250000Y-77470000D02*
X95250000Y-80010000D01*
X99060000Y-77470000D02*
X86360000Y-77470000D01*
X99060000Y-59690000D02*
X99060000Y-77470000D01*
X86360000Y-77470000D02*
X86360000Y-59690000D01*
X99060000Y-77470000D02*
X99060000Y-82550000D01*
X86360000Y-82550000D02*
X99060000Y-82550000D01*
X86360000Y-77470000D02*
X86360000Y-82550000D01*
%TO.C,R4*%
X134620000Y-95250000D02*
X134620000Y-92710000D01*
X144780000Y-95250000D02*
X134620000Y-95250000D01*
X144780000Y-92710000D02*
X144780000Y-95250000D01*
X134620000Y-92710000D02*
X144780000Y-92710000D01*
%TO.C,D3*%
X142748000Y-92075000D02*
X142748000Y-91948000D01*
X142621000Y-92202000D02*
X142494000Y-92075000D01*
X142240000Y-90170000D02*
X147320000Y-90170000D01*
X145110200Y-91440000D02*
X144475200Y-90805000D01*
X142240000Y-92710000D02*
X142240000Y-90170000D01*
X145110200Y-90805000D02*
X145110200Y-92075000D01*
X147066000Y-92202000D02*
X147066000Y-91948000D01*
X142494000Y-92075000D02*
X142494000Y-91948000D01*
X142748000Y-92075000D02*
X142494000Y-92075000D01*
X147066000Y-92456000D02*
X146812000Y-92456000D01*
X144475200Y-90805000D02*
X144475200Y-92075000D01*
X147066000Y-92202000D02*
X146812000Y-92202000D01*
X147320000Y-90170000D02*
X147320000Y-92710000D01*
X142748000Y-92456000D02*
X142494000Y-92456000D01*
X147320000Y-92710000D02*
X142240000Y-92710000D01*
X147066000Y-91948000D02*
X146812000Y-91948000D01*
X142621000Y-92583000D02*
X142621000Y-92329000D01*
X142748000Y-92075000D02*
X142621000Y-92202000D01*
X144475200Y-92075000D02*
X145110200Y-91440000D01*
%TO.C,D5*%
X121412000Y-85725000D02*
X121539000Y-85598000D01*
X117094000Y-85344000D02*
X117348000Y-85344000D01*
X121539000Y-85598000D02*
X121666000Y-85725000D01*
X121412000Y-85725000D02*
X121412000Y-85852000D01*
X119049800Y-86995000D02*
X119049800Y-85725000D01*
X121920000Y-87630000D02*
X116840000Y-87630000D01*
X121412000Y-85725000D02*
X121666000Y-85725000D01*
X119049800Y-86360000D02*
X119684800Y-86995000D01*
X119684800Y-86995000D02*
X119684800Y-85725000D01*
X119684800Y-85725000D02*
X119049800Y-86360000D01*
X117094000Y-85852000D02*
X117348000Y-85852000D01*
X121412000Y-85344000D02*
X121666000Y-85344000D01*
X121539000Y-85217000D02*
X121539000Y-85471000D01*
X116840000Y-85090000D02*
X121920000Y-85090000D01*
X121666000Y-85725000D02*
X121666000Y-85852000D01*
X117094000Y-85598000D02*
X117094000Y-85852000D01*
X117094000Y-85598000D02*
X117348000Y-85598000D01*
X121920000Y-85090000D02*
X121920000Y-87630000D01*
X116840000Y-87630000D02*
X116840000Y-85090000D01*
%TO.C,D2*%
X127508000Y-92075000D02*
X127508000Y-91948000D01*
X127254000Y-92075000D02*
X127254000Y-91948000D01*
X132080000Y-92710000D02*
X127000000Y-92710000D01*
X127381000Y-92583000D02*
X127381000Y-92329000D01*
X129235200Y-90805000D02*
X129235200Y-92075000D01*
X132080000Y-90170000D02*
X132080000Y-92710000D01*
X127381000Y-92202000D02*
X127254000Y-92075000D01*
X127508000Y-92075000D02*
X127381000Y-92202000D01*
X127508000Y-92075000D02*
X127254000Y-92075000D01*
X129870200Y-91440000D02*
X129235200Y-90805000D01*
X127508000Y-92456000D02*
X127254000Y-92456000D01*
X127000000Y-92710000D02*
X127000000Y-90170000D01*
X129235200Y-92075000D02*
X129870200Y-91440000D01*
X131826000Y-92202000D02*
X131572000Y-92202000D01*
X131826000Y-92456000D02*
X131572000Y-92456000D01*
X131826000Y-92202000D02*
X131826000Y-91948000D01*
X127000000Y-90170000D02*
X132080000Y-90170000D01*
X131826000Y-91948000D02*
X131572000Y-91948000D01*
X129870200Y-90805000D02*
X129870200Y-92075000D01*
%TO.C,F5*%
X116840000Y-118110000D02*
X116840000Y-92710000D01*
X119380000Y-118110000D02*
X116840000Y-118110000D01*
X116840000Y-92710000D02*
X119380000Y-92710000D01*
X119380000Y-92710000D02*
X119380000Y-118110000D01*
%TO.C,D7*%
X88569800Y-86360000D02*
X89204800Y-86995000D01*
X86360000Y-87630000D02*
X86360000Y-85090000D01*
X86360000Y-85090000D02*
X91440000Y-85090000D01*
X90932000Y-85725000D02*
X91059000Y-85598000D01*
X90932000Y-85725000D02*
X90932000Y-85852000D01*
X91440000Y-85090000D02*
X91440000Y-87630000D01*
X86614000Y-85598000D02*
X86868000Y-85598000D01*
X89204800Y-86995000D02*
X89204800Y-85725000D01*
X91186000Y-85725000D02*
X91186000Y-85852000D01*
X90932000Y-85725000D02*
X91186000Y-85725000D01*
X91059000Y-85217000D02*
X91059000Y-85471000D01*
X86614000Y-85344000D02*
X86868000Y-85344000D01*
X88569800Y-86995000D02*
X88569800Y-85725000D01*
X86614000Y-85852000D02*
X86868000Y-85852000D01*
X86614000Y-85598000D02*
X86614000Y-85852000D01*
X89204800Y-85725000D02*
X88569800Y-86360000D01*
X90932000Y-85344000D02*
X91186000Y-85344000D01*
X91440000Y-87630000D02*
X86360000Y-87630000D01*
X91059000Y-85598000D02*
X91186000Y-85725000D01*
%TO.C,T2*%
X129540000Y-77470000D02*
X116840000Y-77470000D01*
X125730000Y-77470000D02*
X125730000Y-80010000D01*
X129540000Y-77470000D02*
X129540000Y-82550000D01*
X120650000Y-77470000D02*
X120650000Y-80010000D01*
X116840000Y-77470000D02*
X116840000Y-82550000D01*
X116840000Y-82550000D02*
X129540000Y-82550000D01*
X116840000Y-59690000D02*
X129540000Y-59690000D01*
X129540000Y-59690000D02*
X129540000Y-77470000D01*
X129540000Y-68580000D02*
X116840000Y-68580000D01*
X123190000Y-77470000D02*
X123190000Y-80010000D01*
X116840000Y-77470000D02*
X116840000Y-59690000D01*
%TO.C,T6*%
X116840000Y-100330000D02*
X116840000Y-95250000D01*
X116840000Y-118110000D02*
X104140000Y-118110000D01*
X107950000Y-100330000D02*
X107950000Y-97790000D01*
X104140000Y-109220000D02*
X116840000Y-109220000D01*
X110490000Y-100330000D02*
X110490000Y-97790000D01*
X116840000Y-95250000D02*
X104140000Y-95250000D01*
X116840000Y-100330000D02*
X116840000Y-118110000D01*
X113030000Y-100330000D02*
X113030000Y-97790000D01*
X104140000Y-118110000D02*
X104140000Y-100330000D01*
X104140000Y-100330000D02*
X104140000Y-95250000D01*
X104140000Y-100330000D02*
X116840000Y-100330000D01*
%TO.C,C0*%
X154940000Y-55880000D02*
X153670000Y-55880000D01*
X162560000Y-55880000D02*
G75*
G03*
X162560000Y-55880000I-5080000J0D01*
G01*
%TO.C,R7*%
X99060000Y-95250000D02*
X88900000Y-95250000D01*
X88900000Y-95250000D02*
X88900000Y-92710000D01*
X88900000Y-92710000D02*
X99060000Y-92710000D01*
X99060000Y-92710000D02*
X99060000Y-95250000D01*
%TO.C,T9*%
X109220000Y-90170000D02*
X109220000Y-85090000D01*
X112395000Y-86360000D02*
X113665000Y-86360000D01*
X116840000Y-85090000D02*
X116840000Y-90170000D01*
X116840000Y-90170000D02*
X109220000Y-90170000D01*
X109220000Y-85090000D02*
X116840000Y-85090000D01*
X113665000Y-86360000D02*
G75*
G03*
X112395000Y-86360000I-635000J0D01*
G01*
%TO.C,H0*%
X167640000Y-106680000D02*
X165100000Y-106680000D01*
X165100000Y-106680000D02*
X165100000Y-86360000D01*
X167640000Y-86360000D02*
X167640000Y-106680000D01*
X165100000Y-86360000D02*
X167640000Y-86360000D01*
%TO.C,T14*%
X101600000Y-87630000D02*
X109220000Y-87630000D01*
X109220000Y-87630000D02*
X109220000Y-92710000D01*
X109220000Y-92710000D02*
X101600000Y-92710000D01*
X106045000Y-91440000D02*
X104775000Y-91440000D01*
X101600000Y-92710000D02*
X101600000Y-87630000D01*
X104775000Y-91440000D02*
G75*
G03*
X106045000Y-91440000I635000J0D01*
G01*
%TO.C,T8*%
X101600000Y-90170000D02*
X93980000Y-90170000D01*
X97155000Y-86360000D02*
X98425000Y-86360000D01*
X93980000Y-90170000D02*
X93980000Y-85090000D01*
X93980000Y-85090000D02*
X101600000Y-85090000D01*
X101600000Y-85090000D02*
X101600000Y-90170000D01*
X98425000Y-86360000D02*
G75*
G03*
X97155000Y-86360000I-635000J0D01*
G01*
%TO.C,T12*%
X132080000Y-92710000D02*
X132080000Y-87630000D01*
X132080000Y-87630000D02*
X139700000Y-87630000D01*
X136525000Y-91440000D02*
X135255000Y-91440000D01*
X139700000Y-92710000D02*
X132080000Y-92710000D01*
X139700000Y-87630000D02*
X139700000Y-92710000D01*
X135255000Y-91440000D02*
G75*
G03*
X136525000Y-91440000I635000J0D01*
G01*
%TO.C,T11*%
X147320000Y-90170000D02*
X139700000Y-90170000D01*
X139700000Y-85090000D02*
X147320000Y-85090000D01*
X147320000Y-85090000D02*
X147320000Y-90170000D01*
X142875000Y-86360000D02*
X144145000Y-86360000D01*
X139700000Y-90170000D02*
X139700000Y-85090000D01*
X144145000Y-86360000D02*
G75*
G03*
X142875000Y-86360000I-635000J0D01*
G01*
%TO.C,F1*%
X114300000Y-59690000D02*
X116840000Y-59690000D01*
X114300000Y-85090000D02*
X114300000Y-59690000D01*
X116840000Y-59690000D02*
X116840000Y-85090000D01*
X116840000Y-85090000D02*
X114300000Y-85090000D01*
%TO.C,R0*%
X88900000Y-85090000D02*
X88900000Y-82550000D01*
X88900000Y-82550000D02*
X99060000Y-82550000D01*
X99060000Y-85090000D02*
X88900000Y-85090000D01*
X99060000Y-82550000D02*
X99060000Y-85090000D01*
%TO.C,D0*%
X99390200Y-91440000D02*
X98755200Y-90805000D01*
X101346000Y-92456000D02*
X101092000Y-92456000D01*
X98755200Y-90805000D02*
X98755200Y-92075000D01*
X101346000Y-92202000D02*
X101092000Y-92202000D01*
X97028000Y-92075000D02*
X97028000Y-91948000D01*
X101600000Y-90170000D02*
X101600000Y-92710000D01*
X96901000Y-92202000D02*
X96774000Y-92075000D01*
X97028000Y-92075000D02*
X96774000Y-92075000D01*
X99390200Y-90805000D02*
X99390200Y-92075000D01*
X96901000Y-92583000D02*
X96901000Y-92329000D01*
X97028000Y-92075000D02*
X96901000Y-92202000D01*
X96520000Y-92710000D02*
X96520000Y-90170000D01*
X97028000Y-92456000D02*
X96774000Y-92456000D01*
X101346000Y-92202000D02*
X101346000Y-91948000D01*
X96520000Y-90170000D02*
X101600000Y-90170000D01*
X101600000Y-92710000D02*
X96520000Y-92710000D01*
X96774000Y-92075000D02*
X96774000Y-91948000D01*
X101346000Y-91948000D02*
X101092000Y-91948000D01*
X98755200Y-92075000D02*
X99390200Y-91440000D01*
%TO.C,F0*%
X99060000Y-85090000D02*
X99060000Y-59690000D01*
X101600000Y-59690000D02*
X101600000Y-85090000D01*
X99060000Y-59690000D02*
X101600000Y-59690000D01*
X101600000Y-85090000D02*
X99060000Y-85090000D01*
%TO.C,R8*%
X162560000Y-78740000D02*
X152400000Y-78740000D01*
X152400000Y-78740000D02*
X152400000Y-76200000D01*
X162560000Y-76200000D02*
X162560000Y-78740000D01*
X152400000Y-76200000D02*
X162560000Y-76200000D01*
%TO.C,F6*%
X104140000Y-118110000D02*
X101600000Y-118110000D01*
X101600000Y-92710000D02*
X104140000Y-92710000D01*
X101600000Y-118110000D02*
X101600000Y-92710000D01*
X104140000Y-92710000D02*
X104140000Y-118110000D01*
%TD*%
M02*
