M48
; DRILL file {KiCad (6.0.0)} date Thu Jun  8 10:55:55 2023
; FORMAT={-:-/ absolute / inch / decimal}
; #@! TF.CreationDate,2023-06-08T10:55:55-04:00
; #@! TF.GenerationSoftware,Kicad,Pcbnew,(6.0.0)
; #@! TF.FileFunction,Plated,1,2,PTH
FMAT,2
INCH
; #@! TA.AperFunction,Plated,PTH,ViaDrill
T1C0.0125
; #@! TA.AperFunction,Plated,PTH,ComponentDrill
T2C0.0375
; #@! TA.AperFunction,Plated,PTH,ViaDrill
T3C0.1250
%
G90
G05
T1
X1.8Y-4.15
X1.95Y-4.2
X2.0Y-4.25
X2.1Y-4.3
X2.2Y-4.35
X2.3Y-4.4
X2.675Y-4.8
X3.25Y-4.4
X3.5Y-4.35
X3.75Y-4.3
X4.0Y-4.25
X4.25Y-4.2
X4.5Y-4.15
T2
X1.45Y-2.15
X1.45Y-2.25
X1.45Y-3.05
X1.45Y-3.35
X1.45Y-3.45
X1.45Y-3.75
X1.45Y-4.5
X1.45Y-4.8
X1.5Y-3.85
X1.5Y-3.95
X1.5Y-4.05
X1.55Y-2.15
X1.55Y-2.25
X1.55Y-3.05
X1.55Y-3.15
X1.55Y-3.55
X1.55Y-3.75
X1.55Y-4.5
X1.55Y-4.8
X1.65Y-2.15
X1.65Y-2.25
X1.65Y-3.05
X1.65Y-3.35
X1.65Y-3.45
X1.65Y-3.75
X1.65Y-4.5
X1.65Y-4.8
X1.7Y-3.85
X1.7Y-3.95
X1.7Y-4.05
X1.75Y-2.15
X1.75Y-2.25
X1.75Y-3.05
X1.75Y-3.15
X1.75Y-3.55
X1.75Y-3.75
X1.75Y-4.5
X1.75Y-4.8
X1.85Y-2.15
X1.85Y-2.25
X1.85Y-3.05
X1.85Y-3.35
X1.85Y-3.45
X1.85Y-3.75
X1.85Y-4.5
X1.85Y-4.8
X1.9Y-3.85
X1.9Y-3.95
X1.9Y-4.05
X1.95Y-2.15
X1.95Y-2.25
X1.95Y-3.05
X1.95Y-3.15
X1.95Y-3.55
X1.95Y-3.75
X1.95Y-4.5
X1.95Y-4.8
X2.05Y-2.15
X2.05Y-2.25
X2.05Y-3.05
X2.05Y-3.35
X2.05Y-3.45
X2.05Y-3.75
X2.05Y-4.5
X2.05Y-4.8
X2.1Y-3.85
X2.1Y-3.95
X2.1Y-4.05
X2.15Y-2.15
X2.15Y-2.25
X2.15Y-3.05
X2.15Y-3.15
X2.15Y-3.55
X2.15Y-3.75
X2.15Y-4.5
X2.15Y-4.8
X2.25Y-2.15
X2.25Y-2.25
X2.25Y-3.05
X2.25Y-3.35
X2.25Y-3.45
X2.25Y-3.75
X2.25Y-4.5
X2.25Y-4.8
X2.3Y-3.85
X2.3Y-3.95
X2.3Y-4.05
X2.35Y-2.15
X2.35Y-2.25
X2.35Y-3.05
X2.35Y-3.15
X2.35Y-3.55
X2.35Y-3.75
X2.35Y-4.5
X2.35Y-4.8
X2.45Y-2.15
X2.45Y-2.25
X2.45Y-3.05
X2.45Y-3.35
X2.45Y-3.45
X2.45Y-3.75
X2.45Y-4.5
X2.45Y-4.8
X2.5Y-3.85
X2.5Y-3.95
X2.5Y-4.05
X2.55Y-2.15
X2.55Y-2.25
X2.55Y-3.05
X2.55Y-3.15
X2.55Y-3.55
X2.55Y-3.75
X2.55Y-4.5
X2.55Y-4.8
X2.65Y-3.05
X2.65Y-3.35
X2.65Y-3.45
X2.65Y-3.75
X2.7Y-3.85
X2.7Y-3.95
X2.7Y-4.05
X2.75Y-3.05
X2.75Y-3.15
X2.75Y-3.55
X2.75Y-3.75
X2.85Y-3.05
X2.85Y-3.35
X2.85Y-3.45
X2.85Y-3.75
X2.9Y-3.85
X2.9Y-3.95
X2.9Y-4.05
X2.95Y-3.05
X2.95Y-3.15
X2.95Y-3.55
X2.95Y-3.75
X3.05Y-3.05
X3.05Y-3.35
X3.05Y-3.45
X3.05Y-3.75
X3.1Y-3.85
X3.1Y-3.95
X3.1Y-4.05
X3.15Y-3.05
X3.15Y-3.15
X3.15Y-3.55
X3.15Y-3.75
X3.25Y-3.05
X3.25Y-3.35
X3.25Y-3.45
X3.25Y-3.75
X3.3Y-3.85
X3.3Y-3.95
X3.3Y-4.05
X3.35Y-3.05
X3.35Y-3.15
X3.35Y-3.55
X3.35Y-3.75
X3.45Y-3.05
X3.45Y-3.35
X3.45Y-3.45
X3.45Y-3.75
X3.45Y-4.5
X3.45Y-4.8
X3.5Y-3.85
X3.5Y-3.95
X3.5Y-4.05
X3.55Y-3.05
X3.55Y-3.15
X3.55Y-3.55
X3.55Y-3.75
X3.55Y-4.6
X3.55Y-4.7
X3.65Y-3.05
X3.65Y-3.35
X3.65Y-3.45
X3.65Y-3.75
X3.7Y-3.85
X3.7Y-3.95
X3.7Y-4.05
X3.75Y-3.05
X3.75Y-3.15
X3.75Y-3.55
X3.75Y-3.75
X3.8Y-4.6
X3.8Y-4.7
X3.85Y-3.05
X3.85Y-3.35
X3.85Y-3.45
X3.85Y-3.75
X3.9Y-3.85
X3.9Y-3.95
X3.9Y-4.05
X3.95Y-3.05
X3.95Y-3.15
X3.95Y-3.55
X3.95Y-3.75
X4.05Y-3.05
X4.05Y-3.35
X4.05Y-3.45
X4.05Y-3.75
X4.1Y-3.85
X4.1Y-3.95
X4.1Y-4.05
X4.15Y-3.05
X4.15Y-3.15
X4.15Y-3.55
X4.15Y-3.75
X4.2Y-4.6
X4.2Y-4.7
X4.25Y-3.05
X4.25Y-3.35
X4.25Y-3.45
X4.25Y-3.75
X4.3Y-3.85
X4.3Y-3.95
X4.3Y-4.05
X4.35Y-3.05
X4.35Y-3.15
X4.35Y-3.55
X4.35Y-3.75
X4.45Y-3.05
X4.45Y-3.35
X4.45Y-3.45
X4.45Y-3.75
X4.45Y-4.55
X4.45Y-4.75
X4.5Y-3.85
X4.5Y-3.95
X4.5Y-4.05
X4.55Y-3.05
X4.55Y-3.15
X4.55Y-3.55
X4.55Y-3.75
X4.55Y-4.5
X4.55Y-4.8
T3
X1.25Y-1.75
X1.25Y-5.25
X4.75Y-1.75
X4.75Y-5.25
T0
M30
