%TF.GenerationSoftware,KiCad,Pcbnew,(6.0.0)*%
%TF.CreationDate,2023-06-08T10:55:53-04:00*%
%TF.ProjectId,INPUT,494e5055-542e-46b6-9963-61645f706362,rev?*%
%TF.SameCoordinates,Original*%
%TF.FileFunction,Copper,L1,Top*%
%TF.FilePolarity,Positive*%
%FSLAX46Y46*%
G04 Gerber Fmt 4.6, Leading zero omitted, Abs format (unit mm)*
G04 Created by KiCad (PCBNEW (6.0.0)) date 2023-06-08 10:55:53*
%MOMM*%
%LPD*%
G01*
G04 APERTURE LIST*
G04 Aperture macros list*
%AMRoundRect*
0 Rectangle with rounded corners*
0 $1 Rounding radius*
0 $2 $3 $4 $5 $6 $7 $8 $9 X,Y pos of 4 corners*
0 Add a 4 corners polygon primitive as box body*
4,1,4,$2,$3,$4,$5,$6,$7,$8,$9,$2,$3,0*
0 Add four circle primitives for the rounded corners*
1,1,$1+$1,$2,$3*
1,1,$1+$1,$4,$5*
1,1,$1+$1,$6,$7*
1,1,$1+$1,$8,$9*
0 Add four rect primitives between the rounded corners*
20,1,$1+$1,$2,$3,$4,$5,0*
20,1,$1+$1,$4,$5,$6,$7,0*
20,1,$1+$1,$6,$7,$8,$9,0*
20,1,$1+$1,$8,$9,$2,$3,0*%
G04 Aperture macros list end*
%TA.AperFunction,ComponentPad*%
%ADD10C,1.905000*%
%TD*%
%TA.AperFunction,ComponentPad*%
%ADD11C,1.587500*%
%TD*%
%TA.AperFunction,ComponentPad*%
%ADD12R,1.905000X1.905000*%
%TD*%
%TA.AperFunction,ComponentPad*%
%ADD13RoundRect,0.635000X0.317500X-0.317500X0.317500X0.317500X-0.317500X0.317500X-0.317500X-0.317500X0*%
%TD*%
%TA.AperFunction,ComponentPad*%
%ADD14RoundRect,0.381000X-0.571500X0.571500X-0.571500X-0.571500X0.571500X-0.571500X0.571500X0.571500X0*%
%TD*%
%TA.AperFunction,ViaPad*%
%ADD15C,5.080000*%
%TD*%
%TA.AperFunction,ViaPad*%
%ADD16C,0.952500*%
%TD*%
%TA.AperFunction,Conductor*%
%ADD17C,0.254000*%
%TD*%
G04 APERTURE END LIST*
D10*
%TO.P,R20,1*%
%TO.N,Net-(R20-Pad1)*%
X57150000Y-95250000D03*
%TO.P,R20,2*%
%TO.N,Y4*%
X57150000Y-87630000D03*
%TD*%
%TO.P,C4,1*%
%TO.N,Y4*%
X59690000Y-90170000D03*
%TO.P,C4,2*%
%TO.N,0V*%
X59690000Y-95250000D03*
%TD*%
%TO.P,D16,1,K*%
%TO.N,5V*%
X115570000Y-121920000D03*
%TO.P,D16,2,A*%
%TO.N,0V*%
X115570000Y-114300000D03*
%TD*%
%TO.P,R5,1*%
%TO.N,I5*%
X62230000Y-77470000D03*
%TO.P,R5,2*%
%TO.N,Y5*%
X62230000Y-85090000D03*
%TD*%
%TO.P,R32,1*%
%TO.N,Net-(D17-Pad1)*%
X87630000Y-121920000D03*
%TO.P,R32,2*%
%TO.N,0V*%
X87630000Y-114300000D03*
%TD*%
D11*
%TO.P,D17,1,K*%
%TO.N,Net-(D17-Pad1)*%
X90170000Y-116840000D03*
%TO.P,D17,2,A*%
%TO.N,5V*%
X90170000Y-119380000D03*
%TD*%
D10*
%TO.P,R9,1*%
%TO.N,I9*%
X82550000Y-77470000D03*
%TO.P,R9,2*%
%TO.N,Y9*%
X82550000Y-85090000D03*
%TD*%
D11*
%TO.P,D4,1,K*%
%TO.N,Net-(D4-Pad1)*%
X59690000Y-80010000D03*
%TO.P,D4,2,A*%
%TO.N,5V*%
X59690000Y-77470000D03*
%TD*%
%TO.P,D15,1,K*%
%TO.N,Net-(D15-Pad1)*%
X115570000Y-80010000D03*
%TO.P,D15,2,A*%
%TO.N,5V*%
X115570000Y-77470000D03*
%TD*%
D10*
%TO.P,R1,1*%
%TO.N,I1*%
X41910000Y-77470000D03*
%TO.P,R1,2*%
%TO.N,Y1*%
X41910000Y-85090000D03*
%TD*%
%TO.P,R24,1*%
%TO.N,Net-(R24-Pad1)*%
X77470000Y-95250000D03*
%TO.P,R24,2*%
%TO.N,Y8*%
X77470000Y-87630000D03*
%TD*%
D12*
%TO.P,T8,1,C*%
%TO.N,Net-(D8-Pad1)*%
X78740000Y-97790000D03*
D10*
%TO.P,T8,2,B*%
%TO.N,Net-(R24-Pad1)*%
X78740000Y-100330000D03*
%TO.P,T8,3,E*%
%TO.N,0V*%
X78740000Y-102870000D03*
%TD*%
D11*
%TO.P,D10,1,K*%
%TO.N,Net-(D10-Pad1)*%
X90170000Y-80010000D03*
%TO.P,D10,2,A*%
%TO.N,5V*%
X90170000Y-77470000D03*
%TD*%
D10*
%TO.P,C2,1*%
%TO.N,Y2*%
X49530000Y-90170000D03*
%TO.P,C2,2*%
%TO.N,0V*%
X49530000Y-95250000D03*
%TD*%
%TO.P,R25,1*%
%TO.N,Net-(R25-Pad1)*%
X82550000Y-95250000D03*
%TO.P,R25,2*%
%TO.N,Y9*%
X82550000Y-87630000D03*
%TD*%
%TO.P,C5,1*%
%TO.N,Y5*%
X64770000Y-90170000D03*
%TO.P,C5,2*%
%TO.N,0V*%
X64770000Y-95250000D03*
%TD*%
%TO.P,C11,1*%
%TO.N,Y11*%
X95250000Y-90170000D03*
%TO.P,C11,2*%
%TO.N,0V*%
X95250000Y-95250000D03*
%TD*%
%TO.P,C13,1*%
%TO.N,Y13*%
X105410000Y-90170000D03*
%TO.P,C13,2*%
%TO.N,0V*%
X105410000Y-95250000D03*
%TD*%
%TO.P,R3,1*%
%TO.N,I3*%
X52070000Y-77470000D03*
%TO.P,R3,2*%
%TO.N,Y3*%
X52070000Y-85090000D03*
%TD*%
D12*
%TO.P,T0,1,C*%
%TO.N,Net-(D0-Pad1)*%
X38100000Y-97790000D03*
D10*
%TO.P,T0,2,B*%
%TO.N,Net-(R16-Pad1)*%
X38100000Y-100330000D03*
%TO.P,T0,3,E*%
%TO.N,0V*%
X38100000Y-102870000D03*
%TD*%
%TO.P,R15,1*%
%TO.N,I15*%
X113030000Y-77470000D03*
%TO.P,R15,2*%
%TO.N,Y15*%
X113030000Y-85090000D03*
%TD*%
D11*
%TO.P,D6,1,K*%
%TO.N,Net-(D6-Pad1)*%
X69850000Y-80010000D03*
%TO.P,D6,2,A*%
%TO.N,5V*%
X69850000Y-77470000D03*
%TD*%
D10*
%TO.P,R21,1*%
%TO.N,Net-(R21-Pad1)*%
X62230000Y-95250000D03*
%TO.P,R21,2*%
%TO.N,Y5*%
X62230000Y-87630000D03*
%TD*%
%TO.P,R4,1*%
%TO.N,I4*%
X57150000Y-77470000D03*
%TO.P,R4,2*%
%TO.N,Y4*%
X57150000Y-85090000D03*
%TD*%
D12*
%TO.P,T6,1,C*%
%TO.N,Net-(D6-Pad1)*%
X68580000Y-97790000D03*
D10*
%TO.P,T6,2,B*%
%TO.N,Net-(R22-Pad1)*%
X68580000Y-100330000D03*
%TO.P,T6,3,E*%
%TO.N,0V*%
X68580000Y-102870000D03*
%TD*%
D12*
%TO.P,T12,1,C*%
%TO.N,Net-(D12-Pad1)*%
X99060000Y-97790000D03*
D10*
%TO.P,T12,2,B*%
%TO.N,Net-(R28-Pad1)*%
X99060000Y-100330000D03*
%TO.P,T12,3,E*%
%TO.N,0V*%
X99060000Y-102870000D03*
%TD*%
D11*
%TO.P,D5,1,K*%
%TO.N,Net-(D5-Pad1)*%
X64770000Y-80010000D03*
%TO.P,D5,2,A*%
%TO.N,5V*%
X64770000Y-77470000D03*
%TD*%
D12*
%TO.P,T1,1,C*%
%TO.N,Net-(D1-Pad1)*%
X43180000Y-97790000D03*
D10*
%TO.P,T1,2,B*%
%TO.N,Net-(R17-Pad1)*%
X43180000Y-100330000D03*
%TO.P,T1,3,E*%
%TO.N,0V*%
X43180000Y-102870000D03*
%TD*%
%TO.P,R22,1*%
%TO.N,Net-(R22-Pad1)*%
X67310000Y-95250000D03*
%TO.P,R22,2*%
%TO.N,Y6*%
X67310000Y-87630000D03*
%TD*%
%TO.P,C6,1*%
%TO.N,Y6*%
X69850000Y-90170000D03*
%TO.P,C6,2*%
%TO.N,0V*%
X69850000Y-95250000D03*
%TD*%
D12*
%TO.P,T10,1,C*%
%TO.N,Net-(D10-Pad1)*%
X88900000Y-97790000D03*
D10*
%TO.P,T10,2,B*%
%TO.N,Net-(R26-Pad1)*%
X88900000Y-100330000D03*
%TO.P,T10,3,E*%
%TO.N,0V*%
X88900000Y-102870000D03*
%TD*%
%TO.P,R18,1*%
%TO.N,Net-(R18-Pad1)*%
X46990000Y-95250000D03*
%TO.P,R18,2*%
%TO.N,Y2*%
X46990000Y-87630000D03*
%TD*%
D11*
%TO.P,D3,1,K*%
%TO.N,Net-(D3-Pad1)*%
X54610000Y-80010000D03*
%TO.P,D3,2,A*%
%TO.N,5V*%
X54610000Y-77470000D03*
%TD*%
D10*
%TO.P,C18,1*%
%TO.N,5V*%
X113030000Y-120650000D03*
%TO.P,C18,2*%
%TO.N,0V*%
X113030000Y-115570000D03*
%TD*%
D12*
%TO.P,T5,1,C*%
%TO.N,Net-(D5-Pad1)*%
X63500000Y-97790000D03*
D10*
%TO.P,T5,2,B*%
%TO.N,Net-(R21-Pad1)*%
X63500000Y-100330000D03*
%TO.P,T5,3,E*%
%TO.N,0V*%
X63500000Y-102870000D03*
%TD*%
%TO.P,R0,1*%
%TO.N,I0*%
X36830000Y-77470000D03*
%TO.P,R0,2*%
%TO.N,Y0*%
X36830000Y-85090000D03*
%TD*%
%TO.P,C16,1*%
%TO.N,5V*%
X106680000Y-119380000D03*
%TO.P,C16,2*%
%TO.N,0V*%
X106680000Y-116840000D03*
%TD*%
%TO.P,R31,1*%
%TO.N,Net-(R31-Pad1)*%
X113030000Y-95250000D03*
%TO.P,R31,2*%
%TO.N,Y15*%
X113030000Y-87630000D03*
%TD*%
%TO.P,R14,1*%
%TO.N,I14*%
X107950000Y-77470000D03*
%TO.P,R14,2*%
%TO.N,Y14*%
X107950000Y-85090000D03*
%TD*%
D11*
%TO.P,D1,1,K*%
%TO.N,Net-(D1-Pad1)*%
X44450000Y-80010000D03*
%TO.P,D1,2,A*%
%TO.N,5V*%
X44450000Y-77470000D03*
%TD*%
%TO.P,D7,1,K*%
%TO.N,Net-(D7-Pad1)*%
X74930000Y-80010000D03*
%TO.P,D7,2,A*%
%TO.N,5V*%
X74930000Y-77470000D03*
%TD*%
D10*
%TO.P,R29,1*%
%TO.N,Net-(R29-Pad1)*%
X102870000Y-95250000D03*
%TO.P,R29,2*%
%TO.N,Y13*%
X102870000Y-87630000D03*
%TD*%
D12*
%TO.P,T4,1,C*%
%TO.N,Net-(D4-Pad1)*%
X58420000Y-97790000D03*
D10*
%TO.P,T4,2,B*%
%TO.N,Net-(R20-Pad1)*%
X58420000Y-100330000D03*
%TO.P,T4,3,E*%
%TO.N,0V*%
X58420000Y-102870000D03*
%TD*%
D12*
%TO.P,T7,1,C*%
%TO.N,Net-(D7-Pad1)*%
X73660000Y-97790000D03*
D10*
%TO.P,T7,2,B*%
%TO.N,Net-(R23-Pad1)*%
X73660000Y-100330000D03*
%TO.P,T7,3,E*%
%TO.N,0V*%
X73660000Y-102870000D03*
%TD*%
D13*
%TO.P,H0,1,Pin_1*%
%TO.N,I0*%
X36830000Y-54610000D03*
D10*
%TO.P,H0,2,Pin_2*%
%TO.N,I1*%
X36830000Y-57150000D03*
%TO.P,H0,3,Pin_3*%
%TO.N,I2*%
X39370000Y-54610000D03*
%TO.P,H0,4,Pin_4*%
%TO.N,I3*%
X39370000Y-57150000D03*
%TO.P,H0,5,Pin_5*%
%TO.N,I4*%
X41910000Y-54610000D03*
%TO.P,H0,6,Pin_6*%
%TO.N,I5*%
X41910000Y-57150000D03*
%TO.P,H0,7,Pin_7*%
%TO.N,I6*%
X44450000Y-54610000D03*
%TO.P,H0,8,Pin_8*%
%TO.N,I7*%
X44450000Y-57150000D03*
%TO.P,H0,9,Pin_9*%
%TO.N,I8*%
X46990000Y-54610000D03*
%TO.P,H0,10,Pin_10*%
%TO.N,I9*%
X46990000Y-57150000D03*
%TO.P,H0,11,Pin_11*%
%TO.N,I10*%
X49530000Y-54610000D03*
%TO.P,H0,12,Pin_12*%
%TO.N,I11*%
X49530000Y-57150000D03*
%TO.P,H0,13,Pin_13*%
%TO.N,I12*%
X52070000Y-54610000D03*
%TO.P,H0,14,Pin_14*%
%TO.N,I13*%
X52070000Y-57150000D03*
%TO.P,H0,15,Pin_15*%
%TO.N,I14*%
X54610000Y-54610000D03*
%TO.P,H0,16,Pin_16*%
%TO.N,I15*%
X54610000Y-57150000D03*
%TO.P,H0,17,Pin_17*%
%TO.N,SLT0*%
X57150000Y-54610000D03*
%TO.P,H0,18,Pin_18*%
%TO.N,SLT1*%
X57150000Y-57150000D03*
%TO.P,H0,19,Pin_19*%
%TO.N,SLT2*%
X59690000Y-54610000D03*
%TO.P,H0,20,Pin_20*%
%TO.N,SLT3*%
X59690000Y-57150000D03*
%TO.P,H0,21,Pin_21*%
%TO.N,O*%
X62230000Y-54610000D03*
%TO.P,H0,22,Pin_22*%
%TO.N,5V*%
X62230000Y-57150000D03*
%TO.P,H0,23,Pin_23*%
%TO.N,0V*%
X64770000Y-54610000D03*
%TO.P,H0,24,Pin_24*%
%TO.N,unconnected-(H0-Pad24)*%
X64770000Y-57150000D03*
%TD*%
%TO.P,R30,1*%
%TO.N,Net-(R30-Pad1)*%
X107950000Y-95250000D03*
%TO.P,R30,2*%
%TO.N,Y14*%
X107950000Y-87630000D03*
%TD*%
%TO.P,C15,1*%
%TO.N,Y15*%
X115570000Y-90170000D03*
%TO.P,C15,2*%
%TO.N,0V*%
X115570000Y-95250000D03*
%TD*%
%TO.P,R17,1*%
%TO.N,Net-(R17-Pad1)*%
X41910000Y-95250000D03*
%TO.P,R17,2*%
%TO.N,Y1*%
X41910000Y-87630000D03*
%TD*%
%TO.P,C12,1*%
%TO.N,Y12*%
X100330000Y-90170000D03*
%TO.P,C12,2*%
%TO.N,0V*%
X100330000Y-95250000D03*
%TD*%
%TO.P,R2,1*%
%TO.N,I2*%
X46990000Y-77470000D03*
%TO.P,R2,2*%
%TO.N,Y2*%
X46990000Y-85090000D03*
%TD*%
D12*
%TO.P,T13,1,C*%
%TO.N,Net-(D13-Pad1)*%
X104140000Y-97790000D03*
D10*
%TO.P,T13,2,B*%
%TO.N,Net-(R29-Pad1)*%
X104140000Y-100330000D03*
%TO.P,T13,3,E*%
%TO.N,0V*%
X104140000Y-102870000D03*
%TD*%
D11*
%TO.P,D12,1,K*%
%TO.N,Net-(D12-Pad1)*%
X100330000Y-80010000D03*
%TO.P,D12,2,A*%
%TO.N,5V*%
X100330000Y-77470000D03*
%TD*%
%TO.P,D13,1,K*%
%TO.N,Net-(D13-Pad1)*%
X105410000Y-80010000D03*
%TO.P,D13,2,A*%
%TO.N,5V*%
X105410000Y-77470000D03*
%TD*%
D12*
%TO.P,T9,1,C*%
%TO.N,Net-(D9-Pad1)*%
X83820000Y-97790000D03*
D10*
%TO.P,T9,2,B*%
%TO.N,Net-(R25-Pad1)*%
X83820000Y-100330000D03*
%TO.P,T9,3,E*%
%TO.N,0V*%
X83820000Y-102870000D03*
%TD*%
%TO.P,R26,1*%
%TO.N,Net-(R26-Pad1)*%
X87630000Y-95250000D03*
%TO.P,R26,2*%
%TO.N,Y10*%
X87630000Y-87630000D03*
%TD*%
D12*
%TO.P,T2,1,C*%
%TO.N,Net-(D2-Pad1)*%
X48260000Y-97790000D03*
D10*
%TO.P,T2,2,B*%
%TO.N,Net-(R18-Pad1)*%
X48260000Y-100330000D03*
%TO.P,T2,3,E*%
%TO.N,0V*%
X48260000Y-102870000D03*
%TD*%
%TO.P,R23,1*%
%TO.N,Net-(R23-Pad1)*%
X72390000Y-95250000D03*
%TO.P,R23,2*%
%TO.N,Y7*%
X72390000Y-87630000D03*
%TD*%
D12*
%TO.P,T11,1,C*%
%TO.N,Net-(D11-Pad1)*%
X93980000Y-97790000D03*
D10*
%TO.P,T11,2,B*%
%TO.N,Net-(R27-Pad1)*%
X93980000Y-100330000D03*
%TO.P,T11,3,E*%
%TO.N,0V*%
X93980000Y-102870000D03*
%TD*%
%TO.P,R16,1*%
%TO.N,Net-(R16-Pad1)*%
X36830000Y-95250000D03*
%TO.P,R16,2*%
%TO.N,Y0*%
X36830000Y-87630000D03*
%TD*%
%TO.P,C14,1*%
%TO.N,Y14*%
X110490000Y-90170000D03*
%TO.P,C14,2*%
%TO.N,0V*%
X110490000Y-95250000D03*
%TD*%
D11*
%TO.P,D8,1,K*%
%TO.N,Net-(D8-Pad1)*%
X80010000Y-80010000D03*
%TO.P,D8,2,A*%
%TO.N,5V*%
X80010000Y-77470000D03*
%TD*%
D12*
%TO.P,T3,1,C*%
%TO.N,Net-(D3-Pad1)*%
X53340000Y-97790000D03*
D10*
%TO.P,T3,2,B*%
%TO.N,Net-(R19-Pad1)*%
X53340000Y-100330000D03*
%TO.P,T3,3,E*%
%TO.N,0V*%
X53340000Y-102870000D03*
%TD*%
D11*
%TO.P,D2,1,K*%
%TO.N,Net-(D2-Pad1)*%
X49530000Y-80010000D03*
%TO.P,D2,2,A*%
%TO.N,5V*%
X49530000Y-77470000D03*
%TD*%
D12*
%TO.P,T15,1,C*%
%TO.N,Net-(D15-Pad1)*%
X114300000Y-97790000D03*
D10*
%TO.P,T15,2,B*%
%TO.N,Net-(R31-Pad1)*%
X114300000Y-100330000D03*
%TO.P,T15,3,E*%
%TO.N,0V*%
X114300000Y-102870000D03*
%TD*%
%TO.P,C17,1*%
%TO.N,5V*%
X96520000Y-119380000D03*
%TO.P,C17,2*%
%TO.N,0V*%
X96520000Y-116840000D03*
%TD*%
D12*
%TO.P,T14,1,C*%
%TO.N,Net-(D14-Pad1)*%
X109220000Y-97790000D03*
D10*
%TO.P,T14,2,B*%
%TO.N,Net-(R30-Pad1)*%
X109220000Y-100330000D03*
%TO.P,T14,3,E*%
%TO.N,0V*%
X109220000Y-102870000D03*
%TD*%
%TO.P,R8,1*%
%TO.N,I8*%
X77470000Y-77470000D03*
%TO.P,R8,2*%
%TO.N,Y8*%
X77470000Y-85090000D03*
%TD*%
%TO.P,R6,1*%
%TO.N,I6*%
X67310000Y-77470000D03*
%TO.P,R6,2*%
%TO.N,Y6*%
X67310000Y-85090000D03*
%TD*%
%TO.P,R27,1*%
%TO.N,Net-(R27-Pad1)*%
X92710000Y-95250000D03*
%TO.P,R27,2*%
%TO.N,Y11*%
X92710000Y-87630000D03*
%TD*%
%TO.P,R12,1*%
%TO.N,I12*%
X97790000Y-77470000D03*
%TO.P,R12,2*%
%TO.N,Y12*%
X97790000Y-85090000D03*
%TD*%
%TO.P,C7,1*%
%TO.N,Y7*%
X74930000Y-90170000D03*
%TO.P,C7,2*%
%TO.N,0V*%
X74930000Y-95250000D03*
%TD*%
%TO.P,C0,1*%
%TO.N,Y0*%
X39370000Y-90170000D03*
%TO.P,C0,2*%
%TO.N,0V*%
X39370000Y-95250000D03*
%TD*%
%TO.P,C1,1*%
%TO.N,Y1*%
X44450000Y-90170000D03*
%TO.P,C1,2*%
%TO.N,0V*%
X44450000Y-95250000D03*
%TD*%
%TO.P,C10,1*%
%TO.N,Y10*%
X90170000Y-90170000D03*
%TO.P,C10,2*%
%TO.N,0V*%
X90170000Y-95250000D03*
%TD*%
D14*
%TO.P,IC0,1,COM*%
%TO.N,O*%
X64770000Y-114300000D03*
D10*
%TO.P,IC0,2,I7*%
%TO.N,Y7*%
X62230000Y-114300000D03*
%TO.P,IC0,3,I6*%
%TO.N,Y6*%
X59690000Y-114300000D03*
%TO.P,IC0,4,I5*%
%TO.N,Y5*%
X57150000Y-114300000D03*
%TO.P,IC0,5,I4*%
%TO.N,Y4*%
X54610000Y-114300000D03*
%TO.P,IC0,6,I3*%
%TO.N,Y3*%
X52070000Y-114300000D03*
%TO.P,IC0,7,I2*%
%TO.N,Y2*%
X49530000Y-114300000D03*
%TO.P,IC0,8,I1*%
%TO.N,Y1*%
X46990000Y-114300000D03*
%TO.P,IC0,9,I0*%
%TO.N,Y0*%
X44450000Y-114300000D03*
%TO.P,IC0,10,S0*%
%TO.N,SLT0*%
X41910000Y-114300000D03*
%TO.P,IC0,11,S1*%
%TO.N,SLT1*%
X39370000Y-114300000D03*
%TO.P,IC0,12,GND*%
%TO.N,0V*%
X36830000Y-114300000D03*
%TO.P,IC0,13,S3*%
%TO.N,SLT3*%
X36830000Y-121920000D03*
%TO.P,IC0,14,S2*%
%TO.N,SLT2*%
X39370000Y-121920000D03*
%TO.P,IC0,15,~{E}*%
%TO.N,5V*%
X41910000Y-121920000D03*
%TO.P,IC0,16,I15*%
%TO.N,Y15*%
X44450000Y-121920000D03*
%TO.P,IC0,17,I14*%
%TO.N,Y14*%
X46990000Y-121920000D03*
%TO.P,IC0,18,I13*%
%TO.N,Y13*%
X49530000Y-121920000D03*
%TO.P,IC0,19,I12*%
%TO.N,Y12*%
X52070000Y-121920000D03*
%TO.P,IC0,20,I11*%
%TO.N,Y11*%
X54610000Y-121920000D03*
%TO.P,IC0,21,I10*%
%TO.N,Y10*%
X57150000Y-121920000D03*
%TO.P,IC0,22,I9*%
%TO.N,Y9*%
X59690000Y-121920000D03*
%TO.P,IC0,23,I8*%
%TO.N,Y8*%
X62230000Y-121920000D03*
%TO.P,IC0,24,VCC*%
%TO.N,5V*%
X64770000Y-121920000D03*
%TD*%
%TO.P,C8,1*%
%TO.N,Y8*%
X80010000Y-90170000D03*
%TO.P,C8,2*%
%TO.N,0V*%
X80010000Y-95250000D03*
%TD*%
%TO.P,R19,1*%
%TO.N,Net-(R19-Pad1)*%
X52070000Y-95250000D03*
%TO.P,R19,2*%
%TO.N,Y3*%
X52070000Y-87630000D03*
%TD*%
D11*
%TO.P,D14,1,K*%
%TO.N,Net-(D14-Pad1)*%
X110490000Y-80010000D03*
%TO.P,D14,2,A*%
%TO.N,5V*%
X110490000Y-77470000D03*
%TD*%
D10*
%TO.P,R13,1*%
%TO.N,I13*%
X102870000Y-77470000D03*
%TO.P,R13,2*%
%TO.N,Y13*%
X102870000Y-85090000D03*
%TD*%
%TO.P,C3,1*%
%TO.N,Y3*%
X54610000Y-90170000D03*
%TO.P,C3,2*%
%TO.N,0V*%
X54610000Y-95250000D03*
%TD*%
%TO.P,R28,1*%
%TO.N,Net-(R28-Pad1)*%
X97790000Y-95250000D03*
%TO.P,R28,2*%
%TO.N,Y12*%
X97790000Y-87630000D03*
%TD*%
D11*
%TO.P,D9,1,K*%
%TO.N,Net-(D9-Pad1)*%
X85090000Y-80010000D03*
%TO.P,D9,2,A*%
%TO.N,5V*%
X85090000Y-77470000D03*
%TD*%
D10*
%TO.P,C9,1*%
%TO.N,Y9*%
X85090000Y-90170000D03*
%TO.P,C9,2*%
%TO.N,0V*%
X85090000Y-95250000D03*
%TD*%
%TO.P,R11,1*%
%TO.N,I11*%
X92710000Y-77470000D03*
%TO.P,R11,2*%
%TO.N,Y11*%
X92710000Y-85090000D03*
%TD*%
D11*
%TO.P,D0,1,K*%
%TO.N,Net-(D0-Pad1)*%
X39370000Y-80010000D03*
%TO.P,D0,2,A*%
%TO.N,5V*%
X39370000Y-77470000D03*
%TD*%
D10*
%TO.P,R10,1*%
%TO.N,I10*%
X87630000Y-77470000D03*
%TO.P,R10,2*%
%TO.N,Y10*%
X87630000Y-85090000D03*
%TD*%
%TO.P,R7,1*%
%TO.N,I7*%
X72390000Y-77470000D03*
%TO.P,R7,2*%
%TO.N,Y7*%
X72390000Y-85090000D03*
%TD*%
D11*
%TO.P,D11,1,K*%
%TO.N,Net-(D11-Pad1)*%
X95250000Y-80010000D03*
%TO.P,D11,2,A*%
%TO.N,5V*%
X95250000Y-77470000D03*
%TD*%
D15*
%TO.N,*%
X120650000Y-44450000D03*
X31750000Y-44450000D03*
X31750000Y-133350000D03*
X120650000Y-133350000D03*
D16*
%TO.N,Y10*%
X82550000Y-111760000D03*
X58420000Y-111760000D03*
%TO.N,Y11*%
X55880000Y-110490000D03*
X88900000Y-110490000D03*
%TO.N,Y12*%
X95250000Y-109220000D03*
X53340000Y-109220000D03*
%TO.N,Y13*%
X50800000Y-107950000D03*
X101600000Y-107950000D03*
%TO.N,Y14*%
X107950000Y-106680000D03*
X49530000Y-106680000D03*
%TO.N,Y15*%
X114300000Y-105410000D03*
X45720000Y-105410000D03*
%TO.N,5V*%
X67945000Y-121920000D03*
%TD*%
D17*
%TO.N,Y0*%
X40640000Y-110490000D02*
X44450000Y-114300000D01*
X39370000Y-90170000D02*
X40640000Y-91440000D01*
X40640000Y-91440000D02*
X40640000Y-110490000D01*
%TO.N,Y1*%
X46990000Y-114300000D02*
X46990000Y-105410000D01*
X45720000Y-104140000D02*
X45720000Y-91440000D01*
X44450000Y-90170000D02*
X45720000Y-91440000D01*
X46990000Y-105410000D02*
X45720000Y-104140000D01*
%TO.N,Y2*%
X49530000Y-90170000D02*
X50800000Y-91440000D01*
X50800000Y-91440000D02*
X50800000Y-106680000D01*
X49530000Y-107950000D02*
X49530000Y-114300000D01*
X50800000Y-106680000D02*
X49530000Y-107950000D01*
%TO.N,Y3*%
X55880000Y-104140000D02*
X55880000Y-91440000D01*
X52070000Y-107950000D02*
X55880000Y-104140000D01*
X54610000Y-90170000D02*
X55880000Y-91440000D01*
X52070000Y-114300000D02*
X52070000Y-107950000D01*
%TO.N,Y4*%
X54610000Y-109220000D02*
X60960000Y-102870000D01*
X54610000Y-114300000D02*
X54610000Y-109220000D01*
X59690000Y-90170000D02*
X60960000Y-91440000D01*
X60960000Y-102870000D02*
X60960000Y-91440000D01*
%TO.N,Y5*%
X63500000Y-104140000D02*
X64770000Y-104140000D01*
X57150000Y-114300000D02*
X57150000Y-110490000D01*
X64770000Y-104140000D02*
X66040000Y-102870000D01*
X57150000Y-110490000D02*
X63500000Y-104140000D01*
X66040000Y-102870000D02*
X66040000Y-91440000D01*
X64770000Y-90170000D02*
X66040000Y-91440000D01*
%TO.N,Y6*%
X59690000Y-111760000D02*
X67310000Y-104140000D01*
X59690000Y-114300000D02*
X59690000Y-111760000D01*
X67310000Y-104140000D02*
X69850000Y-104140000D01*
X69850000Y-104140000D02*
X71120000Y-102870000D01*
X71120000Y-102870000D02*
X71120000Y-91440000D01*
X69850000Y-90170000D02*
X71120000Y-91440000D01*
%TO.N,Y7*%
X74930000Y-90170000D02*
X76200000Y-91440000D01*
X71120000Y-104140000D02*
X62230000Y-113030000D01*
X62230000Y-113030000D02*
X62230000Y-114300000D01*
X74930000Y-104140000D02*
X71120000Y-104140000D01*
X76200000Y-102870000D02*
X74930000Y-104140000D01*
X76200000Y-91440000D02*
X76200000Y-102870000D01*
%TO.N,Y8*%
X81280000Y-102870000D02*
X81280000Y-91440000D01*
X62230000Y-121920000D02*
X81280000Y-102870000D01*
X80010000Y-90170000D02*
X81280000Y-91440000D01*
%TO.N,Y9*%
X60960000Y-123190000D02*
X65295361Y-123190000D01*
X83075361Y-105410000D02*
X83820000Y-105410000D01*
X65295361Y-123190000D02*
X83075361Y-105410000D01*
X86360000Y-102870000D02*
X86360000Y-91440000D01*
X83820000Y-105410000D02*
X86360000Y-102870000D01*
X59690000Y-121920000D02*
X60960000Y-123190000D01*
X85090000Y-90170000D02*
X86360000Y-91440000D01*
%TO.N,Y10*%
X91440000Y-91440000D02*
X91440000Y-102870000D01*
X58420000Y-120650000D02*
X58420000Y-111760000D01*
X90170000Y-90170000D02*
X91440000Y-91440000D01*
X57150000Y-121920000D02*
X58420000Y-120650000D01*
X91440000Y-102870000D02*
X82550000Y-111760000D01*
%TO.N,Y11*%
X96520000Y-91440000D02*
X96520000Y-102870000D01*
X54610000Y-121920000D02*
X55880000Y-120650000D01*
X55880000Y-120650000D02*
X55880000Y-110490000D01*
X95250000Y-90170000D02*
X96520000Y-91440000D01*
X96520000Y-102870000D02*
X88900000Y-110490000D01*
%TO.N,Y12*%
X101600000Y-91440000D02*
X101600000Y-102870000D01*
X52070000Y-121920000D02*
X53340000Y-120650000D01*
X53340000Y-120650000D02*
X53340000Y-109220000D01*
X100330000Y-90170000D02*
X101600000Y-91440000D01*
X101600000Y-102870000D02*
X95250000Y-109220000D01*
%TO.N,Y13*%
X50800000Y-120650000D02*
X50800000Y-107950000D01*
X49530000Y-121920000D02*
X50800000Y-120650000D01*
X106680000Y-91440000D02*
X106680000Y-102870000D01*
X106680000Y-102870000D02*
X101600000Y-107950000D01*
X105410000Y-90170000D02*
X106680000Y-91440000D01*
%TO.N,Y14*%
X49530000Y-106680000D02*
X48260000Y-107950000D01*
X111760000Y-91440000D02*
X111760000Y-102870000D01*
X111760000Y-102870000D02*
X107950000Y-106680000D01*
X48260000Y-120650000D02*
X46990000Y-121920000D01*
X110490000Y-90170000D02*
X111760000Y-91440000D01*
X48260000Y-107950000D02*
X48260000Y-120650000D01*
%TO.N,Y15*%
X116840000Y-91440000D02*
X116840000Y-102870000D01*
X45720000Y-120650000D02*
X45720000Y-105410000D01*
X115570000Y-90170000D02*
X116840000Y-91440000D01*
X116840000Y-102870000D02*
X114300000Y-105410000D01*
X44450000Y-121920000D02*
X45720000Y-120650000D01*
%TO.N,Net-(D0-Pad1)*%
X39370000Y-80010000D02*
X39370000Y-87630000D01*
X39370000Y-87630000D02*
X38100000Y-88900000D01*
X38100000Y-88900000D02*
X38100000Y-97790000D01*
%TO.N,Net-(D1-Pad1)*%
X44450000Y-87630000D02*
X43180000Y-88900000D01*
X43180000Y-88900000D02*
X43180000Y-97790000D01*
X44450000Y-80010000D02*
X44450000Y-87630000D01*
%TO.N,Net-(D2-Pad1)*%
X49530000Y-87630000D02*
X48260000Y-88900000D01*
X48260000Y-88900000D02*
X48260000Y-97790000D01*
X49530000Y-80010000D02*
X49530000Y-87630000D01*
%TO.N,Net-(D3-Pad1)*%
X54610000Y-87630000D02*
X53340000Y-88900000D01*
X53340000Y-88900000D02*
X53340000Y-97790000D01*
X54610000Y-80010000D02*
X54610000Y-87630000D01*
%TO.N,Net-(D4-Pad1)*%
X58420000Y-88900000D02*
X58420000Y-97790000D01*
X59690000Y-87630000D02*
X58420000Y-88900000D01*
X59690000Y-80010000D02*
X59690000Y-87630000D01*
%TO.N,Net-(D5-Pad1)*%
X63500000Y-88900000D02*
X63500000Y-97790000D01*
X64770000Y-87630000D02*
X63500000Y-88900000D01*
X64770000Y-80010000D02*
X64770000Y-87630000D01*
%TO.N,Net-(D6-Pad1)*%
X69850000Y-87630000D02*
X68580000Y-88900000D01*
X68580000Y-88900000D02*
X68580000Y-97790000D01*
X69850000Y-80010000D02*
X69850000Y-87630000D01*
%TO.N,Net-(D7-Pad1)*%
X74930000Y-80010000D02*
X74930000Y-87630000D01*
X74930000Y-87630000D02*
X73660000Y-88900000D01*
X73660000Y-88900000D02*
X73660000Y-97790000D01*
%TO.N,Net-(D8-Pad1)*%
X80010000Y-80010000D02*
X80010000Y-87630000D01*
X78740000Y-88900000D02*
X78740000Y-97790000D01*
X80010000Y-87630000D02*
X78740000Y-88900000D01*
%TO.N,Net-(D9-Pad1)*%
X85090000Y-80010000D02*
X85090000Y-87630000D01*
X83820000Y-88900000D02*
X83820000Y-97790000D01*
X85090000Y-87630000D02*
X83820000Y-88900000D01*
%TO.N,Net-(D10-Pad1)*%
X88900000Y-88900000D02*
X88900000Y-97790000D01*
X90170000Y-80010000D02*
X90170000Y-87630000D01*
X90170000Y-87630000D02*
X88900000Y-88900000D01*
%TO.N,Net-(D11-Pad1)*%
X95250000Y-87630000D02*
X93980000Y-88900000D01*
X95250000Y-80010000D02*
X95250000Y-87630000D01*
X93980000Y-88900000D02*
X93980000Y-97790000D01*
%TO.N,Net-(D12-Pad1)*%
X100330000Y-80010000D02*
X100330000Y-87630000D01*
X100330000Y-87630000D02*
X99060000Y-88900000D01*
X99060000Y-88900000D02*
X99060000Y-97790000D01*
%TO.N,Net-(D13-Pad1)*%
X104140000Y-88900000D02*
X104140000Y-97790000D01*
X105410000Y-80010000D02*
X105410000Y-87630000D01*
X105410000Y-87630000D02*
X104140000Y-88900000D01*
%TO.N,Net-(D14-Pad1)*%
X109220000Y-88900000D02*
X109220000Y-97790000D01*
X110490000Y-87630000D02*
X109220000Y-88900000D01*
X110490000Y-80010000D02*
X110490000Y-87630000D01*
%TO.N,Net-(D15-Pad1)*%
X115570000Y-80010000D02*
X115570000Y-87630000D01*
X115570000Y-87630000D02*
X114300000Y-88900000D01*
X114300000Y-88900000D02*
X114300000Y-97790000D01*
%TO.N,Net-(D17-Pad1)*%
X87630000Y-119380000D02*
X90170000Y-116840000D01*
X87630000Y-121920000D02*
X87630000Y-119380000D01*
%TO.N,SLT0*%
X58420000Y-55880000D02*
X58420000Y-58420000D01*
X57150000Y-59690000D02*
X52070000Y-59690000D01*
X58420000Y-58420000D02*
X57150000Y-59690000D01*
X52070000Y-59690000D02*
X35560000Y-76200000D01*
X57150000Y-54610000D02*
X58420000Y-55880000D01*
X35560000Y-76200000D02*
X35560000Y-107950000D01*
X41910000Y-114300000D02*
X36830000Y-109220000D01*
X35560000Y-107950000D02*
X38100000Y-110490000D01*
%TO.N,SLT1*%
X55880000Y-58420000D02*
X50800000Y-58420000D01*
X34290000Y-109220000D02*
X34290000Y-74930000D01*
X57150000Y-57150000D02*
X55880000Y-58420000D01*
X39370000Y-114300000D02*
X34290000Y-109220000D01*
X34290000Y-74930000D02*
X50800000Y-58420000D01*
%TO.N,SLT2*%
X58420000Y-53340000D02*
X35560000Y-53340000D01*
X35560000Y-53340000D02*
X33020000Y-55880000D01*
X59690000Y-54610000D02*
X58420000Y-53340000D01*
X33020000Y-115570000D02*
X39370000Y-121920000D01*
X33020000Y-55880000D02*
X33020000Y-115570000D01*
%TO.N,SLT3*%
X31750000Y-113030000D02*
X31750000Y-55880000D01*
X31750000Y-55880000D02*
X35560000Y-52070000D01*
X60959511Y-55880489D02*
X60959511Y-53339511D01*
X59690000Y-57150000D02*
X60959511Y-55880489D01*
X35560000Y-52070000D02*
X59690000Y-52070000D01*
X36830000Y-121920000D02*
X31750000Y-116840000D01*
X60959511Y-53339511D02*
X59690000Y-52070000D01*
X31750000Y-116840000D02*
X31750000Y-113030000D01*
%TO.N,Net-(R16-Pad1)*%
X36830000Y-99060000D02*
X38100000Y-100330000D01*
X36830000Y-95250000D02*
X36830000Y-99060000D01*
%TO.N,Net-(R17-Pad1)*%
X41910000Y-99060000D02*
X43180000Y-100330000D01*
X41910000Y-95250000D02*
X41910000Y-99060000D01*
%TO.N,Net-(R18-Pad1)*%
X46990000Y-99060000D02*
X48260000Y-100330000D01*
X46990000Y-95250000D02*
X46990000Y-99060000D01*
%TO.N,Net-(R19-Pad1)*%
X52070000Y-95250000D02*
X52070000Y-99060000D01*
X52070000Y-99060000D02*
X53340000Y-100330000D01*
%TO.N,Net-(R20-Pad1)*%
X57150000Y-95250000D02*
X57150000Y-99060000D01*
X57150000Y-99060000D02*
X58420000Y-100330000D01*
%TO.N,Net-(R21-Pad1)*%
X62230000Y-99060000D02*
X63500000Y-100330000D01*
X62230000Y-95250000D02*
X62230000Y-99060000D01*
%TO.N,Net-(R22-Pad1)*%
X67310000Y-95250000D02*
X67310000Y-99060000D01*
X67310000Y-99060000D02*
X68580000Y-100330000D01*
%TO.N,Net-(R23-Pad1)*%
X72390000Y-99060000D02*
X73660000Y-100330000D01*
X72390000Y-95250000D02*
X72390000Y-99060000D01*
%TO.N,Net-(R24-Pad1)*%
X77470000Y-95250000D02*
X77470000Y-99060000D01*
X77470000Y-99060000D02*
X78740000Y-100330000D01*
%TO.N,Net-(R25-Pad1)*%
X82550000Y-95250000D02*
X82550000Y-99060000D01*
X82550000Y-99060000D02*
X83820000Y-100330000D01*
%TO.N,Net-(R26-Pad1)*%
X87630000Y-95250000D02*
X87630000Y-99060000D01*
X87630000Y-99060000D02*
X88900000Y-100330000D01*
%TO.N,Net-(R27-Pad1)*%
X92710000Y-95250000D02*
X92710000Y-99060000D01*
X92710000Y-99060000D02*
X93980000Y-100330000D01*
%TO.N,Net-(R28-Pad1)*%
X97790000Y-99060000D02*
X99060000Y-100330000D01*
X97790000Y-95250000D02*
X97790000Y-99060000D01*
%TO.N,Net-(R29-Pad1)*%
X102870000Y-99060000D02*
X104140000Y-100330000D01*
X102870000Y-95250000D02*
X102870000Y-99060000D01*
%TO.N,Net-(R30-Pad1)*%
X107950000Y-99060000D02*
X109220000Y-100330000D01*
X107950000Y-95250000D02*
X107950000Y-99060000D01*
%TO.N,Net-(R31-Pad1)*%
X113030000Y-99060000D02*
X114300000Y-100330000D01*
X113030000Y-95250000D02*
X113030000Y-99060000D01*
%TD*%
%TA.AperFunction,Conductor*%
%TO.N,5V*%
G36*
X114242121Y-38755002D02*
G01*
X114288614Y-38808658D01*
X114300000Y-38861000D01*
X114300000Y-50800000D01*
X126239000Y-50800000D01*
X126307121Y-50820002D01*
X126353614Y-50873658D01*
X126365000Y-50926000D01*
X126365000Y-126874000D01*
X126344998Y-126942121D01*
X126291342Y-126988614D01*
X126239000Y-127000000D01*
X114300000Y-127000000D01*
X114300000Y-138939000D01*
X114279998Y-139007121D01*
X114226342Y-139053614D01*
X114174000Y-139065000D01*
X38226000Y-139065000D01*
X38157879Y-139044998D01*
X38111386Y-138991342D01*
X38100000Y-138939000D01*
X38100000Y-127000000D01*
X26161000Y-127000000D01*
X26092879Y-126979998D01*
X26046386Y-126926342D01*
X26035000Y-126874000D01*
X26035000Y-116813208D01*
X30982776Y-116813208D01*
X30983369Y-116820500D01*
X30983369Y-116820503D01*
X30987085Y-116866183D01*
X30987500Y-116876398D01*
X30987500Y-116884525D01*
X30990811Y-116912924D01*
X30991238Y-116917244D01*
X30997191Y-116990426D01*
X30999447Y-116997388D01*
X31000643Y-117003376D01*
X31002051Y-117009333D01*
X31002899Y-117016607D01*
X31005397Y-117023489D01*
X31005398Y-117023493D01*
X31027945Y-117085607D01*
X31029355Y-117089711D01*
X31051987Y-117159575D01*
X31055787Y-117165838D01*
X31058325Y-117171380D01*
X31061067Y-117176856D01*
X31063566Y-117183741D01*
X31067581Y-117189865D01*
X31103815Y-117245132D01*
X31106130Y-117248800D01*
X31144227Y-117311581D01*
X31147941Y-117315786D01*
X31147943Y-117315789D01*
X31151667Y-117320005D01*
X31151638Y-117320031D01*
X31154238Y-117322962D01*
X31157042Y-117326316D01*
X31161054Y-117332435D01*
X31166366Y-117337467D01*
X31217586Y-117385988D01*
X31220028Y-117388366D01*
X35254388Y-121422726D01*
X35288414Y-121485038D01*
X35287811Y-121541235D01*
X35256701Y-121670814D01*
X35237090Y-121920000D01*
X35256701Y-122169186D01*
X35284162Y-122283568D01*
X35301034Y-122353842D01*
X35315053Y-122412236D01*
X35316943Y-122416799D01*
X35316945Y-122416805D01*
X35408812Y-122638592D01*
X35410707Y-122643166D01*
X35541309Y-122856289D01*
X35703643Y-123046357D01*
X35893711Y-123208691D01*
X36106834Y-123339293D01*
X36111404Y-123341186D01*
X36111408Y-123341188D01*
X36333195Y-123433055D01*
X36333201Y-123433057D01*
X36337764Y-123434947D01*
X36342564Y-123436099D01*
X36342569Y-123436101D01*
X36451233Y-123462189D01*
X36580814Y-123493299D01*
X36830000Y-123512910D01*
X37079186Y-123493299D01*
X37208767Y-123462189D01*
X37317431Y-123436101D01*
X37317436Y-123436099D01*
X37322236Y-123434947D01*
X37326799Y-123433057D01*
X37326805Y-123433055D01*
X37548592Y-123341188D01*
X37548596Y-123341186D01*
X37553166Y-123339293D01*
X37766289Y-123208691D01*
X37956357Y-123046357D01*
X38004189Y-122990353D01*
X38063639Y-122951544D01*
X38134634Y-122951038D01*
X38195811Y-122990353D01*
X38243643Y-123046357D01*
X38433711Y-123208691D01*
X38646834Y-123339293D01*
X38651404Y-123341186D01*
X38651408Y-123341188D01*
X38873195Y-123433055D01*
X38873201Y-123433057D01*
X38877764Y-123434947D01*
X38882564Y-123436099D01*
X38882569Y-123436101D01*
X38991233Y-123462189D01*
X39120814Y-123493299D01*
X39370000Y-123512910D01*
X39619186Y-123493299D01*
X39748767Y-123462189D01*
X39857431Y-123436101D01*
X39857436Y-123436099D01*
X39862236Y-123434947D01*
X39866799Y-123433057D01*
X39866805Y-123433055D01*
X40088592Y-123341188D01*
X40088596Y-123341186D01*
X40093166Y-123339293D01*
X40306289Y-123208691D01*
X40496357Y-123046357D01*
X40658691Y-122856289D01*
X40789293Y-122643166D01*
X40791188Y-122638592D01*
X40883055Y-122416805D01*
X40883057Y-122416799D01*
X40884947Y-122412236D01*
X40898967Y-122353842D01*
X40915838Y-122283568D01*
X40943299Y-122169186D01*
X40962910Y-121920000D01*
X40943299Y-121670814D01*
X40912190Y-121541236D01*
X40886101Y-121432569D01*
X40886099Y-121432564D01*
X40884947Y-121427764D01*
X40883057Y-121423201D01*
X40883055Y-121423195D01*
X40791188Y-121201408D01*
X40791186Y-121201404D01*
X40789293Y-121196834D01*
X40658691Y-120983711D01*
X40496357Y-120793643D01*
X40306289Y-120631309D01*
X40093166Y-120500707D01*
X40088596Y-120498814D01*
X40088592Y-120498812D01*
X39866805Y-120406945D01*
X39866799Y-120406943D01*
X39862236Y-120405053D01*
X39857436Y-120403901D01*
X39857431Y-120403899D01*
X39734001Y-120374266D01*
X39619186Y-120346701D01*
X39370000Y-120327090D01*
X39120814Y-120346701D01*
X38991235Y-120377811D01*
X38920327Y-120374265D01*
X38872725Y-120344388D01*
X33819405Y-115291067D01*
X33785379Y-115228755D01*
X33782500Y-115201972D01*
X33782500Y-110095028D01*
X33802502Y-110026907D01*
X33856158Y-109980414D01*
X33926432Y-109970310D01*
X33991012Y-109999804D01*
X33997595Y-110005933D01*
X36532642Y-112540980D01*
X36566668Y-112603292D01*
X36561603Y-112674107D01*
X36519056Y-112730943D01*
X36472962Y-112752593D01*
X36342581Y-112783895D01*
X36342563Y-112783901D01*
X36337764Y-112785053D01*
X36333201Y-112786943D01*
X36333195Y-112786945D01*
X36111408Y-112878812D01*
X36111404Y-112878814D01*
X36106834Y-112880707D01*
X35893711Y-113011309D01*
X35703643Y-113173643D01*
X35541309Y-113363711D01*
X35410707Y-113576834D01*
X35408814Y-113581404D01*
X35408812Y-113581408D01*
X35316945Y-113803195D01*
X35316943Y-113803201D01*
X35315053Y-113807764D01*
X35256701Y-114050814D01*
X35237090Y-114300000D01*
X35256701Y-114549186D01*
X35315053Y-114792236D01*
X35316943Y-114796799D01*
X35316945Y-114796805D01*
X35408812Y-115018592D01*
X35410707Y-115023166D01*
X35541309Y-115236289D01*
X35703643Y-115426357D01*
X35893711Y-115588691D01*
X36106834Y-115719293D01*
X36111404Y-115721186D01*
X36111408Y-115721188D01*
X36333195Y-115813055D01*
X36333201Y-115813057D01*
X36337764Y-115814947D01*
X36342564Y-115816099D01*
X36342569Y-115816101D01*
X36453832Y-115842813D01*
X36580814Y-115873299D01*
X36830000Y-115892910D01*
X37079186Y-115873299D01*
X37206168Y-115842813D01*
X37317431Y-115816101D01*
X37317436Y-115816099D01*
X37322236Y-115814947D01*
X37326799Y-115813057D01*
X37326805Y-115813055D01*
X37548592Y-115721188D01*
X37548596Y-115721186D01*
X37553166Y-115719293D01*
X37766289Y-115588691D01*
X37956357Y-115426357D01*
X38004189Y-115370353D01*
X38063639Y-115331544D01*
X38134634Y-115331038D01*
X38195811Y-115370353D01*
X38243643Y-115426357D01*
X38433711Y-115588691D01*
X38646834Y-115719293D01*
X38651404Y-115721186D01*
X38651408Y-115721188D01*
X38873195Y-115813055D01*
X38873201Y-115813057D01*
X38877764Y-115814947D01*
X38882564Y-115816099D01*
X38882569Y-115816101D01*
X38993832Y-115842813D01*
X39120814Y-115873299D01*
X39370000Y-115892910D01*
X39619186Y-115873299D01*
X39746168Y-115842813D01*
X39857431Y-115816101D01*
X39857436Y-115816099D01*
X39862236Y-115814947D01*
X39866799Y-115813057D01*
X39866805Y-115813055D01*
X40088592Y-115721188D01*
X40088596Y-115721186D01*
X40093166Y-115719293D01*
X40306289Y-115588691D01*
X40496357Y-115426357D01*
X40544189Y-115370353D01*
X40603639Y-115331544D01*
X40674634Y-115331038D01*
X40735811Y-115370353D01*
X40783643Y-115426357D01*
X40973711Y-115588691D01*
X41186834Y-115719293D01*
X41191404Y-115721186D01*
X41191408Y-115721188D01*
X41413195Y-115813055D01*
X41413201Y-115813057D01*
X41417764Y-115814947D01*
X41422564Y-115816099D01*
X41422569Y-115816101D01*
X41533832Y-115842813D01*
X41660814Y-115873299D01*
X41910000Y-115892910D01*
X42159186Y-115873299D01*
X42286168Y-115842813D01*
X42397431Y-115816101D01*
X42397436Y-115816099D01*
X42402236Y-115814947D01*
X42406799Y-115813057D01*
X42406805Y-115813055D01*
X42628592Y-115721188D01*
X42628596Y-115721186D01*
X42633166Y-115719293D01*
X42846289Y-115588691D01*
X43036357Y-115426357D01*
X43084189Y-115370353D01*
X43143639Y-115331544D01*
X43214634Y-115331038D01*
X43275811Y-115370353D01*
X43323643Y-115426357D01*
X43513711Y-115588691D01*
X43726834Y-115719293D01*
X43731404Y-115721186D01*
X43731408Y-115721188D01*
X43953195Y-115813055D01*
X43953201Y-115813057D01*
X43957764Y-115814947D01*
X43962564Y-115816099D01*
X43962569Y-115816101D01*
X44073832Y-115842813D01*
X44200814Y-115873299D01*
X44450000Y-115892910D01*
X44699186Y-115873299D01*
X44703995Y-115872145D01*
X44703998Y-115872144D01*
X44802086Y-115848595D01*
X44872994Y-115852142D01*
X44930728Y-115893462D01*
X44956958Y-115959435D01*
X44957500Y-115971114D01*
X44957500Y-120248887D01*
X44937498Y-120317008D01*
X44883842Y-120363501D01*
X44813568Y-120373605D01*
X44802093Y-120371407D01*
X44699186Y-120346701D01*
X44450000Y-120327090D01*
X44200814Y-120346701D01*
X44085999Y-120374266D01*
X43962569Y-120403899D01*
X43962564Y-120403901D01*
X43957764Y-120405053D01*
X43953201Y-120406943D01*
X43953195Y-120406945D01*
X43731408Y-120498812D01*
X43731404Y-120498814D01*
X43726834Y-120500707D01*
X43513711Y-120631309D01*
X43323643Y-120793643D01*
X43161309Y-120983711D01*
X43030707Y-121196834D01*
X43028814Y-121201404D01*
X43028812Y-121201408D01*
X42936945Y-121423195D01*
X42936943Y-121423201D01*
X42935053Y-121427764D01*
X42933901Y-121432564D01*
X42933899Y-121432569D01*
X42907810Y-121541236D01*
X42876701Y-121670814D01*
X42857090Y-121920000D01*
X42876701Y-122169186D01*
X42904162Y-122283568D01*
X42921034Y-122353842D01*
X42935053Y-122412236D01*
X42936943Y-122416799D01*
X42936945Y-122416805D01*
X43028812Y-122638592D01*
X43030707Y-122643166D01*
X43161309Y-122856289D01*
X43323643Y-123046357D01*
X43513711Y-123208691D01*
X43726834Y-123339293D01*
X43731404Y-123341186D01*
X43731408Y-123341188D01*
X43953195Y-123433055D01*
X43953201Y-123433057D01*
X43957764Y-123434947D01*
X43962564Y-123436099D01*
X43962569Y-123436101D01*
X44071233Y-123462189D01*
X44200814Y-123493299D01*
X44450000Y-123512910D01*
X44699186Y-123493299D01*
X44828767Y-123462189D01*
X44937431Y-123436101D01*
X44937436Y-123436099D01*
X44942236Y-123434947D01*
X44946799Y-123433057D01*
X44946805Y-123433055D01*
X45168592Y-123341188D01*
X45168596Y-123341186D01*
X45173166Y-123339293D01*
X45386289Y-123208691D01*
X45576357Y-123046357D01*
X45624189Y-122990353D01*
X45683639Y-122951544D01*
X45754634Y-122951038D01*
X45815811Y-122990353D01*
X45863643Y-123046357D01*
X46053711Y-123208691D01*
X46266834Y-123339293D01*
X46271404Y-123341186D01*
X46271408Y-123341188D01*
X46493195Y-123433055D01*
X46493201Y-123433057D01*
X46497764Y-123434947D01*
X46502564Y-123436099D01*
X46502569Y-123436101D01*
X46611233Y-123462189D01*
X46740814Y-123493299D01*
X46990000Y-123512910D01*
X47239186Y-123493299D01*
X47368767Y-123462189D01*
X47477431Y-123436101D01*
X47477436Y-123436099D01*
X47482236Y-123434947D01*
X47486799Y-123433057D01*
X47486805Y-123433055D01*
X47708592Y-123341188D01*
X47708596Y-123341186D01*
X47713166Y-123339293D01*
X47926289Y-123208691D01*
X48116357Y-123046357D01*
X48164189Y-122990353D01*
X48223639Y-122951544D01*
X48294634Y-122951038D01*
X48355811Y-122990353D01*
X48403643Y-123046357D01*
X48593711Y-123208691D01*
X48806834Y-123339293D01*
X48811404Y-123341186D01*
X48811408Y-123341188D01*
X49033195Y-123433055D01*
X49033201Y-123433057D01*
X49037764Y-123434947D01*
X49042564Y-123436099D01*
X49042569Y-123436101D01*
X49151233Y-123462189D01*
X49280814Y-123493299D01*
X49530000Y-123512910D01*
X49779186Y-123493299D01*
X49908767Y-123462189D01*
X50017431Y-123436101D01*
X50017436Y-123436099D01*
X50022236Y-123434947D01*
X50026799Y-123433057D01*
X50026805Y-123433055D01*
X50248592Y-123341188D01*
X50248596Y-123341186D01*
X50253166Y-123339293D01*
X50466289Y-123208691D01*
X50656357Y-123046357D01*
X50704189Y-122990353D01*
X50763639Y-122951544D01*
X50834634Y-122951038D01*
X50895811Y-122990353D01*
X50943643Y-123046357D01*
X51133711Y-123208691D01*
X51346834Y-123339293D01*
X51351404Y-123341186D01*
X51351408Y-123341188D01*
X51573195Y-123433055D01*
X51573201Y-123433057D01*
X51577764Y-123434947D01*
X51582564Y-123436099D01*
X51582569Y-123436101D01*
X51691233Y-123462189D01*
X51820814Y-123493299D01*
X52070000Y-123512910D01*
X52319186Y-123493299D01*
X52448767Y-123462189D01*
X52557431Y-123436101D01*
X52557436Y-123436099D01*
X52562236Y-123434947D01*
X52566799Y-123433057D01*
X52566805Y-123433055D01*
X52788592Y-123341188D01*
X52788596Y-123341186D01*
X52793166Y-123339293D01*
X53006289Y-123208691D01*
X53196357Y-123046357D01*
X53244189Y-122990353D01*
X53303639Y-122951544D01*
X53374634Y-122951038D01*
X53435811Y-122990353D01*
X53483643Y-123046357D01*
X53673711Y-123208691D01*
X53886834Y-123339293D01*
X53891404Y-123341186D01*
X53891408Y-123341188D01*
X54113195Y-123433055D01*
X54113201Y-123433057D01*
X54117764Y-123434947D01*
X54122564Y-123436099D01*
X54122569Y-123436101D01*
X54231233Y-123462189D01*
X54360814Y-123493299D01*
X54610000Y-123512910D01*
X54859186Y-123493299D01*
X54988767Y-123462189D01*
X55097431Y-123436101D01*
X55097436Y-123436099D01*
X55102236Y-123434947D01*
X55106799Y-123433057D01*
X55106805Y-123433055D01*
X55328592Y-123341188D01*
X55328596Y-123341186D01*
X55333166Y-123339293D01*
X55546289Y-123208691D01*
X55736357Y-123046357D01*
X55784189Y-122990353D01*
X55843639Y-122951544D01*
X55914634Y-122951038D01*
X55975811Y-122990353D01*
X56023643Y-123046357D01*
X56213711Y-123208691D01*
X56426834Y-123339293D01*
X56431404Y-123341186D01*
X56431408Y-123341188D01*
X56653195Y-123433055D01*
X56653201Y-123433057D01*
X56657764Y-123434947D01*
X56662564Y-123436099D01*
X56662569Y-123436101D01*
X56771233Y-123462189D01*
X56900814Y-123493299D01*
X57150000Y-123512910D01*
X57399186Y-123493299D01*
X57528767Y-123462189D01*
X57637431Y-123436101D01*
X57637436Y-123436099D01*
X57642236Y-123434947D01*
X57646799Y-123433057D01*
X57646805Y-123433055D01*
X57868592Y-123341188D01*
X57868596Y-123341186D01*
X57873166Y-123339293D01*
X58086289Y-123208691D01*
X58276357Y-123046357D01*
X58324189Y-122990353D01*
X58383639Y-122951544D01*
X58454634Y-122951038D01*
X58515811Y-122990353D01*
X58563643Y-123046357D01*
X58753711Y-123208691D01*
X58966834Y-123339293D01*
X58971404Y-123341186D01*
X58971408Y-123341188D01*
X59193195Y-123433055D01*
X59193201Y-123433057D01*
X59197764Y-123434947D01*
X59202564Y-123436099D01*
X59202569Y-123436101D01*
X59311233Y-123462189D01*
X59440814Y-123493299D01*
X59690000Y-123512910D01*
X59939186Y-123493299D01*
X60068765Y-123462189D01*
X60139672Y-123465735D01*
X60187274Y-123495612D01*
X60373190Y-123681528D01*
X60385577Y-123695941D01*
X60398546Y-123713564D01*
X60404129Y-123718307D01*
X60439055Y-123747979D01*
X60446571Y-123754909D01*
X60452315Y-123760653D01*
X60455189Y-123762927D01*
X60455196Y-123762933D01*
X60474711Y-123778372D01*
X60478115Y-123781163D01*
X60528472Y-123823945D01*
X60528476Y-123823948D01*
X60534051Y-123828684D01*
X60540568Y-123832012D01*
X60545632Y-123835389D01*
X60550856Y-123838616D01*
X60556600Y-123843160D01*
X60563231Y-123846259D01*
X60623082Y-123874232D01*
X60627033Y-123876163D01*
X60692404Y-123909543D01*
X60699519Y-123911284D01*
X60705265Y-123913421D01*
X60711048Y-123915345D01*
X60717679Y-123918444D01*
X60789557Y-123933394D01*
X60793829Y-123934361D01*
X60865112Y-123951804D01*
X60870711Y-123952151D01*
X60870715Y-123952152D01*
X60876330Y-123952500D01*
X60876328Y-123952539D01*
X60880229Y-123952772D01*
X60884588Y-123953161D01*
X60891756Y-123954652D01*
X60899073Y-123954454D01*
X60969577Y-123952546D01*
X60972986Y-123952500D01*
X65227985Y-123952500D01*
X65246935Y-123953933D01*
X65261334Y-123956124D01*
X65261340Y-123956124D01*
X65268569Y-123957224D01*
X65275861Y-123956631D01*
X65275864Y-123956631D01*
X65321544Y-123952915D01*
X65331759Y-123952500D01*
X65339886Y-123952500D01*
X65343522Y-123952076D01*
X65343524Y-123952076D01*
X65346976Y-123951673D01*
X65368285Y-123949189D01*
X65372605Y-123948762D01*
X65445787Y-123942809D01*
X65452749Y-123940553D01*
X65458737Y-123939357D01*
X65464694Y-123937949D01*
X65471968Y-123937101D01*
X65478850Y-123934603D01*
X65478854Y-123934602D01*
X65540968Y-123912055D01*
X65545072Y-123910645D01*
X65614936Y-123888013D01*
X65621199Y-123884213D01*
X65626741Y-123881675D01*
X65632217Y-123878933D01*
X65639102Y-123876434D01*
X65700493Y-123836185D01*
X65704161Y-123833870D01*
X65766942Y-123795773D01*
X65771147Y-123792059D01*
X65771150Y-123792057D01*
X65775366Y-123788333D01*
X65775392Y-123788362D01*
X65778323Y-123785762D01*
X65781677Y-123782958D01*
X65787796Y-123778946D01*
X65841350Y-123722413D01*
X65843727Y-123719972D01*
X67643699Y-121920000D01*
X86037090Y-121920000D01*
X86056701Y-122169186D01*
X86084162Y-122283568D01*
X86101034Y-122353842D01*
X86115053Y-122412236D01*
X86116943Y-122416799D01*
X86116945Y-122416805D01*
X86208812Y-122638592D01*
X86210707Y-122643166D01*
X86341309Y-122856289D01*
X86503643Y-123046357D01*
X86693711Y-123208691D01*
X86906834Y-123339293D01*
X86911404Y-123341186D01*
X86911408Y-123341188D01*
X87133195Y-123433055D01*
X87133201Y-123433057D01*
X87137764Y-123434947D01*
X87142564Y-123436099D01*
X87142569Y-123436101D01*
X87251233Y-123462189D01*
X87380814Y-123493299D01*
X87630000Y-123512910D01*
X87879186Y-123493299D01*
X88008767Y-123462189D01*
X88117431Y-123436101D01*
X88117436Y-123436099D01*
X88122236Y-123434947D01*
X88126799Y-123433057D01*
X88126805Y-123433055D01*
X88348592Y-123341188D01*
X88348596Y-123341186D01*
X88353166Y-123339293D01*
X88566289Y-123208691D01*
X88756357Y-123046357D01*
X88918691Y-122856289D01*
X89049293Y-122643166D01*
X89051188Y-122638592D01*
X89143055Y-122416805D01*
X89143057Y-122416799D01*
X89144947Y-122412236D01*
X89158967Y-122353842D01*
X89175838Y-122283568D01*
X89203299Y-122169186D01*
X89222910Y-121920000D01*
X89203299Y-121670814D01*
X89172190Y-121541236D01*
X89146101Y-121432569D01*
X89146099Y-121432564D01*
X89144947Y-121427764D01*
X89143057Y-121423201D01*
X89143055Y-121423195D01*
X89051188Y-121201408D01*
X89051186Y-121201404D01*
X89049293Y-121196834D01*
X88918691Y-120983711D01*
X88756357Y-120793643D01*
X88566289Y-120631309D01*
X88452665Y-120561680D01*
X88405034Y-120509032D01*
X88392500Y-120454247D01*
X88392500Y-119748028D01*
X88412502Y-119679907D01*
X88429405Y-119658933D01*
X89806145Y-118282193D01*
X89868457Y-118248167D01*
X89920361Y-118247818D01*
X89995119Y-118263028D01*
X89995130Y-118263029D01*
X90000191Y-118264059D01*
X90235057Y-118272672D01*
X90429068Y-118247818D01*
X90463056Y-118243464D01*
X90463057Y-118243464D01*
X90468176Y-118242808D01*
X90693287Y-118175272D01*
X90697921Y-118173002D01*
X90899710Y-118074147D01*
X90899713Y-118074145D01*
X90904345Y-118071876D01*
X91052278Y-117966357D01*
X91091478Y-117938396D01*
X91091480Y-117938394D01*
X91095682Y-117935397D01*
X91262159Y-117769500D01*
X91399305Y-117578641D01*
X91503437Y-117367945D01*
X91504937Y-117363006D01*
X91504940Y-117363000D01*
X91570258Y-117148011D01*
X91571759Y-117143071D01*
X91592815Y-116983133D01*
X91601999Y-116913379D01*
X91601999Y-116913375D01*
X91602436Y-116910058D01*
X91603060Y-116884525D01*
X91604066Y-116843365D01*
X91604066Y-116843361D01*
X91604148Y-116840000D01*
X94927090Y-116840000D01*
X94946701Y-117089186D01*
X94963421Y-117158829D01*
X95002123Y-117320031D01*
X95005053Y-117332236D01*
X95006943Y-117336799D01*
X95006945Y-117336805D01*
X95098812Y-117558592D01*
X95100707Y-117563166D01*
X95231309Y-117776289D01*
X95393643Y-117966357D01*
X95583711Y-118128691D01*
X95796834Y-118259293D01*
X95801404Y-118261186D01*
X95801408Y-118261188D01*
X96023195Y-118353055D01*
X96023201Y-118353057D01*
X96027764Y-118354947D01*
X96032564Y-118356099D01*
X96032569Y-118356101D01*
X96143832Y-118382813D01*
X96270814Y-118413299D01*
X96520000Y-118432910D01*
X96769186Y-118413299D01*
X96896168Y-118382813D01*
X97007431Y-118356101D01*
X97007436Y-118356099D01*
X97012236Y-118354947D01*
X97016799Y-118353057D01*
X97016805Y-118353055D01*
X97238592Y-118261188D01*
X97238596Y-118261186D01*
X97243166Y-118259293D01*
X97456289Y-118128691D01*
X97646357Y-117966357D01*
X97808691Y-117776289D01*
X97939293Y-117563166D01*
X97941188Y-117558592D01*
X98033055Y-117336805D01*
X98033057Y-117336799D01*
X98034947Y-117332236D01*
X98037878Y-117320031D01*
X98076579Y-117158829D01*
X98093299Y-117089186D01*
X98112910Y-116840000D01*
X105087090Y-116840000D01*
X105106701Y-117089186D01*
X105123421Y-117158829D01*
X105162123Y-117320031D01*
X105165053Y-117332236D01*
X105166943Y-117336799D01*
X105166945Y-117336805D01*
X105258812Y-117558592D01*
X105260707Y-117563166D01*
X105391309Y-117776289D01*
X105553643Y-117966357D01*
X105743711Y-118128691D01*
X105956834Y-118259293D01*
X105961404Y-118261186D01*
X105961408Y-118261188D01*
X106183195Y-118353055D01*
X106183201Y-118353057D01*
X106187764Y-118354947D01*
X106192564Y-118356099D01*
X106192569Y-118356101D01*
X106303832Y-118382813D01*
X106430814Y-118413299D01*
X106680000Y-118432910D01*
X106929186Y-118413299D01*
X107056168Y-118382813D01*
X107167431Y-118356101D01*
X107167436Y-118356099D01*
X107172236Y-118354947D01*
X107176799Y-118353057D01*
X107176805Y-118353055D01*
X107398592Y-118261188D01*
X107398596Y-118261186D01*
X107403166Y-118259293D01*
X107616289Y-118128691D01*
X107806357Y-117966357D01*
X107968691Y-117776289D01*
X108099293Y-117563166D01*
X108101188Y-117558592D01*
X108193055Y-117336805D01*
X108193057Y-117336799D01*
X108194947Y-117332236D01*
X108197878Y-117320031D01*
X108236579Y-117158829D01*
X108253299Y-117089186D01*
X108272910Y-116840000D01*
X108253299Y-116590814D01*
X108201944Y-116376907D01*
X108196101Y-116352569D01*
X108196099Y-116352564D01*
X108194947Y-116347764D01*
X108193057Y-116343201D01*
X108193055Y-116343195D01*
X108101188Y-116121408D01*
X108101186Y-116121404D01*
X108099293Y-116116834D01*
X107968691Y-115903711D01*
X107806357Y-115713643D01*
X107638173Y-115570000D01*
X111437090Y-115570000D01*
X111456701Y-115819186D01*
X111515053Y-116062236D01*
X111516943Y-116066799D01*
X111516945Y-116066805D01*
X111608812Y-116288592D01*
X111610707Y-116293166D01*
X111741309Y-116506289D01*
X111903643Y-116696357D01*
X112093711Y-116858691D01*
X112306834Y-116989293D01*
X112311404Y-116991186D01*
X112311408Y-116991188D01*
X112533195Y-117083055D01*
X112533201Y-117083057D01*
X112537764Y-117084947D01*
X112542564Y-117086099D01*
X112542569Y-117086101D01*
X112653832Y-117112813D01*
X112780814Y-117143299D01*
X113030000Y-117162910D01*
X113279186Y-117143299D01*
X113406168Y-117112813D01*
X113517431Y-117086101D01*
X113517436Y-117086099D01*
X113522236Y-117084947D01*
X113526799Y-117083057D01*
X113526805Y-117083055D01*
X113748592Y-116991188D01*
X113748596Y-116991186D01*
X113753166Y-116989293D01*
X113966289Y-116858691D01*
X114156357Y-116696357D01*
X114318691Y-116506289D01*
X114449293Y-116293166D01*
X114451188Y-116288592D01*
X114543055Y-116066805D01*
X114543057Y-116066799D01*
X114544947Y-116062236D01*
X114603299Y-115819186D01*
X114603687Y-115814253D01*
X114603689Y-115814242D01*
X114605873Y-115786496D01*
X114631158Y-115720155D01*
X114688297Y-115678016D01*
X114759147Y-115673457D01*
X114797319Y-115688951D01*
X114842604Y-115716702D01*
X114842614Y-115716707D01*
X114846834Y-115719293D01*
X114851404Y-115721186D01*
X114851408Y-115721188D01*
X115073195Y-115813055D01*
X115073201Y-115813057D01*
X115077764Y-115814947D01*
X115082564Y-115816099D01*
X115082569Y-115816101D01*
X115193832Y-115842813D01*
X115320814Y-115873299D01*
X115570000Y-115892910D01*
X115819186Y-115873299D01*
X115946168Y-115842813D01*
X116057431Y-115816101D01*
X116057436Y-115816099D01*
X116062236Y-115814947D01*
X116066799Y-115813057D01*
X116066805Y-115813055D01*
X116288592Y-115721188D01*
X116288596Y-115721186D01*
X116293166Y-115719293D01*
X116506289Y-115588691D01*
X116696357Y-115426357D01*
X116858691Y-115236289D01*
X116989293Y-115023166D01*
X116991188Y-115018592D01*
X117083055Y-114796805D01*
X117083057Y-114796799D01*
X117084947Y-114792236D01*
X117143299Y-114549186D01*
X117162910Y-114300000D01*
X117143299Y-114050814D01*
X117084947Y-113807764D01*
X117083057Y-113803201D01*
X117083055Y-113803195D01*
X116991188Y-113581408D01*
X116991186Y-113581404D01*
X116989293Y-113576834D01*
X116858691Y-113363711D01*
X116696357Y-113173643D01*
X116506289Y-113011309D01*
X116293166Y-112880707D01*
X116288596Y-112878814D01*
X116288592Y-112878812D01*
X116066805Y-112786945D01*
X116066799Y-112786943D01*
X116062236Y-112785053D01*
X116057436Y-112783901D01*
X116057431Y-112783899D01*
X115934001Y-112754266D01*
X115819186Y-112726701D01*
X115570000Y-112707090D01*
X115320814Y-112726701D01*
X115205999Y-112754266D01*
X115082569Y-112783899D01*
X115082564Y-112783901D01*
X115077764Y-112785053D01*
X115073201Y-112786943D01*
X115073195Y-112786945D01*
X114851408Y-112878812D01*
X114851404Y-112878814D01*
X114846834Y-112880707D01*
X114633711Y-113011309D01*
X114443643Y-113173643D01*
X114281309Y-113363711D01*
X114150707Y-113576834D01*
X114148814Y-113581404D01*
X114148812Y-113581408D01*
X114056945Y-113803195D01*
X114056943Y-113803201D01*
X114055053Y-113807764D01*
X113996701Y-114050814D01*
X113996313Y-114055745D01*
X113996311Y-114055758D01*
X113994127Y-114083504D01*
X113968842Y-114149845D01*
X113911703Y-114191984D01*
X113840853Y-114196543D01*
X113802681Y-114181049D01*
X113757396Y-114153298D01*
X113757385Y-114153292D01*
X113753166Y-114150707D01*
X113748596Y-114148814D01*
X113748592Y-114148812D01*
X113526805Y-114056945D01*
X113526799Y-114056943D01*
X113522236Y-114055053D01*
X113517436Y-114053901D01*
X113517431Y-114053899D01*
X113406168Y-114027187D01*
X113279186Y-113996701D01*
X113030000Y-113977090D01*
X112780814Y-113996701D01*
X112653832Y-114027187D01*
X112542569Y-114053899D01*
X112542564Y-114053901D01*
X112537764Y-114055053D01*
X112533201Y-114056943D01*
X112533195Y-114056945D01*
X112311408Y-114148812D01*
X112311404Y-114148814D01*
X112306834Y-114150707D01*
X112093711Y-114281309D01*
X111903643Y-114443643D01*
X111741309Y-114633711D01*
X111610707Y-114846834D01*
X111608814Y-114851404D01*
X111608812Y-114851408D01*
X111516945Y-115073195D01*
X111516943Y-115073201D01*
X111515053Y-115077764D01*
X111456701Y-115320814D01*
X111437090Y-115570000D01*
X107638173Y-115570000D01*
X107616289Y-115551309D01*
X107403166Y-115420707D01*
X107398596Y-115418814D01*
X107398592Y-115418812D01*
X107176805Y-115326945D01*
X107176799Y-115326943D01*
X107172236Y-115325053D01*
X107167436Y-115323901D01*
X107167431Y-115323899D01*
X107030676Y-115291067D01*
X106929186Y-115266701D01*
X106680000Y-115247090D01*
X106430814Y-115266701D01*
X106329324Y-115291067D01*
X106192569Y-115323899D01*
X106192564Y-115323901D01*
X106187764Y-115325053D01*
X106183201Y-115326943D01*
X106183195Y-115326945D01*
X105961408Y-115418812D01*
X105961404Y-115418814D01*
X105956834Y-115420707D01*
X105743711Y-115551309D01*
X105553643Y-115713643D01*
X105391309Y-115903711D01*
X105260707Y-116116834D01*
X105258814Y-116121404D01*
X105258812Y-116121408D01*
X105166945Y-116343195D01*
X105166943Y-116343201D01*
X105165053Y-116347764D01*
X105163901Y-116352564D01*
X105163899Y-116352569D01*
X105158056Y-116376907D01*
X105106701Y-116590814D01*
X105087090Y-116840000D01*
X98112910Y-116840000D01*
X98093299Y-116590814D01*
X98041944Y-116376907D01*
X98036101Y-116352569D01*
X98036099Y-116352564D01*
X98034947Y-116347764D01*
X98033057Y-116343201D01*
X98033055Y-116343195D01*
X97941188Y-116121408D01*
X97941186Y-116121404D01*
X97939293Y-116116834D01*
X97808691Y-115903711D01*
X97646357Y-115713643D01*
X97456289Y-115551309D01*
X97243166Y-115420707D01*
X97238596Y-115418814D01*
X97238592Y-115418812D01*
X97016805Y-115326945D01*
X97016799Y-115326943D01*
X97012236Y-115325053D01*
X97007436Y-115323901D01*
X97007431Y-115323899D01*
X96870676Y-115291067D01*
X96769186Y-115266701D01*
X96520000Y-115247090D01*
X96270814Y-115266701D01*
X96169324Y-115291067D01*
X96032569Y-115323899D01*
X96032564Y-115323901D01*
X96027764Y-115325053D01*
X96023201Y-115326943D01*
X96023195Y-115326945D01*
X95801408Y-115418812D01*
X95801404Y-115418814D01*
X95796834Y-115420707D01*
X95583711Y-115551309D01*
X95393643Y-115713643D01*
X95231309Y-115903711D01*
X95100707Y-116116834D01*
X95098814Y-116121404D01*
X95098812Y-116121408D01*
X95006945Y-116343195D01*
X95006943Y-116343201D01*
X95005053Y-116347764D01*
X95003901Y-116352564D01*
X95003899Y-116352569D01*
X94998056Y-116376907D01*
X94946701Y-116590814D01*
X94927090Y-116840000D01*
X91604148Y-116840000D01*
X91592338Y-116696357D01*
X91585314Y-116610917D01*
X91585313Y-116610911D01*
X91584890Y-116605766D01*
X91556263Y-116491795D01*
X91528894Y-116382834D01*
X91528893Y-116382830D01*
X91527635Y-116377823D01*
X91525579Y-116373093D01*
X91525576Y-116373086D01*
X91435980Y-116167029D01*
X91435978Y-116167026D01*
X91433920Y-116162292D01*
X91414074Y-116131614D01*
X91309069Y-115969302D01*
X91309067Y-115969299D01*
X91306261Y-115964962D01*
X91148087Y-115791131D01*
X90963645Y-115645468D01*
X90757890Y-115531885D01*
X90638203Y-115489501D01*
X90541222Y-115455158D01*
X90541218Y-115455157D01*
X90536347Y-115453432D01*
X90531254Y-115452525D01*
X90531251Y-115452524D01*
X90310054Y-115413123D01*
X90310048Y-115413122D01*
X90304965Y-115412217D01*
X90231830Y-115411324D01*
X90075130Y-115409409D01*
X90075128Y-115409409D01*
X90069959Y-115409346D01*
X89837639Y-115444895D01*
X89832720Y-115446503D01*
X89832719Y-115446503D01*
X89741178Y-115476423D01*
X89614245Y-115517912D01*
X89405777Y-115626434D01*
X89401635Y-115629544D01*
X89285545Y-115716707D01*
X89217832Y-115767547D01*
X89195295Y-115791131D01*
X89091303Y-115899952D01*
X89055458Y-115937461D01*
X89052544Y-115941733D01*
X89052543Y-115941734D01*
X88973620Y-116057431D01*
X88923016Y-116131614D01*
X88908776Y-116162292D01*
X88826239Y-116340100D01*
X88826237Y-116340105D01*
X88824062Y-116344791D01*
X88761255Y-116571267D01*
X88736280Y-116804961D01*
X88736577Y-116810113D01*
X88736577Y-116810117D01*
X88739193Y-116855480D01*
X88749809Y-117039595D01*
X88760713Y-117087979D01*
X88756175Y-117158829D01*
X88726890Y-117204772D01*
X87138472Y-118793190D01*
X87124059Y-118805577D01*
X87106436Y-118818546D01*
X87101692Y-118824129D01*
X87101693Y-118824129D01*
X87072021Y-118859055D01*
X87065091Y-118866571D01*
X87059347Y-118872315D01*
X87057073Y-118875189D01*
X87057067Y-118875196D01*
X87041628Y-118894711D01*
X87038837Y-118898115D01*
X86996055Y-118948472D01*
X86996052Y-118948476D01*
X86991316Y-118954051D01*
X86987988Y-118960568D01*
X86984611Y-118965632D01*
X86981384Y-118970856D01*
X86976840Y-118976600D01*
X86973741Y-118983231D01*
X86945768Y-119043082D01*
X86943837Y-119047033D01*
X86910457Y-119112404D01*
X86908716Y-119119519D01*
X86906579Y-119125265D01*
X86904655Y-119131048D01*
X86901556Y-119137679D01*
X86900066Y-119144843D01*
X86886608Y-119209547D01*
X86885639Y-119213829D01*
X86868196Y-119285112D01*
X86867500Y-119296330D01*
X86867461Y-119296328D01*
X86867228Y-119300229D01*
X86866839Y-119304588D01*
X86865348Y-119311756D01*
X86865546Y-119319073D01*
X86867454Y-119389577D01*
X86867500Y-119392986D01*
X86867500Y-120454247D01*
X86847498Y-120522368D01*
X86807335Y-120561680D01*
X86693711Y-120631309D01*
X86503643Y-120793643D01*
X86341309Y-120983711D01*
X86210707Y-121196834D01*
X86208814Y-121201404D01*
X86208812Y-121201408D01*
X86116945Y-121423195D01*
X86116943Y-121423201D01*
X86115053Y-121427764D01*
X86113901Y-121432564D01*
X86113899Y-121432569D01*
X86087810Y-121541236D01*
X86056701Y-121670814D01*
X86037090Y-121920000D01*
X67643699Y-121920000D01*
X75263699Y-114300000D01*
X86037090Y-114300000D01*
X86056701Y-114549186D01*
X86115053Y-114792236D01*
X86116943Y-114796799D01*
X86116945Y-114796805D01*
X86208812Y-115018592D01*
X86210707Y-115023166D01*
X86341309Y-115236289D01*
X86503643Y-115426357D01*
X86693711Y-115588691D01*
X86906834Y-115719293D01*
X86911404Y-115721186D01*
X86911408Y-115721188D01*
X87133195Y-115813055D01*
X87133201Y-115813057D01*
X87137764Y-115814947D01*
X87142564Y-115816099D01*
X87142569Y-115816101D01*
X87253832Y-115842813D01*
X87380814Y-115873299D01*
X87630000Y-115892910D01*
X87879186Y-115873299D01*
X88006168Y-115842813D01*
X88117431Y-115816101D01*
X88117436Y-115816099D01*
X88122236Y-115814947D01*
X88126799Y-115813057D01*
X88126805Y-115813055D01*
X88348592Y-115721188D01*
X88348596Y-115721186D01*
X88353166Y-115719293D01*
X88566289Y-115588691D01*
X88756357Y-115426357D01*
X88918691Y-115236289D01*
X89049293Y-115023166D01*
X89051188Y-115018592D01*
X89143055Y-114796805D01*
X89143057Y-114796799D01*
X89144947Y-114792236D01*
X89203299Y-114549186D01*
X89222910Y-114300000D01*
X89203299Y-114050814D01*
X89144947Y-113807764D01*
X89143057Y-113803201D01*
X89143055Y-113803195D01*
X89051188Y-113581408D01*
X89051186Y-113581404D01*
X89049293Y-113576834D01*
X88918691Y-113363711D01*
X88756357Y-113173643D01*
X88566289Y-113011309D01*
X88353166Y-112880707D01*
X88348596Y-112878814D01*
X88348592Y-112878812D01*
X88126805Y-112786945D01*
X88126799Y-112786943D01*
X88122236Y-112785053D01*
X88117436Y-112783901D01*
X88117431Y-112783899D01*
X87994001Y-112754266D01*
X87879186Y-112726701D01*
X87630000Y-112707090D01*
X87380814Y-112726701D01*
X87265999Y-112754266D01*
X87142569Y-112783899D01*
X87142564Y-112783901D01*
X87137764Y-112785053D01*
X87133201Y-112786943D01*
X87133195Y-112786945D01*
X86911408Y-112878812D01*
X86911404Y-112878814D01*
X86906834Y-112880707D01*
X86693711Y-113011309D01*
X86503643Y-113173643D01*
X86341309Y-113363711D01*
X86210707Y-113576834D01*
X86208814Y-113581404D01*
X86208812Y-113581408D01*
X86116945Y-113803195D01*
X86116943Y-113803201D01*
X86115053Y-113807764D01*
X86056701Y-114050814D01*
X86037090Y-114300000D01*
X75263699Y-114300000D01*
X83354294Y-106209405D01*
X83416606Y-106175379D01*
X83443389Y-106172500D01*
X83752624Y-106172500D01*
X83771574Y-106173933D01*
X83785973Y-106176124D01*
X83785979Y-106176124D01*
X83793208Y-106177224D01*
X83800500Y-106176631D01*
X83800503Y-106176631D01*
X83846183Y-106172915D01*
X83856398Y-106172500D01*
X83864525Y-106172500D01*
X83868161Y-106172076D01*
X83868163Y-106172076D01*
X83871615Y-106171673D01*
X83892924Y-106169189D01*
X83897244Y-106168762D01*
X83970426Y-106162809D01*
X83977388Y-106160553D01*
X83983376Y-106159357D01*
X83989333Y-106157949D01*
X83996607Y-106157101D01*
X84003489Y-106154603D01*
X84003493Y-106154602D01*
X84065607Y-106132055D01*
X84069711Y-106130645D01*
X84139575Y-106108013D01*
X84145838Y-106104213D01*
X84151380Y-106101675D01*
X84156856Y-106098933D01*
X84163741Y-106096434D01*
X84225132Y-106056185D01*
X84228800Y-106053870D01*
X84291581Y-106015773D01*
X84295786Y-106012059D01*
X84295789Y-106012057D01*
X84300005Y-106008333D01*
X84300031Y-106008362D01*
X84302962Y-106005762D01*
X84306316Y-106002958D01*
X84312435Y-105998946D01*
X84365989Y-105942413D01*
X84368366Y-105939972D01*
X86851528Y-103456810D01*
X86865941Y-103444423D01*
X86877665Y-103435795D01*
X86883564Y-103431454D01*
X86917979Y-103390945D01*
X86924909Y-103383429D01*
X86930653Y-103377685D01*
X86932927Y-103374811D01*
X86932933Y-103374804D01*
X86948372Y-103355289D01*
X86951163Y-103351885D01*
X86993945Y-103301528D01*
X86993948Y-103301524D01*
X86998684Y-103295949D01*
X87002011Y-103289434D01*
X87005392Y-103284364D01*
X87008617Y-103279142D01*
X87013160Y-103273400D01*
X87044246Y-103206888D01*
X87046152Y-103202988D01*
X87076213Y-103144117D01*
X87079543Y-103137596D01*
X87081284Y-103130481D01*
X87083418Y-103124743D01*
X87085346Y-103118947D01*
X87087568Y-103114192D01*
X87087783Y-103113883D01*
X87087997Y-103113277D01*
X87088419Y-103112373D01*
X87088731Y-103112519D01*
X87126820Y-103057641D01*
X87192408Y-103030462D01*
X87262279Y-103043057D01*
X87314248Y-103091427D01*
X87328414Y-103126322D01*
X87344710Y-103194199D01*
X87383898Y-103357428D01*
X87383899Y-103357431D01*
X87385053Y-103362236D01*
X87386943Y-103366799D01*
X87386945Y-103366805D01*
X87478812Y-103588592D01*
X87480707Y-103593166D01*
X87611309Y-103806289D01*
X87773643Y-103996357D01*
X87963711Y-104158691D01*
X88176834Y-104289293D01*
X88181404Y-104291186D01*
X88181408Y-104291188D01*
X88403195Y-104383055D01*
X88403201Y-104383057D01*
X88407764Y-104384947D01*
X88412563Y-104386099D01*
X88412581Y-104386105D01*
X88542962Y-104417407D01*
X88604531Y-104452759D01*
X88637213Y-104515786D01*
X88630632Y-104586477D01*
X88602642Y-104629020D01*
X82620742Y-110610920D01*
X82558430Y-110644946D01*
X82530002Y-110647814D01*
X82462399Y-110646929D01*
X82456703Y-110647908D01*
X82456700Y-110647908D01*
X82266722Y-110680552D01*
X82266721Y-110680552D01*
X82261025Y-110681531D01*
X82069329Y-110752252D01*
X82064368Y-110755204D01*
X82064367Y-110755204D01*
X81898698Y-110853766D01*
X81898695Y-110853768D01*
X81893730Y-110856722D01*
X81740110Y-110991443D01*
X81613613Y-111151903D01*
X81610922Y-111157019D01*
X81610920Y-111157021D01*
X81578236Y-111219144D01*
X81518476Y-111332729D01*
X81457885Y-111527864D01*
X81433870Y-111730773D01*
X81447233Y-111934661D01*
X81448655Y-111940259D01*
X81448655Y-111940261D01*
X81473715Y-112038933D01*
X81497529Y-112132700D01*
X81583071Y-112318256D01*
X81700997Y-112485117D01*
X81847356Y-112627694D01*
X81852152Y-112630899D01*
X81852155Y-112630901D01*
X81980512Y-112716666D01*
X82017246Y-112741211D01*
X82022554Y-112743492D01*
X82022555Y-112743492D01*
X82199676Y-112819589D01*
X82199679Y-112819590D01*
X82204979Y-112821867D01*
X82210608Y-112823141D01*
X82210609Y-112823141D01*
X82398629Y-112865686D01*
X82398635Y-112865687D01*
X82404266Y-112866961D01*
X82410037Y-112867188D01*
X82410039Y-112867188D01*
X82471351Y-112869597D01*
X82608434Y-112874983D01*
X82727067Y-112857782D01*
X82804923Y-112846494D01*
X82804927Y-112846493D01*
X82810645Y-112845664D01*
X82816117Y-112843806D01*
X82816119Y-112843806D01*
X82998663Y-112781840D01*
X82998665Y-112781839D01*
X83004127Y-112779985D01*
X83182400Y-112680148D01*
X83189664Y-112674107D01*
X83335056Y-112553185D01*
X83339494Y-112549494D01*
X83470148Y-112392400D01*
X83569985Y-112214127D01*
X83599526Y-112127105D01*
X83633806Y-112026119D01*
X83633806Y-112026117D01*
X83635664Y-112020645D01*
X83664983Y-111818434D01*
X83666224Y-111771048D01*
X83688003Y-111703475D01*
X83703086Y-111685252D01*
X91931528Y-103456810D01*
X91945941Y-103444423D01*
X91957665Y-103435795D01*
X91963564Y-103431454D01*
X91997979Y-103390945D01*
X92004909Y-103383429D01*
X92010653Y-103377685D01*
X92012927Y-103374811D01*
X92012933Y-103374804D01*
X92028372Y-103355289D01*
X92031163Y-103351885D01*
X92073945Y-103301528D01*
X92073948Y-103301524D01*
X92078684Y-103295949D01*
X92082012Y-103289432D01*
X92085389Y-103284368D01*
X92088616Y-103279144D01*
X92093160Y-103273400D01*
X92124242Y-103206896D01*
X92126147Y-103202999D01*
X92159543Y-103137596D01*
X92161284Y-103130482D01*
X92163416Y-103124748D01*
X92165345Y-103118949D01*
X92167571Y-103114189D01*
X92167807Y-103113848D01*
X92168042Y-103113181D01*
X92168464Y-103112279D01*
X92168790Y-103112432D01*
X92206823Y-103057640D01*
X92272412Y-103030463D01*
X92342282Y-103043060D01*
X92394250Y-103091432D01*
X92408415Y-103126325D01*
X92463898Y-103357428D01*
X92463899Y-103357431D01*
X92465053Y-103362236D01*
X92466943Y-103366799D01*
X92466945Y-103366805D01*
X92558812Y-103588592D01*
X92560707Y-103593166D01*
X92691309Y-103806289D01*
X92853643Y-103996357D01*
X93043711Y-104158691D01*
X93256834Y-104289293D01*
X93261404Y-104291186D01*
X93261408Y-104291188D01*
X93483195Y-104383055D01*
X93483201Y-104383057D01*
X93487764Y-104384947D01*
X93492563Y-104386099D01*
X93492581Y-104386105D01*
X93622962Y-104417407D01*
X93684531Y-104452759D01*
X93717213Y-104515786D01*
X93710632Y-104586477D01*
X93682642Y-104629020D01*
X88970742Y-109340920D01*
X88908430Y-109374946D01*
X88880002Y-109377814D01*
X88812399Y-109376929D01*
X88806703Y-109377908D01*
X88806700Y-109377908D01*
X88616722Y-109410552D01*
X88616721Y-109410552D01*
X88611025Y-109411531D01*
X88419329Y-109482252D01*
X88414368Y-109485204D01*
X88414367Y-109485204D01*
X88248698Y-109583766D01*
X88248695Y-109583768D01*
X88243730Y-109586722D01*
X88090110Y-109721443D01*
X87963613Y-109881903D01*
X87960922Y-109887019D01*
X87960920Y-109887021D01*
X87928236Y-109949144D01*
X87868476Y-110062729D01*
X87807885Y-110257864D01*
X87783870Y-110460773D01*
X87797233Y-110664661D01*
X87798655Y-110670259D01*
X87798655Y-110670261D01*
X87837035Y-110821380D01*
X87847529Y-110862700D01*
X87849946Y-110867943D01*
X87895053Y-110965789D01*
X87933071Y-111048256D01*
X88050997Y-111215117D01*
X88197356Y-111357694D01*
X88202152Y-111360899D01*
X88202155Y-111360901D01*
X88270335Y-111406457D01*
X88367246Y-111471211D01*
X88372554Y-111473492D01*
X88372555Y-111473492D01*
X88549676Y-111549589D01*
X88549679Y-111549590D01*
X88554979Y-111551867D01*
X88560608Y-111553141D01*
X88560609Y-111553141D01*
X88748629Y-111595686D01*
X88748635Y-111595687D01*
X88754266Y-111596961D01*
X88760037Y-111597188D01*
X88760039Y-111597188D01*
X88821351Y-111599597D01*
X88958434Y-111604983D01*
X89077067Y-111587782D01*
X89154923Y-111576494D01*
X89154927Y-111576493D01*
X89160645Y-111575664D01*
X89166117Y-111573806D01*
X89166119Y-111573806D01*
X89348663Y-111511840D01*
X89348665Y-111511839D01*
X89354127Y-111509985D01*
X89532400Y-111410148D01*
X89689494Y-111279494D01*
X89820148Y-111122400D01*
X89919985Y-110944127D01*
X89949526Y-110857105D01*
X89983806Y-110756119D01*
X89983806Y-110756117D01*
X89985664Y-110750645D01*
X89987845Y-110735607D01*
X90014450Y-110552108D01*
X90014983Y-110548434D01*
X90015694Y-110521285D01*
X90016224Y-110501048D01*
X90038003Y-110433475D01*
X90053086Y-110415252D01*
X97011528Y-103456810D01*
X97025941Y-103444423D01*
X97037665Y-103435795D01*
X97043564Y-103431454D01*
X97077979Y-103390945D01*
X97084909Y-103383429D01*
X97090653Y-103377685D01*
X97092927Y-103374811D01*
X97092933Y-103374804D01*
X97108372Y-103355289D01*
X97111163Y-103351885D01*
X97153945Y-103301528D01*
X97153948Y-103301524D01*
X97158684Y-103295949D01*
X97162011Y-103289434D01*
X97165392Y-103284364D01*
X97168617Y-103279142D01*
X97173160Y-103273400D01*
X97204246Y-103206888D01*
X97206152Y-103202988D01*
X97236213Y-103144117D01*
X97239543Y-103137596D01*
X97241284Y-103130481D01*
X97243418Y-103124743D01*
X97245346Y-103118947D01*
X97247568Y-103114192D01*
X97247783Y-103113883D01*
X97247997Y-103113277D01*
X97248419Y-103112373D01*
X97248731Y-103112519D01*
X97286820Y-103057641D01*
X97352408Y-103030462D01*
X97422279Y-103043057D01*
X97474248Y-103091427D01*
X97488414Y-103126322D01*
X97504710Y-103194199D01*
X97543898Y-103357428D01*
X97543899Y-103357431D01*
X97545053Y-103362236D01*
X97546943Y-103366799D01*
X97546945Y-103366805D01*
X97638812Y-103588592D01*
X97640707Y-103593166D01*
X97771309Y-103806289D01*
X97933643Y-103996357D01*
X98123711Y-104158691D01*
X98336834Y-104289293D01*
X98341404Y-104291186D01*
X98341408Y-104291188D01*
X98563195Y-104383055D01*
X98563201Y-104383057D01*
X98567764Y-104384947D01*
X98572563Y-104386099D01*
X98572581Y-104386105D01*
X98702962Y-104417407D01*
X98764531Y-104452759D01*
X98797213Y-104515786D01*
X98790632Y-104586477D01*
X98762642Y-104629020D01*
X95320742Y-108070920D01*
X95258430Y-108104946D01*
X95230002Y-108107814D01*
X95162399Y-108106929D01*
X95156703Y-108107908D01*
X95156700Y-108107908D01*
X94966722Y-108140552D01*
X94966721Y-108140552D01*
X94961025Y-108141531D01*
X94769329Y-108212252D01*
X94764368Y-108215204D01*
X94764367Y-108215204D01*
X94598698Y-108313766D01*
X94598695Y-108313768D01*
X94593730Y-108316722D01*
X94440110Y-108451443D01*
X94313613Y-108611903D01*
X94310922Y-108617019D01*
X94310920Y-108617021D01*
X94278236Y-108679144D01*
X94218476Y-108792729D01*
X94157885Y-108987864D01*
X94133870Y-109190773D01*
X94147233Y-109394661D01*
X94148655Y-109400259D01*
X94148655Y-109400261D01*
X94172762Y-109495180D01*
X94197529Y-109592700D01*
X94283071Y-109778256D01*
X94400997Y-109945117D01*
X94547356Y-110087694D01*
X94552152Y-110090899D01*
X94552155Y-110090901D01*
X94620335Y-110136457D01*
X94717246Y-110201211D01*
X94722554Y-110203492D01*
X94722555Y-110203492D01*
X94899676Y-110279589D01*
X94899679Y-110279590D01*
X94904979Y-110281867D01*
X94910608Y-110283141D01*
X94910609Y-110283141D01*
X95098629Y-110325686D01*
X95098635Y-110325687D01*
X95104266Y-110326961D01*
X95110037Y-110327188D01*
X95110039Y-110327188D01*
X95171351Y-110329597D01*
X95308434Y-110334983D01*
X95427067Y-110317782D01*
X95504923Y-110306494D01*
X95504927Y-110306493D01*
X95510645Y-110305664D01*
X95516117Y-110303806D01*
X95516119Y-110303806D01*
X95698663Y-110241840D01*
X95698665Y-110241839D01*
X95704127Y-110239985D01*
X95882400Y-110140148D01*
X96039494Y-110009494D01*
X96170148Y-109852400D01*
X96269985Y-109674127D01*
X96299526Y-109587105D01*
X96333806Y-109486119D01*
X96333806Y-109486117D01*
X96335664Y-109480645D01*
X96364983Y-109278434D01*
X96366224Y-109231048D01*
X96388003Y-109163475D01*
X96403086Y-109145252D01*
X102091528Y-103456810D01*
X102105941Y-103444423D01*
X102117665Y-103435795D01*
X102123564Y-103431454D01*
X102157979Y-103390945D01*
X102164909Y-103383429D01*
X102170653Y-103377685D01*
X102172927Y-103374811D01*
X102172933Y-103374804D01*
X102188372Y-103355289D01*
X102191163Y-103351885D01*
X102233945Y-103301528D01*
X102233948Y-103301524D01*
X102238684Y-103295949D01*
X102242012Y-103289432D01*
X102245389Y-103284368D01*
X102248616Y-103279144D01*
X102253160Y-103273400D01*
X102277143Y-103222086D01*
X102284232Y-103206918D01*
X102286163Y-103202967D01*
X102316213Y-103144117D01*
X102319543Y-103137596D01*
X102321284Y-103130481D01*
X102323421Y-103124735D01*
X102325345Y-103118951D01*
X102327568Y-103114194D01*
X102327795Y-103113868D01*
X102328022Y-103113223D01*
X102328420Y-103112373D01*
X102328444Y-103112321D01*
X102328445Y-103112318D01*
X102328766Y-103112468D01*
X102366820Y-103057642D01*
X102432408Y-103030463D01*
X102502279Y-103043058D01*
X102554248Y-103091428D01*
X102568415Y-103126325D01*
X102623898Y-103357428D01*
X102623899Y-103357431D01*
X102625053Y-103362236D01*
X102626943Y-103366799D01*
X102626945Y-103366805D01*
X102718812Y-103588592D01*
X102720707Y-103593166D01*
X102851309Y-103806289D01*
X103013643Y-103996357D01*
X103203711Y-104158691D01*
X103416834Y-104289293D01*
X103421404Y-104291186D01*
X103421408Y-104291188D01*
X103643195Y-104383055D01*
X103643201Y-104383057D01*
X103647764Y-104384947D01*
X103652563Y-104386099D01*
X103652581Y-104386105D01*
X103782962Y-104417407D01*
X103844531Y-104452759D01*
X103877213Y-104515786D01*
X103870632Y-104586477D01*
X103842642Y-104629020D01*
X101670742Y-106800920D01*
X101608430Y-106834946D01*
X101580002Y-106837814D01*
X101512399Y-106836929D01*
X101506703Y-106837908D01*
X101506700Y-106837908D01*
X101316722Y-106870552D01*
X101316721Y-106870552D01*
X101311025Y-106871531D01*
X101119329Y-106942252D01*
X101114368Y-106945204D01*
X101114367Y-106945204D01*
X100948698Y-107043766D01*
X100948695Y-107043768D01*
X100943730Y-107046722D01*
X100790110Y-107181443D01*
X100663613Y-107341903D01*
X100660922Y-107347019D01*
X100660920Y-107347021D01*
X100628236Y-107409144D01*
X100568476Y-107522729D01*
X100507885Y-107717864D01*
X100483870Y-107920773D01*
X100497233Y-108124661D01*
X100498655Y-108130259D01*
X100498655Y-108130261D01*
X100522762Y-108225180D01*
X100547529Y-108322700D01*
X100633071Y-108508256D01*
X100750997Y-108675117D01*
X100897356Y-108817694D01*
X100902152Y-108820899D01*
X100902155Y-108820901D01*
X100970335Y-108866457D01*
X101067246Y-108931211D01*
X101072554Y-108933492D01*
X101072555Y-108933492D01*
X101249676Y-109009589D01*
X101249679Y-109009590D01*
X101254979Y-109011867D01*
X101260608Y-109013141D01*
X101260609Y-109013141D01*
X101448629Y-109055686D01*
X101448635Y-109055687D01*
X101454266Y-109056961D01*
X101460037Y-109057188D01*
X101460039Y-109057188D01*
X101521351Y-109059597D01*
X101658434Y-109064983D01*
X101777067Y-109047782D01*
X101854923Y-109036494D01*
X101854927Y-109036493D01*
X101860645Y-109035664D01*
X101866117Y-109033806D01*
X101866119Y-109033806D01*
X102048663Y-108971840D01*
X102048665Y-108971839D01*
X102054127Y-108969985D01*
X102232400Y-108870148D01*
X102389494Y-108739494D01*
X102520148Y-108582400D01*
X102619985Y-108404127D01*
X102649526Y-108317105D01*
X102683806Y-108216119D01*
X102683806Y-108216117D01*
X102685664Y-108210645D01*
X102714983Y-108008434D01*
X102716224Y-107961048D01*
X102738003Y-107893475D01*
X102753086Y-107875252D01*
X107171528Y-103456810D01*
X107185941Y-103444423D01*
X107197665Y-103435795D01*
X107203564Y-103431454D01*
X107237979Y-103390945D01*
X107244909Y-103383429D01*
X107250653Y-103377685D01*
X107252927Y-103374811D01*
X107252933Y-103374804D01*
X107268372Y-103355289D01*
X107271163Y-103351885D01*
X107313945Y-103301528D01*
X107313948Y-103301524D01*
X107318684Y-103295949D01*
X107322012Y-103289432D01*
X107325389Y-103284368D01*
X107328616Y-103279144D01*
X107333160Y-103273400D01*
X107364242Y-103206896D01*
X107366147Y-103202999D01*
X107399543Y-103137596D01*
X107401284Y-103130482D01*
X107403416Y-103124748D01*
X107405345Y-103118949D01*
X107407571Y-103114189D01*
X107407807Y-103113848D01*
X107408042Y-103113181D01*
X107408464Y-103112279D01*
X107408790Y-103112432D01*
X107446823Y-103057640D01*
X107512412Y-103030463D01*
X107582282Y-103043060D01*
X107634250Y-103091432D01*
X107648415Y-103126325D01*
X107703898Y-103357428D01*
X107703899Y-103357431D01*
X107705053Y-103362236D01*
X107706943Y-103366799D01*
X107706945Y-103366805D01*
X107798812Y-103588592D01*
X107800707Y-103593166D01*
X107931309Y-103806289D01*
X108093643Y-103996357D01*
X108283711Y-104158691D01*
X108496834Y-104289293D01*
X108501404Y-104291186D01*
X108501408Y-104291188D01*
X108723195Y-104383055D01*
X108723201Y-104383057D01*
X108727764Y-104384947D01*
X108732563Y-104386099D01*
X108732581Y-104386105D01*
X108862962Y-104417407D01*
X108924531Y-104452759D01*
X108957213Y-104515786D01*
X108950632Y-104586477D01*
X108922642Y-104629020D01*
X108020742Y-105530920D01*
X107958430Y-105564946D01*
X107930002Y-105567814D01*
X107862399Y-105566929D01*
X107856703Y-105567908D01*
X107856700Y-105567908D01*
X107666722Y-105600552D01*
X107666721Y-105600552D01*
X107661025Y-105601531D01*
X107469329Y-105672252D01*
X107464368Y-105675204D01*
X107464367Y-105675204D01*
X107298698Y-105773766D01*
X107298695Y-105773768D01*
X107293730Y-105776722D01*
X107140110Y-105911443D01*
X107013613Y-106071903D01*
X107010922Y-106077019D01*
X107010920Y-106077021D01*
X106959172Y-106175379D01*
X106918476Y-106252729D01*
X106857885Y-106447864D01*
X106833870Y-106650773D01*
X106847233Y-106854661D01*
X106848655Y-106860259D01*
X106848655Y-106860261D01*
X106870836Y-106947596D01*
X106897529Y-107052700D01*
X106983071Y-107238256D01*
X107100997Y-107405117D01*
X107247356Y-107547694D01*
X107252152Y-107550899D01*
X107252155Y-107550901D01*
X107320335Y-107596457D01*
X107417246Y-107661211D01*
X107422554Y-107663492D01*
X107422555Y-107663492D01*
X107599676Y-107739589D01*
X107599679Y-107739590D01*
X107604979Y-107741867D01*
X107610608Y-107743141D01*
X107610609Y-107743141D01*
X107798629Y-107785686D01*
X107798635Y-107785687D01*
X107804266Y-107786961D01*
X107810037Y-107787188D01*
X107810039Y-107787188D01*
X107871351Y-107789597D01*
X108008434Y-107794983D01*
X108127067Y-107777782D01*
X108204923Y-107766494D01*
X108204927Y-107766493D01*
X108210645Y-107765664D01*
X108216117Y-107763806D01*
X108216119Y-107763806D01*
X108398663Y-107701840D01*
X108398665Y-107701839D01*
X108404127Y-107699985D01*
X108582400Y-107600148D01*
X108739494Y-107469494D01*
X108870148Y-107312400D01*
X108969985Y-107134127D01*
X108999526Y-107047105D01*
X109033806Y-106946119D01*
X109033806Y-106946117D01*
X109035664Y-106940645D01*
X109036553Y-106934519D01*
X109060510Y-106769285D01*
X109064983Y-106738434D01*
X109066224Y-106691048D01*
X109088003Y-106623475D01*
X109103086Y-106605252D01*
X112251528Y-103456810D01*
X112265941Y-103444423D01*
X112277665Y-103435795D01*
X112283564Y-103431454D01*
X112317979Y-103390945D01*
X112324909Y-103383429D01*
X112330653Y-103377685D01*
X112332927Y-103374811D01*
X112332933Y-103374804D01*
X112348372Y-103355289D01*
X112351163Y-103351885D01*
X112393945Y-103301528D01*
X112393948Y-103301524D01*
X112398684Y-103295949D01*
X112402012Y-103289432D01*
X112405389Y-103284368D01*
X112408616Y-103279144D01*
X112413160Y-103273400D01*
X112444242Y-103206896D01*
X112446147Y-103202999D01*
X112479543Y-103137596D01*
X112481284Y-103130482D01*
X112483416Y-103124748D01*
X112485345Y-103118949D01*
X112487571Y-103114189D01*
X112487807Y-103113848D01*
X112488042Y-103113181D01*
X112488464Y-103112279D01*
X112488790Y-103112432D01*
X112526823Y-103057640D01*
X112592412Y-103030463D01*
X112662282Y-103043060D01*
X112714250Y-103091432D01*
X112728415Y-103126325D01*
X112783898Y-103357428D01*
X112783899Y-103357431D01*
X112785053Y-103362236D01*
X112786943Y-103366799D01*
X112786945Y-103366805D01*
X112878812Y-103588592D01*
X112880707Y-103593166D01*
X113011309Y-103806289D01*
X113173643Y-103996357D01*
X113363711Y-104158691D01*
X113576834Y-104289293D01*
X113581404Y-104291186D01*
X113581408Y-104291188D01*
X113603463Y-104300323D01*
X113658744Y-104344871D01*
X113681165Y-104412234D01*
X113663607Y-104481026D01*
X113638322Y-104511464D01*
X113494456Y-104637631D01*
X113494452Y-104637635D01*
X113490110Y-104641443D01*
X113363613Y-104801903D01*
X113360922Y-104807019D01*
X113360920Y-104807021D01*
X113291270Y-104939405D01*
X113268476Y-104982729D01*
X113207885Y-105177864D01*
X113183870Y-105380773D01*
X113197233Y-105584661D01*
X113198655Y-105590259D01*
X113198655Y-105590261D01*
X113222762Y-105685180D01*
X113247529Y-105782700D01*
X113333071Y-105968256D01*
X113450997Y-106135117D01*
X113597356Y-106277694D01*
X113602152Y-106280899D01*
X113602155Y-106280901D01*
X113670335Y-106326457D01*
X113767246Y-106391211D01*
X113772554Y-106393492D01*
X113772555Y-106393492D01*
X113949676Y-106469589D01*
X113949679Y-106469590D01*
X113954979Y-106471867D01*
X113960608Y-106473141D01*
X113960609Y-106473141D01*
X114148629Y-106515686D01*
X114148635Y-106515687D01*
X114154266Y-106516961D01*
X114160037Y-106517188D01*
X114160039Y-106517188D01*
X114221351Y-106519597D01*
X114358434Y-106524983D01*
X114477067Y-106507782D01*
X114554923Y-106496494D01*
X114554927Y-106496493D01*
X114560645Y-106495664D01*
X114566117Y-106493806D01*
X114566119Y-106493806D01*
X114748663Y-106431840D01*
X114748665Y-106431839D01*
X114754127Y-106429985D01*
X114932400Y-106330148D01*
X115089494Y-106199494D01*
X115220148Y-106042400D01*
X115319985Y-105864127D01*
X115349526Y-105777105D01*
X115383806Y-105676119D01*
X115383806Y-105676117D01*
X115385664Y-105670645D01*
X115414983Y-105468434D01*
X115415622Y-105444024D01*
X115416224Y-105421048D01*
X115438003Y-105353475D01*
X115453086Y-105335252D01*
X117331528Y-103456810D01*
X117345941Y-103444423D01*
X117357665Y-103435795D01*
X117363564Y-103431454D01*
X117397979Y-103390945D01*
X117404909Y-103383429D01*
X117410653Y-103377685D01*
X117412927Y-103374811D01*
X117412933Y-103374804D01*
X117428372Y-103355289D01*
X117431163Y-103351885D01*
X117473945Y-103301528D01*
X117473948Y-103301524D01*
X117478684Y-103295949D01*
X117482011Y-103289434D01*
X117485392Y-103284364D01*
X117488617Y-103279142D01*
X117493160Y-103273400D01*
X117524246Y-103206888D01*
X117526152Y-103202988D01*
X117556213Y-103144117D01*
X117559543Y-103137596D01*
X117561284Y-103130479D01*
X117563411Y-103124761D01*
X117565342Y-103118955D01*
X117568443Y-103112321D01*
X117583391Y-103040461D01*
X117584359Y-103036181D01*
X117585759Y-103030463D01*
X117601804Y-102964888D01*
X117602500Y-102953670D01*
X117602539Y-102953672D01*
X117602772Y-102949771D01*
X117603161Y-102945412D01*
X117604652Y-102938244D01*
X117602546Y-102860424D01*
X117602500Y-102857015D01*
X117602500Y-91507368D01*
X117603933Y-91488417D01*
X117606123Y-91474024D01*
X117606123Y-91474022D01*
X117607223Y-91466792D01*
X117602915Y-91413825D01*
X117602500Y-91403611D01*
X117602500Y-91395475D01*
X117599190Y-91367084D01*
X117598757Y-91362709D01*
X117593403Y-91296872D01*
X117593402Y-91296869D01*
X117592809Y-91289573D01*
X117590553Y-91282609D01*
X117589355Y-91276614D01*
X117587949Y-91270664D01*
X117587101Y-91263393D01*
X117562057Y-91194398D01*
X117560634Y-91190252D01*
X117540269Y-91127388D01*
X117540268Y-91127386D01*
X117538013Y-91120425D01*
X117534217Y-91114170D01*
X117531682Y-91108633D01*
X117528932Y-91103142D01*
X117526434Y-91096259D01*
X117486185Y-91034868D01*
X117483870Y-91031200D01*
X117445773Y-90968419D01*
X117442057Y-90964212D01*
X117442054Y-90964208D01*
X117438332Y-90959995D01*
X117438362Y-90959969D01*
X117435764Y-90957041D01*
X117432960Y-90953687D01*
X117428946Y-90947565D01*
X117372395Y-90893994D01*
X117369954Y-90891617D01*
X117145612Y-90667275D01*
X117111586Y-90604963D01*
X117112189Y-90548765D01*
X117142142Y-90424004D01*
X117143299Y-90419186D01*
X117162910Y-90170000D01*
X117143299Y-89920814D01*
X117084947Y-89677764D01*
X117083057Y-89673201D01*
X117083055Y-89673195D01*
X116991188Y-89451408D01*
X116991186Y-89451404D01*
X116989293Y-89446834D01*
X116858691Y-89233711D01*
X116696357Y-89043643D01*
X116506289Y-88881309D01*
X116293166Y-88750707D01*
X116288596Y-88748814D01*
X116288592Y-88748812D01*
X116066805Y-88656945D01*
X116066799Y-88656943D01*
X116062236Y-88655053D01*
X116057437Y-88653901D01*
X116057419Y-88653895D01*
X115927038Y-88622593D01*
X115865469Y-88587241D01*
X115832787Y-88524214D01*
X115839368Y-88453523D01*
X115867358Y-88410980D01*
X116061528Y-88216810D01*
X116075941Y-88204423D01*
X116087665Y-88195795D01*
X116093564Y-88191454D01*
X116127979Y-88150945D01*
X116134909Y-88143429D01*
X116140653Y-88137685D01*
X116142927Y-88134811D01*
X116142933Y-88134804D01*
X116158372Y-88115289D01*
X116161163Y-88111885D01*
X116203945Y-88061528D01*
X116203948Y-88061524D01*
X116208684Y-88055949D01*
X116212012Y-88049432D01*
X116215389Y-88044368D01*
X116218616Y-88039144D01*
X116223160Y-88033400D01*
X116254232Y-87966918D01*
X116256163Y-87962967D01*
X116286213Y-87904117D01*
X116289543Y-87897596D01*
X116291284Y-87890481D01*
X116293421Y-87884735D01*
X116295345Y-87878952D01*
X116298444Y-87872321D01*
X116313394Y-87800443D01*
X116314363Y-87796162D01*
X116330470Y-87730339D01*
X116331804Y-87724888D01*
X116332500Y-87713670D01*
X116332539Y-87713672D01*
X116332772Y-87709771D01*
X116333161Y-87705412D01*
X116334652Y-87698244D01*
X116332546Y-87620423D01*
X116332500Y-87617014D01*
X116332500Y-81286687D01*
X116352502Y-81218566D01*
X116385331Y-81184110D01*
X116495682Y-81105397D01*
X116662159Y-80939500D01*
X116799305Y-80748641D01*
X116903437Y-80537945D01*
X116904937Y-80533006D01*
X116904940Y-80533000D01*
X116970258Y-80318011D01*
X116971759Y-80313071D01*
X117002436Y-80080058D01*
X117004148Y-80010000D01*
X116997784Y-79932590D01*
X116985314Y-79780917D01*
X116985313Y-79780911D01*
X116984890Y-79775766D01*
X116927635Y-79547823D01*
X116925579Y-79543093D01*
X116925576Y-79543086D01*
X116835980Y-79337029D01*
X116835978Y-79337026D01*
X116833920Y-79332292D01*
X116814074Y-79301614D01*
X116709069Y-79139302D01*
X116709067Y-79139299D01*
X116706261Y-79134962D01*
X116548087Y-78961131D01*
X116363645Y-78815468D01*
X116157890Y-78701885D01*
X116038203Y-78659501D01*
X115941222Y-78625158D01*
X115941218Y-78625157D01*
X115936347Y-78623432D01*
X115931254Y-78622525D01*
X115931251Y-78622524D01*
X115710054Y-78583123D01*
X115710048Y-78583122D01*
X115704965Y-78582217D01*
X115631830Y-78581324D01*
X115475130Y-78579409D01*
X115475128Y-78579409D01*
X115469959Y-78579346D01*
X115237639Y-78614895D01*
X115232720Y-78616503D01*
X115232719Y-78616503D01*
X115141178Y-78646423D01*
X115014245Y-78687912D01*
X114805777Y-78796434D01*
X114801635Y-78799544D01*
X114685545Y-78886707D01*
X114617832Y-78937547D01*
X114595295Y-78961131D01*
X114517877Y-79042144D01*
X114455458Y-79107461D01*
X114452544Y-79111733D01*
X114452543Y-79111734D01*
X114363644Y-79242056D01*
X114323016Y-79301614D01*
X114308776Y-79332292D01*
X114226239Y-79510100D01*
X114226237Y-79510105D01*
X114224062Y-79514791D01*
X114161255Y-79741267D01*
X114136280Y-79974961D01*
X114136577Y-79980113D01*
X114136577Y-79980117D01*
X114142340Y-80080058D01*
X114149809Y-80209595D01*
X114150946Y-80214641D01*
X114150947Y-80214647D01*
X114183720Y-80360072D01*
X114201478Y-80438869D01*
X114203420Y-80443651D01*
X114203421Y-80443655D01*
X114287956Y-80651838D01*
X114289900Y-80656625D01*
X114412699Y-80857016D01*
X114566579Y-81034660D01*
X114645800Y-81100430D01*
X114743430Y-81181484D01*
X114743436Y-81181488D01*
X114747407Y-81184785D01*
X114751873Y-81187395D01*
X114753766Y-81188720D01*
X114798097Y-81244175D01*
X114807500Y-81291936D01*
X114807500Y-84626804D01*
X114787498Y-84694925D01*
X114733842Y-84741418D01*
X114663568Y-84751522D01*
X114598988Y-84722028D01*
X114558981Y-84656219D01*
X114546101Y-84602569D01*
X114546099Y-84602564D01*
X114544947Y-84597764D01*
X114543057Y-84593201D01*
X114543055Y-84593195D01*
X114451188Y-84371408D01*
X114451186Y-84371404D01*
X114449293Y-84366834D01*
X114318691Y-84153711D01*
X114156357Y-83963643D01*
X113966289Y-83801309D01*
X113753166Y-83670707D01*
X113748596Y-83668814D01*
X113748592Y-83668812D01*
X113526805Y-83576945D01*
X113526799Y-83576943D01*
X113522236Y-83575053D01*
X113517436Y-83573901D01*
X113517431Y-83573899D01*
X113382084Y-83541405D01*
X113279186Y-83516701D01*
X113030000Y-83497090D01*
X112780814Y-83516701D01*
X112677916Y-83541405D01*
X112542569Y-83573899D01*
X112542564Y-83573901D01*
X112537764Y-83575053D01*
X112533201Y-83576943D01*
X112533195Y-83576945D01*
X112311408Y-83668812D01*
X112311404Y-83668814D01*
X112306834Y-83670707D01*
X112093711Y-83801309D01*
X111903643Y-83963643D01*
X111741309Y-84153711D01*
X111610707Y-84366834D01*
X111608814Y-84371404D01*
X111608812Y-84371408D01*
X111516945Y-84593195D01*
X111516943Y-84593201D01*
X111515053Y-84597764D01*
X111513901Y-84602564D01*
X111513899Y-84602569D01*
X111501019Y-84656219D01*
X111465666Y-84717788D01*
X111402640Y-84750470D01*
X111331949Y-84743889D01*
X111276037Y-84700135D01*
X111252500Y-84626804D01*
X111252500Y-81286687D01*
X111272502Y-81218566D01*
X111305331Y-81184110D01*
X111415682Y-81105397D01*
X111582159Y-80939500D01*
X111719305Y-80748641D01*
X111823437Y-80537945D01*
X111824937Y-80533006D01*
X111824940Y-80533000D01*
X111890258Y-80318011D01*
X111891759Y-80313071D01*
X111922436Y-80080058D01*
X111924148Y-80010000D01*
X111917784Y-79932590D01*
X111905314Y-79780917D01*
X111905313Y-79780911D01*
X111904890Y-79775766D01*
X111847635Y-79547823D01*
X111845579Y-79543093D01*
X111845576Y-79543086D01*
X111755980Y-79337029D01*
X111755978Y-79337026D01*
X111753920Y-79332292D01*
X111734074Y-79301614D01*
X111629069Y-79139302D01*
X111629067Y-79139299D01*
X111626261Y-79134962D01*
X111468087Y-78961131D01*
X111283645Y-78815468D01*
X111077890Y-78701885D01*
X110958203Y-78659501D01*
X110861222Y-78625158D01*
X110861218Y-78625157D01*
X110856347Y-78623432D01*
X110851254Y-78622525D01*
X110851251Y-78622524D01*
X110630054Y-78583123D01*
X110630048Y-78583122D01*
X110624965Y-78582217D01*
X110551830Y-78581324D01*
X110395130Y-78579409D01*
X110395128Y-78579409D01*
X110389959Y-78579346D01*
X110157639Y-78614895D01*
X110152720Y-78616503D01*
X110152719Y-78616503D01*
X110061178Y-78646423D01*
X109934245Y-78687912D01*
X109725777Y-78796434D01*
X109721635Y-78799544D01*
X109605545Y-78886707D01*
X109537832Y-78937547D01*
X109515295Y-78961131D01*
X109437877Y-79042144D01*
X109375458Y-79107461D01*
X109372544Y-79111733D01*
X109372543Y-79111734D01*
X109283644Y-79242056D01*
X109243016Y-79301614D01*
X109228776Y-79332292D01*
X109146239Y-79510100D01*
X109146237Y-79510105D01*
X109144062Y-79514791D01*
X109081255Y-79741267D01*
X109056280Y-79974961D01*
X109056577Y-79980113D01*
X109056577Y-79980117D01*
X109062340Y-80080058D01*
X109069809Y-80209595D01*
X109070946Y-80214641D01*
X109070947Y-80214647D01*
X109103720Y-80360072D01*
X109121478Y-80438869D01*
X109123420Y-80443651D01*
X109123421Y-80443655D01*
X109207956Y-80651838D01*
X109209900Y-80656625D01*
X109332699Y-80857016D01*
X109486579Y-81034660D01*
X109565800Y-81100430D01*
X109663430Y-81181484D01*
X109663436Y-81181488D01*
X109667407Y-81184785D01*
X109671873Y-81187395D01*
X109673766Y-81188720D01*
X109718097Y-81244175D01*
X109727500Y-81291936D01*
X109727500Y-84626804D01*
X109707498Y-84694925D01*
X109653842Y-84741418D01*
X109583568Y-84751522D01*
X109518988Y-84722028D01*
X109478981Y-84656219D01*
X109466101Y-84602569D01*
X109466099Y-84602564D01*
X109464947Y-84597764D01*
X109463057Y-84593201D01*
X109463055Y-84593195D01*
X109371188Y-84371408D01*
X109371186Y-84371404D01*
X109369293Y-84366834D01*
X109238691Y-84153711D01*
X109076357Y-83963643D01*
X108886289Y-83801309D01*
X108673166Y-83670707D01*
X108668596Y-83668814D01*
X108668592Y-83668812D01*
X108446805Y-83576945D01*
X108446799Y-83576943D01*
X108442236Y-83575053D01*
X108437436Y-83573901D01*
X108437431Y-83573899D01*
X108302084Y-83541405D01*
X108199186Y-83516701D01*
X107950000Y-83497090D01*
X107700814Y-83516701D01*
X107597916Y-83541405D01*
X107462569Y-83573899D01*
X107462564Y-83573901D01*
X107457764Y-83575053D01*
X107453201Y-83576943D01*
X107453195Y-83576945D01*
X107231408Y-83668812D01*
X107231404Y-83668814D01*
X107226834Y-83670707D01*
X107013711Y-83801309D01*
X106823643Y-83963643D01*
X106661309Y-84153711D01*
X106530707Y-84366834D01*
X106528814Y-84371404D01*
X106528812Y-84371408D01*
X106436945Y-84593195D01*
X106436943Y-84593201D01*
X106435053Y-84597764D01*
X106433901Y-84602564D01*
X106433899Y-84602569D01*
X106421019Y-84656219D01*
X106385666Y-84717788D01*
X106322640Y-84750470D01*
X106251949Y-84743889D01*
X106196037Y-84700135D01*
X106172500Y-84626804D01*
X106172500Y-81286687D01*
X106192502Y-81218566D01*
X106225331Y-81184110D01*
X106335682Y-81105397D01*
X106502159Y-80939500D01*
X106639305Y-80748641D01*
X106743437Y-80537945D01*
X106744937Y-80533006D01*
X106744940Y-80533000D01*
X106810258Y-80318011D01*
X106811759Y-80313071D01*
X106842436Y-80080058D01*
X106844148Y-80010000D01*
X106837784Y-79932590D01*
X106825314Y-79780917D01*
X106825313Y-79780911D01*
X106824890Y-79775766D01*
X106767635Y-79547823D01*
X106765579Y-79543093D01*
X106765576Y-79543086D01*
X106675980Y-79337029D01*
X106675978Y-79337026D01*
X106673920Y-79332292D01*
X106654074Y-79301614D01*
X106549069Y-79139302D01*
X106549067Y-79139299D01*
X106546261Y-79134962D01*
X106388087Y-78961131D01*
X106203645Y-78815468D01*
X105997890Y-78701885D01*
X105878203Y-78659501D01*
X105781222Y-78625158D01*
X105781218Y-78625157D01*
X105776347Y-78623432D01*
X105771254Y-78622525D01*
X105771251Y-78622524D01*
X105550054Y-78583123D01*
X105550048Y-78583122D01*
X105544965Y-78582217D01*
X105471830Y-78581324D01*
X105315130Y-78579409D01*
X105315128Y-78579409D01*
X105309959Y-78579346D01*
X105077639Y-78614895D01*
X105072720Y-78616503D01*
X105072719Y-78616503D01*
X104981178Y-78646423D01*
X104854245Y-78687912D01*
X104645777Y-78796434D01*
X104641635Y-78799544D01*
X104525545Y-78886707D01*
X104457832Y-78937547D01*
X104435295Y-78961131D01*
X104357877Y-79042144D01*
X104295458Y-79107461D01*
X104292544Y-79111733D01*
X104292543Y-79111734D01*
X104203644Y-79242056D01*
X104163016Y-79301614D01*
X104148776Y-79332292D01*
X104066239Y-79510100D01*
X104066237Y-79510105D01*
X104064062Y-79514791D01*
X104001255Y-79741267D01*
X103976280Y-79974961D01*
X103976577Y-79980113D01*
X103976577Y-79980117D01*
X103982340Y-80080058D01*
X103989809Y-80209595D01*
X103990946Y-80214641D01*
X103990947Y-80214647D01*
X104023720Y-80360072D01*
X104041478Y-80438869D01*
X104043420Y-80443651D01*
X104043421Y-80443655D01*
X104127956Y-80651838D01*
X104129900Y-80656625D01*
X104252699Y-80857016D01*
X104406579Y-81034660D01*
X104485800Y-81100430D01*
X104583430Y-81181484D01*
X104583436Y-81181488D01*
X104587407Y-81184785D01*
X104591873Y-81187395D01*
X104593766Y-81188720D01*
X104638097Y-81244175D01*
X104647500Y-81291936D01*
X104647500Y-84626804D01*
X104627498Y-84694925D01*
X104573842Y-84741418D01*
X104503568Y-84751522D01*
X104438988Y-84722028D01*
X104398981Y-84656219D01*
X104386101Y-84602569D01*
X104386099Y-84602564D01*
X104384947Y-84597764D01*
X104383057Y-84593201D01*
X104383055Y-84593195D01*
X104291188Y-84371408D01*
X104291186Y-84371404D01*
X104289293Y-84366834D01*
X104158691Y-84153711D01*
X103996357Y-83963643D01*
X103806289Y-83801309D01*
X103593166Y-83670707D01*
X103588596Y-83668814D01*
X103588592Y-83668812D01*
X103366805Y-83576945D01*
X103366799Y-83576943D01*
X103362236Y-83575053D01*
X103357436Y-83573901D01*
X103357431Y-83573899D01*
X103222084Y-83541405D01*
X103119186Y-83516701D01*
X102870000Y-83497090D01*
X102620814Y-83516701D01*
X102517916Y-83541405D01*
X102382569Y-83573899D01*
X102382564Y-83573901D01*
X102377764Y-83575053D01*
X102373201Y-83576943D01*
X102373195Y-83576945D01*
X102151408Y-83668812D01*
X102151404Y-83668814D01*
X102146834Y-83670707D01*
X101933711Y-83801309D01*
X101743643Y-83963643D01*
X101581309Y-84153711D01*
X101450707Y-84366834D01*
X101448814Y-84371404D01*
X101448812Y-84371408D01*
X101356945Y-84593195D01*
X101356943Y-84593201D01*
X101355053Y-84597764D01*
X101353901Y-84602564D01*
X101353899Y-84602569D01*
X101341019Y-84656219D01*
X101305666Y-84717788D01*
X101242640Y-84750470D01*
X101171949Y-84743889D01*
X101116037Y-84700135D01*
X101092500Y-84626804D01*
X101092500Y-81286687D01*
X101112502Y-81218566D01*
X101145331Y-81184110D01*
X101255682Y-81105397D01*
X101422159Y-80939500D01*
X101559305Y-80748641D01*
X101663437Y-80537945D01*
X101664937Y-80533006D01*
X101664940Y-80533000D01*
X101730258Y-80318011D01*
X101731759Y-80313071D01*
X101762436Y-80080058D01*
X101764148Y-80010000D01*
X101757784Y-79932590D01*
X101745314Y-79780917D01*
X101745313Y-79780911D01*
X101744890Y-79775766D01*
X101687635Y-79547823D01*
X101685579Y-79543093D01*
X101685576Y-79543086D01*
X101595980Y-79337029D01*
X101595978Y-79337026D01*
X101593920Y-79332292D01*
X101574074Y-79301614D01*
X101469069Y-79139302D01*
X101469067Y-79139299D01*
X101466261Y-79134962D01*
X101308087Y-78961131D01*
X101123645Y-78815468D01*
X100917890Y-78701885D01*
X100798203Y-78659501D01*
X100701222Y-78625158D01*
X100701218Y-78625157D01*
X100696347Y-78623432D01*
X100691254Y-78622525D01*
X100691251Y-78622524D01*
X100470054Y-78583123D01*
X100470048Y-78583122D01*
X100464965Y-78582217D01*
X100391830Y-78581324D01*
X100235130Y-78579409D01*
X100235128Y-78579409D01*
X100229959Y-78579346D01*
X99997639Y-78614895D01*
X99992720Y-78616503D01*
X99992719Y-78616503D01*
X99901178Y-78646423D01*
X99774245Y-78687912D01*
X99565777Y-78796434D01*
X99561635Y-78799544D01*
X99445545Y-78886707D01*
X99377832Y-78937547D01*
X99355295Y-78961131D01*
X99277877Y-79042144D01*
X99215458Y-79107461D01*
X99212544Y-79111733D01*
X99212543Y-79111734D01*
X99123644Y-79242056D01*
X99083016Y-79301614D01*
X99068776Y-79332292D01*
X98986239Y-79510100D01*
X98986237Y-79510105D01*
X98984062Y-79514791D01*
X98921255Y-79741267D01*
X98896280Y-79974961D01*
X98896577Y-79980113D01*
X98896577Y-79980117D01*
X98902340Y-80080058D01*
X98909809Y-80209595D01*
X98910946Y-80214641D01*
X98910947Y-80214647D01*
X98943720Y-80360072D01*
X98961478Y-80438869D01*
X98963420Y-80443651D01*
X98963421Y-80443655D01*
X99047956Y-80651838D01*
X99049900Y-80656625D01*
X99172699Y-80857016D01*
X99326579Y-81034660D01*
X99405800Y-81100430D01*
X99503430Y-81181484D01*
X99503436Y-81181488D01*
X99507407Y-81184785D01*
X99511873Y-81187395D01*
X99513766Y-81188720D01*
X99558097Y-81244175D01*
X99567500Y-81291936D01*
X99567500Y-84626804D01*
X99547498Y-84694925D01*
X99493842Y-84741418D01*
X99423568Y-84751522D01*
X99358988Y-84722028D01*
X99318981Y-84656219D01*
X99306101Y-84602569D01*
X99306099Y-84602564D01*
X99304947Y-84597764D01*
X99303057Y-84593201D01*
X99303055Y-84593195D01*
X99211188Y-84371408D01*
X99211186Y-84371404D01*
X99209293Y-84366834D01*
X99078691Y-84153711D01*
X98916357Y-83963643D01*
X98726289Y-83801309D01*
X98513166Y-83670707D01*
X98508596Y-83668814D01*
X98508592Y-83668812D01*
X98286805Y-83576945D01*
X98286799Y-83576943D01*
X98282236Y-83575053D01*
X98277436Y-83573901D01*
X98277431Y-83573899D01*
X98142084Y-83541405D01*
X98039186Y-83516701D01*
X97790000Y-83497090D01*
X97540814Y-83516701D01*
X97437916Y-83541405D01*
X97302569Y-83573899D01*
X97302564Y-83573901D01*
X97297764Y-83575053D01*
X97293201Y-83576943D01*
X97293195Y-83576945D01*
X97071408Y-83668812D01*
X97071404Y-83668814D01*
X97066834Y-83670707D01*
X96853711Y-83801309D01*
X96663643Y-83963643D01*
X96501309Y-84153711D01*
X96370707Y-84366834D01*
X96368814Y-84371404D01*
X96368812Y-84371408D01*
X96276945Y-84593195D01*
X96276943Y-84593201D01*
X96275053Y-84597764D01*
X96273901Y-84602564D01*
X96273899Y-84602569D01*
X96261019Y-84656219D01*
X96225666Y-84717788D01*
X96162640Y-84750470D01*
X96091949Y-84743889D01*
X96036037Y-84700135D01*
X96012500Y-84626804D01*
X96012500Y-81286687D01*
X96032502Y-81218566D01*
X96065331Y-81184110D01*
X96175682Y-81105397D01*
X96342159Y-80939500D01*
X96479305Y-80748641D01*
X96583437Y-80537945D01*
X96584937Y-80533006D01*
X96584940Y-80533000D01*
X96650258Y-80318011D01*
X96651759Y-80313071D01*
X96682436Y-80080058D01*
X96684148Y-80010000D01*
X96677784Y-79932590D01*
X96665314Y-79780917D01*
X96665313Y-79780911D01*
X96664890Y-79775766D01*
X96607635Y-79547823D01*
X96605579Y-79543093D01*
X96605576Y-79543086D01*
X96515980Y-79337029D01*
X96515978Y-79337026D01*
X96513920Y-79332292D01*
X96494074Y-79301614D01*
X96389069Y-79139302D01*
X96389067Y-79139299D01*
X96386261Y-79134962D01*
X96228087Y-78961131D01*
X96043645Y-78815468D01*
X95837890Y-78701885D01*
X95718203Y-78659501D01*
X95621222Y-78625158D01*
X95621218Y-78625157D01*
X95616347Y-78623432D01*
X95611254Y-78622525D01*
X95611251Y-78622524D01*
X95390054Y-78583123D01*
X95390048Y-78583122D01*
X95384965Y-78582217D01*
X95311830Y-78581324D01*
X95155130Y-78579409D01*
X95155128Y-78579409D01*
X95149959Y-78579346D01*
X94917639Y-78614895D01*
X94912720Y-78616503D01*
X94912719Y-78616503D01*
X94821178Y-78646423D01*
X94694245Y-78687912D01*
X94485777Y-78796434D01*
X94481635Y-78799544D01*
X94365545Y-78886707D01*
X94297832Y-78937547D01*
X94275295Y-78961131D01*
X94197877Y-79042144D01*
X94135458Y-79107461D01*
X94132544Y-79111733D01*
X94132543Y-79111734D01*
X94043644Y-79242056D01*
X94003016Y-79301614D01*
X93988776Y-79332292D01*
X93906239Y-79510100D01*
X93906237Y-79510105D01*
X93904062Y-79514791D01*
X93841255Y-79741267D01*
X93816280Y-79974961D01*
X93816577Y-79980113D01*
X93816577Y-79980117D01*
X93822340Y-80080058D01*
X93829809Y-80209595D01*
X93830946Y-80214641D01*
X93830947Y-80214647D01*
X93863720Y-80360072D01*
X93881478Y-80438869D01*
X93883420Y-80443651D01*
X93883421Y-80443655D01*
X93967956Y-80651838D01*
X93969900Y-80656625D01*
X94092699Y-80857016D01*
X94246579Y-81034660D01*
X94325800Y-81100430D01*
X94423430Y-81181484D01*
X94423436Y-81181488D01*
X94427407Y-81184785D01*
X94431873Y-81187395D01*
X94433766Y-81188720D01*
X94478097Y-81244175D01*
X94487500Y-81291936D01*
X94487500Y-84626804D01*
X94467498Y-84694925D01*
X94413842Y-84741418D01*
X94343568Y-84751522D01*
X94278988Y-84722028D01*
X94238981Y-84656219D01*
X94226101Y-84602569D01*
X94226099Y-84602564D01*
X94224947Y-84597764D01*
X94223057Y-84593201D01*
X94223055Y-84593195D01*
X94131188Y-84371408D01*
X94131186Y-84371404D01*
X94129293Y-84366834D01*
X93998691Y-84153711D01*
X93836357Y-83963643D01*
X93646289Y-83801309D01*
X93433166Y-83670707D01*
X93428596Y-83668814D01*
X93428592Y-83668812D01*
X93206805Y-83576945D01*
X93206799Y-83576943D01*
X93202236Y-83575053D01*
X93197436Y-83573901D01*
X93197431Y-83573899D01*
X93062084Y-83541405D01*
X92959186Y-83516701D01*
X92710000Y-83497090D01*
X92460814Y-83516701D01*
X92357916Y-83541405D01*
X92222569Y-83573899D01*
X92222564Y-83573901D01*
X92217764Y-83575053D01*
X92213201Y-83576943D01*
X92213195Y-83576945D01*
X91991408Y-83668812D01*
X91991404Y-83668814D01*
X91986834Y-83670707D01*
X91773711Y-83801309D01*
X91583643Y-83963643D01*
X91421309Y-84153711D01*
X91290707Y-84366834D01*
X91288814Y-84371404D01*
X91288812Y-84371408D01*
X91196945Y-84593195D01*
X91196943Y-84593201D01*
X91195053Y-84597764D01*
X91193901Y-84602564D01*
X91193899Y-84602569D01*
X91181019Y-84656219D01*
X91145666Y-84717788D01*
X91082640Y-84750470D01*
X91011949Y-84743889D01*
X90956037Y-84700135D01*
X90932500Y-84626804D01*
X90932500Y-81286687D01*
X90952502Y-81218566D01*
X90985331Y-81184110D01*
X91095682Y-81105397D01*
X91262159Y-80939500D01*
X91399305Y-80748641D01*
X91503437Y-80537945D01*
X91504937Y-80533006D01*
X91504940Y-80533000D01*
X91570258Y-80318011D01*
X91571759Y-80313071D01*
X91602436Y-80080058D01*
X91604148Y-80010000D01*
X91597784Y-79932590D01*
X91585314Y-79780917D01*
X91585313Y-79780911D01*
X91584890Y-79775766D01*
X91527635Y-79547823D01*
X91525579Y-79543093D01*
X91525576Y-79543086D01*
X91435980Y-79337029D01*
X91435978Y-79337026D01*
X91433920Y-79332292D01*
X91414074Y-79301614D01*
X91309069Y-79139302D01*
X91309067Y-79139299D01*
X91306261Y-79134962D01*
X91148087Y-78961131D01*
X90963645Y-78815468D01*
X90757890Y-78701885D01*
X90638203Y-78659501D01*
X90541222Y-78625158D01*
X90541218Y-78625157D01*
X90536347Y-78623432D01*
X90531254Y-78622525D01*
X90531251Y-78622524D01*
X90310054Y-78583123D01*
X90310048Y-78583122D01*
X90304965Y-78582217D01*
X90231830Y-78581324D01*
X90075130Y-78579409D01*
X90075128Y-78579409D01*
X90069959Y-78579346D01*
X89837639Y-78614895D01*
X89832720Y-78616503D01*
X89832719Y-78616503D01*
X89741178Y-78646423D01*
X89614245Y-78687912D01*
X89405777Y-78796434D01*
X89401635Y-78799544D01*
X89285545Y-78886707D01*
X89217832Y-78937547D01*
X89195295Y-78961131D01*
X89117877Y-79042144D01*
X89055458Y-79107461D01*
X89052544Y-79111733D01*
X89052543Y-79111734D01*
X88963644Y-79242056D01*
X88923016Y-79301614D01*
X88908776Y-79332292D01*
X88826239Y-79510100D01*
X88826237Y-79510105D01*
X88824062Y-79514791D01*
X88761255Y-79741267D01*
X88736280Y-79974961D01*
X88736577Y-79980113D01*
X88736577Y-79980117D01*
X88742340Y-80080058D01*
X88749809Y-80209595D01*
X88750946Y-80214641D01*
X88750947Y-80214647D01*
X88783720Y-80360072D01*
X88801478Y-80438869D01*
X88803420Y-80443651D01*
X88803421Y-80443655D01*
X88887956Y-80651838D01*
X88889900Y-80656625D01*
X89012699Y-80857016D01*
X89166579Y-81034660D01*
X89245800Y-81100430D01*
X89343430Y-81181484D01*
X89343436Y-81181488D01*
X89347407Y-81184785D01*
X89351873Y-81187395D01*
X89353766Y-81188720D01*
X89398097Y-81244175D01*
X89407500Y-81291936D01*
X89407500Y-84626804D01*
X89387498Y-84694925D01*
X89333842Y-84741418D01*
X89263568Y-84751522D01*
X89198988Y-84722028D01*
X89158981Y-84656219D01*
X89146101Y-84602569D01*
X89146099Y-84602564D01*
X89144947Y-84597764D01*
X89143057Y-84593201D01*
X89143055Y-84593195D01*
X89051188Y-84371408D01*
X89051186Y-84371404D01*
X89049293Y-84366834D01*
X88918691Y-84153711D01*
X88756357Y-83963643D01*
X88566289Y-83801309D01*
X88353166Y-83670707D01*
X88348596Y-83668814D01*
X88348592Y-83668812D01*
X88126805Y-83576945D01*
X88126799Y-83576943D01*
X88122236Y-83575053D01*
X88117436Y-83573901D01*
X88117431Y-83573899D01*
X87982084Y-83541405D01*
X87879186Y-83516701D01*
X87630000Y-83497090D01*
X87380814Y-83516701D01*
X87277916Y-83541405D01*
X87142569Y-83573899D01*
X87142564Y-83573901D01*
X87137764Y-83575053D01*
X87133201Y-83576943D01*
X87133195Y-83576945D01*
X86911408Y-83668812D01*
X86911404Y-83668814D01*
X86906834Y-83670707D01*
X86693711Y-83801309D01*
X86503643Y-83963643D01*
X86341309Y-84153711D01*
X86210707Y-84366834D01*
X86208814Y-84371404D01*
X86208812Y-84371408D01*
X86116945Y-84593195D01*
X86116943Y-84593201D01*
X86115053Y-84597764D01*
X86113901Y-84602564D01*
X86113899Y-84602569D01*
X86101019Y-84656219D01*
X86065666Y-84717788D01*
X86002640Y-84750470D01*
X85931949Y-84743889D01*
X85876037Y-84700135D01*
X85852500Y-84626804D01*
X85852500Y-81286687D01*
X85872502Y-81218566D01*
X85905331Y-81184110D01*
X86015682Y-81105397D01*
X86182159Y-80939500D01*
X86319305Y-80748641D01*
X86423437Y-80537945D01*
X86424937Y-80533006D01*
X86424940Y-80533000D01*
X86490258Y-80318011D01*
X86491759Y-80313071D01*
X86522436Y-80080058D01*
X86524148Y-80010000D01*
X86517784Y-79932590D01*
X86505314Y-79780917D01*
X86505313Y-79780911D01*
X86504890Y-79775766D01*
X86447635Y-79547823D01*
X86445579Y-79543093D01*
X86445576Y-79543086D01*
X86355980Y-79337029D01*
X86355978Y-79337026D01*
X86353920Y-79332292D01*
X86334074Y-79301614D01*
X86229069Y-79139302D01*
X86229067Y-79139299D01*
X86226261Y-79134962D01*
X86068087Y-78961131D01*
X85883645Y-78815468D01*
X85677890Y-78701885D01*
X85558203Y-78659501D01*
X85461222Y-78625158D01*
X85461218Y-78625157D01*
X85456347Y-78623432D01*
X85451254Y-78622525D01*
X85451251Y-78622524D01*
X85230054Y-78583123D01*
X85230048Y-78583122D01*
X85224965Y-78582217D01*
X85151830Y-78581324D01*
X84995130Y-78579409D01*
X84995128Y-78579409D01*
X84989959Y-78579346D01*
X84757639Y-78614895D01*
X84752720Y-78616503D01*
X84752719Y-78616503D01*
X84661178Y-78646423D01*
X84534245Y-78687912D01*
X84325777Y-78796434D01*
X84321635Y-78799544D01*
X84205545Y-78886707D01*
X84137832Y-78937547D01*
X84115295Y-78961131D01*
X84037877Y-79042144D01*
X83975458Y-79107461D01*
X83972544Y-79111733D01*
X83972543Y-79111734D01*
X83883644Y-79242056D01*
X83843016Y-79301614D01*
X83828776Y-79332292D01*
X83746239Y-79510100D01*
X83746237Y-79510105D01*
X83744062Y-79514791D01*
X83681255Y-79741267D01*
X83656280Y-79974961D01*
X83656577Y-79980113D01*
X83656577Y-79980117D01*
X83662340Y-80080058D01*
X83669809Y-80209595D01*
X83670946Y-80214641D01*
X83670947Y-80214647D01*
X83703720Y-80360072D01*
X83721478Y-80438869D01*
X83723420Y-80443651D01*
X83723421Y-80443655D01*
X83807956Y-80651838D01*
X83809900Y-80656625D01*
X83932699Y-80857016D01*
X84086579Y-81034660D01*
X84165800Y-81100430D01*
X84263430Y-81181484D01*
X84263436Y-81181488D01*
X84267407Y-81184785D01*
X84271873Y-81187395D01*
X84273766Y-81188720D01*
X84318097Y-81244175D01*
X84327500Y-81291936D01*
X84327500Y-84626804D01*
X84307498Y-84694925D01*
X84253842Y-84741418D01*
X84183568Y-84751522D01*
X84118988Y-84722028D01*
X84078981Y-84656219D01*
X84066101Y-84602569D01*
X84066099Y-84602564D01*
X84064947Y-84597764D01*
X84063057Y-84593201D01*
X84063055Y-84593195D01*
X83971188Y-84371408D01*
X83971186Y-84371404D01*
X83969293Y-84366834D01*
X83838691Y-84153711D01*
X83676357Y-83963643D01*
X83486289Y-83801309D01*
X83273166Y-83670707D01*
X83268596Y-83668814D01*
X83268592Y-83668812D01*
X83046805Y-83576945D01*
X83046799Y-83576943D01*
X83042236Y-83575053D01*
X83037436Y-83573901D01*
X83037431Y-83573899D01*
X82902084Y-83541405D01*
X82799186Y-83516701D01*
X82550000Y-83497090D01*
X82300814Y-83516701D01*
X82197916Y-83541405D01*
X82062569Y-83573899D01*
X82062564Y-83573901D01*
X82057764Y-83575053D01*
X82053201Y-83576943D01*
X82053195Y-83576945D01*
X81831408Y-83668812D01*
X81831404Y-83668814D01*
X81826834Y-83670707D01*
X81613711Y-83801309D01*
X81423643Y-83963643D01*
X81261309Y-84153711D01*
X81130707Y-84366834D01*
X81128814Y-84371404D01*
X81128812Y-84371408D01*
X81036945Y-84593195D01*
X81036943Y-84593201D01*
X81035053Y-84597764D01*
X81033901Y-84602564D01*
X81033899Y-84602569D01*
X81021019Y-84656219D01*
X80985666Y-84717788D01*
X80922640Y-84750470D01*
X80851949Y-84743889D01*
X80796037Y-84700135D01*
X80772500Y-84626804D01*
X80772500Y-81286687D01*
X80792502Y-81218566D01*
X80825331Y-81184110D01*
X80935682Y-81105397D01*
X81102159Y-80939500D01*
X81239305Y-80748641D01*
X81343437Y-80537945D01*
X81344937Y-80533006D01*
X81344940Y-80533000D01*
X81410258Y-80318011D01*
X81411759Y-80313071D01*
X81442436Y-80080058D01*
X81444148Y-80010000D01*
X81437784Y-79932590D01*
X81425314Y-79780917D01*
X81425313Y-79780911D01*
X81424890Y-79775766D01*
X81367635Y-79547823D01*
X81365579Y-79543093D01*
X81365576Y-79543086D01*
X81275980Y-79337029D01*
X81275978Y-79337026D01*
X81273920Y-79332292D01*
X81254074Y-79301614D01*
X81149069Y-79139302D01*
X81149067Y-79139299D01*
X81146261Y-79134962D01*
X80988087Y-78961131D01*
X80803645Y-78815468D01*
X80597890Y-78701885D01*
X80478203Y-78659501D01*
X80381222Y-78625158D01*
X80381218Y-78625157D01*
X80376347Y-78623432D01*
X80371254Y-78622525D01*
X80371251Y-78622524D01*
X80150054Y-78583123D01*
X80150048Y-78583122D01*
X80144965Y-78582217D01*
X80071830Y-78581324D01*
X79915130Y-78579409D01*
X79915128Y-78579409D01*
X79909959Y-78579346D01*
X79677639Y-78614895D01*
X79672720Y-78616503D01*
X79672719Y-78616503D01*
X79581178Y-78646423D01*
X79454245Y-78687912D01*
X79245777Y-78796434D01*
X79241635Y-78799544D01*
X79125545Y-78886707D01*
X79057832Y-78937547D01*
X79035295Y-78961131D01*
X78957877Y-79042144D01*
X78895458Y-79107461D01*
X78892544Y-79111733D01*
X78892543Y-79111734D01*
X78803644Y-79242056D01*
X78763016Y-79301614D01*
X78748776Y-79332292D01*
X78666239Y-79510100D01*
X78666237Y-79510105D01*
X78664062Y-79514791D01*
X78601255Y-79741267D01*
X78576280Y-79974961D01*
X78576577Y-79980113D01*
X78576577Y-79980117D01*
X78582340Y-80080058D01*
X78589809Y-80209595D01*
X78590946Y-80214641D01*
X78590947Y-80214647D01*
X78623720Y-80360072D01*
X78641478Y-80438869D01*
X78643420Y-80443651D01*
X78643421Y-80443655D01*
X78727956Y-80651838D01*
X78729900Y-80656625D01*
X78852699Y-80857016D01*
X79006579Y-81034660D01*
X79085800Y-81100430D01*
X79183430Y-81181484D01*
X79183436Y-81181488D01*
X79187407Y-81184785D01*
X79191873Y-81187395D01*
X79193766Y-81188720D01*
X79238097Y-81244175D01*
X79247500Y-81291936D01*
X79247500Y-84626804D01*
X79227498Y-84694925D01*
X79173842Y-84741418D01*
X79103568Y-84751522D01*
X79038988Y-84722028D01*
X78998981Y-84656219D01*
X78986101Y-84602569D01*
X78986099Y-84602564D01*
X78984947Y-84597764D01*
X78983057Y-84593201D01*
X78983055Y-84593195D01*
X78891188Y-84371408D01*
X78891186Y-84371404D01*
X78889293Y-84366834D01*
X78758691Y-84153711D01*
X78596357Y-83963643D01*
X78406289Y-83801309D01*
X78193166Y-83670707D01*
X78188596Y-83668814D01*
X78188592Y-83668812D01*
X77966805Y-83576945D01*
X77966799Y-83576943D01*
X77962236Y-83575053D01*
X77957436Y-83573901D01*
X77957431Y-83573899D01*
X77822084Y-83541405D01*
X77719186Y-83516701D01*
X77470000Y-83497090D01*
X77220814Y-83516701D01*
X77117916Y-83541405D01*
X76982569Y-83573899D01*
X76982564Y-83573901D01*
X76977764Y-83575053D01*
X76973201Y-83576943D01*
X76973195Y-83576945D01*
X76751408Y-83668812D01*
X76751404Y-83668814D01*
X76746834Y-83670707D01*
X76533711Y-83801309D01*
X76343643Y-83963643D01*
X76181309Y-84153711D01*
X76050707Y-84366834D01*
X76048814Y-84371404D01*
X76048812Y-84371408D01*
X75956945Y-84593195D01*
X75956943Y-84593201D01*
X75955053Y-84597764D01*
X75953901Y-84602564D01*
X75953899Y-84602569D01*
X75941019Y-84656219D01*
X75905666Y-84717788D01*
X75842640Y-84750470D01*
X75771949Y-84743889D01*
X75716037Y-84700135D01*
X75692500Y-84626804D01*
X75692500Y-81286687D01*
X75712502Y-81218566D01*
X75745331Y-81184110D01*
X75855682Y-81105397D01*
X76022159Y-80939500D01*
X76159305Y-80748641D01*
X76263437Y-80537945D01*
X76264937Y-80533006D01*
X76264940Y-80533000D01*
X76330258Y-80318011D01*
X76331759Y-80313071D01*
X76362436Y-80080058D01*
X76364148Y-80010000D01*
X76357784Y-79932590D01*
X76345314Y-79780917D01*
X76345313Y-79780911D01*
X76344890Y-79775766D01*
X76287635Y-79547823D01*
X76285579Y-79543093D01*
X76285576Y-79543086D01*
X76195980Y-79337029D01*
X76195978Y-79337026D01*
X76193920Y-79332292D01*
X76174074Y-79301614D01*
X76069069Y-79139302D01*
X76069067Y-79139299D01*
X76066261Y-79134962D01*
X75908087Y-78961131D01*
X75723645Y-78815468D01*
X75517890Y-78701885D01*
X75398203Y-78659501D01*
X75301222Y-78625158D01*
X75301218Y-78625157D01*
X75296347Y-78623432D01*
X75291254Y-78622525D01*
X75291251Y-78622524D01*
X75070054Y-78583123D01*
X75070048Y-78583122D01*
X75064965Y-78582217D01*
X74991830Y-78581324D01*
X74835130Y-78579409D01*
X74835128Y-78579409D01*
X74829959Y-78579346D01*
X74597639Y-78614895D01*
X74592720Y-78616503D01*
X74592719Y-78616503D01*
X74501178Y-78646423D01*
X74374245Y-78687912D01*
X74165777Y-78796434D01*
X74161635Y-78799544D01*
X74045545Y-78886707D01*
X73977832Y-78937547D01*
X73955295Y-78961131D01*
X73877877Y-79042144D01*
X73815458Y-79107461D01*
X73812544Y-79111733D01*
X73812543Y-79111734D01*
X73723644Y-79242056D01*
X73683016Y-79301614D01*
X73668776Y-79332292D01*
X73586239Y-79510100D01*
X73586237Y-79510105D01*
X73584062Y-79514791D01*
X73521255Y-79741267D01*
X73496280Y-79974961D01*
X73496577Y-79980113D01*
X73496577Y-79980117D01*
X73502340Y-80080058D01*
X73509809Y-80209595D01*
X73510946Y-80214641D01*
X73510947Y-80214647D01*
X73543720Y-80360072D01*
X73561478Y-80438869D01*
X73563420Y-80443651D01*
X73563421Y-80443655D01*
X73647956Y-80651838D01*
X73649900Y-80656625D01*
X73772699Y-80857016D01*
X73926579Y-81034660D01*
X74005800Y-81100430D01*
X74103430Y-81181484D01*
X74103436Y-81181488D01*
X74107407Y-81184785D01*
X74111873Y-81187395D01*
X74113766Y-81188720D01*
X74158097Y-81244175D01*
X74167500Y-81291936D01*
X74167500Y-84626804D01*
X74147498Y-84694925D01*
X74093842Y-84741418D01*
X74023568Y-84751522D01*
X73958988Y-84722028D01*
X73918981Y-84656219D01*
X73906101Y-84602569D01*
X73906099Y-84602564D01*
X73904947Y-84597764D01*
X73903057Y-84593201D01*
X73903055Y-84593195D01*
X73811188Y-84371408D01*
X73811186Y-84371404D01*
X73809293Y-84366834D01*
X73678691Y-84153711D01*
X73516357Y-83963643D01*
X73326289Y-83801309D01*
X73113166Y-83670707D01*
X73108596Y-83668814D01*
X73108592Y-83668812D01*
X72886805Y-83576945D01*
X72886799Y-83576943D01*
X72882236Y-83575053D01*
X72877436Y-83573901D01*
X72877431Y-83573899D01*
X72742084Y-83541405D01*
X72639186Y-83516701D01*
X72390000Y-83497090D01*
X72140814Y-83516701D01*
X72037916Y-83541405D01*
X71902569Y-83573899D01*
X71902564Y-83573901D01*
X71897764Y-83575053D01*
X71893201Y-83576943D01*
X71893195Y-83576945D01*
X71671408Y-83668812D01*
X71671404Y-83668814D01*
X71666834Y-83670707D01*
X71453711Y-83801309D01*
X71263643Y-83963643D01*
X71101309Y-84153711D01*
X70970707Y-84366834D01*
X70968814Y-84371404D01*
X70968812Y-84371408D01*
X70876945Y-84593195D01*
X70876943Y-84593201D01*
X70875053Y-84597764D01*
X70873901Y-84602564D01*
X70873899Y-84602569D01*
X70861019Y-84656219D01*
X70825666Y-84717788D01*
X70762640Y-84750470D01*
X70691949Y-84743889D01*
X70636037Y-84700135D01*
X70612500Y-84626804D01*
X70612500Y-81286687D01*
X70632502Y-81218566D01*
X70665331Y-81184110D01*
X70775682Y-81105397D01*
X70942159Y-80939500D01*
X71079305Y-80748641D01*
X71183437Y-80537945D01*
X71184937Y-80533006D01*
X71184940Y-80533000D01*
X71250258Y-80318011D01*
X71251759Y-80313071D01*
X71282436Y-80080058D01*
X71284148Y-80010000D01*
X71277784Y-79932590D01*
X71265314Y-79780917D01*
X71265313Y-79780911D01*
X71264890Y-79775766D01*
X71207635Y-79547823D01*
X71205579Y-79543093D01*
X71205576Y-79543086D01*
X71115980Y-79337029D01*
X71115978Y-79337026D01*
X71113920Y-79332292D01*
X71094074Y-79301614D01*
X70989069Y-79139302D01*
X70989067Y-79139299D01*
X70986261Y-79134962D01*
X70828087Y-78961131D01*
X70643645Y-78815468D01*
X70437890Y-78701885D01*
X70318203Y-78659501D01*
X70221222Y-78625158D01*
X70221218Y-78625157D01*
X70216347Y-78623432D01*
X70211254Y-78622525D01*
X70211251Y-78622524D01*
X69990054Y-78583123D01*
X69990048Y-78583122D01*
X69984965Y-78582217D01*
X69911830Y-78581324D01*
X69755130Y-78579409D01*
X69755128Y-78579409D01*
X69749959Y-78579346D01*
X69517639Y-78614895D01*
X69512720Y-78616503D01*
X69512719Y-78616503D01*
X69421178Y-78646423D01*
X69294245Y-78687912D01*
X69085777Y-78796434D01*
X69081635Y-78799544D01*
X68965545Y-78886707D01*
X68897832Y-78937547D01*
X68875295Y-78961131D01*
X68797877Y-79042144D01*
X68735458Y-79107461D01*
X68732544Y-79111733D01*
X68732543Y-79111734D01*
X68643644Y-79242056D01*
X68603016Y-79301614D01*
X68588776Y-79332292D01*
X68506239Y-79510100D01*
X68506237Y-79510105D01*
X68504062Y-79514791D01*
X68441255Y-79741267D01*
X68416280Y-79974961D01*
X68416577Y-79980113D01*
X68416577Y-79980117D01*
X68422340Y-80080058D01*
X68429809Y-80209595D01*
X68430946Y-80214641D01*
X68430947Y-80214647D01*
X68463720Y-80360072D01*
X68481478Y-80438869D01*
X68483420Y-80443651D01*
X68483421Y-80443655D01*
X68567956Y-80651838D01*
X68569900Y-80656625D01*
X68692699Y-80857016D01*
X68846579Y-81034660D01*
X68925800Y-81100430D01*
X69023430Y-81181484D01*
X69023436Y-81181488D01*
X69027407Y-81184785D01*
X69031873Y-81187395D01*
X69033766Y-81188720D01*
X69078097Y-81244175D01*
X69087500Y-81291936D01*
X69087500Y-84626804D01*
X69067498Y-84694925D01*
X69013842Y-84741418D01*
X68943568Y-84751522D01*
X68878988Y-84722028D01*
X68838981Y-84656219D01*
X68826101Y-84602569D01*
X68826099Y-84602564D01*
X68824947Y-84597764D01*
X68823057Y-84593201D01*
X68823055Y-84593195D01*
X68731188Y-84371408D01*
X68731186Y-84371404D01*
X68729293Y-84366834D01*
X68598691Y-84153711D01*
X68436357Y-83963643D01*
X68246289Y-83801309D01*
X68033166Y-83670707D01*
X68028596Y-83668814D01*
X68028592Y-83668812D01*
X67806805Y-83576945D01*
X67806799Y-83576943D01*
X67802236Y-83575053D01*
X67797436Y-83573901D01*
X67797431Y-83573899D01*
X67662084Y-83541405D01*
X67559186Y-83516701D01*
X67310000Y-83497090D01*
X67060814Y-83516701D01*
X66957916Y-83541405D01*
X66822569Y-83573899D01*
X66822564Y-83573901D01*
X66817764Y-83575053D01*
X66813201Y-83576943D01*
X66813195Y-83576945D01*
X66591408Y-83668812D01*
X66591404Y-83668814D01*
X66586834Y-83670707D01*
X66373711Y-83801309D01*
X66183643Y-83963643D01*
X66021309Y-84153711D01*
X65890707Y-84366834D01*
X65888814Y-84371404D01*
X65888812Y-84371408D01*
X65796945Y-84593195D01*
X65796943Y-84593201D01*
X65795053Y-84597764D01*
X65793901Y-84602564D01*
X65793899Y-84602569D01*
X65781019Y-84656219D01*
X65745666Y-84717788D01*
X65682640Y-84750470D01*
X65611949Y-84743889D01*
X65556037Y-84700135D01*
X65532500Y-84626804D01*
X65532500Y-81286687D01*
X65552502Y-81218566D01*
X65585331Y-81184110D01*
X65695682Y-81105397D01*
X65862159Y-80939500D01*
X65999305Y-80748641D01*
X66103437Y-80537945D01*
X66104937Y-80533006D01*
X66104940Y-80533000D01*
X66170258Y-80318011D01*
X66171759Y-80313071D01*
X66202436Y-80080058D01*
X66204148Y-80010000D01*
X66197784Y-79932590D01*
X66185314Y-79780917D01*
X66185313Y-79780911D01*
X66184890Y-79775766D01*
X66127635Y-79547823D01*
X66125579Y-79543093D01*
X66125576Y-79543086D01*
X66035980Y-79337029D01*
X66035978Y-79337026D01*
X66033920Y-79332292D01*
X66014074Y-79301614D01*
X65909069Y-79139302D01*
X65909067Y-79139299D01*
X65906261Y-79134962D01*
X65748087Y-78961131D01*
X65563645Y-78815468D01*
X65357890Y-78701885D01*
X65238203Y-78659501D01*
X65141222Y-78625158D01*
X65141218Y-78625157D01*
X65136347Y-78623432D01*
X65131254Y-78622525D01*
X65131251Y-78622524D01*
X64910054Y-78583123D01*
X64910048Y-78583122D01*
X64904965Y-78582217D01*
X64831830Y-78581324D01*
X64675130Y-78579409D01*
X64675128Y-78579409D01*
X64669959Y-78579346D01*
X64437639Y-78614895D01*
X64432720Y-78616503D01*
X64432719Y-78616503D01*
X64341178Y-78646423D01*
X64214245Y-78687912D01*
X64005777Y-78796434D01*
X64001635Y-78799544D01*
X63885545Y-78886707D01*
X63817832Y-78937547D01*
X63795295Y-78961131D01*
X63717877Y-79042144D01*
X63655458Y-79107461D01*
X63652544Y-79111733D01*
X63652543Y-79111734D01*
X63563644Y-79242056D01*
X63523016Y-79301614D01*
X63508776Y-79332292D01*
X63426239Y-79510100D01*
X63426237Y-79510105D01*
X63424062Y-79514791D01*
X63361255Y-79741267D01*
X63336280Y-79974961D01*
X63336577Y-79980113D01*
X63336577Y-79980117D01*
X63342340Y-80080058D01*
X63349809Y-80209595D01*
X63350946Y-80214641D01*
X63350947Y-80214647D01*
X63383720Y-80360072D01*
X63401478Y-80438869D01*
X63403420Y-80443651D01*
X63403421Y-80443655D01*
X63487956Y-80651838D01*
X63489900Y-80656625D01*
X63612699Y-80857016D01*
X63766579Y-81034660D01*
X63845800Y-81100430D01*
X63943430Y-81181484D01*
X63943436Y-81181488D01*
X63947407Y-81184785D01*
X63951873Y-81187395D01*
X63953766Y-81188720D01*
X63998097Y-81244175D01*
X64007500Y-81291936D01*
X64007500Y-84626804D01*
X63987498Y-84694925D01*
X63933842Y-84741418D01*
X63863568Y-84751522D01*
X63798988Y-84722028D01*
X63758981Y-84656219D01*
X63746101Y-84602569D01*
X63746099Y-84602564D01*
X63744947Y-84597764D01*
X63743057Y-84593201D01*
X63743055Y-84593195D01*
X63651188Y-84371408D01*
X63651186Y-84371404D01*
X63649293Y-84366834D01*
X63518691Y-84153711D01*
X63356357Y-83963643D01*
X63166289Y-83801309D01*
X62953166Y-83670707D01*
X62948596Y-83668814D01*
X62948592Y-83668812D01*
X62726805Y-83576945D01*
X62726799Y-83576943D01*
X62722236Y-83575053D01*
X62717436Y-83573901D01*
X62717431Y-83573899D01*
X62582084Y-83541405D01*
X62479186Y-83516701D01*
X62230000Y-83497090D01*
X61980814Y-83516701D01*
X61877916Y-83541405D01*
X61742569Y-83573899D01*
X61742564Y-83573901D01*
X61737764Y-83575053D01*
X61733201Y-83576943D01*
X61733195Y-83576945D01*
X61511408Y-83668812D01*
X61511404Y-83668814D01*
X61506834Y-83670707D01*
X61293711Y-83801309D01*
X61103643Y-83963643D01*
X60941309Y-84153711D01*
X60810707Y-84366834D01*
X60808814Y-84371404D01*
X60808812Y-84371408D01*
X60716945Y-84593195D01*
X60716943Y-84593201D01*
X60715053Y-84597764D01*
X60713901Y-84602564D01*
X60713899Y-84602569D01*
X60701019Y-84656219D01*
X60665666Y-84717788D01*
X60602640Y-84750470D01*
X60531949Y-84743889D01*
X60476037Y-84700135D01*
X60452500Y-84626804D01*
X60452500Y-81286687D01*
X60472502Y-81218566D01*
X60505331Y-81184110D01*
X60615682Y-81105397D01*
X60782159Y-80939500D01*
X60919305Y-80748641D01*
X61023437Y-80537945D01*
X61024937Y-80533006D01*
X61024940Y-80533000D01*
X61090258Y-80318011D01*
X61091759Y-80313071D01*
X61122436Y-80080058D01*
X61124148Y-80010000D01*
X61117784Y-79932590D01*
X61105314Y-79780917D01*
X61105313Y-79780911D01*
X61104890Y-79775766D01*
X61047635Y-79547823D01*
X61045579Y-79543093D01*
X61045576Y-79543086D01*
X60955980Y-79337029D01*
X60955978Y-79337026D01*
X60953920Y-79332292D01*
X60934074Y-79301614D01*
X60829069Y-79139302D01*
X60829067Y-79139299D01*
X60826261Y-79134962D01*
X60668087Y-78961131D01*
X60483645Y-78815468D01*
X60277890Y-78701885D01*
X60158203Y-78659501D01*
X60061222Y-78625158D01*
X60061218Y-78625157D01*
X60056347Y-78623432D01*
X60051254Y-78622525D01*
X60051251Y-78622524D01*
X59830054Y-78583123D01*
X59830048Y-78583122D01*
X59824965Y-78582217D01*
X59751830Y-78581324D01*
X59595130Y-78579409D01*
X59595128Y-78579409D01*
X59589959Y-78579346D01*
X59357639Y-78614895D01*
X59352720Y-78616503D01*
X59352719Y-78616503D01*
X59261178Y-78646423D01*
X59134245Y-78687912D01*
X58925777Y-78796434D01*
X58921635Y-78799544D01*
X58805545Y-78886707D01*
X58737832Y-78937547D01*
X58715295Y-78961131D01*
X58637877Y-79042144D01*
X58575458Y-79107461D01*
X58572544Y-79111733D01*
X58572543Y-79111734D01*
X58483644Y-79242056D01*
X58443016Y-79301614D01*
X58428776Y-79332292D01*
X58346239Y-79510100D01*
X58346237Y-79510105D01*
X58344062Y-79514791D01*
X58281255Y-79741267D01*
X58256280Y-79974961D01*
X58256577Y-79980113D01*
X58256577Y-79980117D01*
X58262340Y-80080058D01*
X58269809Y-80209595D01*
X58270946Y-80214641D01*
X58270947Y-80214647D01*
X58303720Y-80360072D01*
X58321478Y-80438869D01*
X58323420Y-80443651D01*
X58323421Y-80443655D01*
X58407956Y-80651838D01*
X58409900Y-80656625D01*
X58532699Y-80857016D01*
X58686579Y-81034660D01*
X58765800Y-81100430D01*
X58863430Y-81181484D01*
X58863436Y-81181488D01*
X58867407Y-81184785D01*
X58871873Y-81187395D01*
X58873766Y-81188720D01*
X58918097Y-81244175D01*
X58927500Y-81291936D01*
X58927500Y-84626804D01*
X58907498Y-84694925D01*
X58853842Y-84741418D01*
X58783568Y-84751522D01*
X58718988Y-84722028D01*
X58678981Y-84656219D01*
X58666101Y-84602569D01*
X58666099Y-84602564D01*
X58664947Y-84597764D01*
X58663057Y-84593201D01*
X58663055Y-84593195D01*
X58571188Y-84371408D01*
X58571186Y-84371404D01*
X58569293Y-84366834D01*
X58438691Y-84153711D01*
X58276357Y-83963643D01*
X58086289Y-83801309D01*
X57873166Y-83670707D01*
X57868596Y-83668814D01*
X57868592Y-83668812D01*
X57646805Y-83576945D01*
X57646799Y-83576943D01*
X57642236Y-83575053D01*
X57637436Y-83573901D01*
X57637431Y-83573899D01*
X57502084Y-83541405D01*
X57399186Y-83516701D01*
X57150000Y-83497090D01*
X56900814Y-83516701D01*
X56797916Y-83541405D01*
X56662569Y-83573899D01*
X56662564Y-83573901D01*
X56657764Y-83575053D01*
X56653201Y-83576943D01*
X56653195Y-83576945D01*
X56431408Y-83668812D01*
X56431404Y-83668814D01*
X56426834Y-83670707D01*
X56213711Y-83801309D01*
X56023643Y-83963643D01*
X55861309Y-84153711D01*
X55730707Y-84366834D01*
X55728814Y-84371404D01*
X55728812Y-84371408D01*
X55636945Y-84593195D01*
X55636943Y-84593201D01*
X55635053Y-84597764D01*
X55633901Y-84602564D01*
X55633899Y-84602569D01*
X55621019Y-84656219D01*
X55585666Y-84717788D01*
X55522640Y-84750470D01*
X55451949Y-84743889D01*
X55396037Y-84700135D01*
X55372500Y-84626804D01*
X55372500Y-81286687D01*
X55392502Y-81218566D01*
X55425331Y-81184110D01*
X55535682Y-81105397D01*
X55702159Y-80939500D01*
X55839305Y-80748641D01*
X55943437Y-80537945D01*
X55944937Y-80533006D01*
X55944940Y-80533000D01*
X56010258Y-80318011D01*
X56011759Y-80313071D01*
X56042436Y-80080058D01*
X56044148Y-80010000D01*
X56037784Y-79932590D01*
X56025314Y-79780917D01*
X56025313Y-79780911D01*
X56024890Y-79775766D01*
X55967635Y-79547823D01*
X55965579Y-79543093D01*
X55965576Y-79543086D01*
X55875980Y-79337029D01*
X55875978Y-79337026D01*
X55873920Y-79332292D01*
X55854074Y-79301614D01*
X55749069Y-79139302D01*
X55749067Y-79139299D01*
X55746261Y-79134962D01*
X55588087Y-78961131D01*
X55403645Y-78815468D01*
X55197890Y-78701885D01*
X55078203Y-78659501D01*
X54981222Y-78625158D01*
X54981218Y-78625157D01*
X54976347Y-78623432D01*
X54971254Y-78622525D01*
X54971251Y-78622524D01*
X54750054Y-78583123D01*
X54750048Y-78583122D01*
X54744965Y-78582217D01*
X54671830Y-78581324D01*
X54515130Y-78579409D01*
X54515128Y-78579409D01*
X54509959Y-78579346D01*
X54277639Y-78614895D01*
X54272720Y-78616503D01*
X54272719Y-78616503D01*
X54181178Y-78646423D01*
X54054245Y-78687912D01*
X53845777Y-78796434D01*
X53841635Y-78799544D01*
X53725545Y-78886707D01*
X53657832Y-78937547D01*
X53635295Y-78961131D01*
X53557877Y-79042144D01*
X53495458Y-79107461D01*
X53492544Y-79111733D01*
X53492543Y-79111734D01*
X53403644Y-79242056D01*
X53363016Y-79301614D01*
X53348776Y-79332292D01*
X53266239Y-79510100D01*
X53266237Y-79510105D01*
X53264062Y-79514791D01*
X53201255Y-79741267D01*
X53176280Y-79974961D01*
X53176577Y-79980113D01*
X53176577Y-79980117D01*
X53182340Y-80080058D01*
X53189809Y-80209595D01*
X53190946Y-80214641D01*
X53190947Y-80214647D01*
X53223720Y-80360072D01*
X53241478Y-80438869D01*
X53243420Y-80443651D01*
X53243421Y-80443655D01*
X53327956Y-80651838D01*
X53329900Y-80656625D01*
X53452699Y-80857016D01*
X53606579Y-81034660D01*
X53685800Y-81100430D01*
X53783430Y-81181484D01*
X53783436Y-81181488D01*
X53787407Y-81184785D01*
X53791873Y-81187395D01*
X53793766Y-81188720D01*
X53838097Y-81244175D01*
X53847500Y-81291936D01*
X53847500Y-84626804D01*
X53827498Y-84694925D01*
X53773842Y-84741418D01*
X53703568Y-84751522D01*
X53638988Y-84722028D01*
X53598981Y-84656219D01*
X53586101Y-84602569D01*
X53586099Y-84602564D01*
X53584947Y-84597764D01*
X53583057Y-84593201D01*
X53583055Y-84593195D01*
X53491188Y-84371408D01*
X53491186Y-84371404D01*
X53489293Y-84366834D01*
X53358691Y-84153711D01*
X53196357Y-83963643D01*
X53006289Y-83801309D01*
X52793166Y-83670707D01*
X52788596Y-83668814D01*
X52788592Y-83668812D01*
X52566805Y-83576945D01*
X52566799Y-83576943D01*
X52562236Y-83575053D01*
X52557436Y-83573901D01*
X52557431Y-83573899D01*
X52422084Y-83541405D01*
X52319186Y-83516701D01*
X52070000Y-83497090D01*
X51820814Y-83516701D01*
X51717916Y-83541405D01*
X51582569Y-83573899D01*
X51582564Y-83573901D01*
X51577764Y-83575053D01*
X51573201Y-83576943D01*
X51573195Y-83576945D01*
X51351408Y-83668812D01*
X51351404Y-83668814D01*
X51346834Y-83670707D01*
X51133711Y-83801309D01*
X50943643Y-83963643D01*
X50781309Y-84153711D01*
X50650707Y-84366834D01*
X50648814Y-84371404D01*
X50648812Y-84371408D01*
X50556945Y-84593195D01*
X50556943Y-84593201D01*
X50555053Y-84597764D01*
X50553901Y-84602564D01*
X50553899Y-84602569D01*
X50541019Y-84656219D01*
X50505666Y-84717788D01*
X50442640Y-84750470D01*
X50371949Y-84743889D01*
X50316037Y-84700135D01*
X50292500Y-84626804D01*
X50292500Y-81286687D01*
X50312502Y-81218566D01*
X50345331Y-81184110D01*
X50455682Y-81105397D01*
X50622159Y-80939500D01*
X50759305Y-80748641D01*
X50863437Y-80537945D01*
X50864937Y-80533006D01*
X50864940Y-80533000D01*
X50930258Y-80318011D01*
X50931759Y-80313071D01*
X50962436Y-80080058D01*
X50964148Y-80010000D01*
X50957784Y-79932590D01*
X50945314Y-79780917D01*
X50945313Y-79780911D01*
X50944890Y-79775766D01*
X50887635Y-79547823D01*
X50885579Y-79543093D01*
X50885576Y-79543086D01*
X50795980Y-79337029D01*
X50795978Y-79337026D01*
X50793920Y-79332292D01*
X50774074Y-79301614D01*
X50669069Y-79139302D01*
X50669067Y-79139299D01*
X50666261Y-79134962D01*
X50508087Y-78961131D01*
X50323645Y-78815468D01*
X50117890Y-78701885D01*
X49998203Y-78659501D01*
X49901222Y-78625158D01*
X49901218Y-78625157D01*
X49896347Y-78623432D01*
X49891254Y-78622525D01*
X49891251Y-78622524D01*
X49670054Y-78583123D01*
X49670048Y-78583122D01*
X49664965Y-78582217D01*
X49591830Y-78581324D01*
X49435130Y-78579409D01*
X49435128Y-78579409D01*
X49429959Y-78579346D01*
X49197639Y-78614895D01*
X49192720Y-78616503D01*
X49192719Y-78616503D01*
X49101178Y-78646423D01*
X48974245Y-78687912D01*
X48765777Y-78796434D01*
X48761635Y-78799544D01*
X48645545Y-78886707D01*
X48577832Y-78937547D01*
X48555295Y-78961131D01*
X48477877Y-79042144D01*
X48415458Y-79107461D01*
X48412544Y-79111733D01*
X48412543Y-79111734D01*
X48323644Y-79242056D01*
X48283016Y-79301614D01*
X48268776Y-79332292D01*
X48186239Y-79510100D01*
X48186237Y-79510105D01*
X48184062Y-79514791D01*
X48121255Y-79741267D01*
X48096280Y-79974961D01*
X48096577Y-79980113D01*
X48096577Y-79980117D01*
X48102340Y-80080058D01*
X48109809Y-80209595D01*
X48110946Y-80214641D01*
X48110947Y-80214647D01*
X48143720Y-80360072D01*
X48161478Y-80438869D01*
X48163420Y-80443651D01*
X48163421Y-80443655D01*
X48247956Y-80651838D01*
X48249900Y-80656625D01*
X48372699Y-80857016D01*
X48526579Y-81034660D01*
X48605800Y-81100430D01*
X48703430Y-81181484D01*
X48703436Y-81181488D01*
X48707407Y-81184785D01*
X48711873Y-81187395D01*
X48713766Y-81188720D01*
X48758097Y-81244175D01*
X48767500Y-81291936D01*
X48767500Y-84626804D01*
X48747498Y-84694925D01*
X48693842Y-84741418D01*
X48623568Y-84751522D01*
X48558988Y-84722028D01*
X48518981Y-84656219D01*
X48506101Y-84602569D01*
X48506099Y-84602564D01*
X48504947Y-84597764D01*
X48503057Y-84593201D01*
X48503055Y-84593195D01*
X48411188Y-84371408D01*
X48411186Y-84371404D01*
X48409293Y-84366834D01*
X48278691Y-84153711D01*
X48116357Y-83963643D01*
X47926289Y-83801309D01*
X47713166Y-83670707D01*
X47708596Y-83668814D01*
X47708592Y-83668812D01*
X47486805Y-83576945D01*
X47486799Y-83576943D01*
X47482236Y-83575053D01*
X47477436Y-83573901D01*
X47477431Y-83573899D01*
X47342084Y-83541405D01*
X47239186Y-83516701D01*
X46990000Y-83497090D01*
X46740814Y-83516701D01*
X46637916Y-83541405D01*
X46502569Y-83573899D01*
X46502564Y-83573901D01*
X46497764Y-83575053D01*
X46493201Y-83576943D01*
X46493195Y-83576945D01*
X46271408Y-83668812D01*
X46271404Y-83668814D01*
X46266834Y-83670707D01*
X46053711Y-83801309D01*
X45863643Y-83963643D01*
X45701309Y-84153711D01*
X45570707Y-84366834D01*
X45568814Y-84371404D01*
X45568812Y-84371408D01*
X45476945Y-84593195D01*
X45476943Y-84593201D01*
X45475053Y-84597764D01*
X45473901Y-84602564D01*
X45473899Y-84602569D01*
X45461019Y-84656219D01*
X45425666Y-84717788D01*
X45362640Y-84750470D01*
X45291949Y-84743889D01*
X45236037Y-84700135D01*
X45212500Y-84626804D01*
X45212500Y-81286687D01*
X45232502Y-81218566D01*
X45265331Y-81184110D01*
X45375682Y-81105397D01*
X45542159Y-80939500D01*
X45679305Y-80748641D01*
X45783437Y-80537945D01*
X45784937Y-80533006D01*
X45784940Y-80533000D01*
X45850258Y-80318011D01*
X45851759Y-80313071D01*
X45882436Y-80080058D01*
X45884148Y-80010000D01*
X45877784Y-79932590D01*
X45865314Y-79780917D01*
X45865313Y-79780911D01*
X45864890Y-79775766D01*
X45807635Y-79547823D01*
X45805579Y-79543093D01*
X45805576Y-79543086D01*
X45715980Y-79337029D01*
X45715978Y-79337026D01*
X45713920Y-79332292D01*
X45694074Y-79301614D01*
X45589069Y-79139302D01*
X45589067Y-79139299D01*
X45586261Y-79134962D01*
X45428087Y-78961131D01*
X45243645Y-78815468D01*
X45037890Y-78701885D01*
X44918203Y-78659501D01*
X44821222Y-78625158D01*
X44821218Y-78625157D01*
X44816347Y-78623432D01*
X44811254Y-78622525D01*
X44811251Y-78622524D01*
X44590054Y-78583123D01*
X44590048Y-78583122D01*
X44584965Y-78582217D01*
X44511830Y-78581324D01*
X44355130Y-78579409D01*
X44355128Y-78579409D01*
X44349959Y-78579346D01*
X44117639Y-78614895D01*
X44112720Y-78616503D01*
X44112719Y-78616503D01*
X44021178Y-78646423D01*
X43894245Y-78687912D01*
X43685777Y-78796434D01*
X43681635Y-78799544D01*
X43565545Y-78886707D01*
X43497832Y-78937547D01*
X43475295Y-78961131D01*
X43397877Y-79042144D01*
X43335458Y-79107461D01*
X43332544Y-79111733D01*
X43332543Y-79111734D01*
X43243644Y-79242056D01*
X43203016Y-79301614D01*
X43188776Y-79332292D01*
X43106239Y-79510100D01*
X43106237Y-79510105D01*
X43104062Y-79514791D01*
X43041255Y-79741267D01*
X43016280Y-79974961D01*
X43016577Y-79980113D01*
X43016577Y-79980117D01*
X43022340Y-80080058D01*
X43029809Y-80209595D01*
X43030946Y-80214641D01*
X43030947Y-80214647D01*
X43063720Y-80360072D01*
X43081478Y-80438869D01*
X43083420Y-80443651D01*
X43083421Y-80443655D01*
X43167956Y-80651838D01*
X43169900Y-80656625D01*
X43292699Y-80857016D01*
X43446579Y-81034660D01*
X43525800Y-81100430D01*
X43623430Y-81181484D01*
X43623436Y-81181488D01*
X43627407Y-81184785D01*
X43631873Y-81187395D01*
X43633766Y-81188720D01*
X43678097Y-81244175D01*
X43687500Y-81291936D01*
X43687500Y-84626804D01*
X43667498Y-84694925D01*
X43613842Y-84741418D01*
X43543568Y-84751522D01*
X43478988Y-84722028D01*
X43438981Y-84656219D01*
X43426101Y-84602569D01*
X43426099Y-84602564D01*
X43424947Y-84597764D01*
X43423057Y-84593201D01*
X43423055Y-84593195D01*
X43331188Y-84371408D01*
X43331186Y-84371404D01*
X43329293Y-84366834D01*
X43198691Y-84153711D01*
X43036357Y-83963643D01*
X42846289Y-83801309D01*
X42633166Y-83670707D01*
X42628596Y-83668814D01*
X42628592Y-83668812D01*
X42406805Y-83576945D01*
X42406799Y-83576943D01*
X42402236Y-83575053D01*
X42397436Y-83573901D01*
X42397431Y-83573899D01*
X42262084Y-83541405D01*
X42159186Y-83516701D01*
X41910000Y-83497090D01*
X41660814Y-83516701D01*
X41557916Y-83541405D01*
X41422569Y-83573899D01*
X41422564Y-83573901D01*
X41417764Y-83575053D01*
X41413201Y-83576943D01*
X41413195Y-83576945D01*
X41191408Y-83668812D01*
X41191404Y-83668814D01*
X41186834Y-83670707D01*
X40973711Y-83801309D01*
X40783643Y-83963643D01*
X40621309Y-84153711D01*
X40490707Y-84366834D01*
X40488814Y-84371404D01*
X40488812Y-84371408D01*
X40396945Y-84593195D01*
X40396943Y-84593201D01*
X40395053Y-84597764D01*
X40393901Y-84602564D01*
X40393899Y-84602569D01*
X40381019Y-84656219D01*
X40345666Y-84717788D01*
X40282640Y-84750470D01*
X40211949Y-84743889D01*
X40156037Y-84700135D01*
X40132500Y-84626804D01*
X40132500Y-81286687D01*
X40152502Y-81218566D01*
X40185331Y-81184110D01*
X40295682Y-81105397D01*
X40462159Y-80939500D01*
X40599305Y-80748641D01*
X40703437Y-80537945D01*
X40704937Y-80533006D01*
X40704940Y-80533000D01*
X40770258Y-80318011D01*
X40771759Y-80313071D01*
X40802436Y-80080058D01*
X40804148Y-80010000D01*
X40797784Y-79932590D01*
X40785314Y-79780917D01*
X40785313Y-79780911D01*
X40784890Y-79775766D01*
X40727635Y-79547823D01*
X40725579Y-79543093D01*
X40725576Y-79543086D01*
X40635980Y-79337029D01*
X40635978Y-79337026D01*
X40633920Y-79332292D01*
X40614074Y-79301614D01*
X40509069Y-79139302D01*
X40509067Y-79139299D01*
X40506261Y-79134962D01*
X40348087Y-78961131D01*
X40163645Y-78815468D01*
X39957890Y-78701885D01*
X39838203Y-78659501D01*
X39741222Y-78625158D01*
X39741218Y-78625157D01*
X39736347Y-78623432D01*
X39731254Y-78622525D01*
X39731251Y-78622524D01*
X39510054Y-78583123D01*
X39510048Y-78583122D01*
X39504965Y-78582217D01*
X39431830Y-78581324D01*
X39275130Y-78579409D01*
X39275128Y-78579409D01*
X39269959Y-78579346D01*
X39037639Y-78614895D01*
X39032720Y-78616503D01*
X39032719Y-78616503D01*
X38941178Y-78646423D01*
X38814245Y-78687912D01*
X38605777Y-78796434D01*
X38601635Y-78799544D01*
X38485545Y-78886707D01*
X38417832Y-78937547D01*
X38395295Y-78961131D01*
X38317877Y-79042144D01*
X38255458Y-79107461D01*
X38252544Y-79111733D01*
X38252543Y-79111734D01*
X38163644Y-79242056D01*
X38123016Y-79301614D01*
X38108776Y-79332292D01*
X38026239Y-79510100D01*
X38026237Y-79510105D01*
X38024062Y-79514791D01*
X37961255Y-79741267D01*
X37936280Y-79974961D01*
X37936577Y-79980113D01*
X37936577Y-79980117D01*
X37942340Y-80080058D01*
X37949809Y-80209595D01*
X37950946Y-80214641D01*
X37950947Y-80214647D01*
X37983720Y-80360072D01*
X38001478Y-80438869D01*
X38003420Y-80443651D01*
X38003421Y-80443655D01*
X38087956Y-80651838D01*
X38089900Y-80656625D01*
X38212699Y-80857016D01*
X38366579Y-81034660D01*
X38445800Y-81100430D01*
X38543430Y-81181484D01*
X38543436Y-81181488D01*
X38547407Y-81184785D01*
X38551873Y-81187395D01*
X38553766Y-81188720D01*
X38598097Y-81244175D01*
X38607500Y-81291936D01*
X38607500Y-84626804D01*
X38587498Y-84694925D01*
X38533842Y-84741418D01*
X38463568Y-84751522D01*
X38398988Y-84722028D01*
X38358981Y-84656219D01*
X38346101Y-84602569D01*
X38346099Y-84602564D01*
X38344947Y-84597764D01*
X38343057Y-84593201D01*
X38343055Y-84593195D01*
X38251188Y-84371408D01*
X38251186Y-84371404D01*
X38249293Y-84366834D01*
X38118691Y-84153711D01*
X37956357Y-83963643D01*
X37766289Y-83801309D01*
X37553166Y-83670707D01*
X37548596Y-83668814D01*
X37548592Y-83668812D01*
X37326805Y-83576945D01*
X37326799Y-83576943D01*
X37322236Y-83575053D01*
X37317436Y-83573901D01*
X37317431Y-83573899D01*
X37182084Y-83541405D01*
X37079186Y-83516701D01*
X36830000Y-83497090D01*
X36580814Y-83516701D01*
X36576005Y-83517855D01*
X36576002Y-83517856D01*
X36477914Y-83541405D01*
X36407006Y-83537858D01*
X36349272Y-83496538D01*
X36323042Y-83430565D01*
X36322500Y-83418886D01*
X36322500Y-79141114D01*
X36342502Y-79072993D01*
X36396158Y-79026500D01*
X36466432Y-79016396D01*
X36477914Y-79018595D01*
X36576002Y-79042144D01*
X36576005Y-79042145D01*
X36580814Y-79043299D01*
X36830000Y-79062910D01*
X37079186Y-79043299D01*
X37206168Y-79012813D01*
X37317431Y-78986101D01*
X37317436Y-78986099D01*
X37322236Y-78984947D01*
X37326799Y-78983057D01*
X37326805Y-78983055D01*
X37548592Y-78891188D01*
X37548596Y-78891186D01*
X37553166Y-78889293D01*
X37766289Y-78758691D01*
X37956357Y-78596357D01*
X38118691Y-78406289D01*
X38249293Y-78193166D01*
X38251188Y-78188592D01*
X38343055Y-77966805D01*
X38343057Y-77966799D01*
X38344947Y-77962236D01*
X38403299Y-77719186D01*
X38422910Y-77470000D01*
X40317090Y-77470000D01*
X40336701Y-77719186D01*
X40395053Y-77962236D01*
X40396943Y-77966799D01*
X40396945Y-77966805D01*
X40488812Y-78188592D01*
X40490707Y-78193166D01*
X40621309Y-78406289D01*
X40783643Y-78596357D01*
X40973711Y-78758691D01*
X41186834Y-78889293D01*
X41191404Y-78891186D01*
X41191408Y-78891188D01*
X41413195Y-78983055D01*
X41413201Y-78983057D01*
X41417764Y-78984947D01*
X41422564Y-78986099D01*
X41422569Y-78986101D01*
X41533832Y-79012813D01*
X41660814Y-79043299D01*
X41910000Y-79062910D01*
X42159186Y-79043299D01*
X42286168Y-79012813D01*
X42397431Y-78986101D01*
X42397436Y-78986099D01*
X42402236Y-78984947D01*
X42406799Y-78983057D01*
X42406805Y-78983055D01*
X42628592Y-78891188D01*
X42628596Y-78891186D01*
X42633166Y-78889293D01*
X42846289Y-78758691D01*
X43036357Y-78596357D01*
X43198691Y-78406289D01*
X43329293Y-78193166D01*
X43331188Y-78188592D01*
X43423055Y-77966805D01*
X43423057Y-77966799D01*
X43424947Y-77962236D01*
X43483299Y-77719186D01*
X43502910Y-77470000D01*
X45397090Y-77470000D01*
X45416701Y-77719186D01*
X45475053Y-77962236D01*
X45476943Y-77966799D01*
X45476945Y-77966805D01*
X45568812Y-78188592D01*
X45570707Y-78193166D01*
X45701309Y-78406289D01*
X45863643Y-78596357D01*
X46053711Y-78758691D01*
X46266834Y-78889293D01*
X46271404Y-78891186D01*
X46271408Y-78891188D01*
X46493195Y-78983055D01*
X46493201Y-78983057D01*
X46497764Y-78984947D01*
X46502564Y-78986099D01*
X46502569Y-78986101D01*
X46613832Y-79012813D01*
X46740814Y-79043299D01*
X46990000Y-79062910D01*
X47239186Y-79043299D01*
X47366168Y-79012813D01*
X47477431Y-78986101D01*
X47477436Y-78986099D01*
X47482236Y-78984947D01*
X47486799Y-78983057D01*
X47486805Y-78983055D01*
X47708592Y-78891188D01*
X47708596Y-78891186D01*
X47713166Y-78889293D01*
X47926289Y-78758691D01*
X48116357Y-78596357D01*
X48278691Y-78406289D01*
X48409293Y-78193166D01*
X48411188Y-78188592D01*
X48503055Y-77966805D01*
X48503057Y-77966799D01*
X48504947Y-77962236D01*
X48563299Y-77719186D01*
X48582910Y-77470000D01*
X50477090Y-77470000D01*
X50496701Y-77719186D01*
X50555053Y-77962236D01*
X50556943Y-77966799D01*
X50556945Y-77966805D01*
X50648812Y-78188592D01*
X50650707Y-78193166D01*
X50781309Y-78406289D01*
X50943643Y-78596357D01*
X51133711Y-78758691D01*
X51346834Y-78889293D01*
X51351404Y-78891186D01*
X51351408Y-78891188D01*
X51573195Y-78983055D01*
X51573201Y-78983057D01*
X51577764Y-78984947D01*
X51582564Y-78986099D01*
X51582569Y-78986101D01*
X51693832Y-79012813D01*
X51820814Y-79043299D01*
X52070000Y-79062910D01*
X52319186Y-79043299D01*
X52446168Y-79012813D01*
X52557431Y-78986101D01*
X52557436Y-78986099D01*
X52562236Y-78984947D01*
X52566799Y-78983057D01*
X52566805Y-78983055D01*
X52788592Y-78891188D01*
X52788596Y-78891186D01*
X52793166Y-78889293D01*
X53006289Y-78758691D01*
X53196357Y-78596357D01*
X53358691Y-78406289D01*
X53489293Y-78193166D01*
X53491188Y-78188592D01*
X53583055Y-77966805D01*
X53583057Y-77966799D01*
X53584947Y-77962236D01*
X53643299Y-77719186D01*
X53662910Y-77470000D01*
X55557090Y-77470000D01*
X55576701Y-77719186D01*
X55635053Y-77962236D01*
X55636943Y-77966799D01*
X55636945Y-77966805D01*
X55728812Y-78188592D01*
X55730707Y-78193166D01*
X55861309Y-78406289D01*
X56023643Y-78596357D01*
X56213711Y-78758691D01*
X56426834Y-78889293D01*
X56431404Y-78891186D01*
X56431408Y-78891188D01*
X56653195Y-78983055D01*
X56653201Y-78983057D01*
X56657764Y-78984947D01*
X56662564Y-78986099D01*
X56662569Y-78986101D01*
X56773832Y-79012813D01*
X56900814Y-79043299D01*
X57150000Y-79062910D01*
X57399186Y-79043299D01*
X57526168Y-79012813D01*
X57637431Y-78986101D01*
X57637436Y-78986099D01*
X57642236Y-78984947D01*
X57646799Y-78983057D01*
X57646805Y-78983055D01*
X57868592Y-78891188D01*
X57868596Y-78891186D01*
X57873166Y-78889293D01*
X58086289Y-78758691D01*
X58276357Y-78596357D01*
X58438691Y-78406289D01*
X58569293Y-78193166D01*
X58571188Y-78188592D01*
X58663055Y-77966805D01*
X58663057Y-77966799D01*
X58664947Y-77962236D01*
X58723299Y-77719186D01*
X58742910Y-77470000D01*
X60637090Y-77470000D01*
X60656701Y-77719186D01*
X60715053Y-77962236D01*
X60716943Y-77966799D01*
X60716945Y-77966805D01*
X60808812Y-78188592D01*
X60810707Y-78193166D01*
X60941309Y-78406289D01*
X61103643Y-78596357D01*
X61293711Y-78758691D01*
X61506834Y-78889293D01*
X61511404Y-78891186D01*
X61511408Y-78891188D01*
X61733195Y-78983055D01*
X61733201Y-78983057D01*
X61737764Y-78984947D01*
X61742564Y-78986099D01*
X61742569Y-78986101D01*
X61853832Y-79012813D01*
X61980814Y-79043299D01*
X62230000Y-79062910D01*
X62479186Y-79043299D01*
X62606168Y-79012813D01*
X62717431Y-78986101D01*
X62717436Y-78986099D01*
X62722236Y-78984947D01*
X62726799Y-78983057D01*
X62726805Y-78983055D01*
X62948592Y-78891188D01*
X62948596Y-78891186D01*
X62953166Y-78889293D01*
X63166289Y-78758691D01*
X63356357Y-78596357D01*
X63518691Y-78406289D01*
X63649293Y-78193166D01*
X63651188Y-78188592D01*
X63743055Y-77966805D01*
X63743057Y-77966799D01*
X63744947Y-77962236D01*
X63803299Y-77719186D01*
X63822910Y-77470000D01*
X65717090Y-77470000D01*
X65736701Y-77719186D01*
X65795053Y-77962236D01*
X65796943Y-77966799D01*
X65796945Y-77966805D01*
X65888812Y-78188592D01*
X65890707Y-78193166D01*
X66021309Y-78406289D01*
X66183643Y-78596357D01*
X66373711Y-78758691D01*
X66586834Y-78889293D01*
X66591404Y-78891186D01*
X66591408Y-78891188D01*
X66813195Y-78983055D01*
X66813201Y-78983057D01*
X66817764Y-78984947D01*
X66822564Y-78986099D01*
X66822569Y-78986101D01*
X66933832Y-79012813D01*
X67060814Y-79043299D01*
X67310000Y-79062910D01*
X67559186Y-79043299D01*
X67686168Y-79012813D01*
X67797431Y-78986101D01*
X67797436Y-78986099D01*
X67802236Y-78984947D01*
X67806799Y-78983057D01*
X67806805Y-78983055D01*
X68028592Y-78891188D01*
X68028596Y-78891186D01*
X68033166Y-78889293D01*
X68246289Y-78758691D01*
X68436357Y-78596357D01*
X68598691Y-78406289D01*
X68729293Y-78193166D01*
X68731188Y-78188592D01*
X68823055Y-77966805D01*
X68823057Y-77966799D01*
X68824947Y-77962236D01*
X68883299Y-77719186D01*
X68902910Y-77470000D01*
X70797090Y-77470000D01*
X70816701Y-77719186D01*
X70875053Y-77962236D01*
X70876943Y-77966799D01*
X70876945Y-77966805D01*
X70968812Y-78188592D01*
X70970707Y-78193166D01*
X71101309Y-78406289D01*
X71263643Y-78596357D01*
X71453711Y-78758691D01*
X71666834Y-78889293D01*
X71671404Y-78891186D01*
X71671408Y-78891188D01*
X71893195Y-78983055D01*
X71893201Y-78983057D01*
X71897764Y-78984947D01*
X71902564Y-78986099D01*
X71902569Y-78986101D01*
X72013832Y-79012813D01*
X72140814Y-79043299D01*
X72390000Y-79062910D01*
X72639186Y-79043299D01*
X72766168Y-79012813D01*
X72877431Y-78986101D01*
X72877436Y-78986099D01*
X72882236Y-78984947D01*
X72886799Y-78983057D01*
X72886805Y-78983055D01*
X73108592Y-78891188D01*
X73108596Y-78891186D01*
X73113166Y-78889293D01*
X73326289Y-78758691D01*
X73516357Y-78596357D01*
X73678691Y-78406289D01*
X73809293Y-78193166D01*
X73811188Y-78188592D01*
X73903055Y-77966805D01*
X73903057Y-77966799D01*
X73904947Y-77962236D01*
X73963299Y-77719186D01*
X73982910Y-77470000D01*
X75877090Y-77470000D01*
X75896701Y-77719186D01*
X75955053Y-77962236D01*
X75956943Y-77966799D01*
X75956945Y-77966805D01*
X76048812Y-78188592D01*
X76050707Y-78193166D01*
X76181309Y-78406289D01*
X76343643Y-78596357D01*
X76533711Y-78758691D01*
X76746834Y-78889293D01*
X76751404Y-78891186D01*
X76751408Y-78891188D01*
X76973195Y-78983055D01*
X76973201Y-78983057D01*
X76977764Y-78984947D01*
X76982564Y-78986099D01*
X76982569Y-78986101D01*
X77093832Y-79012813D01*
X77220814Y-79043299D01*
X77470000Y-79062910D01*
X77719186Y-79043299D01*
X77846168Y-79012813D01*
X77957431Y-78986101D01*
X77957436Y-78986099D01*
X77962236Y-78984947D01*
X77966799Y-78983057D01*
X77966805Y-78983055D01*
X78188592Y-78891188D01*
X78188596Y-78891186D01*
X78193166Y-78889293D01*
X78406289Y-78758691D01*
X78596357Y-78596357D01*
X78758691Y-78406289D01*
X78889293Y-78193166D01*
X78891188Y-78188592D01*
X78983055Y-77966805D01*
X78983057Y-77966799D01*
X78984947Y-77962236D01*
X79043299Y-77719186D01*
X79062910Y-77470000D01*
X80957090Y-77470000D01*
X80976701Y-77719186D01*
X81035053Y-77962236D01*
X81036943Y-77966799D01*
X81036945Y-77966805D01*
X81128812Y-78188592D01*
X81130707Y-78193166D01*
X81261309Y-78406289D01*
X81423643Y-78596357D01*
X81613711Y-78758691D01*
X81826834Y-78889293D01*
X81831404Y-78891186D01*
X81831408Y-78891188D01*
X82053195Y-78983055D01*
X82053201Y-78983057D01*
X82057764Y-78984947D01*
X82062564Y-78986099D01*
X82062569Y-78986101D01*
X82173832Y-79012813D01*
X82300814Y-79043299D01*
X82550000Y-79062910D01*
X82799186Y-79043299D01*
X82926168Y-79012813D01*
X83037431Y-78986101D01*
X83037436Y-78986099D01*
X83042236Y-78984947D01*
X83046799Y-78983057D01*
X83046805Y-78983055D01*
X83268592Y-78891188D01*
X83268596Y-78891186D01*
X83273166Y-78889293D01*
X83486289Y-78758691D01*
X83676357Y-78596357D01*
X83838691Y-78406289D01*
X83969293Y-78193166D01*
X83971188Y-78188592D01*
X84063055Y-77966805D01*
X84063057Y-77966799D01*
X84064947Y-77962236D01*
X84123299Y-77719186D01*
X84142910Y-77470000D01*
X86037090Y-77470000D01*
X86056701Y-77719186D01*
X86115053Y-77962236D01*
X86116943Y-77966799D01*
X86116945Y-77966805D01*
X86208812Y-78188592D01*
X86210707Y-78193166D01*
X86341309Y-78406289D01*
X86503643Y-78596357D01*
X86693711Y-78758691D01*
X86906834Y-78889293D01*
X86911404Y-78891186D01*
X86911408Y-78891188D01*
X87133195Y-78983055D01*
X87133201Y-78983057D01*
X87137764Y-78984947D01*
X87142564Y-78986099D01*
X87142569Y-78986101D01*
X87253832Y-79012813D01*
X87380814Y-79043299D01*
X87630000Y-79062910D01*
X87879186Y-79043299D01*
X88006168Y-79012813D01*
X88117431Y-78986101D01*
X88117436Y-78986099D01*
X88122236Y-78984947D01*
X88126799Y-78983057D01*
X88126805Y-78983055D01*
X88348592Y-78891188D01*
X88348596Y-78891186D01*
X88353166Y-78889293D01*
X88566289Y-78758691D01*
X88756357Y-78596357D01*
X88918691Y-78406289D01*
X89049293Y-78193166D01*
X89051188Y-78188592D01*
X89143055Y-77966805D01*
X89143057Y-77966799D01*
X89144947Y-77962236D01*
X89203299Y-77719186D01*
X89222910Y-77470000D01*
X91117090Y-77470000D01*
X91136701Y-77719186D01*
X91195053Y-77962236D01*
X91196943Y-77966799D01*
X91196945Y-77966805D01*
X91288812Y-78188592D01*
X91290707Y-78193166D01*
X91421309Y-78406289D01*
X91583643Y-78596357D01*
X91773711Y-78758691D01*
X91986834Y-78889293D01*
X91991404Y-78891186D01*
X91991408Y-78891188D01*
X92213195Y-78983055D01*
X92213201Y-78983057D01*
X92217764Y-78984947D01*
X92222564Y-78986099D01*
X92222569Y-78986101D01*
X92333832Y-79012813D01*
X92460814Y-79043299D01*
X92710000Y-79062910D01*
X92959186Y-79043299D01*
X93086168Y-79012813D01*
X93197431Y-78986101D01*
X93197436Y-78986099D01*
X93202236Y-78984947D01*
X93206799Y-78983057D01*
X93206805Y-78983055D01*
X93428592Y-78891188D01*
X93428596Y-78891186D01*
X93433166Y-78889293D01*
X93646289Y-78758691D01*
X93836357Y-78596357D01*
X93998691Y-78406289D01*
X94129293Y-78193166D01*
X94131188Y-78188592D01*
X94223055Y-77966805D01*
X94223057Y-77966799D01*
X94224947Y-77962236D01*
X94283299Y-77719186D01*
X94302910Y-77470000D01*
X96197090Y-77470000D01*
X96216701Y-77719186D01*
X96275053Y-77962236D01*
X96276943Y-77966799D01*
X96276945Y-77966805D01*
X96368812Y-78188592D01*
X96370707Y-78193166D01*
X96501309Y-78406289D01*
X96663643Y-78596357D01*
X96853711Y-78758691D01*
X97066834Y-78889293D01*
X97071404Y-78891186D01*
X97071408Y-78891188D01*
X97293195Y-78983055D01*
X97293201Y-78983057D01*
X97297764Y-78984947D01*
X97302564Y-78986099D01*
X97302569Y-78986101D01*
X97413832Y-79012813D01*
X97540814Y-79043299D01*
X97790000Y-79062910D01*
X98039186Y-79043299D01*
X98166168Y-79012813D01*
X98277431Y-78986101D01*
X98277436Y-78986099D01*
X98282236Y-78984947D01*
X98286799Y-78983057D01*
X98286805Y-78983055D01*
X98508592Y-78891188D01*
X98508596Y-78891186D01*
X98513166Y-78889293D01*
X98726289Y-78758691D01*
X98916357Y-78596357D01*
X99078691Y-78406289D01*
X99209293Y-78193166D01*
X99211188Y-78188592D01*
X99303055Y-77966805D01*
X99303057Y-77966799D01*
X99304947Y-77962236D01*
X99363299Y-77719186D01*
X99382910Y-77470000D01*
X101277090Y-77470000D01*
X101296701Y-77719186D01*
X101355053Y-77962236D01*
X101356943Y-77966799D01*
X101356945Y-77966805D01*
X101448812Y-78188592D01*
X101450707Y-78193166D01*
X101581309Y-78406289D01*
X101743643Y-78596357D01*
X101933711Y-78758691D01*
X102146834Y-78889293D01*
X102151404Y-78891186D01*
X102151408Y-78891188D01*
X102373195Y-78983055D01*
X102373201Y-78983057D01*
X102377764Y-78984947D01*
X102382564Y-78986099D01*
X102382569Y-78986101D01*
X102493832Y-79012813D01*
X102620814Y-79043299D01*
X102870000Y-79062910D01*
X103119186Y-79043299D01*
X103246168Y-79012813D01*
X103357431Y-78986101D01*
X103357436Y-78986099D01*
X103362236Y-78984947D01*
X103366799Y-78983057D01*
X103366805Y-78983055D01*
X103588592Y-78891188D01*
X103588596Y-78891186D01*
X103593166Y-78889293D01*
X103806289Y-78758691D01*
X103996357Y-78596357D01*
X104158691Y-78406289D01*
X104289293Y-78193166D01*
X104291188Y-78188592D01*
X104383055Y-77966805D01*
X104383057Y-77966799D01*
X104384947Y-77962236D01*
X104443299Y-77719186D01*
X104462910Y-77470000D01*
X106357090Y-77470000D01*
X106376701Y-77719186D01*
X106435053Y-77962236D01*
X106436943Y-77966799D01*
X106436945Y-77966805D01*
X106528812Y-78188592D01*
X106530707Y-78193166D01*
X106661309Y-78406289D01*
X106823643Y-78596357D01*
X107013711Y-78758691D01*
X107226834Y-78889293D01*
X107231404Y-78891186D01*
X107231408Y-78891188D01*
X107453195Y-78983055D01*
X107453201Y-78983057D01*
X107457764Y-78984947D01*
X107462564Y-78986099D01*
X107462569Y-78986101D01*
X107573832Y-79012813D01*
X107700814Y-79043299D01*
X107950000Y-79062910D01*
X108199186Y-79043299D01*
X108326168Y-79012813D01*
X108437431Y-78986101D01*
X108437436Y-78986099D01*
X108442236Y-78984947D01*
X108446799Y-78983057D01*
X108446805Y-78983055D01*
X108668592Y-78891188D01*
X108668596Y-78891186D01*
X108673166Y-78889293D01*
X108886289Y-78758691D01*
X109076357Y-78596357D01*
X109238691Y-78406289D01*
X109369293Y-78193166D01*
X109371188Y-78188592D01*
X109463055Y-77966805D01*
X109463057Y-77966799D01*
X109464947Y-77962236D01*
X109523299Y-77719186D01*
X109542910Y-77470000D01*
X111437090Y-77470000D01*
X111456701Y-77719186D01*
X111515053Y-77962236D01*
X111516943Y-77966799D01*
X111516945Y-77966805D01*
X111608812Y-78188592D01*
X111610707Y-78193166D01*
X111741309Y-78406289D01*
X111903643Y-78596357D01*
X112093711Y-78758691D01*
X112306834Y-78889293D01*
X112311404Y-78891186D01*
X112311408Y-78891188D01*
X112533195Y-78983055D01*
X112533201Y-78983057D01*
X112537764Y-78984947D01*
X112542564Y-78986099D01*
X112542569Y-78986101D01*
X112653832Y-79012813D01*
X112780814Y-79043299D01*
X113030000Y-79062910D01*
X113279186Y-79043299D01*
X113406168Y-79012813D01*
X113517431Y-78986101D01*
X113517436Y-78986099D01*
X113522236Y-78984947D01*
X113526799Y-78983057D01*
X113526805Y-78983055D01*
X113748592Y-78891188D01*
X113748596Y-78891186D01*
X113753166Y-78889293D01*
X113966289Y-78758691D01*
X114156357Y-78596357D01*
X114318691Y-78406289D01*
X114449293Y-78193166D01*
X114451188Y-78188592D01*
X114543055Y-77966805D01*
X114543057Y-77966799D01*
X114544947Y-77962236D01*
X114603299Y-77719186D01*
X114622910Y-77470000D01*
X114603299Y-77220814D01*
X114544947Y-76977764D01*
X114543057Y-76973201D01*
X114543055Y-76973195D01*
X114451188Y-76751408D01*
X114451186Y-76751404D01*
X114449293Y-76746834D01*
X114318691Y-76533711D01*
X114156357Y-76343643D01*
X113966289Y-76181309D01*
X113753166Y-76050707D01*
X113748596Y-76048814D01*
X113748592Y-76048812D01*
X113526805Y-75956945D01*
X113526799Y-75956943D01*
X113522236Y-75955053D01*
X113517436Y-75953901D01*
X113517431Y-75953899D01*
X113387032Y-75922593D01*
X113279186Y-75896701D01*
X113030000Y-75877090D01*
X112780814Y-75896701D01*
X112672968Y-75922593D01*
X112542569Y-75953899D01*
X112542564Y-75953901D01*
X112537764Y-75955053D01*
X112533201Y-75956943D01*
X112533195Y-75956945D01*
X112311408Y-76048812D01*
X112311404Y-76048814D01*
X112306834Y-76050707D01*
X112093711Y-76181309D01*
X111903643Y-76343643D01*
X111741309Y-76533711D01*
X111610707Y-76746834D01*
X111608814Y-76751404D01*
X111608812Y-76751408D01*
X111516945Y-76973195D01*
X111516943Y-76973201D01*
X111515053Y-76977764D01*
X111456701Y-77220814D01*
X111437090Y-77470000D01*
X109542910Y-77470000D01*
X109523299Y-77220814D01*
X109464947Y-76977764D01*
X109463057Y-76973201D01*
X109463055Y-76973195D01*
X109371188Y-76751408D01*
X109371186Y-76751404D01*
X109369293Y-76746834D01*
X109238691Y-76533711D01*
X109076357Y-76343643D01*
X108886289Y-76181309D01*
X108673166Y-76050707D01*
X108668596Y-76048814D01*
X108668592Y-76048812D01*
X108446805Y-75956945D01*
X108446799Y-75956943D01*
X108442236Y-75955053D01*
X108437436Y-75953901D01*
X108437431Y-75953899D01*
X108307032Y-75922593D01*
X108199186Y-75896701D01*
X107950000Y-75877090D01*
X107700814Y-75896701D01*
X107592968Y-75922593D01*
X107462569Y-75953899D01*
X107462564Y-75953901D01*
X107457764Y-75955053D01*
X107453201Y-75956943D01*
X107453195Y-75956945D01*
X107231408Y-76048812D01*
X107231404Y-76048814D01*
X107226834Y-76050707D01*
X107013711Y-76181309D01*
X106823643Y-76343643D01*
X106661309Y-76533711D01*
X106530707Y-76746834D01*
X106528814Y-76751404D01*
X106528812Y-76751408D01*
X106436945Y-76973195D01*
X106436943Y-76973201D01*
X106435053Y-76977764D01*
X106376701Y-77220814D01*
X106357090Y-77470000D01*
X104462910Y-77470000D01*
X104443299Y-77220814D01*
X104384947Y-76977764D01*
X104383057Y-76973201D01*
X104383055Y-76973195D01*
X104291188Y-76751408D01*
X104291186Y-76751404D01*
X104289293Y-76746834D01*
X104158691Y-76533711D01*
X103996357Y-76343643D01*
X103806289Y-76181309D01*
X103593166Y-76050707D01*
X103588596Y-76048814D01*
X103588592Y-76048812D01*
X103366805Y-75956945D01*
X103366799Y-75956943D01*
X103362236Y-75955053D01*
X103357436Y-75953901D01*
X103357431Y-75953899D01*
X103227032Y-75922593D01*
X103119186Y-75896701D01*
X102870000Y-75877090D01*
X102620814Y-75896701D01*
X102512968Y-75922593D01*
X102382569Y-75953899D01*
X102382564Y-75953901D01*
X102377764Y-75955053D01*
X102373201Y-75956943D01*
X102373195Y-75956945D01*
X102151408Y-76048812D01*
X102151404Y-76048814D01*
X102146834Y-76050707D01*
X101933711Y-76181309D01*
X101743643Y-76343643D01*
X101581309Y-76533711D01*
X101450707Y-76746834D01*
X101448814Y-76751404D01*
X101448812Y-76751408D01*
X101356945Y-76973195D01*
X101356943Y-76973201D01*
X101355053Y-76977764D01*
X101296701Y-77220814D01*
X101277090Y-77470000D01*
X99382910Y-77470000D01*
X99363299Y-77220814D01*
X99304947Y-76977764D01*
X99303057Y-76973201D01*
X99303055Y-76973195D01*
X99211188Y-76751408D01*
X99211186Y-76751404D01*
X99209293Y-76746834D01*
X99078691Y-76533711D01*
X98916357Y-76343643D01*
X98726289Y-76181309D01*
X98513166Y-76050707D01*
X98508596Y-76048814D01*
X98508592Y-76048812D01*
X98286805Y-75956945D01*
X98286799Y-75956943D01*
X98282236Y-75955053D01*
X98277436Y-75953901D01*
X98277431Y-75953899D01*
X98147032Y-75922593D01*
X98039186Y-75896701D01*
X97790000Y-75877090D01*
X97540814Y-75896701D01*
X97432968Y-75922593D01*
X97302569Y-75953899D01*
X97302564Y-75953901D01*
X97297764Y-75955053D01*
X97293201Y-75956943D01*
X97293195Y-75956945D01*
X97071408Y-76048812D01*
X97071404Y-76048814D01*
X97066834Y-76050707D01*
X96853711Y-76181309D01*
X96663643Y-76343643D01*
X96501309Y-76533711D01*
X96370707Y-76746834D01*
X96368814Y-76751404D01*
X96368812Y-76751408D01*
X96276945Y-76973195D01*
X96276943Y-76973201D01*
X96275053Y-76977764D01*
X96216701Y-77220814D01*
X96197090Y-77470000D01*
X94302910Y-77470000D01*
X94283299Y-77220814D01*
X94224947Y-76977764D01*
X94223057Y-76973201D01*
X94223055Y-76973195D01*
X94131188Y-76751408D01*
X94131186Y-76751404D01*
X94129293Y-76746834D01*
X93998691Y-76533711D01*
X93836357Y-76343643D01*
X93646289Y-76181309D01*
X93433166Y-76050707D01*
X93428596Y-76048814D01*
X93428592Y-76048812D01*
X93206805Y-75956945D01*
X93206799Y-75956943D01*
X93202236Y-75955053D01*
X93197436Y-75953901D01*
X93197431Y-75953899D01*
X93067032Y-75922593D01*
X92959186Y-75896701D01*
X92710000Y-75877090D01*
X92460814Y-75896701D01*
X92352968Y-75922593D01*
X92222569Y-75953899D01*
X92222564Y-75953901D01*
X92217764Y-75955053D01*
X92213201Y-75956943D01*
X92213195Y-75956945D01*
X91991408Y-76048812D01*
X91991404Y-76048814D01*
X91986834Y-76050707D01*
X91773711Y-76181309D01*
X91583643Y-76343643D01*
X91421309Y-76533711D01*
X91290707Y-76746834D01*
X91288814Y-76751404D01*
X91288812Y-76751408D01*
X91196945Y-76973195D01*
X91196943Y-76973201D01*
X91195053Y-76977764D01*
X91136701Y-77220814D01*
X91117090Y-77470000D01*
X89222910Y-77470000D01*
X89203299Y-77220814D01*
X89144947Y-76977764D01*
X89143057Y-76973201D01*
X89143055Y-76973195D01*
X89051188Y-76751408D01*
X89051186Y-76751404D01*
X89049293Y-76746834D01*
X88918691Y-76533711D01*
X88756357Y-76343643D01*
X88566289Y-76181309D01*
X88353166Y-76050707D01*
X88348596Y-76048814D01*
X88348592Y-76048812D01*
X88126805Y-75956945D01*
X88126799Y-75956943D01*
X88122236Y-75955053D01*
X88117436Y-75953901D01*
X88117431Y-75953899D01*
X87987032Y-75922593D01*
X87879186Y-75896701D01*
X87630000Y-75877090D01*
X87380814Y-75896701D01*
X87272968Y-75922593D01*
X87142569Y-75953899D01*
X87142564Y-75953901D01*
X87137764Y-75955053D01*
X87133201Y-75956943D01*
X87133195Y-75956945D01*
X86911408Y-76048812D01*
X86911404Y-76048814D01*
X86906834Y-76050707D01*
X86693711Y-76181309D01*
X86503643Y-76343643D01*
X86341309Y-76533711D01*
X86210707Y-76746834D01*
X86208814Y-76751404D01*
X86208812Y-76751408D01*
X86116945Y-76973195D01*
X86116943Y-76973201D01*
X86115053Y-76977764D01*
X86056701Y-77220814D01*
X86037090Y-77470000D01*
X84142910Y-77470000D01*
X84123299Y-77220814D01*
X84064947Y-76977764D01*
X84063057Y-76973201D01*
X84063055Y-76973195D01*
X83971188Y-76751408D01*
X83971186Y-76751404D01*
X83969293Y-76746834D01*
X83838691Y-76533711D01*
X83676357Y-76343643D01*
X83486289Y-76181309D01*
X83273166Y-76050707D01*
X83268596Y-76048814D01*
X83268592Y-76048812D01*
X83046805Y-75956945D01*
X83046799Y-75956943D01*
X83042236Y-75955053D01*
X83037436Y-75953901D01*
X83037431Y-75953899D01*
X82907032Y-75922593D01*
X82799186Y-75896701D01*
X82550000Y-75877090D01*
X82300814Y-75896701D01*
X82192968Y-75922593D01*
X82062569Y-75953899D01*
X82062564Y-75953901D01*
X82057764Y-75955053D01*
X82053201Y-75956943D01*
X82053195Y-75956945D01*
X81831408Y-76048812D01*
X81831404Y-76048814D01*
X81826834Y-76050707D01*
X81613711Y-76181309D01*
X81423643Y-76343643D01*
X81261309Y-76533711D01*
X81130707Y-76746834D01*
X81128814Y-76751404D01*
X81128812Y-76751408D01*
X81036945Y-76973195D01*
X81036943Y-76973201D01*
X81035053Y-76977764D01*
X80976701Y-77220814D01*
X80957090Y-77470000D01*
X79062910Y-77470000D01*
X79043299Y-77220814D01*
X78984947Y-76977764D01*
X78983057Y-76973201D01*
X78983055Y-76973195D01*
X78891188Y-76751408D01*
X78891186Y-76751404D01*
X78889293Y-76746834D01*
X78758691Y-76533711D01*
X78596357Y-76343643D01*
X78406289Y-76181309D01*
X78193166Y-76050707D01*
X78188596Y-76048814D01*
X78188592Y-76048812D01*
X77966805Y-75956945D01*
X77966799Y-75956943D01*
X77962236Y-75955053D01*
X77957436Y-75953901D01*
X77957431Y-75953899D01*
X77827032Y-75922593D01*
X77719186Y-75896701D01*
X77470000Y-75877090D01*
X77220814Y-75896701D01*
X77112968Y-75922593D01*
X76982569Y-75953899D01*
X76982564Y-75953901D01*
X76977764Y-75955053D01*
X76973201Y-75956943D01*
X76973195Y-75956945D01*
X76751408Y-76048812D01*
X76751404Y-76048814D01*
X76746834Y-76050707D01*
X76533711Y-76181309D01*
X76343643Y-76343643D01*
X76181309Y-76533711D01*
X76050707Y-76746834D01*
X76048814Y-76751404D01*
X76048812Y-76751408D01*
X75956945Y-76973195D01*
X75956943Y-76973201D01*
X75955053Y-76977764D01*
X75896701Y-77220814D01*
X75877090Y-77470000D01*
X73982910Y-77470000D01*
X73963299Y-77220814D01*
X73904947Y-76977764D01*
X73903057Y-76973201D01*
X73903055Y-76973195D01*
X73811188Y-76751408D01*
X73811186Y-76751404D01*
X73809293Y-76746834D01*
X73678691Y-76533711D01*
X73516357Y-76343643D01*
X73326289Y-76181309D01*
X73113166Y-76050707D01*
X73108596Y-76048814D01*
X73108592Y-76048812D01*
X72886805Y-75956945D01*
X72886799Y-75956943D01*
X72882236Y-75955053D01*
X72877436Y-75953901D01*
X72877431Y-75953899D01*
X72747032Y-75922593D01*
X72639186Y-75896701D01*
X72390000Y-75877090D01*
X72140814Y-75896701D01*
X72032968Y-75922593D01*
X71902569Y-75953899D01*
X71902564Y-75953901D01*
X71897764Y-75955053D01*
X71893201Y-75956943D01*
X71893195Y-75956945D01*
X71671408Y-76048812D01*
X71671404Y-76048814D01*
X71666834Y-76050707D01*
X71453711Y-76181309D01*
X71263643Y-76343643D01*
X71101309Y-76533711D01*
X70970707Y-76746834D01*
X70968814Y-76751404D01*
X70968812Y-76751408D01*
X70876945Y-76973195D01*
X70876943Y-76973201D01*
X70875053Y-76977764D01*
X70816701Y-77220814D01*
X70797090Y-77470000D01*
X68902910Y-77470000D01*
X68883299Y-77220814D01*
X68824947Y-76977764D01*
X68823057Y-76973201D01*
X68823055Y-76973195D01*
X68731188Y-76751408D01*
X68731186Y-76751404D01*
X68729293Y-76746834D01*
X68598691Y-76533711D01*
X68436357Y-76343643D01*
X68246289Y-76181309D01*
X68033166Y-76050707D01*
X68028596Y-76048814D01*
X68028592Y-76048812D01*
X67806805Y-75956945D01*
X67806799Y-75956943D01*
X67802236Y-75955053D01*
X67797436Y-75953901D01*
X67797431Y-75953899D01*
X67667032Y-75922593D01*
X67559186Y-75896701D01*
X67310000Y-75877090D01*
X67060814Y-75896701D01*
X66952968Y-75922593D01*
X66822569Y-75953899D01*
X66822564Y-75953901D01*
X66817764Y-75955053D01*
X66813201Y-75956943D01*
X66813195Y-75956945D01*
X66591408Y-76048812D01*
X66591404Y-76048814D01*
X66586834Y-76050707D01*
X66373711Y-76181309D01*
X66183643Y-76343643D01*
X66021309Y-76533711D01*
X65890707Y-76746834D01*
X65888814Y-76751404D01*
X65888812Y-76751408D01*
X65796945Y-76973195D01*
X65796943Y-76973201D01*
X65795053Y-76977764D01*
X65736701Y-77220814D01*
X65717090Y-77470000D01*
X63822910Y-77470000D01*
X63803299Y-77220814D01*
X63744947Y-76977764D01*
X63743057Y-76973201D01*
X63743055Y-76973195D01*
X63651188Y-76751408D01*
X63651186Y-76751404D01*
X63649293Y-76746834D01*
X63518691Y-76533711D01*
X63356357Y-76343643D01*
X63166289Y-76181309D01*
X62953166Y-76050707D01*
X62948596Y-76048814D01*
X62948592Y-76048812D01*
X62726805Y-75956945D01*
X62726799Y-75956943D01*
X62722236Y-75955053D01*
X62717436Y-75953901D01*
X62717431Y-75953899D01*
X62587032Y-75922593D01*
X62479186Y-75896701D01*
X62230000Y-75877090D01*
X61980814Y-75896701D01*
X61872968Y-75922593D01*
X61742569Y-75953899D01*
X61742564Y-75953901D01*
X61737764Y-75955053D01*
X61733201Y-75956943D01*
X61733195Y-75956945D01*
X61511408Y-76048812D01*
X61511404Y-76048814D01*
X61506834Y-76050707D01*
X61293711Y-76181309D01*
X61103643Y-76343643D01*
X60941309Y-76533711D01*
X60810707Y-76746834D01*
X60808814Y-76751404D01*
X60808812Y-76751408D01*
X60716945Y-76973195D01*
X60716943Y-76973201D01*
X60715053Y-76977764D01*
X60656701Y-77220814D01*
X60637090Y-77470000D01*
X58742910Y-77470000D01*
X58723299Y-77220814D01*
X58664947Y-76977764D01*
X58663057Y-76973201D01*
X58663055Y-76973195D01*
X58571188Y-76751408D01*
X58571186Y-76751404D01*
X58569293Y-76746834D01*
X58438691Y-76533711D01*
X58276357Y-76343643D01*
X58086289Y-76181309D01*
X57873166Y-76050707D01*
X57868596Y-76048814D01*
X57868592Y-76048812D01*
X57646805Y-75956945D01*
X57646799Y-75956943D01*
X57642236Y-75955053D01*
X57637436Y-75953901D01*
X57637431Y-75953899D01*
X57507032Y-75922593D01*
X57399186Y-75896701D01*
X57150000Y-75877090D01*
X56900814Y-75896701D01*
X56792968Y-75922593D01*
X56662569Y-75953899D01*
X56662564Y-75953901D01*
X56657764Y-75955053D01*
X56653201Y-75956943D01*
X56653195Y-75956945D01*
X56431408Y-76048812D01*
X56431404Y-76048814D01*
X56426834Y-76050707D01*
X56213711Y-76181309D01*
X56023643Y-76343643D01*
X55861309Y-76533711D01*
X55730707Y-76746834D01*
X55728814Y-76751404D01*
X55728812Y-76751408D01*
X55636945Y-76973195D01*
X55636943Y-76973201D01*
X55635053Y-76977764D01*
X55576701Y-77220814D01*
X55557090Y-77470000D01*
X53662910Y-77470000D01*
X53643299Y-77220814D01*
X53584947Y-76977764D01*
X53583057Y-76973201D01*
X53583055Y-76973195D01*
X53491188Y-76751408D01*
X53491186Y-76751404D01*
X53489293Y-76746834D01*
X53358691Y-76533711D01*
X53196357Y-76343643D01*
X53006289Y-76181309D01*
X52793166Y-76050707D01*
X52788596Y-76048814D01*
X52788592Y-76048812D01*
X52566805Y-75956945D01*
X52566799Y-75956943D01*
X52562236Y-75955053D01*
X52557436Y-75953901D01*
X52557431Y-75953899D01*
X52427032Y-75922593D01*
X52319186Y-75896701D01*
X52070000Y-75877090D01*
X51820814Y-75896701D01*
X51712968Y-75922593D01*
X51582569Y-75953899D01*
X51582564Y-75953901D01*
X51577764Y-75955053D01*
X51573201Y-75956943D01*
X51573195Y-75956945D01*
X51351408Y-76048812D01*
X51351404Y-76048814D01*
X51346834Y-76050707D01*
X51133711Y-76181309D01*
X50943643Y-76343643D01*
X50781309Y-76533711D01*
X50650707Y-76746834D01*
X50648814Y-76751404D01*
X50648812Y-76751408D01*
X50556945Y-76973195D01*
X50556943Y-76973201D01*
X50555053Y-76977764D01*
X50496701Y-77220814D01*
X50477090Y-77470000D01*
X48582910Y-77470000D01*
X48563299Y-77220814D01*
X48504947Y-76977764D01*
X48503057Y-76973201D01*
X48503055Y-76973195D01*
X48411188Y-76751408D01*
X48411186Y-76751404D01*
X48409293Y-76746834D01*
X48278691Y-76533711D01*
X48116357Y-76343643D01*
X47926289Y-76181309D01*
X47713166Y-76050707D01*
X47708596Y-76048814D01*
X47708592Y-76048812D01*
X47486805Y-75956945D01*
X47486799Y-75956943D01*
X47482236Y-75955053D01*
X47477436Y-75953901D01*
X47477431Y-75953899D01*
X47347032Y-75922593D01*
X47239186Y-75896701D01*
X46990000Y-75877090D01*
X46740814Y-75896701D01*
X46632968Y-75922593D01*
X46502569Y-75953899D01*
X46502564Y-75953901D01*
X46497764Y-75955053D01*
X46493201Y-75956943D01*
X46493195Y-75956945D01*
X46271408Y-76048812D01*
X46271404Y-76048814D01*
X46266834Y-76050707D01*
X46053711Y-76181309D01*
X45863643Y-76343643D01*
X45701309Y-76533711D01*
X45570707Y-76746834D01*
X45568814Y-76751404D01*
X45568812Y-76751408D01*
X45476945Y-76973195D01*
X45476943Y-76973201D01*
X45475053Y-76977764D01*
X45416701Y-77220814D01*
X45397090Y-77470000D01*
X43502910Y-77470000D01*
X43483299Y-77220814D01*
X43424947Y-76977764D01*
X43423057Y-76973201D01*
X43423055Y-76973195D01*
X43331188Y-76751408D01*
X43331186Y-76751404D01*
X43329293Y-76746834D01*
X43198691Y-76533711D01*
X43036357Y-76343643D01*
X42846289Y-76181309D01*
X42633166Y-76050707D01*
X42628596Y-76048814D01*
X42628592Y-76048812D01*
X42406805Y-75956945D01*
X42406799Y-75956943D01*
X42402236Y-75955053D01*
X42397436Y-75953901D01*
X42397431Y-75953899D01*
X42267032Y-75922593D01*
X42159186Y-75896701D01*
X41910000Y-75877090D01*
X41660814Y-75896701D01*
X41552968Y-75922593D01*
X41422569Y-75953899D01*
X41422564Y-75953901D01*
X41417764Y-75955053D01*
X41413201Y-75956943D01*
X41413195Y-75956945D01*
X41191408Y-76048812D01*
X41191404Y-76048814D01*
X41186834Y-76050707D01*
X40973711Y-76181309D01*
X40783643Y-76343643D01*
X40621309Y-76533711D01*
X40490707Y-76746834D01*
X40488814Y-76751404D01*
X40488812Y-76751408D01*
X40396945Y-76973195D01*
X40396943Y-76973201D01*
X40395053Y-76977764D01*
X40336701Y-77220814D01*
X40317090Y-77470000D01*
X38422910Y-77470000D01*
X38403299Y-77220814D01*
X38344947Y-76977764D01*
X38343057Y-76973201D01*
X38343055Y-76973195D01*
X38251188Y-76751408D01*
X38251186Y-76751404D01*
X38249293Y-76746834D01*
X38118691Y-76533711D01*
X37956357Y-76343643D01*
X37766289Y-76181309D01*
X37553166Y-76050707D01*
X37548596Y-76048814D01*
X37548592Y-76048812D01*
X37326805Y-75956945D01*
X37326799Y-75956943D01*
X37322236Y-75955053D01*
X37317437Y-75953901D01*
X37317419Y-75953895D01*
X37187038Y-75922593D01*
X37125469Y-75887241D01*
X37092787Y-75824214D01*
X37099368Y-75753523D01*
X37127358Y-75710980D01*
X52348933Y-60489405D01*
X52411245Y-60455379D01*
X52438028Y-60452500D01*
X57082624Y-60452500D01*
X57101574Y-60453933D01*
X57115973Y-60456124D01*
X57115979Y-60456124D01*
X57123208Y-60457224D01*
X57130500Y-60456631D01*
X57130503Y-60456631D01*
X57176183Y-60452915D01*
X57186398Y-60452500D01*
X57194525Y-60452500D01*
X57198161Y-60452076D01*
X57198163Y-60452076D01*
X57201615Y-60451673D01*
X57222924Y-60449189D01*
X57227244Y-60448762D01*
X57300426Y-60442809D01*
X57307388Y-60440553D01*
X57313376Y-60439357D01*
X57319333Y-60437949D01*
X57326607Y-60437101D01*
X57333489Y-60434603D01*
X57333493Y-60434602D01*
X57395607Y-60412055D01*
X57399711Y-60410645D01*
X57469575Y-60388013D01*
X57475838Y-60384213D01*
X57481380Y-60381675D01*
X57486856Y-60378933D01*
X57493741Y-60376434D01*
X57555132Y-60336185D01*
X57558800Y-60333870D01*
X57621581Y-60295773D01*
X57625786Y-60292059D01*
X57625789Y-60292057D01*
X57630005Y-60288333D01*
X57630031Y-60288362D01*
X57632962Y-60285762D01*
X57636316Y-60282958D01*
X57642435Y-60278946D01*
X57695989Y-60222413D01*
X57698366Y-60219972D01*
X58911528Y-59006810D01*
X58925941Y-58994423D01*
X58937665Y-58985795D01*
X58943564Y-58981454D01*
X58977979Y-58940945D01*
X58984909Y-58933429D01*
X58990653Y-58927685D01*
X58992927Y-58924811D01*
X58992933Y-58924804D01*
X59008372Y-58905289D01*
X59011163Y-58901885D01*
X59053945Y-58851528D01*
X59053948Y-58851524D01*
X59058684Y-58845949D01*
X59062012Y-58839432D01*
X59065389Y-58834368D01*
X59068616Y-58829144D01*
X59073160Y-58823400D01*
X59104232Y-58756918D01*
X59106163Y-58752968D01*
X59111071Y-58743356D01*
X59159863Y-58691783D01*
X59228793Y-58674776D01*
X59252702Y-58678137D01*
X59436002Y-58722144D01*
X59436005Y-58722145D01*
X59440814Y-58723299D01*
X59690000Y-58742910D01*
X59939186Y-58723299D01*
X60127297Y-58678137D01*
X60177431Y-58666101D01*
X60177436Y-58666099D01*
X60182236Y-58664947D01*
X60186799Y-58663057D01*
X60186805Y-58663055D01*
X60408592Y-58571188D01*
X60408596Y-58571186D01*
X60413166Y-58569293D01*
X60626289Y-58438691D01*
X60816357Y-58276357D01*
X60978691Y-58086289D01*
X61109293Y-57873166D01*
X61111188Y-57868592D01*
X61203055Y-57646805D01*
X61203057Y-57646799D01*
X61204947Y-57642236D01*
X61263299Y-57399186D01*
X61282910Y-57150000D01*
X61263299Y-56900814D01*
X61232189Y-56771235D01*
X61235735Y-56700328D01*
X61265612Y-56652726D01*
X61451039Y-56467299D01*
X61465452Y-56454912D01*
X61477176Y-56446284D01*
X61483075Y-56441943D01*
X61517490Y-56401434D01*
X61524420Y-56393918D01*
X61530164Y-56388174D01*
X61532438Y-56385300D01*
X61532444Y-56385293D01*
X61547883Y-56365778D01*
X61550674Y-56362374D01*
X61593456Y-56312017D01*
X61593459Y-56312013D01*
X61598195Y-56306438D01*
X61601523Y-56299921D01*
X61604900Y-56294857D01*
X61608127Y-56289633D01*
X61612671Y-56283889D01*
X61643753Y-56217385D01*
X61645659Y-56213485D01*
X61650861Y-56203298D01*
X61699657Y-56151728D01*
X61768588Y-56134726D01*
X61792489Y-56138086D01*
X61976002Y-56182144D01*
X61976005Y-56182145D01*
X61980814Y-56183299D01*
X62230000Y-56202910D01*
X62479186Y-56183299D01*
X62625861Y-56148085D01*
X62717431Y-56126101D01*
X62717436Y-56126099D01*
X62722236Y-56124947D01*
X62726799Y-56123057D01*
X62726805Y-56123055D01*
X62948592Y-56031188D01*
X62948596Y-56031186D01*
X62953166Y-56029293D01*
X63166289Y-55898691D01*
X63345352Y-55745756D01*
X63352601Y-55739565D01*
X63356357Y-55736357D01*
X63404189Y-55680353D01*
X63463639Y-55641544D01*
X63534634Y-55641038D01*
X63595811Y-55680353D01*
X63643643Y-55736357D01*
X63647399Y-55739565D01*
X63699647Y-55784189D01*
X63738456Y-55843639D01*
X63738962Y-55914634D01*
X63699647Y-55975811D01*
X63643643Y-56023643D01*
X63481309Y-56213711D01*
X63350707Y-56426834D01*
X63348814Y-56431404D01*
X63348812Y-56431408D01*
X63256945Y-56653195D01*
X63256943Y-56653201D01*
X63255053Y-56657764D01*
X63196701Y-56900814D01*
X63177090Y-57150000D01*
X63196701Y-57399186D01*
X63255053Y-57642236D01*
X63256943Y-57646799D01*
X63256945Y-57646805D01*
X63348812Y-57868592D01*
X63350707Y-57873166D01*
X63481309Y-58086289D01*
X63643643Y-58276357D01*
X63833711Y-58438691D01*
X64046834Y-58569293D01*
X64051404Y-58571186D01*
X64051408Y-58571188D01*
X64273195Y-58663055D01*
X64273201Y-58663057D01*
X64277764Y-58664947D01*
X64282564Y-58666099D01*
X64282569Y-58666101D01*
X64332703Y-58678137D01*
X64520814Y-58723299D01*
X64770000Y-58742910D01*
X65019186Y-58723299D01*
X65207297Y-58678137D01*
X65257431Y-58666101D01*
X65257436Y-58666099D01*
X65262236Y-58664947D01*
X65266799Y-58663057D01*
X65266805Y-58663055D01*
X65488592Y-58571188D01*
X65488596Y-58571186D01*
X65493166Y-58569293D01*
X65706289Y-58438691D01*
X65896357Y-58276357D01*
X66058691Y-58086289D01*
X66189293Y-57873166D01*
X66191188Y-57868592D01*
X66283055Y-57646805D01*
X66283057Y-57646799D01*
X66284947Y-57642236D01*
X66343299Y-57399186D01*
X66362910Y-57150000D01*
X66343299Y-56900814D01*
X66284947Y-56657764D01*
X66283057Y-56653201D01*
X66283055Y-56653195D01*
X66191188Y-56431408D01*
X66191186Y-56431404D01*
X66189293Y-56426834D01*
X66058691Y-56213711D01*
X65896357Y-56023643D01*
X65840353Y-55975811D01*
X65801544Y-55916361D01*
X65801038Y-55845366D01*
X65840353Y-55784189D01*
X65892601Y-55739565D01*
X65896357Y-55736357D01*
X66058691Y-55546289D01*
X66189293Y-55333166D01*
X66191188Y-55328592D01*
X66283055Y-55106805D01*
X66283057Y-55106799D01*
X66284947Y-55102236D01*
X66343299Y-54859186D01*
X66362910Y-54610000D01*
X66343299Y-54360814D01*
X66284947Y-54117764D01*
X66283057Y-54113201D01*
X66283055Y-54113195D01*
X66191188Y-53891408D01*
X66191186Y-53891404D01*
X66189293Y-53886834D01*
X66058691Y-53673711D01*
X65896357Y-53483643D01*
X65706289Y-53321309D01*
X65493166Y-53190707D01*
X65488596Y-53188814D01*
X65488592Y-53188812D01*
X65266805Y-53096945D01*
X65266799Y-53096943D01*
X65262236Y-53095053D01*
X65257436Y-53093901D01*
X65257431Y-53093899D01*
X65146168Y-53067187D01*
X65019186Y-53036701D01*
X64770000Y-53017090D01*
X64520814Y-53036701D01*
X64393832Y-53067187D01*
X64282569Y-53093899D01*
X64282564Y-53093901D01*
X64277764Y-53095053D01*
X64273201Y-53096943D01*
X64273195Y-53096945D01*
X64051408Y-53188812D01*
X64051404Y-53188814D01*
X64046834Y-53190707D01*
X63833711Y-53321309D01*
X63643643Y-53483643D01*
X63640435Y-53487399D01*
X63595811Y-53539647D01*
X63536361Y-53578456D01*
X63465366Y-53578962D01*
X63404189Y-53539647D01*
X63359565Y-53487399D01*
X63356357Y-53483643D01*
X63166289Y-53321309D01*
X62953166Y-53190707D01*
X62948596Y-53188814D01*
X62948592Y-53188812D01*
X62726805Y-53096945D01*
X62726799Y-53096943D01*
X62722236Y-53095053D01*
X62717436Y-53093901D01*
X62717431Y-53093899D01*
X62606168Y-53067187D01*
X62479186Y-53036701D01*
X62230000Y-53017090D01*
X61980814Y-53036701D01*
X61975998Y-53037857D01*
X61975993Y-53037858D01*
X61796433Y-53080967D01*
X61725525Y-53077421D01*
X61667791Y-53036102D01*
X61657857Y-53019779D01*
X61657544Y-53019969D01*
X61657026Y-53019116D01*
X61655443Y-53015812D01*
X61652456Y-53010904D01*
X61651187Y-53008133D01*
X61648444Y-53002655D01*
X61645945Y-52995770D01*
X61605696Y-52934379D01*
X61603381Y-52930711D01*
X61565284Y-52867930D01*
X61557844Y-52859506D01*
X61557873Y-52859480D01*
X61555273Y-52856549D01*
X61552469Y-52853195D01*
X61548457Y-52847076D01*
X61491924Y-52793522D01*
X61489483Y-52791145D01*
X60276810Y-51578472D01*
X60264423Y-51564059D01*
X60255795Y-51552335D01*
X60251454Y-51546436D01*
X60210945Y-51512021D01*
X60203429Y-51505091D01*
X60197685Y-51499347D01*
X60194811Y-51497073D01*
X60194804Y-51497067D01*
X60175289Y-51481628D01*
X60171885Y-51478837D01*
X60121528Y-51436055D01*
X60121524Y-51436052D01*
X60115949Y-51431316D01*
X60109432Y-51427988D01*
X60104368Y-51424611D01*
X60099144Y-51421384D01*
X60093400Y-51416840D01*
X60030797Y-51387581D01*
X60026918Y-51385768D01*
X60022967Y-51383837D01*
X59964117Y-51353787D01*
X59957596Y-51350457D01*
X59950481Y-51348716D01*
X59944735Y-51346579D01*
X59938952Y-51344655D01*
X59932321Y-51341556D01*
X59860443Y-51326606D01*
X59856171Y-51325639D01*
X59784888Y-51308196D01*
X59779289Y-51307849D01*
X59779285Y-51307848D01*
X59773670Y-51307500D01*
X59773672Y-51307461D01*
X59769771Y-51307228D01*
X59765412Y-51306839D01*
X59758244Y-51305348D01*
X59750927Y-51305546D01*
X59680423Y-51307454D01*
X59677014Y-51307500D01*
X35627377Y-51307500D01*
X35608427Y-51306067D01*
X35594028Y-51303876D01*
X35594022Y-51303876D01*
X35586793Y-51302776D01*
X35579501Y-51303369D01*
X35579498Y-51303369D01*
X35533818Y-51307085D01*
X35523603Y-51307500D01*
X35515475Y-51307500D01*
X35511853Y-51307922D01*
X35511840Y-51307923D01*
X35487086Y-51310809D01*
X35482727Y-51311240D01*
X35409574Y-51317191D01*
X35402612Y-51319447D01*
X35396624Y-51320643D01*
X35390667Y-51322051D01*
X35383393Y-51322899D01*
X35376511Y-51325397D01*
X35376507Y-51325398D01*
X35314393Y-51347945D01*
X35310289Y-51349355D01*
X35240425Y-51371987D01*
X35234162Y-51375787D01*
X35228620Y-51378325D01*
X35223144Y-51381067D01*
X35216259Y-51383566D01*
X35210135Y-51387581D01*
X35154868Y-51423815D01*
X35151200Y-51426130D01*
X35088419Y-51464227D01*
X35084214Y-51467941D01*
X35084211Y-51467943D01*
X35079995Y-51471667D01*
X35079969Y-51471638D01*
X35077038Y-51474238D01*
X35073684Y-51477042D01*
X35067565Y-51481054D01*
X35038230Y-51512021D01*
X35014012Y-51537586D01*
X35011634Y-51540028D01*
X31258472Y-55293190D01*
X31244059Y-55305577D01*
X31226436Y-55318546D01*
X31221692Y-55324129D01*
X31221693Y-55324129D01*
X31192021Y-55359055D01*
X31185091Y-55366571D01*
X31179347Y-55372315D01*
X31177073Y-55375189D01*
X31177067Y-55375196D01*
X31161628Y-55394711D01*
X31158837Y-55398115D01*
X31116055Y-55448472D01*
X31116052Y-55448476D01*
X31111316Y-55454051D01*
X31107988Y-55460568D01*
X31104611Y-55465632D01*
X31101384Y-55470856D01*
X31096840Y-55476600D01*
X31093741Y-55483231D01*
X31065768Y-55543082D01*
X31063837Y-55547033D01*
X31046851Y-55580298D01*
X31030457Y-55612404D01*
X31028716Y-55619519D01*
X31026579Y-55625265D01*
X31024655Y-55631048D01*
X31021556Y-55637679D01*
X31020066Y-55644843D01*
X31006608Y-55709547D01*
X31005639Y-55713829D01*
X30988196Y-55785112D01*
X30987500Y-55796330D01*
X30987461Y-55796328D01*
X30987228Y-55800229D01*
X30986839Y-55804588D01*
X30985348Y-55811756D01*
X30985546Y-55819073D01*
X30987454Y-55889577D01*
X30987500Y-55892986D01*
X30987500Y-116772624D01*
X30986067Y-116791574D01*
X30983876Y-116805973D01*
X30983876Y-116805979D01*
X30982776Y-116813208D01*
X26035000Y-116813208D01*
X26035000Y-50926000D01*
X26055002Y-50857879D01*
X26108658Y-50811386D01*
X26161000Y-50800000D01*
X38100000Y-50800000D01*
X38100000Y-38861000D01*
X38120002Y-38792879D01*
X38173658Y-38746386D01*
X38226000Y-38735000D01*
X114174000Y-38735000D01*
X114242121Y-38755002D01*
G37*
%TD.AperFunction*%
%TA.AperFunction,Conductor*%
G36*
X82182279Y-103043057D02*
G01*
X82234248Y-103091427D01*
X82248414Y-103126322D01*
X82264710Y-103194199D01*
X82303898Y-103357428D01*
X82303899Y-103357431D01*
X82305053Y-103362236D01*
X82306943Y-103366799D01*
X82306945Y-103366805D01*
X82398812Y-103588592D01*
X82400707Y-103593166D01*
X82531309Y-103806289D01*
X82693643Y-103996357D01*
X82883711Y-104158691D01*
X83096834Y-104289293D01*
X83101404Y-104291186D01*
X83101408Y-104291188D01*
X83323195Y-104383055D01*
X83323201Y-104383057D01*
X83327764Y-104384947D01*
X83332564Y-104386099D01*
X83332569Y-104386101D01*
X83386219Y-104398981D01*
X83447788Y-104434334D01*
X83480470Y-104497360D01*
X83473889Y-104568051D01*
X83430135Y-104623963D01*
X83356804Y-104647500D01*
X83142729Y-104647500D01*
X83123781Y-104646067D01*
X83115477Y-104644804D01*
X83109385Y-104643877D01*
X83109383Y-104643877D01*
X83102153Y-104642777D01*
X83094861Y-104643370D01*
X83094858Y-104643370D01*
X83049186Y-104647085D01*
X83038972Y-104647500D01*
X83030836Y-104647500D01*
X83002417Y-104650814D01*
X82998090Y-104651241D01*
X82963348Y-104654067D01*
X82932235Y-104656597D01*
X82932233Y-104656597D01*
X82924935Y-104657191D01*
X82917968Y-104659448D01*
X82911968Y-104660647D01*
X82906028Y-104662051D01*
X82898754Y-104662899D01*
X82891872Y-104665397D01*
X82891868Y-104665398D01*
X82829754Y-104687945D01*
X82825650Y-104689355D01*
X82755786Y-104711987D01*
X82749523Y-104715787D01*
X82743981Y-104718325D01*
X82738505Y-104721067D01*
X82731620Y-104723566D01*
X82725496Y-104727581D01*
X82670229Y-104763815D01*
X82666561Y-104766130D01*
X82603780Y-104804227D01*
X82599573Y-104807943D01*
X82599569Y-104807946D01*
X82595356Y-104811668D01*
X82595330Y-104811638D01*
X82592402Y-104814236D01*
X82589048Y-104817040D01*
X82582926Y-104821054D01*
X82544086Y-104862055D01*
X82529355Y-104877605D01*
X82526977Y-104880047D01*
X65016428Y-122390595D01*
X64954116Y-122424621D01*
X64927333Y-122427500D01*
X63901114Y-122427500D01*
X63832993Y-122407498D01*
X63786500Y-122353842D01*
X63776396Y-122283568D01*
X63778595Y-122272086D01*
X63802144Y-122173998D01*
X63802145Y-122173995D01*
X63803299Y-122169186D01*
X63822910Y-121920000D01*
X63803299Y-121670814D01*
X63772189Y-121541235D01*
X63775735Y-121470328D01*
X63805612Y-121422726D01*
X81771528Y-103456810D01*
X81785941Y-103444423D01*
X81797665Y-103435795D01*
X81803564Y-103431454D01*
X81837979Y-103390945D01*
X81844909Y-103383429D01*
X81850653Y-103377685D01*
X81852927Y-103374811D01*
X81852933Y-103374804D01*
X81868372Y-103355289D01*
X81871163Y-103351885D01*
X81913945Y-103301528D01*
X81913948Y-103301524D01*
X81918684Y-103295949D01*
X81922011Y-103289434D01*
X81925392Y-103284364D01*
X81928617Y-103279142D01*
X81933160Y-103273400D01*
X81964246Y-103206888D01*
X81966152Y-103202988D01*
X81996213Y-103144117D01*
X81999543Y-103137596D01*
X82001284Y-103130481D01*
X82003418Y-103124743D01*
X82005346Y-103118947D01*
X82007568Y-103114192D01*
X82007783Y-103113883D01*
X82007997Y-103113277D01*
X82008419Y-103112373D01*
X82008731Y-103112519D01*
X82046820Y-103057641D01*
X82112408Y-103030462D01*
X82182279Y-103043057D01*
G37*
%TD.AperFunction*%
%TD*%
M02*
