%TF.GenerationSoftware,KiCad,Pcbnew,(6.0.0)*%
%TF.CreationDate,2023-06-08T10:55:53-04:00*%
%TF.ProjectId,INPUT,494e5055-542e-46b6-9963-61645f706362,rev?*%
%TF.SameCoordinates,Original*%
%TF.FileFunction,Soldermask,Top*%
%TF.FilePolarity,Negative*%
%FSLAX46Y46*%
G04 Gerber Fmt 4.6, Leading zero omitted, Abs format (unit mm)*
G04 Created by KiCad (PCBNEW (6.0.0)) date 2023-06-08 10:55:53*
%MOMM*%
%LPD*%
G01*
G04 APERTURE LIST*
G04 Aperture macros list*
%AMRoundRect*
0 Rectangle with rounded corners*
0 $1 Rounding radius*
0 $2 $3 $4 $5 $6 $7 $8 $9 X,Y pos of 4 corners*
0 Add a 4 corners polygon primitive as box body*
4,1,4,$2,$3,$4,$5,$6,$7,$8,$9,$2,$3,0*
0 Add four circle primitives for the rounded corners*
1,1,$1+$1,$2,$3*
1,1,$1+$1,$4,$5*
1,1,$1+$1,$6,$7*
1,1,$1+$1,$8,$9*
0 Add four rect primitives between the rounded corners*
20,1,$1+$1,$2,$3,$4,$5,0*
20,1,$1+$1,$4,$5,$6,$7,0*
20,1,$1+$1,$6,$7,$8,$9,0*
20,1,$1+$1,$8,$9,$2,$3,0*%
G04 Aperture macros list end*
%ADD10C,1.905000*%
%ADD11C,1.587500*%
%ADD12R,1.905000X1.905000*%
%ADD13RoundRect,0.635000X0.317500X-0.317500X0.317500X0.317500X-0.317500X0.317500X-0.317500X-0.317500X0*%
%ADD14RoundRect,0.381000X-0.571500X0.571500X-0.571500X-0.571500X0.571500X-0.571500X0.571500X0.571500X0*%
G04 APERTURE END LIST*
D10*
%TO.C,R20*%
X57150000Y-95250000D03*
X57150000Y-87630000D03*
%TD*%
%TO.C,C4*%
X59690000Y-90170000D03*
X59690000Y-95250000D03*
%TD*%
%TO.C,D16*%
X115570000Y-121920000D03*
X115570000Y-114300000D03*
%TD*%
%TO.C,R5*%
X62230000Y-77470000D03*
X62230000Y-85090000D03*
%TD*%
%TO.C,R32*%
X87630000Y-121920000D03*
X87630000Y-114300000D03*
%TD*%
D11*
%TO.C,D17*%
X90170000Y-116840000D03*
X90170000Y-119380000D03*
%TD*%
D10*
%TO.C,R9*%
X82550000Y-77470000D03*
X82550000Y-85090000D03*
%TD*%
D11*
%TO.C,D4*%
X59690000Y-80010000D03*
X59690000Y-77470000D03*
%TD*%
%TO.C,D15*%
X115570000Y-80010000D03*
X115570000Y-77470000D03*
%TD*%
D10*
%TO.C,R1*%
X41910000Y-77470000D03*
X41910000Y-85090000D03*
%TD*%
%TO.C,R24*%
X77470000Y-95250000D03*
X77470000Y-87630000D03*
%TD*%
D12*
%TO.C,T8*%
X78740000Y-97790000D03*
D10*
X78740000Y-100330000D03*
X78740000Y-102870000D03*
%TD*%
D11*
%TO.C,D10*%
X90170000Y-80010000D03*
X90170000Y-77470000D03*
%TD*%
D10*
%TO.C,C2*%
X49530000Y-90170000D03*
X49530000Y-95250000D03*
%TD*%
%TO.C,R25*%
X82550000Y-95250000D03*
X82550000Y-87630000D03*
%TD*%
%TO.C,C5*%
X64770000Y-90170000D03*
X64770000Y-95250000D03*
%TD*%
%TO.C,C11*%
X95250000Y-90170000D03*
X95250000Y-95250000D03*
%TD*%
%TO.C,C13*%
X105410000Y-90170000D03*
X105410000Y-95250000D03*
%TD*%
%TO.C,R3*%
X52070000Y-77470000D03*
X52070000Y-85090000D03*
%TD*%
D12*
%TO.C,T0*%
X38100000Y-97790000D03*
D10*
X38100000Y-100330000D03*
X38100000Y-102870000D03*
%TD*%
%TO.C,R15*%
X113030000Y-77470000D03*
X113030000Y-85090000D03*
%TD*%
D11*
%TO.C,D6*%
X69850000Y-80010000D03*
X69850000Y-77470000D03*
%TD*%
D10*
%TO.C,R21*%
X62230000Y-95250000D03*
X62230000Y-87630000D03*
%TD*%
%TO.C,R4*%
X57150000Y-77470000D03*
X57150000Y-85090000D03*
%TD*%
D12*
%TO.C,T6*%
X68580000Y-97790000D03*
D10*
X68580000Y-100330000D03*
X68580000Y-102870000D03*
%TD*%
D12*
%TO.C,T12*%
X99060000Y-97790000D03*
D10*
X99060000Y-100330000D03*
X99060000Y-102870000D03*
%TD*%
D11*
%TO.C,D5*%
X64770000Y-80010000D03*
X64770000Y-77470000D03*
%TD*%
D12*
%TO.C,T1*%
X43180000Y-97790000D03*
D10*
X43180000Y-100330000D03*
X43180000Y-102870000D03*
%TD*%
%TO.C,R22*%
X67310000Y-95250000D03*
X67310000Y-87630000D03*
%TD*%
%TO.C,C6*%
X69850000Y-90170000D03*
X69850000Y-95250000D03*
%TD*%
D12*
%TO.C,T10*%
X88900000Y-97790000D03*
D10*
X88900000Y-100330000D03*
X88900000Y-102870000D03*
%TD*%
%TO.C,R18*%
X46990000Y-95250000D03*
X46990000Y-87630000D03*
%TD*%
D11*
%TO.C,D3*%
X54610000Y-80010000D03*
X54610000Y-77470000D03*
%TD*%
D10*
%TO.C,C18*%
X113030000Y-120650000D03*
X113030000Y-115570000D03*
%TD*%
D12*
%TO.C,T5*%
X63500000Y-97790000D03*
D10*
X63500000Y-100330000D03*
X63500000Y-102870000D03*
%TD*%
%TO.C,R0*%
X36830000Y-77470000D03*
X36830000Y-85090000D03*
%TD*%
%TO.C,C16*%
X106680000Y-119380000D03*
X106680000Y-116840000D03*
%TD*%
%TO.C,R31*%
X113030000Y-95250000D03*
X113030000Y-87630000D03*
%TD*%
%TO.C,R14*%
X107950000Y-77470000D03*
X107950000Y-85090000D03*
%TD*%
D11*
%TO.C,D1*%
X44450000Y-80010000D03*
X44450000Y-77470000D03*
%TD*%
%TO.C,D7*%
X74930000Y-80010000D03*
X74930000Y-77470000D03*
%TD*%
D10*
%TO.C,R29*%
X102870000Y-95250000D03*
X102870000Y-87630000D03*
%TD*%
D12*
%TO.C,T4*%
X58420000Y-97790000D03*
D10*
X58420000Y-100330000D03*
X58420000Y-102870000D03*
%TD*%
D12*
%TO.C,T7*%
X73660000Y-97790000D03*
D10*
X73660000Y-100330000D03*
X73660000Y-102870000D03*
%TD*%
D13*
%TO.C,H0*%
X36830000Y-54610000D03*
D10*
X36830000Y-57150000D03*
X39370000Y-54610000D03*
X39370000Y-57150000D03*
X41910000Y-54610000D03*
X41910000Y-57150000D03*
X44450000Y-54610000D03*
X44450000Y-57150000D03*
X46990000Y-54610000D03*
X46990000Y-57150000D03*
X49530000Y-54610000D03*
X49530000Y-57150000D03*
X52070000Y-54610000D03*
X52070000Y-57150000D03*
X54610000Y-54610000D03*
X54610000Y-57150000D03*
X57150000Y-54610000D03*
X57150000Y-57150000D03*
X59690000Y-54610000D03*
X59690000Y-57150000D03*
X62230000Y-54610000D03*
X62230000Y-57150000D03*
X64770000Y-54610000D03*
X64770000Y-57150000D03*
%TD*%
%TO.C,R30*%
X107950000Y-95250000D03*
X107950000Y-87630000D03*
%TD*%
%TO.C,C15*%
X115570000Y-90170000D03*
X115570000Y-95250000D03*
%TD*%
%TO.C,R17*%
X41910000Y-95250000D03*
X41910000Y-87630000D03*
%TD*%
%TO.C,C12*%
X100330000Y-90170000D03*
X100330000Y-95250000D03*
%TD*%
%TO.C,R2*%
X46990000Y-77470000D03*
X46990000Y-85090000D03*
%TD*%
D12*
%TO.C,T13*%
X104140000Y-97790000D03*
D10*
X104140000Y-100330000D03*
X104140000Y-102870000D03*
%TD*%
D11*
%TO.C,D12*%
X100330000Y-80010000D03*
X100330000Y-77470000D03*
%TD*%
%TO.C,D13*%
X105410000Y-80010000D03*
X105410000Y-77470000D03*
%TD*%
D12*
%TO.C,T9*%
X83820000Y-97790000D03*
D10*
X83820000Y-100330000D03*
X83820000Y-102870000D03*
%TD*%
%TO.C,R26*%
X87630000Y-95250000D03*
X87630000Y-87630000D03*
%TD*%
D12*
%TO.C,T2*%
X48260000Y-97790000D03*
D10*
X48260000Y-100330000D03*
X48260000Y-102870000D03*
%TD*%
%TO.C,R23*%
X72390000Y-95250000D03*
X72390000Y-87630000D03*
%TD*%
D12*
%TO.C,T11*%
X93980000Y-97790000D03*
D10*
X93980000Y-100330000D03*
X93980000Y-102870000D03*
%TD*%
%TO.C,R16*%
X36830000Y-95250000D03*
X36830000Y-87630000D03*
%TD*%
%TO.C,C14*%
X110490000Y-90170000D03*
X110490000Y-95250000D03*
%TD*%
D11*
%TO.C,D8*%
X80010000Y-80010000D03*
X80010000Y-77470000D03*
%TD*%
D12*
%TO.C,T3*%
X53340000Y-97790000D03*
D10*
X53340000Y-100330000D03*
X53340000Y-102870000D03*
%TD*%
D11*
%TO.C,D2*%
X49530000Y-80010000D03*
X49530000Y-77470000D03*
%TD*%
D12*
%TO.C,T15*%
X114300000Y-97790000D03*
D10*
X114300000Y-100330000D03*
X114300000Y-102870000D03*
%TD*%
%TO.C,C17*%
X96520000Y-119380000D03*
X96520000Y-116840000D03*
%TD*%
D12*
%TO.C,T14*%
X109220000Y-97790000D03*
D10*
X109220000Y-100330000D03*
X109220000Y-102870000D03*
%TD*%
%TO.C,R8*%
X77470000Y-77470000D03*
X77470000Y-85090000D03*
%TD*%
%TO.C,R6*%
X67310000Y-77470000D03*
X67310000Y-85090000D03*
%TD*%
%TO.C,R27*%
X92710000Y-95250000D03*
X92710000Y-87630000D03*
%TD*%
%TO.C,R12*%
X97790000Y-77470000D03*
X97790000Y-85090000D03*
%TD*%
%TO.C,C7*%
X74930000Y-90170000D03*
X74930000Y-95250000D03*
%TD*%
%TO.C,C0*%
X39370000Y-90170000D03*
X39370000Y-95250000D03*
%TD*%
%TO.C,C1*%
X44450000Y-90170000D03*
X44450000Y-95250000D03*
%TD*%
%TO.C,C10*%
X90170000Y-90170000D03*
X90170000Y-95250000D03*
%TD*%
D14*
%TO.C,IC0*%
X64770000Y-114300000D03*
D10*
X62230000Y-114300000D03*
X59690000Y-114300000D03*
X57150000Y-114300000D03*
X54610000Y-114300000D03*
X52070000Y-114300000D03*
X49530000Y-114300000D03*
X46990000Y-114300000D03*
X44450000Y-114300000D03*
X41910000Y-114300000D03*
X39370000Y-114300000D03*
X36830000Y-114300000D03*
X36830000Y-121920000D03*
X39370000Y-121920000D03*
X41910000Y-121920000D03*
X44450000Y-121920000D03*
X46990000Y-121920000D03*
X49530000Y-121920000D03*
X52070000Y-121920000D03*
X54610000Y-121920000D03*
X57150000Y-121920000D03*
X59690000Y-121920000D03*
X62230000Y-121920000D03*
X64770000Y-121920000D03*
%TD*%
%TO.C,C8*%
X80010000Y-90170000D03*
X80010000Y-95250000D03*
%TD*%
%TO.C,R19*%
X52070000Y-95250000D03*
X52070000Y-87630000D03*
%TD*%
D11*
%TO.C,D14*%
X110490000Y-80010000D03*
X110490000Y-77470000D03*
%TD*%
D10*
%TO.C,R13*%
X102870000Y-77470000D03*
X102870000Y-85090000D03*
%TD*%
%TO.C,C3*%
X54610000Y-90170000D03*
X54610000Y-95250000D03*
%TD*%
%TO.C,R28*%
X97790000Y-95250000D03*
X97790000Y-87630000D03*
%TD*%
D11*
%TO.C,D9*%
X85090000Y-80010000D03*
X85090000Y-77470000D03*
%TD*%
D10*
%TO.C,C9*%
X85090000Y-90170000D03*
X85090000Y-95250000D03*
%TD*%
%TO.C,R11*%
X92710000Y-77470000D03*
X92710000Y-85090000D03*
%TD*%
D11*
%TO.C,D0*%
X39370000Y-80010000D03*
X39370000Y-77470000D03*
%TD*%
D10*
%TO.C,R10*%
X87630000Y-77470000D03*
X87630000Y-85090000D03*
%TD*%
%TO.C,R7*%
X72390000Y-77470000D03*
X72390000Y-85090000D03*
%TD*%
D11*
%TO.C,D11*%
X95250000Y-80010000D03*
X95250000Y-77470000D03*
%TD*%
M02*
