%TF.GenerationSoftware,KiCad,Pcbnew,(6.0.0)*%
%TF.CreationDate,2023-06-08T10:55:53-04:00*%
%TF.ProjectId,INPUT,494e5055-542e-46b6-9963-61645f706362,rev?*%
%TF.SameCoordinates,Original*%
%TF.FileFunction,Legend,Top*%
%TF.FilePolarity,Positive*%
%FSLAX46Y46*%
G04 Gerber Fmt 4.6, Leading zero omitted, Abs format (unit mm)*
G04 Created by KiCad (PCBNEW (6.0.0)) date 2023-06-08 10:55:53*
%MOMM*%
%LPD*%
G01*
G04 APERTURE LIST*
%ADD10C,0.127000*%
%ADD11C,0.150000*%
%ADD12C,0.254000*%
%ADD13C,0.120000*%
G04 APERTURE END LIST*
D10*
X46687619Y-52992261D02*
X46687619Y-52357261D01*
X47080714Y-52629404D02*
X47020238Y-52599166D01*
X46990000Y-52568928D01*
X46959761Y-52508452D01*
X46959761Y-52478214D01*
X46990000Y-52417738D01*
X47020238Y-52387500D01*
X47080714Y-52357261D01*
X47201666Y-52357261D01*
X47262142Y-52387500D01*
X47292380Y-52417738D01*
X47322619Y-52478214D01*
X47322619Y-52508452D01*
X47292380Y-52568928D01*
X47262142Y-52599166D01*
X47201666Y-52629404D01*
X47080714Y-52629404D01*
X47020238Y-52659642D01*
X46990000Y-52689880D01*
X46959761Y-52750357D01*
X46959761Y-52871309D01*
X46990000Y-52931785D01*
X47020238Y-52962023D01*
X47080714Y-52992261D01*
X47201666Y-52992261D01*
X47262142Y-52962023D01*
X47292380Y-52931785D01*
X47322619Y-52871309D01*
X47322619Y-52750357D01*
X47292380Y-52689880D01*
X47262142Y-52659642D01*
X47201666Y-52629404D01*
X64467619Y-52357261D02*
X64528095Y-52357261D01*
X64588571Y-52387500D01*
X64618809Y-52417738D01*
X64649047Y-52478214D01*
X64679285Y-52599166D01*
X64679285Y-52750357D01*
X64649047Y-52871309D01*
X64618809Y-52931785D01*
X64588571Y-52962023D01*
X64528095Y-52992261D01*
X64467619Y-52992261D01*
X64407142Y-52962023D01*
X64376904Y-52931785D01*
X64346666Y-52871309D01*
X64316428Y-52750357D01*
X64316428Y-52599166D01*
X64346666Y-52478214D01*
X64376904Y-52417738D01*
X64407142Y-52387500D01*
X64467619Y-52357261D01*
X64860714Y-52357261D02*
X65072380Y-52992261D01*
X65284047Y-52357261D01*
D11*
X85812857Y-124912380D02*
X85812857Y-123912380D01*
X86289047Y-124912380D02*
X86289047Y-123912380D01*
X86860476Y-124912380D01*
X86860476Y-123912380D01*
X87336666Y-124912380D02*
X87336666Y-123912380D01*
X87717619Y-123912380D01*
X87812857Y-123960000D01*
X87860476Y-124007619D01*
X87908095Y-124102857D01*
X87908095Y-124245714D01*
X87860476Y-124340952D01*
X87812857Y-124388571D01*
X87717619Y-124436190D01*
X87336666Y-124436190D01*
X88336666Y-123912380D02*
X88336666Y-124721904D01*
X88384285Y-124817142D01*
X88431904Y-124864761D01*
X88527142Y-124912380D01*
X88717619Y-124912380D01*
X88812857Y-124864761D01*
X88860476Y-124817142D01*
X88908095Y-124721904D01*
X88908095Y-123912380D01*
X89241428Y-123912380D02*
X89812857Y-123912380D01*
X89527142Y-124912380D02*
X89527142Y-123912380D01*
X91431904Y-123960000D02*
X91336666Y-123912380D01*
X91193809Y-123912380D01*
X91050952Y-123960000D01*
X90955714Y-124055238D01*
X90908095Y-124150476D01*
X90860476Y-124340952D01*
X90860476Y-124483809D01*
X90908095Y-124674285D01*
X90955714Y-124769523D01*
X91050952Y-124864761D01*
X91193809Y-124912380D01*
X91289047Y-124912380D01*
X91431904Y-124864761D01*
X91479523Y-124817142D01*
X91479523Y-124483809D01*
X91289047Y-124483809D01*
X92098571Y-123912380D02*
X92289047Y-123912380D01*
X92384285Y-123960000D01*
X92479523Y-124055238D01*
X92527142Y-124245714D01*
X92527142Y-124579047D01*
X92479523Y-124769523D01*
X92384285Y-124864761D01*
X92289047Y-124912380D01*
X92098571Y-124912380D01*
X92003333Y-124864761D01*
X91908095Y-124769523D01*
X91860476Y-124579047D01*
X91860476Y-124245714D01*
X91908095Y-124055238D01*
X92003333Y-123960000D01*
X92098571Y-123912380D01*
X93146190Y-123912380D02*
X93336666Y-123912380D01*
X93431904Y-123960000D01*
X93527142Y-124055238D01*
X93574761Y-124245714D01*
X93574761Y-124579047D01*
X93527142Y-124769523D01*
X93431904Y-124864761D01*
X93336666Y-124912380D01*
X93146190Y-124912380D01*
X93050952Y-124864761D01*
X92955714Y-124769523D01*
X92908095Y-124579047D01*
X92908095Y-124245714D01*
X92955714Y-124055238D01*
X93050952Y-123960000D01*
X93146190Y-123912380D01*
X94003333Y-124912380D02*
X94003333Y-123912380D01*
X94241428Y-123912380D01*
X94384285Y-123960000D01*
X94479523Y-124055238D01*
X94527142Y-124150476D01*
X94574761Y-124340952D01*
X94574761Y-124483809D01*
X94527142Y-124674285D01*
X94479523Y-124769523D01*
X94384285Y-124864761D01*
X94241428Y-124912380D01*
X94003333Y-124912380D01*
D10*
X62109047Y-58707261D02*
X61806666Y-58707261D01*
X61776428Y-59009642D01*
X61806666Y-58979404D01*
X61867142Y-58949166D01*
X62018333Y-58949166D01*
X62078809Y-58979404D01*
X62109047Y-59009642D01*
X62139285Y-59070119D01*
X62139285Y-59221309D01*
X62109047Y-59281785D01*
X62078809Y-59312023D01*
X62018333Y-59342261D01*
X61867142Y-59342261D01*
X61806666Y-59312023D01*
X61776428Y-59281785D01*
X62320714Y-58707261D02*
X62532380Y-59342261D01*
X62744047Y-58707261D01*
X51465238Y-52992261D02*
X51465238Y-52357261D01*
X52100238Y-52992261D02*
X51737380Y-52992261D01*
X51918809Y-52992261D02*
X51918809Y-52357261D01*
X51858333Y-52447976D01*
X51797857Y-52508452D01*
X51737380Y-52538690D01*
X52342142Y-52417738D02*
X52372380Y-52387500D01*
X52432857Y-52357261D01*
X52584047Y-52357261D01*
X52644523Y-52387500D01*
X52674761Y-52417738D01*
X52705000Y-52478214D01*
X52705000Y-52538690D01*
X52674761Y-52629404D01*
X52311904Y-52992261D01*
X52705000Y-52992261D01*
X56167261Y-59312023D02*
X56257976Y-59342261D01*
X56409166Y-59342261D01*
X56469642Y-59312023D01*
X56499880Y-59281785D01*
X56530119Y-59221309D01*
X56530119Y-59160833D01*
X56499880Y-59100357D01*
X56469642Y-59070119D01*
X56409166Y-59039880D01*
X56288214Y-59009642D01*
X56227738Y-58979404D01*
X56197500Y-58949166D01*
X56167261Y-58888690D01*
X56167261Y-58828214D01*
X56197500Y-58767738D01*
X56227738Y-58737500D01*
X56288214Y-58707261D01*
X56439404Y-58707261D01*
X56530119Y-58737500D01*
X57104642Y-59342261D02*
X56802261Y-59342261D01*
X56802261Y-58707261D01*
X57225595Y-58707261D02*
X57588452Y-58707261D01*
X57407023Y-59342261D02*
X57407023Y-58707261D01*
X58132738Y-59342261D02*
X57769880Y-59342261D01*
X57951309Y-59342261D02*
X57951309Y-58707261D01*
X57890833Y-58797976D01*
X57830357Y-58858452D01*
X57769880Y-58888690D01*
X63938452Y-59342261D02*
X63938452Y-58707261D01*
X64301309Y-59342261D01*
X64301309Y-58707261D01*
X65057261Y-58677023D02*
X64512976Y-59493452D01*
X65631785Y-59281785D02*
X65601547Y-59312023D01*
X65510833Y-59342261D01*
X65450357Y-59342261D01*
X65359642Y-59312023D01*
X65299166Y-59251547D01*
X65268928Y-59191071D01*
X65238690Y-59070119D01*
X65238690Y-58979404D01*
X65268928Y-58858452D01*
X65299166Y-58797976D01*
X65359642Y-58737500D01*
X65450357Y-58707261D01*
X65510833Y-58707261D01*
X65601547Y-58737500D01*
X65631785Y-58767738D01*
X44147619Y-59342261D02*
X44147619Y-58707261D01*
X44722142Y-58707261D02*
X44601190Y-58707261D01*
X44540714Y-58737500D01*
X44510476Y-58767738D01*
X44450000Y-58858452D01*
X44419761Y-58979404D01*
X44419761Y-59221309D01*
X44450000Y-59281785D01*
X44480238Y-59312023D01*
X44540714Y-59342261D01*
X44661666Y-59342261D01*
X44722142Y-59312023D01*
X44752380Y-59281785D01*
X44782619Y-59221309D01*
X44782619Y-59070119D01*
X44752380Y-59009642D01*
X44722142Y-58979404D01*
X44661666Y-58949166D01*
X44540714Y-58949166D01*
X44480238Y-58979404D01*
X44450000Y-59009642D01*
X44419761Y-59070119D01*
X48925238Y-52992261D02*
X48925238Y-52357261D01*
X49560238Y-52992261D02*
X49197380Y-52992261D01*
X49378809Y-52992261D02*
X49378809Y-52357261D01*
X49318333Y-52447976D01*
X49257857Y-52508452D01*
X49197380Y-52538690D01*
X49953333Y-52357261D02*
X50013809Y-52357261D01*
X50074285Y-52387500D01*
X50104523Y-52417738D01*
X50134761Y-52478214D01*
X50165000Y-52599166D01*
X50165000Y-52750357D01*
X50134761Y-52871309D01*
X50104523Y-52931785D01*
X50074285Y-52962023D01*
X50013809Y-52992261D01*
X49953333Y-52992261D01*
X49892857Y-52962023D01*
X49862619Y-52931785D01*
X49832380Y-52871309D01*
X49802142Y-52750357D01*
X49802142Y-52599166D01*
X49832380Y-52478214D01*
X49862619Y-52417738D01*
X49892857Y-52387500D01*
X49953333Y-52357261D01*
X36527619Y-52992261D02*
X36527619Y-52357261D01*
X36950952Y-52357261D02*
X37011428Y-52357261D01*
X37071904Y-52387500D01*
X37102142Y-52417738D01*
X37132380Y-52478214D01*
X37162619Y-52599166D01*
X37162619Y-52750357D01*
X37132380Y-52871309D01*
X37102142Y-52931785D01*
X37071904Y-52962023D01*
X37011428Y-52992261D01*
X36950952Y-52992261D01*
X36890476Y-52962023D01*
X36860238Y-52931785D01*
X36830000Y-52871309D01*
X36799761Y-52750357D01*
X36799761Y-52599166D01*
X36830000Y-52478214D01*
X36860238Y-52417738D01*
X36890476Y-52387500D01*
X36950952Y-52357261D01*
X58707261Y-52962023D02*
X58797976Y-52992261D01*
X58949166Y-52992261D01*
X59009642Y-52962023D01*
X59039880Y-52931785D01*
X59070119Y-52871309D01*
X59070119Y-52810833D01*
X59039880Y-52750357D01*
X59009642Y-52720119D01*
X58949166Y-52689880D01*
X58828214Y-52659642D01*
X58767738Y-52629404D01*
X58737500Y-52599166D01*
X58707261Y-52538690D01*
X58707261Y-52478214D01*
X58737500Y-52417738D01*
X58767738Y-52387500D01*
X58828214Y-52357261D01*
X58979404Y-52357261D01*
X59070119Y-52387500D01*
X59644642Y-52992261D02*
X59342261Y-52992261D01*
X59342261Y-52357261D01*
X59765595Y-52357261D02*
X60128452Y-52357261D01*
X59947023Y-52992261D02*
X59947023Y-52357261D01*
X60309880Y-52417738D02*
X60340119Y-52387500D01*
X60400595Y-52357261D01*
X60551785Y-52357261D01*
X60612261Y-52387500D01*
X60642500Y-52417738D01*
X60672738Y-52478214D01*
X60672738Y-52538690D01*
X60642500Y-52629404D01*
X60279642Y-52992261D01*
X60672738Y-52992261D01*
X44147619Y-52992261D02*
X44147619Y-52357261D01*
X44722142Y-52357261D02*
X44601190Y-52357261D01*
X44540714Y-52387500D01*
X44510476Y-52417738D01*
X44450000Y-52508452D01*
X44419761Y-52629404D01*
X44419761Y-52871309D01*
X44450000Y-52931785D01*
X44480238Y-52962023D01*
X44540714Y-52992261D01*
X44661666Y-52992261D01*
X44722142Y-52962023D01*
X44752380Y-52931785D01*
X44782619Y-52871309D01*
X44782619Y-52720119D01*
X44752380Y-52659642D01*
X44722142Y-52629404D01*
X44661666Y-52599166D01*
X44540714Y-52599166D01*
X44480238Y-52629404D01*
X44450000Y-52659642D01*
X44419761Y-52720119D01*
D12*
X46075297Y-43572717D02*
X46982440Y-43572717D01*
X46528869Y-45160217D02*
X46528869Y-43572717D01*
X47511607Y-45160217D02*
X47511607Y-43572717D01*
X48116369Y-43572717D01*
X48267559Y-43648313D01*
X48343154Y-43723908D01*
X48418750Y-43875098D01*
X48418750Y-44101884D01*
X48343154Y-44253074D01*
X48267559Y-44328670D01*
X48116369Y-44404265D01*
X47511607Y-44404265D01*
X49855059Y-45160217D02*
X49099107Y-45160217D01*
X49099107Y-43572717D01*
X51291369Y-45009027D02*
X51215773Y-45084622D01*
X50988988Y-45160217D01*
X50837797Y-45160217D01*
X50611011Y-45084622D01*
X50459821Y-44933432D01*
X50384226Y-44782241D01*
X50308630Y-44479860D01*
X50308630Y-44253074D01*
X50384226Y-43950693D01*
X50459821Y-43799503D01*
X50611011Y-43648313D01*
X50837797Y-43572717D01*
X50988988Y-43572717D01*
X51215773Y-43648313D01*
X51291369Y-43723908D01*
X53181250Y-45160217D02*
X53181250Y-43572717D01*
X53937202Y-45160217D02*
X53937202Y-43572717D01*
X54844345Y-45160217D01*
X54844345Y-43572717D01*
X55600297Y-45160217D02*
X55600297Y-43572717D01*
X56205059Y-43572717D01*
X56356250Y-43648313D01*
X56431845Y-43723908D01*
X56507440Y-43875098D01*
X56507440Y-44101884D01*
X56431845Y-44253074D01*
X56356250Y-44328670D01*
X56205059Y-44404265D01*
X55600297Y-44404265D01*
X57187797Y-43572717D02*
X57187797Y-44857836D01*
X57263392Y-45009027D01*
X57338988Y-45084622D01*
X57490178Y-45160217D01*
X57792559Y-45160217D01*
X57943750Y-45084622D01*
X58019345Y-45009027D01*
X58094940Y-44857836D01*
X58094940Y-43572717D01*
X58624107Y-43572717D02*
X59531250Y-43572717D01*
X59077678Y-45160217D02*
X59077678Y-43572717D01*
X61269940Y-45160217D02*
X61269940Y-43572717D01*
X61799107Y-44706646D01*
X62328273Y-43572717D01*
X62328273Y-45160217D01*
X63386607Y-43572717D02*
X63688988Y-43572717D01*
X63840178Y-43648313D01*
X63991369Y-43799503D01*
X64066964Y-44101884D01*
X64066964Y-44631051D01*
X63991369Y-44933432D01*
X63840178Y-45084622D01*
X63688988Y-45160217D01*
X63386607Y-45160217D01*
X63235416Y-45084622D01*
X63084226Y-44933432D01*
X63008630Y-44631051D01*
X63008630Y-44101884D01*
X63084226Y-43799503D01*
X63235416Y-43648313D01*
X63386607Y-43572717D01*
X64747321Y-45160217D02*
X64747321Y-43572717D01*
X65125297Y-43572717D01*
X65352083Y-43648313D01*
X65503273Y-43799503D01*
X65578869Y-43950693D01*
X65654464Y-44253074D01*
X65654464Y-44479860D01*
X65578869Y-44782241D01*
X65503273Y-44933432D01*
X65352083Y-45084622D01*
X65125297Y-45160217D01*
X64747321Y-45160217D01*
X66334821Y-43572717D02*
X66334821Y-44857836D01*
X66410416Y-45009027D01*
X66486011Y-45084622D01*
X66637202Y-45160217D01*
X66939583Y-45160217D01*
X67090773Y-45084622D01*
X67166369Y-45009027D01*
X67241964Y-44857836D01*
X67241964Y-43572717D01*
X68753869Y-45160217D02*
X67997916Y-45160217D01*
X67997916Y-43572717D01*
X69283035Y-44328670D02*
X69812202Y-44328670D01*
X70038988Y-45160217D02*
X69283035Y-45160217D01*
X69283035Y-43572717D01*
X70038988Y-43572717D01*
X71702083Y-43572717D02*
X72231250Y-45160217D01*
X72760416Y-43572717D01*
X73289583Y-44328670D02*
X73818750Y-44328670D01*
X74045535Y-45160217D02*
X73289583Y-45160217D01*
X73289583Y-43572717D01*
X74045535Y-43572717D01*
X75633035Y-45160217D02*
X75103869Y-44404265D01*
X74725892Y-45160217D02*
X74725892Y-43572717D01*
X75330654Y-43572717D01*
X75481845Y-43648313D01*
X75557440Y-43723908D01*
X75633035Y-43875098D01*
X75633035Y-44101884D01*
X75557440Y-44253074D01*
X75481845Y-44328670D01*
X75330654Y-44404265D01*
X74725892Y-44404265D01*
X76313392Y-45009027D02*
X76388988Y-45084622D01*
X76313392Y-45160217D01*
X76237797Y-45084622D01*
X76313392Y-45009027D01*
X76313392Y-45160217D01*
X78127678Y-43572717D02*
X79186011Y-45160217D01*
X79186011Y-43572717D02*
X78127678Y-45160217D01*
X79790773Y-44555455D02*
X81000297Y-44555455D01*
X82058630Y-43572717D02*
X82209821Y-43572717D01*
X82361011Y-43648313D01*
X82436607Y-43723908D01*
X82512202Y-43875098D01*
X82587797Y-44177479D01*
X82587797Y-44555455D01*
X82512202Y-44857836D01*
X82436607Y-45009027D01*
X82361011Y-45084622D01*
X82209821Y-45160217D01*
X82058630Y-45160217D01*
X81907440Y-45084622D01*
X81831845Y-45009027D01*
X81756250Y-44857836D01*
X81680654Y-44555455D01*
X81680654Y-44177479D01*
X81756250Y-43875098D01*
X81831845Y-43723908D01*
X81907440Y-43648313D01*
X82058630Y-43572717D01*
X85384821Y-45160217D02*
X84855654Y-44404265D01*
X84477678Y-45160217D02*
X84477678Y-43572717D01*
X85082440Y-43572717D01*
X85233630Y-43648313D01*
X85309226Y-43723908D01*
X85384821Y-43875098D01*
X85384821Y-44101884D01*
X85309226Y-44253074D01*
X85233630Y-44328670D01*
X85082440Y-44404265D01*
X84477678Y-44404265D01*
X86065178Y-44328670D02*
X86594345Y-44328670D01*
X86821130Y-45160217D02*
X86065178Y-45160217D01*
X86065178Y-43572717D01*
X86821130Y-43572717D01*
X87274702Y-43572717D02*
X87803869Y-45160217D01*
X88333035Y-43572717D01*
X88862202Y-45009027D02*
X88937797Y-45084622D01*
X88862202Y-45160217D01*
X88786607Y-45084622D01*
X88862202Y-45009027D01*
X88862202Y-45160217D01*
X91130059Y-43572717D02*
X91281250Y-43572717D01*
X91432440Y-43648313D01*
X91508035Y-43723908D01*
X91583630Y-43875098D01*
X91659226Y-44177479D01*
X91659226Y-44555455D01*
X91583630Y-44857836D01*
X91508035Y-45009027D01*
X91432440Y-45084622D01*
X91281250Y-45160217D01*
X91130059Y-45160217D01*
X90978869Y-45084622D01*
X90903273Y-45009027D01*
X90827678Y-44857836D01*
X90752083Y-44555455D01*
X90752083Y-44177479D01*
X90827678Y-43875098D01*
X90903273Y-43723908D01*
X90978869Y-43648313D01*
X91130059Y-43572717D01*
X93171130Y-45160217D02*
X92263988Y-45160217D01*
X92717559Y-45160217D02*
X92717559Y-43572717D01*
X92566369Y-43799503D01*
X92415178Y-43950693D01*
X92263988Y-44026289D01*
X93851488Y-44555455D02*
X95061011Y-44555455D01*
X96119345Y-43572717D02*
X96270535Y-43572717D01*
X96421726Y-43648313D01*
X96497321Y-43723908D01*
X96572916Y-43875098D01*
X96648511Y-44177479D01*
X96648511Y-44555455D01*
X96572916Y-44857836D01*
X96497321Y-45009027D01*
X96421726Y-45084622D01*
X96270535Y-45160217D01*
X96119345Y-45160217D01*
X95968154Y-45084622D01*
X95892559Y-45009027D01*
X95816964Y-44857836D01*
X95741369Y-44555455D01*
X95741369Y-44177479D01*
X95816964Y-43875098D01*
X95892559Y-43723908D01*
X95968154Y-43648313D01*
X96119345Y-43572717D01*
X98009226Y-43572717D02*
X97706845Y-43572717D01*
X97555654Y-43648313D01*
X97480059Y-43723908D01*
X97328869Y-43950693D01*
X97253273Y-44253074D01*
X97253273Y-44857836D01*
X97328869Y-45009027D01*
X97404464Y-45084622D01*
X97555654Y-45160217D01*
X97858035Y-45160217D01*
X98009226Y-45084622D01*
X98084821Y-45009027D01*
X98160416Y-44857836D01*
X98160416Y-44479860D01*
X98084821Y-44328670D01*
X98009226Y-44253074D01*
X97858035Y-44177479D01*
X97555654Y-44177479D01*
X97404464Y-44253074D01*
X97328869Y-44328670D01*
X97253273Y-44479860D01*
X98840773Y-44555455D02*
X100050297Y-44555455D01*
X100730654Y-43723908D02*
X100806250Y-43648313D01*
X100957440Y-43572717D01*
X101335416Y-43572717D01*
X101486607Y-43648313D01*
X101562202Y-43723908D01*
X101637797Y-43875098D01*
X101637797Y-44026289D01*
X101562202Y-44253074D01*
X100655059Y-45160217D01*
X101637797Y-45160217D01*
X102620535Y-43572717D02*
X102771726Y-43572717D01*
X102922916Y-43648313D01*
X102998511Y-43723908D01*
X103074107Y-43875098D01*
X103149702Y-44177479D01*
X103149702Y-44555455D01*
X103074107Y-44857836D01*
X102998511Y-45009027D01*
X102922916Y-45084622D01*
X102771726Y-45160217D01*
X102620535Y-45160217D01*
X102469345Y-45084622D01*
X102393750Y-45009027D01*
X102318154Y-44857836D01*
X102242559Y-44555455D01*
X102242559Y-44177479D01*
X102318154Y-43875098D01*
X102393750Y-43723908D01*
X102469345Y-43648313D01*
X102620535Y-43572717D01*
X103754464Y-43723908D02*
X103830059Y-43648313D01*
X103981250Y-43572717D01*
X104359226Y-43572717D01*
X104510416Y-43648313D01*
X104586011Y-43723908D01*
X104661607Y-43875098D01*
X104661607Y-44026289D01*
X104586011Y-44253074D01*
X103678869Y-45160217D01*
X104661607Y-45160217D01*
X105266369Y-43723908D02*
X105341964Y-43648313D01*
X105493154Y-43572717D01*
X105871130Y-43572717D01*
X106022321Y-43648313D01*
X106097916Y-43723908D01*
X106173511Y-43875098D01*
X106173511Y-44026289D01*
X106097916Y-44253074D01*
X105190773Y-45160217D01*
X106173511Y-45160217D01*
X52878869Y-47716092D02*
X52878869Y-46128592D01*
X53408035Y-47262521D01*
X53937202Y-46128592D01*
X53937202Y-47716092D01*
X55222321Y-46884545D02*
X54693154Y-46884545D01*
X54693154Y-47716092D02*
X54693154Y-46128592D01*
X55449107Y-46128592D01*
X56961011Y-47716092D02*
X56431845Y-46960140D01*
X56053869Y-47716092D02*
X56053869Y-46128592D01*
X56658630Y-46128592D01*
X56809821Y-46204188D01*
X56885416Y-46279783D01*
X56961011Y-46430973D01*
X56961011Y-46657759D01*
X56885416Y-46808949D01*
X56809821Y-46884545D01*
X56658630Y-46960140D01*
X56053869Y-46960140D01*
X57641369Y-47564902D02*
X57716964Y-47640497D01*
X57641369Y-47716092D01*
X57565773Y-47640497D01*
X57641369Y-47564902D01*
X57641369Y-47716092D01*
X59909226Y-46128592D02*
X60060416Y-46128592D01*
X60211607Y-46204188D01*
X60287202Y-46279783D01*
X60362797Y-46430973D01*
X60438392Y-46733354D01*
X60438392Y-47111330D01*
X60362797Y-47413711D01*
X60287202Y-47564902D01*
X60211607Y-47640497D01*
X60060416Y-47716092D01*
X59909226Y-47716092D01*
X59758035Y-47640497D01*
X59682440Y-47564902D01*
X59606845Y-47413711D01*
X59531250Y-47111330D01*
X59531250Y-46733354D01*
X59606845Y-46430973D01*
X59682440Y-46279783D01*
X59758035Y-46204188D01*
X59909226Y-46128592D01*
X62328273Y-47716092D02*
X62328273Y-46128592D01*
X62857440Y-47262521D01*
X63386607Y-46128592D01*
X63386607Y-47716092D01*
X64671726Y-46884545D02*
X64142559Y-46884545D01*
X64142559Y-47716092D02*
X64142559Y-46128592D01*
X64898511Y-46128592D01*
X65503273Y-47716092D02*
X65503273Y-46128592D01*
X65881250Y-46128592D01*
X66108035Y-46204188D01*
X66259226Y-46355378D01*
X66334821Y-46506568D01*
X66410416Y-46808949D01*
X66410416Y-47035735D01*
X66334821Y-47338116D01*
X66259226Y-47489307D01*
X66108035Y-47640497D01*
X65881250Y-47716092D01*
X65503273Y-47716092D01*
X67090773Y-47564902D02*
X67166369Y-47640497D01*
X67090773Y-47716092D01*
X67015178Y-47640497D01*
X67090773Y-47564902D01*
X67090773Y-47716092D01*
X69056250Y-47716092D02*
X69056250Y-46128592D01*
X69434226Y-46128592D01*
X69661011Y-46204188D01*
X69812202Y-46355378D01*
X69887797Y-46506568D01*
X69963392Y-46808949D01*
X69963392Y-47035735D01*
X69887797Y-47338116D01*
X69812202Y-47489307D01*
X69661011Y-47640497D01*
X69434226Y-47716092D01*
X69056250Y-47716092D01*
X70643750Y-47716092D02*
X70643750Y-46128592D01*
X71021726Y-46128592D01*
X71248511Y-46204188D01*
X71399702Y-46355378D01*
X71475297Y-46506568D01*
X71550892Y-46808949D01*
X71550892Y-47035735D01*
X71475297Y-47338116D01*
X71399702Y-47489307D01*
X71248511Y-47640497D01*
X71021726Y-47716092D01*
X70643750Y-47716092D01*
X72231250Y-47111330D02*
X73440773Y-47111330D01*
X74196726Y-47716092D02*
X74196726Y-46128592D01*
X74725892Y-47262521D01*
X75255059Y-46128592D01*
X75255059Y-47716092D01*
X76011011Y-47716092D02*
X76011011Y-46128592D01*
X76540178Y-47262521D01*
X77069345Y-46128592D01*
X77069345Y-47716092D01*
X77825297Y-47111330D02*
X79034821Y-47111330D01*
X80093154Y-46960140D02*
X80093154Y-47716092D01*
X79563988Y-46128592D02*
X80093154Y-46960140D01*
X80622321Y-46128592D01*
X81453869Y-46960140D02*
X81453869Y-47716092D01*
X80924702Y-46128592D02*
X81453869Y-46960140D01*
X81983035Y-46128592D01*
X82814583Y-46960140D02*
X82814583Y-47716092D01*
X82285416Y-46128592D02*
X82814583Y-46960140D01*
X83343750Y-46128592D01*
X84175297Y-46960140D02*
X84175297Y-47716092D01*
X83646130Y-46128592D02*
X84175297Y-46960140D01*
X84704464Y-46128592D01*
X86367559Y-47640497D02*
X86594345Y-47716092D01*
X86972321Y-47716092D01*
X87123511Y-47640497D01*
X87199107Y-47564902D01*
X87274702Y-47413711D01*
X87274702Y-47262521D01*
X87199107Y-47111330D01*
X87123511Y-47035735D01*
X86972321Y-46960140D01*
X86669940Y-46884545D01*
X86518750Y-46808949D01*
X86443154Y-46733354D01*
X86367559Y-46582164D01*
X86367559Y-46430973D01*
X86443154Y-46279783D01*
X86518750Y-46204188D01*
X86669940Y-46128592D01*
X87047916Y-46128592D01*
X87274702Y-46204188D01*
X87955059Y-46884545D02*
X88484226Y-46884545D01*
X88711011Y-47716092D02*
X87955059Y-47716092D01*
X87955059Y-46128592D01*
X88711011Y-46128592D01*
X90298511Y-47716092D02*
X89769345Y-46960140D01*
X89391369Y-47716092D02*
X89391369Y-46128592D01*
X89996130Y-46128592D01*
X90147321Y-46204188D01*
X90222916Y-46279783D01*
X90298511Y-46430973D01*
X90298511Y-46657759D01*
X90222916Y-46808949D01*
X90147321Y-46884545D01*
X89996130Y-46960140D01*
X89391369Y-46960140D01*
X90978869Y-47564902D02*
X91054464Y-47640497D01*
X90978869Y-47716092D01*
X90903273Y-47640497D01*
X90978869Y-47564902D01*
X90978869Y-47716092D01*
X92868750Y-47262521D02*
X93624702Y-47262521D01*
X92717559Y-47716092D02*
X93246726Y-46128592D01*
X93775892Y-47716092D01*
X94834226Y-46884545D02*
X95061011Y-46960140D01*
X95136607Y-47035735D01*
X95212202Y-47186926D01*
X95212202Y-47413711D01*
X95136607Y-47564902D01*
X95061011Y-47640497D01*
X94909821Y-47716092D01*
X94305059Y-47716092D01*
X94305059Y-46128592D01*
X94834226Y-46128592D01*
X94985416Y-46204188D01*
X95061011Y-46279783D01*
X95136607Y-46430973D01*
X95136607Y-46582164D01*
X95061011Y-46733354D01*
X94985416Y-46808949D01*
X94834226Y-46884545D01*
X94305059Y-46884545D01*
X96799702Y-47564902D02*
X96724107Y-47640497D01*
X96497321Y-47716092D01*
X96346130Y-47716092D01*
X96119345Y-47640497D01*
X95968154Y-47489307D01*
X95892559Y-47338116D01*
X95816964Y-47035735D01*
X95816964Y-46808949D01*
X95892559Y-46506568D01*
X95968154Y-46355378D01*
X96119345Y-46204188D01*
X96346130Y-46128592D01*
X96497321Y-46128592D01*
X96724107Y-46204188D01*
X96799702Y-46279783D01*
X97480059Y-47716092D02*
X97480059Y-46128592D01*
X97858035Y-46128592D01*
X98084821Y-46204188D01*
X98236011Y-46355378D01*
X98311607Y-46506568D01*
X98387202Y-46808949D01*
X98387202Y-47035735D01*
X98311607Y-47338116D01*
X98236011Y-47489307D01*
X98084821Y-47640497D01*
X97858035Y-47716092D01*
X97480059Y-47716092D01*
D10*
X62169523Y-52357261D02*
X62290476Y-52357261D01*
X62350952Y-52387500D01*
X62411428Y-52447976D01*
X62441666Y-52568928D01*
X62441666Y-52780595D01*
X62411428Y-52901547D01*
X62350952Y-52962023D01*
X62290476Y-52992261D01*
X62169523Y-52992261D01*
X62109047Y-52962023D01*
X62048571Y-52901547D01*
X62018333Y-52780595D01*
X62018333Y-52568928D01*
X62048571Y-52447976D01*
X62109047Y-52387500D01*
X62169523Y-52357261D01*
X51465238Y-59342261D02*
X51465238Y-58707261D01*
X52100238Y-59342261D02*
X51737380Y-59342261D01*
X51918809Y-59342261D02*
X51918809Y-58707261D01*
X51858333Y-58797976D01*
X51797857Y-58858452D01*
X51737380Y-58888690D01*
X52311904Y-58707261D02*
X52705000Y-58707261D01*
X52493333Y-58949166D01*
X52584047Y-58949166D01*
X52644523Y-58979404D01*
X52674761Y-59009642D01*
X52705000Y-59070119D01*
X52705000Y-59221309D01*
X52674761Y-59281785D01*
X52644523Y-59312023D01*
X52584047Y-59342261D01*
X52402619Y-59342261D01*
X52342142Y-59312023D01*
X52311904Y-59281785D01*
X54005238Y-59342261D02*
X54005238Y-58707261D01*
X54640238Y-59342261D02*
X54277380Y-59342261D01*
X54458809Y-59342261D02*
X54458809Y-58707261D01*
X54398333Y-58797976D01*
X54337857Y-58858452D01*
X54277380Y-58888690D01*
X55184523Y-58918928D02*
X55184523Y-59342261D01*
X55033333Y-58677023D02*
X54882142Y-59130595D01*
X55275238Y-59130595D01*
X54005238Y-52992261D02*
X54005238Y-52357261D01*
X54640238Y-52992261D02*
X54277380Y-52992261D01*
X54458809Y-52992261D02*
X54458809Y-52357261D01*
X54398333Y-52447976D01*
X54337857Y-52508452D01*
X54277380Y-52538690D01*
X55184523Y-52568928D02*
X55184523Y-52992261D01*
X55033333Y-52327023D02*
X54882142Y-52780595D01*
X55275238Y-52780595D01*
X39067619Y-52992261D02*
X39067619Y-52357261D01*
X39339761Y-52417738D02*
X39370000Y-52387500D01*
X39430476Y-52357261D01*
X39581666Y-52357261D01*
X39642142Y-52387500D01*
X39672380Y-52417738D01*
X39702619Y-52478214D01*
X39702619Y-52538690D01*
X39672380Y-52629404D01*
X39309523Y-52992261D01*
X39702619Y-52992261D01*
X36527619Y-59342261D02*
X36527619Y-58707261D01*
X37162619Y-59342261D02*
X36799761Y-59342261D01*
X36981190Y-59342261D02*
X36981190Y-58707261D01*
X36920714Y-58797976D01*
X36860238Y-58858452D01*
X36799761Y-58888690D01*
X41607619Y-52992261D02*
X41607619Y-52357261D01*
X42182142Y-52568928D02*
X42182142Y-52992261D01*
X42030952Y-52327023D02*
X41879761Y-52780595D01*
X42272857Y-52780595D01*
X58707261Y-59312023D02*
X58797976Y-59342261D01*
X58949166Y-59342261D01*
X59009642Y-59312023D01*
X59039880Y-59281785D01*
X59070119Y-59221309D01*
X59070119Y-59160833D01*
X59039880Y-59100357D01*
X59009642Y-59070119D01*
X58949166Y-59039880D01*
X58828214Y-59009642D01*
X58767738Y-58979404D01*
X58737500Y-58949166D01*
X58707261Y-58888690D01*
X58707261Y-58828214D01*
X58737500Y-58767738D01*
X58767738Y-58737500D01*
X58828214Y-58707261D01*
X58979404Y-58707261D01*
X59070119Y-58737500D01*
X59644642Y-59342261D02*
X59342261Y-59342261D01*
X59342261Y-58707261D01*
X59765595Y-58707261D02*
X60128452Y-58707261D01*
X59947023Y-59342261D02*
X59947023Y-58707261D01*
X60279642Y-58707261D02*
X60672738Y-58707261D01*
X60461071Y-58949166D01*
X60551785Y-58949166D01*
X60612261Y-58979404D01*
X60642500Y-59009642D01*
X60672738Y-59070119D01*
X60672738Y-59221309D01*
X60642500Y-59281785D01*
X60612261Y-59312023D01*
X60551785Y-59342261D01*
X60370357Y-59342261D01*
X60309880Y-59312023D01*
X60279642Y-59281785D01*
X46687619Y-59342261D02*
X46687619Y-58707261D01*
X47020238Y-59342261D02*
X47141190Y-59342261D01*
X47201666Y-59312023D01*
X47231904Y-59281785D01*
X47292380Y-59191071D01*
X47322619Y-59070119D01*
X47322619Y-58828214D01*
X47292380Y-58767738D01*
X47262142Y-58737500D01*
X47201666Y-58707261D01*
X47080714Y-58707261D01*
X47020238Y-58737500D01*
X46990000Y-58767738D01*
X46959761Y-58828214D01*
X46959761Y-58979404D01*
X46990000Y-59039880D01*
X47020238Y-59070119D01*
X47080714Y-59100357D01*
X47201666Y-59100357D01*
X47262142Y-59070119D01*
X47292380Y-59039880D01*
X47322619Y-58979404D01*
X48925238Y-59342261D02*
X48925238Y-58707261D01*
X49560238Y-59342261D02*
X49197380Y-59342261D01*
X49378809Y-59342261D02*
X49378809Y-58707261D01*
X49318333Y-58797976D01*
X49257857Y-58858452D01*
X49197380Y-58888690D01*
X50165000Y-59342261D02*
X49802142Y-59342261D01*
X49983571Y-59342261D02*
X49983571Y-58707261D01*
X49923095Y-58797976D01*
X49862619Y-58858452D01*
X49802142Y-58888690D01*
X56167261Y-52962023D02*
X56257976Y-52992261D01*
X56409166Y-52992261D01*
X56469642Y-52962023D01*
X56499880Y-52931785D01*
X56530119Y-52871309D01*
X56530119Y-52810833D01*
X56499880Y-52750357D01*
X56469642Y-52720119D01*
X56409166Y-52689880D01*
X56288214Y-52659642D01*
X56227738Y-52629404D01*
X56197500Y-52599166D01*
X56167261Y-52538690D01*
X56167261Y-52478214D01*
X56197500Y-52417738D01*
X56227738Y-52387500D01*
X56288214Y-52357261D01*
X56439404Y-52357261D01*
X56530119Y-52387500D01*
X57104642Y-52992261D02*
X56802261Y-52992261D01*
X56802261Y-52357261D01*
X57225595Y-52357261D02*
X57588452Y-52357261D01*
X57407023Y-52992261D02*
X57407023Y-52357261D01*
X57921071Y-52357261D02*
X57981547Y-52357261D01*
X58042023Y-52387500D01*
X58072261Y-52417738D01*
X58102500Y-52478214D01*
X58132738Y-52599166D01*
X58132738Y-52750357D01*
X58102500Y-52871309D01*
X58072261Y-52931785D01*
X58042023Y-52962023D01*
X57981547Y-52992261D01*
X57921071Y-52992261D01*
X57860595Y-52962023D01*
X57830357Y-52931785D01*
X57800119Y-52871309D01*
X57769880Y-52750357D01*
X57769880Y-52599166D01*
X57800119Y-52478214D01*
X57830357Y-52417738D01*
X57860595Y-52387500D01*
X57921071Y-52357261D01*
X41607619Y-59342261D02*
X41607619Y-58707261D01*
X42212380Y-58707261D02*
X41910000Y-58707261D01*
X41879761Y-59009642D01*
X41910000Y-58979404D01*
X41970476Y-58949166D01*
X42121666Y-58949166D01*
X42182142Y-58979404D01*
X42212380Y-59009642D01*
X42242619Y-59070119D01*
X42242619Y-59221309D01*
X42212380Y-59281785D01*
X42182142Y-59312023D01*
X42121666Y-59342261D01*
X41970476Y-59342261D01*
X41910000Y-59312023D01*
X41879761Y-59281785D01*
X39067619Y-59342261D02*
X39067619Y-58707261D01*
X39309523Y-58707261D02*
X39702619Y-58707261D01*
X39490952Y-58949166D01*
X39581666Y-58949166D01*
X39642142Y-58979404D01*
X39672380Y-59009642D01*
X39702619Y-59070119D01*
X39702619Y-59221309D01*
X39672380Y-59281785D01*
X39642142Y-59312023D01*
X39581666Y-59342261D01*
X39400238Y-59342261D01*
X39339761Y-59312023D01*
X39309523Y-59281785D01*
D11*
%TO.C,R20*%
X57602380Y-92082857D02*
X57126190Y-92416190D01*
X57602380Y-92654285D02*
X56602380Y-92654285D01*
X56602380Y-92273333D01*
X56650000Y-92178095D01*
X56697619Y-92130476D01*
X56792857Y-92082857D01*
X56935714Y-92082857D01*
X57030952Y-92130476D01*
X57078571Y-92178095D01*
X57126190Y-92273333D01*
X57126190Y-92654285D01*
X56697619Y-91701904D02*
X56650000Y-91654285D01*
X56602380Y-91559047D01*
X56602380Y-91320952D01*
X56650000Y-91225714D01*
X56697619Y-91178095D01*
X56792857Y-91130476D01*
X56888095Y-91130476D01*
X57030952Y-91178095D01*
X57602380Y-91749523D01*
X57602380Y-91130476D01*
X56602380Y-90511428D02*
X56602380Y-90416190D01*
X56650000Y-90320952D01*
X56697619Y-90273333D01*
X56792857Y-90225714D01*
X56983333Y-90178095D01*
X57221428Y-90178095D01*
X57411904Y-90225714D01*
X57507142Y-90273333D01*
X57554761Y-90320952D01*
X57602380Y-90416190D01*
X57602380Y-90511428D01*
X57554761Y-90606666D01*
X57507142Y-90654285D01*
X57411904Y-90701904D01*
X57221428Y-90749523D01*
X56983333Y-90749523D01*
X56792857Y-90701904D01*
X56697619Y-90654285D01*
X56650000Y-90606666D01*
X56602380Y-90511428D01*
%TO.C,C4*%
X59523333Y-93067142D02*
X59475714Y-93114761D01*
X59332857Y-93162380D01*
X59237619Y-93162380D01*
X59094761Y-93114761D01*
X58999523Y-93019523D01*
X58951904Y-92924285D01*
X58904285Y-92733809D01*
X58904285Y-92590952D01*
X58951904Y-92400476D01*
X58999523Y-92305238D01*
X59094761Y-92210000D01*
X59237619Y-92162380D01*
X59332857Y-92162380D01*
X59475714Y-92210000D01*
X59523333Y-92257619D01*
X60380476Y-92495714D02*
X60380476Y-93162380D01*
X60142380Y-92114761D02*
X59904285Y-92829047D01*
X60523333Y-92829047D01*
%TO.C,D16*%
X116022380Y-118204285D02*
X115022380Y-118204285D01*
X115022380Y-117966190D01*
X115070000Y-117823333D01*
X115165238Y-117728095D01*
X115260476Y-117680476D01*
X115450952Y-117632857D01*
X115593809Y-117632857D01*
X115784285Y-117680476D01*
X115879523Y-117728095D01*
X115974761Y-117823333D01*
X116022380Y-117966190D01*
X116022380Y-118204285D01*
X116022380Y-116680476D02*
X116022380Y-117251904D01*
X116022380Y-116966190D02*
X115022380Y-116966190D01*
X115165238Y-117061428D01*
X115260476Y-117156666D01*
X115308095Y-117251904D01*
X115022380Y-115823333D02*
X115022380Y-116013809D01*
X115070000Y-116109047D01*
X115117619Y-116156666D01*
X115260476Y-116251904D01*
X115450952Y-116299523D01*
X115831904Y-116299523D01*
X115927142Y-116251904D01*
X115974761Y-116204285D01*
X116022380Y-116109047D01*
X116022380Y-115918571D01*
X115974761Y-115823333D01*
X115927142Y-115775714D01*
X115831904Y-115728095D01*
X115593809Y-115728095D01*
X115498571Y-115775714D01*
X115450952Y-115823333D01*
X115403333Y-115918571D01*
X115403333Y-116109047D01*
X115450952Y-116204285D01*
X115498571Y-116251904D01*
X115593809Y-116299523D01*
%TO.C,R5*%
X62682380Y-81446666D02*
X62206190Y-81780000D01*
X62682380Y-82018095D02*
X61682380Y-82018095D01*
X61682380Y-81637142D01*
X61730000Y-81541904D01*
X61777619Y-81494285D01*
X61872857Y-81446666D01*
X62015714Y-81446666D01*
X62110952Y-81494285D01*
X62158571Y-81541904D01*
X62206190Y-81637142D01*
X62206190Y-82018095D01*
X61682380Y-80541904D02*
X61682380Y-81018095D01*
X62158571Y-81065714D01*
X62110952Y-81018095D01*
X62063333Y-80922857D01*
X62063333Y-80684761D01*
X62110952Y-80589523D01*
X62158571Y-80541904D01*
X62253809Y-80494285D01*
X62491904Y-80494285D01*
X62587142Y-80541904D01*
X62634761Y-80589523D01*
X62682380Y-80684761D01*
X62682380Y-80922857D01*
X62634761Y-81018095D01*
X62587142Y-81065714D01*
%TO.C,R32*%
X88082380Y-118752857D02*
X87606190Y-119086190D01*
X88082380Y-119324285D02*
X87082380Y-119324285D01*
X87082380Y-118943333D01*
X87130000Y-118848095D01*
X87177619Y-118800476D01*
X87272857Y-118752857D01*
X87415714Y-118752857D01*
X87510952Y-118800476D01*
X87558571Y-118848095D01*
X87606190Y-118943333D01*
X87606190Y-119324285D01*
X87082380Y-118419523D02*
X87082380Y-117800476D01*
X87463333Y-118133809D01*
X87463333Y-117990952D01*
X87510952Y-117895714D01*
X87558571Y-117848095D01*
X87653809Y-117800476D01*
X87891904Y-117800476D01*
X87987142Y-117848095D01*
X88034761Y-117895714D01*
X88082380Y-117990952D01*
X88082380Y-118276666D01*
X88034761Y-118371904D01*
X87987142Y-118419523D01*
X87177619Y-117419523D02*
X87130000Y-117371904D01*
X87082380Y-117276666D01*
X87082380Y-117038571D01*
X87130000Y-116943333D01*
X87177619Y-116895714D01*
X87272857Y-116848095D01*
X87368095Y-116848095D01*
X87510952Y-116895714D01*
X88082380Y-117467142D01*
X88082380Y-116848095D01*
%TO.C,D17*%
X88955714Y-122372380D02*
X88955714Y-121372380D01*
X89193809Y-121372380D01*
X89336666Y-121420000D01*
X89431904Y-121515238D01*
X89479523Y-121610476D01*
X89527142Y-121800952D01*
X89527142Y-121943809D01*
X89479523Y-122134285D01*
X89431904Y-122229523D01*
X89336666Y-122324761D01*
X89193809Y-122372380D01*
X88955714Y-122372380D01*
X90479523Y-122372380D02*
X89908095Y-122372380D01*
X90193809Y-122372380D02*
X90193809Y-121372380D01*
X90098571Y-121515238D01*
X90003333Y-121610476D01*
X89908095Y-121658095D01*
X90812857Y-121372380D02*
X91479523Y-121372380D01*
X91050952Y-122372380D01*
%TO.C,R9*%
X83002380Y-81446666D02*
X82526190Y-81780000D01*
X83002380Y-82018095D02*
X82002380Y-82018095D01*
X82002380Y-81637142D01*
X82050000Y-81541904D01*
X82097619Y-81494285D01*
X82192857Y-81446666D01*
X82335714Y-81446666D01*
X82430952Y-81494285D01*
X82478571Y-81541904D01*
X82526190Y-81637142D01*
X82526190Y-82018095D01*
X83002380Y-80970476D02*
X83002380Y-80780000D01*
X82954761Y-80684761D01*
X82907142Y-80637142D01*
X82764285Y-80541904D01*
X82573809Y-80494285D01*
X82192857Y-80494285D01*
X82097619Y-80541904D01*
X82050000Y-80589523D01*
X82002380Y-80684761D01*
X82002380Y-80875238D01*
X82050000Y-80970476D01*
X82097619Y-81018095D01*
X82192857Y-81065714D01*
X82430952Y-81065714D01*
X82526190Y-81018095D01*
X82573809Y-80970476D01*
X82621428Y-80875238D01*
X82621428Y-80684761D01*
X82573809Y-80589523D01*
X82526190Y-80541904D01*
X82430952Y-80494285D01*
%TO.C,D4*%
X58951904Y-83002380D02*
X58951904Y-82002380D01*
X59190000Y-82002380D01*
X59332857Y-82050000D01*
X59428095Y-82145238D01*
X59475714Y-82240476D01*
X59523333Y-82430952D01*
X59523333Y-82573809D01*
X59475714Y-82764285D01*
X59428095Y-82859523D01*
X59332857Y-82954761D01*
X59190000Y-83002380D01*
X58951904Y-83002380D01*
X60380476Y-82335714D02*
X60380476Y-83002380D01*
X60142380Y-81954761D02*
X59904285Y-82669047D01*
X60523333Y-82669047D01*
%TO.C,D15*%
X114355714Y-83002380D02*
X114355714Y-82002380D01*
X114593809Y-82002380D01*
X114736666Y-82050000D01*
X114831904Y-82145238D01*
X114879523Y-82240476D01*
X114927142Y-82430952D01*
X114927142Y-82573809D01*
X114879523Y-82764285D01*
X114831904Y-82859523D01*
X114736666Y-82954761D01*
X114593809Y-83002380D01*
X114355714Y-83002380D01*
X115879523Y-83002380D02*
X115308095Y-83002380D01*
X115593809Y-83002380D02*
X115593809Y-82002380D01*
X115498571Y-82145238D01*
X115403333Y-82240476D01*
X115308095Y-82288095D01*
X116784285Y-82002380D02*
X116308095Y-82002380D01*
X116260476Y-82478571D01*
X116308095Y-82430952D01*
X116403333Y-82383333D01*
X116641428Y-82383333D01*
X116736666Y-82430952D01*
X116784285Y-82478571D01*
X116831904Y-82573809D01*
X116831904Y-82811904D01*
X116784285Y-82907142D01*
X116736666Y-82954761D01*
X116641428Y-83002380D01*
X116403333Y-83002380D01*
X116308095Y-82954761D01*
X116260476Y-82907142D01*
%TO.C,R1*%
X42362380Y-81446666D02*
X41886190Y-81780000D01*
X42362380Y-82018095D02*
X41362380Y-82018095D01*
X41362380Y-81637142D01*
X41410000Y-81541904D01*
X41457619Y-81494285D01*
X41552857Y-81446666D01*
X41695714Y-81446666D01*
X41790952Y-81494285D01*
X41838571Y-81541904D01*
X41886190Y-81637142D01*
X41886190Y-82018095D01*
X42362380Y-80494285D02*
X42362380Y-81065714D01*
X42362380Y-80780000D02*
X41362380Y-80780000D01*
X41505238Y-80875238D01*
X41600476Y-80970476D01*
X41648095Y-81065714D01*
%TO.C,R24*%
X77922380Y-92082857D02*
X77446190Y-92416190D01*
X77922380Y-92654285D02*
X76922380Y-92654285D01*
X76922380Y-92273333D01*
X76970000Y-92178095D01*
X77017619Y-92130476D01*
X77112857Y-92082857D01*
X77255714Y-92082857D01*
X77350952Y-92130476D01*
X77398571Y-92178095D01*
X77446190Y-92273333D01*
X77446190Y-92654285D01*
X77017619Y-91701904D02*
X76970000Y-91654285D01*
X76922380Y-91559047D01*
X76922380Y-91320952D01*
X76970000Y-91225714D01*
X77017619Y-91178095D01*
X77112857Y-91130476D01*
X77208095Y-91130476D01*
X77350952Y-91178095D01*
X77922380Y-91749523D01*
X77922380Y-91130476D01*
X77255714Y-90273333D02*
X77922380Y-90273333D01*
X76874761Y-90511428D02*
X77589047Y-90749523D01*
X77589047Y-90130476D01*
%TO.C,T8*%
X76287380Y-101091904D02*
X76287380Y-100520476D01*
X77287380Y-100806190D02*
X76287380Y-100806190D01*
X76715952Y-100044285D02*
X76668333Y-100139523D01*
X76620714Y-100187142D01*
X76525476Y-100234761D01*
X76477857Y-100234761D01*
X76382619Y-100187142D01*
X76335000Y-100139523D01*
X76287380Y-100044285D01*
X76287380Y-99853809D01*
X76335000Y-99758571D01*
X76382619Y-99710952D01*
X76477857Y-99663333D01*
X76525476Y-99663333D01*
X76620714Y-99710952D01*
X76668333Y-99758571D01*
X76715952Y-99853809D01*
X76715952Y-100044285D01*
X76763571Y-100139523D01*
X76811190Y-100187142D01*
X76906428Y-100234761D01*
X77096904Y-100234761D01*
X77192142Y-100187142D01*
X77239761Y-100139523D01*
X77287380Y-100044285D01*
X77287380Y-99853809D01*
X77239761Y-99758571D01*
X77192142Y-99710952D01*
X77096904Y-99663333D01*
X76906428Y-99663333D01*
X76811190Y-99710952D01*
X76763571Y-99758571D01*
X76715952Y-99853809D01*
%TO.C,D10*%
X88955714Y-83002380D02*
X88955714Y-82002380D01*
X89193809Y-82002380D01*
X89336666Y-82050000D01*
X89431904Y-82145238D01*
X89479523Y-82240476D01*
X89527142Y-82430952D01*
X89527142Y-82573809D01*
X89479523Y-82764285D01*
X89431904Y-82859523D01*
X89336666Y-82954761D01*
X89193809Y-83002380D01*
X88955714Y-83002380D01*
X90479523Y-83002380D02*
X89908095Y-83002380D01*
X90193809Y-83002380D02*
X90193809Y-82002380D01*
X90098571Y-82145238D01*
X90003333Y-82240476D01*
X89908095Y-82288095D01*
X91098571Y-82002380D02*
X91193809Y-82002380D01*
X91289047Y-82050000D01*
X91336666Y-82097619D01*
X91384285Y-82192857D01*
X91431904Y-82383333D01*
X91431904Y-82621428D01*
X91384285Y-82811904D01*
X91336666Y-82907142D01*
X91289047Y-82954761D01*
X91193809Y-83002380D01*
X91098571Y-83002380D01*
X91003333Y-82954761D01*
X90955714Y-82907142D01*
X90908095Y-82811904D01*
X90860476Y-82621428D01*
X90860476Y-82383333D01*
X90908095Y-82192857D01*
X90955714Y-82097619D01*
X91003333Y-82050000D01*
X91098571Y-82002380D01*
%TO.C,C2*%
X49293333Y-93067142D02*
X49245714Y-93114761D01*
X49102857Y-93162380D01*
X49007619Y-93162380D01*
X48864761Y-93114761D01*
X48769523Y-93019523D01*
X48721904Y-92924285D01*
X48674285Y-92733809D01*
X48674285Y-92590952D01*
X48721904Y-92400476D01*
X48769523Y-92305238D01*
X48864761Y-92210000D01*
X49007619Y-92162380D01*
X49102857Y-92162380D01*
X49245714Y-92210000D01*
X49293333Y-92257619D01*
X49674285Y-92257619D02*
X49721904Y-92210000D01*
X49817142Y-92162380D01*
X50055238Y-92162380D01*
X50150476Y-92210000D01*
X50198095Y-92257619D01*
X50245714Y-92352857D01*
X50245714Y-92448095D01*
X50198095Y-92590952D01*
X49626666Y-93162380D01*
X50245714Y-93162380D01*
%TO.C,R25*%
X83002380Y-92082857D02*
X82526190Y-92416190D01*
X83002380Y-92654285D02*
X82002380Y-92654285D01*
X82002380Y-92273333D01*
X82050000Y-92178095D01*
X82097619Y-92130476D01*
X82192857Y-92082857D01*
X82335714Y-92082857D01*
X82430952Y-92130476D01*
X82478571Y-92178095D01*
X82526190Y-92273333D01*
X82526190Y-92654285D01*
X82097619Y-91701904D02*
X82050000Y-91654285D01*
X82002380Y-91559047D01*
X82002380Y-91320952D01*
X82050000Y-91225714D01*
X82097619Y-91178095D01*
X82192857Y-91130476D01*
X82288095Y-91130476D01*
X82430952Y-91178095D01*
X83002380Y-91749523D01*
X83002380Y-91130476D01*
X82002380Y-90225714D02*
X82002380Y-90701904D01*
X82478571Y-90749523D01*
X82430952Y-90701904D01*
X82383333Y-90606666D01*
X82383333Y-90368571D01*
X82430952Y-90273333D01*
X82478571Y-90225714D01*
X82573809Y-90178095D01*
X82811904Y-90178095D01*
X82907142Y-90225714D01*
X82954761Y-90273333D01*
X83002380Y-90368571D01*
X83002380Y-90606666D01*
X82954761Y-90701904D01*
X82907142Y-90749523D01*
%TO.C,C5*%
X64603333Y-93067142D02*
X64555714Y-93114761D01*
X64412857Y-93162380D01*
X64317619Y-93162380D01*
X64174761Y-93114761D01*
X64079523Y-93019523D01*
X64031904Y-92924285D01*
X63984285Y-92733809D01*
X63984285Y-92590952D01*
X64031904Y-92400476D01*
X64079523Y-92305238D01*
X64174761Y-92210000D01*
X64317619Y-92162380D01*
X64412857Y-92162380D01*
X64555714Y-92210000D01*
X64603333Y-92257619D01*
X65508095Y-92162380D02*
X65031904Y-92162380D01*
X64984285Y-92638571D01*
X65031904Y-92590952D01*
X65127142Y-92543333D01*
X65365238Y-92543333D01*
X65460476Y-92590952D01*
X65508095Y-92638571D01*
X65555714Y-92733809D01*
X65555714Y-92971904D01*
X65508095Y-93067142D01*
X65460476Y-93114761D01*
X65365238Y-93162380D01*
X65127142Y-93162380D01*
X65031904Y-93114761D01*
X64984285Y-93067142D01*
%TO.C,C11*%
X95607142Y-93352857D02*
X95654761Y-93400476D01*
X95702380Y-93543333D01*
X95702380Y-93638571D01*
X95654761Y-93781428D01*
X95559523Y-93876666D01*
X95464285Y-93924285D01*
X95273809Y-93971904D01*
X95130952Y-93971904D01*
X94940476Y-93924285D01*
X94845238Y-93876666D01*
X94750000Y-93781428D01*
X94702380Y-93638571D01*
X94702380Y-93543333D01*
X94750000Y-93400476D01*
X94797619Y-93352857D01*
X95702380Y-92400476D02*
X95702380Y-92971904D01*
X95702380Y-92686190D02*
X94702380Y-92686190D01*
X94845238Y-92781428D01*
X94940476Y-92876666D01*
X94988095Y-92971904D01*
X95702380Y-91448095D02*
X95702380Y-92019523D01*
X95702380Y-91733809D02*
X94702380Y-91733809D01*
X94845238Y-91829047D01*
X94940476Y-91924285D01*
X94988095Y-92019523D01*
%TO.C,C13*%
X105767142Y-93352857D02*
X105814761Y-93400476D01*
X105862380Y-93543333D01*
X105862380Y-93638571D01*
X105814761Y-93781428D01*
X105719523Y-93876666D01*
X105624285Y-93924285D01*
X105433809Y-93971904D01*
X105290952Y-93971904D01*
X105100476Y-93924285D01*
X105005238Y-93876666D01*
X104910000Y-93781428D01*
X104862380Y-93638571D01*
X104862380Y-93543333D01*
X104910000Y-93400476D01*
X104957619Y-93352857D01*
X105862380Y-92400476D02*
X105862380Y-92971904D01*
X105862380Y-92686190D02*
X104862380Y-92686190D01*
X105005238Y-92781428D01*
X105100476Y-92876666D01*
X105148095Y-92971904D01*
X104862380Y-92067142D02*
X104862380Y-91448095D01*
X105243333Y-91781428D01*
X105243333Y-91638571D01*
X105290952Y-91543333D01*
X105338571Y-91495714D01*
X105433809Y-91448095D01*
X105671904Y-91448095D01*
X105767142Y-91495714D01*
X105814761Y-91543333D01*
X105862380Y-91638571D01*
X105862380Y-91924285D01*
X105814761Y-92019523D01*
X105767142Y-92067142D01*
%TO.C,R3*%
X52522380Y-81446666D02*
X52046190Y-81780000D01*
X52522380Y-82018095D02*
X51522380Y-82018095D01*
X51522380Y-81637142D01*
X51570000Y-81541904D01*
X51617619Y-81494285D01*
X51712857Y-81446666D01*
X51855714Y-81446666D01*
X51950952Y-81494285D01*
X51998571Y-81541904D01*
X52046190Y-81637142D01*
X52046190Y-82018095D01*
X51522380Y-81113333D02*
X51522380Y-80494285D01*
X51903333Y-80827619D01*
X51903333Y-80684761D01*
X51950952Y-80589523D01*
X51998571Y-80541904D01*
X52093809Y-80494285D01*
X52331904Y-80494285D01*
X52427142Y-80541904D01*
X52474761Y-80589523D01*
X52522380Y-80684761D01*
X52522380Y-80970476D01*
X52474761Y-81065714D01*
X52427142Y-81113333D01*
%TO.C,T0*%
X35647380Y-101091904D02*
X35647380Y-100520476D01*
X36647380Y-100806190D02*
X35647380Y-100806190D01*
X35647380Y-99996666D02*
X35647380Y-99901428D01*
X35695000Y-99806190D01*
X35742619Y-99758571D01*
X35837857Y-99710952D01*
X36028333Y-99663333D01*
X36266428Y-99663333D01*
X36456904Y-99710952D01*
X36552142Y-99758571D01*
X36599761Y-99806190D01*
X36647380Y-99901428D01*
X36647380Y-99996666D01*
X36599761Y-100091904D01*
X36552142Y-100139523D01*
X36456904Y-100187142D01*
X36266428Y-100234761D01*
X36028333Y-100234761D01*
X35837857Y-100187142D01*
X35742619Y-100139523D01*
X35695000Y-100091904D01*
X35647380Y-99996666D01*
%TO.C,R15*%
X113482380Y-81922857D02*
X113006190Y-82256190D01*
X113482380Y-82494285D02*
X112482380Y-82494285D01*
X112482380Y-82113333D01*
X112530000Y-82018095D01*
X112577619Y-81970476D01*
X112672857Y-81922857D01*
X112815714Y-81922857D01*
X112910952Y-81970476D01*
X112958571Y-82018095D01*
X113006190Y-82113333D01*
X113006190Y-82494285D01*
X113482380Y-80970476D02*
X113482380Y-81541904D01*
X113482380Y-81256190D02*
X112482380Y-81256190D01*
X112625238Y-81351428D01*
X112720476Y-81446666D01*
X112768095Y-81541904D01*
X112482380Y-80065714D02*
X112482380Y-80541904D01*
X112958571Y-80589523D01*
X112910952Y-80541904D01*
X112863333Y-80446666D01*
X112863333Y-80208571D01*
X112910952Y-80113333D01*
X112958571Y-80065714D01*
X113053809Y-80018095D01*
X113291904Y-80018095D01*
X113387142Y-80065714D01*
X113434761Y-80113333D01*
X113482380Y-80208571D01*
X113482380Y-80446666D01*
X113434761Y-80541904D01*
X113387142Y-80589523D01*
%TO.C,D6*%
X69111904Y-83002380D02*
X69111904Y-82002380D01*
X69350000Y-82002380D01*
X69492857Y-82050000D01*
X69588095Y-82145238D01*
X69635714Y-82240476D01*
X69683333Y-82430952D01*
X69683333Y-82573809D01*
X69635714Y-82764285D01*
X69588095Y-82859523D01*
X69492857Y-82954761D01*
X69350000Y-83002380D01*
X69111904Y-83002380D01*
X70540476Y-82002380D02*
X70350000Y-82002380D01*
X70254761Y-82050000D01*
X70207142Y-82097619D01*
X70111904Y-82240476D01*
X70064285Y-82430952D01*
X70064285Y-82811904D01*
X70111904Y-82907142D01*
X70159523Y-82954761D01*
X70254761Y-83002380D01*
X70445238Y-83002380D01*
X70540476Y-82954761D01*
X70588095Y-82907142D01*
X70635714Y-82811904D01*
X70635714Y-82573809D01*
X70588095Y-82478571D01*
X70540476Y-82430952D01*
X70445238Y-82383333D01*
X70254761Y-82383333D01*
X70159523Y-82430952D01*
X70111904Y-82478571D01*
X70064285Y-82573809D01*
%TO.C,R21*%
X62682380Y-92082857D02*
X62206190Y-92416190D01*
X62682380Y-92654285D02*
X61682380Y-92654285D01*
X61682380Y-92273333D01*
X61730000Y-92178095D01*
X61777619Y-92130476D01*
X61872857Y-92082857D01*
X62015714Y-92082857D01*
X62110952Y-92130476D01*
X62158571Y-92178095D01*
X62206190Y-92273333D01*
X62206190Y-92654285D01*
X61777619Y-91701904D02*
X61730000Y-91654285D01*
X61682380Y-91559047D01*
X61682380Y-91320952D01*
X61730000Y-91225714D01*
X61777619Y-91178095D01*
X61872857Y-91130476D01*
X61968095Y-91130476D01*
X62110952Y-91178095D01*
X62682380Y-91749523D01*
X62682380Y-91130476D01*
X62682380Y-90178095D02*
X62682380Y-90749523D01*
X62682380Y-90463809D02*
X61682380Y-90463809D01*
X61825238Y-90559047D01*
X61920476Y-90654285D01*
X61968095Y-90749523D01*
%TO.C,R4*%
X57602380Y-81446666D02*
X57126190Y-81780000D01*
X57602380Y-82018095D02*
X56602380Y-82018095D01*
X56602380Y-81637142D01*
X56650000Y-81541904D01*
X56697619Y-81494285D01*
X56792857Y-81446666D01*
X56935714Y-81446666D01*
X57030952Y-81494285D01*
X57078571Y-81541904D01*
X57126190Y-81637142D01*
X57126190Y-82018095D01*
X56935714Y-80589523D02*
X57602380Y-80589523D01*
X56554761Y-80827619D02*
X57269047Y-81065714D01*
X57269047Y-80446666D01*
%TO.C,T6*%
X66127380Y-101091904D02*
X66127380Y-100520476D01*
X67127380Y-100806190D02*
X66127380Y-100806190D01*
X66127380Y-99758571D02*
X66127380Y-99949047D01*
X66175000Y-100044285D01*
X66222619Y-100091904D01*
X66365476Y-100187142D01*
X66555952Y-100234761D01*
X66936904Y-100234761D01*
X67032142Y-100187142D01*
X67079761Y-100139523D01*
X67127380Y-100044285D01*
X67127380Y-99853809D01*
X67079761Y-99758571D01*
X67032142Y-99710952D01*
X66936904Y-99663333D01*
X66698809Y-99663333D01*
X66603571Y-99710952D01*
X66555952Y-99758571D01*
X66508333Y-99853809D01*
X66508333Y-100044285D01*
X66555952Y-100139523D01*
X66603571Y-100187142D01*
X66698809Y-100234761D01*
%TO.C,T12*%
X96607380Y-101568095D02*
X96607380Y-100996666D01*
X97607380Y-101282380D02*
X96607380Y-101282380D01*
X97607380Y-100139523D02*
X97607380Y-100710952D01*
X97607380Y-100425238D02*
X96607380Y-100425238D01*
X96750238Y-100520476D01*
X96845476Y-100615714D01*
X96893095Y-100710952D01*
X96702619Y-99758571D02*
X96655000Y-99710952D01*
X96607380Y-99615714D01*
X96607380Y-99377619D01*
X96655000Y-99282380D01*
X96702619Y-99234761D01*
X96797857Y-99187142D01*
X96893095Y-99187142D01*
X97035952Y-99234761D01*
X97607380Y-99806190D01*
X97607380Y-99187142D01*
%TO.C,D5*%
X64031904Y-83002380D02*
X64031904Y-82002380D01*
X64270000Y-82002380D01*
X64412857Y-82050000D01*
X64508095Y-82145238D01*
X64555714Y-82240476D01*
X64603333Y-82430952D01*
X64603333Y-82573809D01*
X64555714Y-82764285D01*
X64508095Y-82859523D01*
X64412857Y-82954761D01*
X64270000Y-83002380D01*
X64031904Y-83002380D01*
X65508095Y-82002380D02*
X65031904Y-82002380D01*
X64984285Y-82478571D01*
X65031904Y-82430952D01*
X65127142Y-82383333D01*
X65365238Y-82383333D01*
X65460476Y-82430952D01*
X65508095Y-82478571D01*
X65555714Y-82573809D01*
X65555714Y-82811904D01*
X65508095Y-82907142D01*
X65460476Y-82954761D01*
X65365238Y-83002380D01*
X65127142Y-83002380D01*
X65031904Y-82954761D01*
X64984285Y-82907142D01*
%TO.C,T1*%
X40727380Y-101091904D02*
X40727380Y-100520476D01*
X41727380Y-100806190D02*
X40727380Y-100806190D01*
X41727380Y-99663333D02*
X41727380Y-100234761D01*
X41727380Y-99949047D02*
X40727380Y-99949047D01*
X40870238Y-100044285D01*
X40965476Y-100139523D01*
X41013095Y-100234761D01*
%TO.C,R22*%
X67762380Y-92082857D02*
X67286190Y-92416190D01*
X67762380Y-92654285D02*
X66762380Y-92654285D01*
X66762380Y-92273333D01*
X66810000Y-92178095D01*
X66857619Y-92130476D01*
X66952857Y-92082857D01*
X67095714Y-92082857D01*
X67190952Y-92130476D01*
X67238571Y-92178095D01*
X67286190Y-92273333D01*
X67286190Y-92654285D01*
X66857619Y-91701904D02*
X66810000Y-91654285D01*
X66762380Y-91559047D01*
X66762380Y-91320952D01*
X66810000Y-91225714D01*
X66857619Y-91178095D01*
X66952857Y-91130476D01*
X67048095Y-91130476D01*
X67190952Y-91178095D01*
X67762380Y-91749523D01*
X67762380Y-91130476D01*
X66857619Y-90749523D02*
X66810000Y-90701904D01*
X66762380Y-90606666D01*
X66762380Y-90368571D01*
X66810000Y-90273333D01*
X66857619Y-90225714D01*
X66952857Y-90178095D01*
X67048095Y-90178095D01*
X67190952Y-90225714D01*
X67762380Y-90797142D01*
X67762380Y-90178095D01*
%TO.C,C6*%
X69683333Y-93067142D02*
X69635714Y-93114761D01*
X69492857Y-93162380D01*
X69397619Y-93162380D01*
X69254761Y-93114761D01*
X69159523Y-93019523D01*
X69111904Y-92924285D01*
X69064285Y-92733809D01*
X69064285Y-92590952D01*
X69111904Y-92400476D01*
X69159523Y-92305238D01*
X69254761Y-92210000D01*
X69397619Y-92162380D01*
X69492857Y-92162380D01*
X69635714Y-92210000D01*
X69683333Y-92257619D01*
X70540476Y-92162380D02*
X70350000Y-92162380D01*
X70254761Y-92210000D01*
X70207142Y-92257619D01*
X70111904Y-92400476D01*
X70064285Y-92590952D01*
X70064285Y-92971904D01*
X70111904Y-93067142D01*
X70159523Y-93114761D01*
X70254761Y-93162380D01*
X70445238Y-93162380D01*
X70540476Y-93114761D01*
X70588095Y-93067142D01*
X70635714Y-92971904D01*
X70635714Y-92733809D01*
X70588095Y-92638571D01*
X70540476Y-92590952D01*
X70445238Y-92543333D01*
X70254761Y-92543333D01*
X70159523Y-92590952D01*
X70111904Y-92638571D01*
X70064285Y-92733809D01*
%TO.C,T10*%
X86447380Y-101568095D02*
X86447380Y-100996666D01*
X87447380Y-101282380D02*
X86447380Y-101282380D01*
X87447380Y-100139523D02*
X87447380Y-100710952D01*
X87447380Y-100425238D02*
X86447380Y-100425238D01*
X86590238Y-100520476D01*
X86685476Y-100615714D01*
X86733095Y-100710952D01*
X86447380Y-99520476D02*
X86447380Y-99425238D01*
X86495000Y-99330000D01*
X86542619Y-99282380D01*
X86637857Y-99234761D01*
X86828333Y-99187142D01*
X87066428Y-99187142D01*
X87256904Y-99234761D01*
X87352142Y-99282380D01*
X87399761Y-99330000D01*
X87447380Y-99425238D01*
X87447380Y-99520476D01*
X87399761Y-99615714D01*
X87352142Y-99663333D01*
X87256904Y-99710952D01*
X87066428Y-99758571D01*
X86828333Y-99758571D01*
X86637857Y-99710952D01*
X86542619Y-99663333D01*
X86495000Y-99615714D01*
X86447380Y-99520476D01*
%TO.C,R18*%
X47442380Y-92082857D02*
X46966190Y-92416190D01*
X47442380Y-92654285D02*
X46442380Y-92654285D01*
X46442380Y-92273333D01*
X46490000Y-92178095D01*
X46537619Y-92130476D01*
X46632857Y-92082857D01*
X46775714Y-92082857D01*
X46870952Y-92130476D01*
X46918571Y-92178095D01*
X46966190Y-92273333D01*
X46966190Y-92654285D01*
X47442380Y-91130476D02*
X47442380Y-91701904D01*
X47442380Y-91416190D02*
X46442380Y-91416190D01*
X46585238Y-91511428D01*
X46680476Y-91606666D01*
X46728095Y-91701904D01*
X46870952Y-90559047D02*
X46823333Y-90654285D01*
X46775714Y-90701904D01*
X46680476Y-90749523D01*
X46632857Y-90749523D01*
X46537619Y-90701904D01*
X46490000Y-90654285D01*
X46442380Y-90559047D01*
X46442380Y-90368571D01*
X46490000Y-90273333D01*
X46537619Y-90225714D01*
X46632857Y-90178095D01*
X46680476Y-90178095D01*
X46775714Y-90225714D01*
X46823333Y-90273333D01*
X46870952Y-90368571D01*
X46870952Y-90559047D01*
X46918571Y-90654285D01*
X46966190Y-90701904D01*
X47061428Y-90749523D01*
X47251904Y-90749523D01*
X47347142Y-90701904D01*
X47394761Y-90654285D01*
X47442380Y-90559047D01*
X47442380Y-90368571D01*
X47394761Y-90273333D01*
X47347142Y-90225714D01*
X47251904Y-90178095D01*
X47061428Y-90178095D01*
X46966190Y-90225714D01*
X46918571Y-90273333D01*
X46870952Y-90368571D01*
%TO.C,D3*%
X53871904Y-83002380D02*
X53871904Y-82002380D01*
X54110000Y-82002380D01*
X54252857Y-82050000D01*
X54348095Y-82145238D01*
X54395714Y-82240476D01*
X54443333Y-82430952D01*
X54443333Y-82573809D01*
X54395714Y-82764285D01*
X54348095Y-82859523D01*
X54252857Y-82954761D01*
X54110000Y-83002380D01*
X53871904Y-83002380D01*
X54776666Y-82002380D02*
X55395714Y-82002380D01*
X55062380Y-82383333D01*
X55205238Y-82383333D01*
X55300476Y-82430952D01*
X55348095Y-82478571D01*
X55395714Y-82573809D01*
X55395714Y-82811904D01*
X55348095Y-82907142D01*
X55300476Y-82954761D01*
X55205238Y-83002380D01*
X54919523Y-83002380D01*
X54824285Y-82954761D01*
X54776666Y-82907142D01*
%TO.C,C18*%
X113387142Y-118752857D02*
X113434761Y-118800476D01*
X113482380Y-118943333D01*
X113482380Y-119038571D01*
X113434761Y-119181428D01*
X113339523Y-119276666D01*
X113244285Y-119324285D01*
X113053809Y-119371904D01*
X112910952Y-119371904D01*
X112720476Y-119324285D01*
X112625238Y-119276666D01*
X112530000Y-119181428D01*
X112482380Y-119038571D01*
X112482380Y-118943333D01*
X112530000Y-118800476D01*
X112577619Y-118752857D01*
X113482380Y-117800476D02*
X113482380Y-118371904D01*
X113482380Y-118086190D02*
X112482380Y-118086190D01*
X112625238Y-118181428D01*
X112720476Y-118276666D01*
X112768095Y-118371904D01*
X112910952Y-117229047D02*
X112863333Y-117324285D01*
X112815714Y-117371904D01*
X112720476Y-117419523D01*
X112672857Y-117419523D01*
X112577619Y-117371904D01*
X112530000Y-117324285D01*
X112482380Y-117229047D01*
X112482380Y-117038571D01*
X112530000Y-116943333D01*
X112577619Y-116895714D01*
X112672857Y-116848095D01*
X112720476Y-116848095D01*
X112815714Y-116895714D01*
X112863333Y-116943333D01*
X112910952Y-117038571D01*
X112910952Y-117229047D01*
X112958571Y-117324285D01*
X113006190Y-117371904D01*
X113101428Y-117419523D01*
X113291904Y-117419523D01*
X113387142Y-117371904D01*
X113434761Y-117324285D01*
X113482380Y-117229047D01*
X113482380Y-117038571D01*
X113434761Y-116943333D01*
X113387142Y-116895714D01*
X113291904Y-116848095D01*
X113101428Y-116848095D01*
X113006190Y-116895714D01*
X112958571Y-116943333D01*
X112910952Y-117038571D01*
%TO.C,T5*%
X61047380Y-101091904D02*
X61047380Y-100520476D01*
X62047380Y-100806190D02*
X61047380Y-100806190D01*
X61047380Y-99710952D02*
X61047380Y-100187142D01*
X61523571Y-100234761D01*
X61475952Y-100187142D01*
X61428333Y-100091904D01*
X61428333Y-99853809D01*
X61475952Y-99758571D01*
X61523571Y-99710952D01*
X61618809Y-99663333D01*
X61856904Y-99663333D01*
X61952142Y-99710952D01*
X61999761Y-99758571D01*
X62047380Y-99853809D01*
X62047380Y-100091904D01*
X61999761Y-100187142D01*
X61952142Y-100234761D01*
%TO.C,R0*%
X37282380Y-81446666D02*
X36806190Y-81780000D01*
X37282380Y-82018095D02*
X36282380Y-82018095D01*
X36282380Y-81637142D01*
X36330000Y-81541904D01*
X36377619Y-81494285D01*
X36472857Y-81446666D01*
X36615714Y-81446666D01*
X36710952Y-81494285D01*
X36758571Y-81541904D01*
X36806190Y-81637142D01*
X36806190Y-82018095D01*
X36282380Y-80827619D02*
X36282380Y-80732380D01*
X36330000Y-80637142D01*
X36377619Y-80589523D01*
X36472857Y-80541904D01*
X36663333Y-80494285D01*
X36901428Y-80494285D01*
X37091904Y-80541904D01*
X37187142Y-80589523D01*
X37234761Y-80637142D01*
X37282380Y-80732380D01*
X37282380Y-80827619D01*
X37234761Y-80922857D01*
X37187142Y-80970476D01*
X37091904Y-81018095D01*
X36901428Y-81065714D01*
X36663333Y-81065714D01*
X36472857Y-81018095D01*
X36377619Y-80970476D01*
X36330000Y-80922857D01*
X36282380Y-80827619D01*
%TO.C,C16*%
X109577142Y-118752857D02*
X109624761Y-118800476D01*
X109672380Y-118943333D01*
X109672380Y-119038571D01*
X109624761Y-119181428D01*
X109529523Y-119276666D01*
X109434285Y-119324285D01*
X109243809Y-119371904D01*
X109100952Y-119371904D01*
X108910476Y-119324285D01*
X108815238Y-119276666D01*
X108720000Y-119181428D01*
X108672380Y-119038571D01*
X108672380Y-118943333D01*
X108720000Y-118800476D01*
X108767619Y-118752857D01*
X109672380Y-117800476D02*
X109672380Y-118371904D01*
X109672380Y-118086190D02*
X108672380Y-118086190D01*
X108815238Y-118181428D01*
X108910476Y-118276666D01*
X108958095Y-118371904D01*
X108672380Y-116943333D02*
X108672380Y-117133809D01*
X108720000Y-117229047D01*
X108767619Y-117276666D01*
X108910476Y-117371904D01*
X109100952Y-117419523D01*
X109481904Y-117419523D01*
X109577142Y-117371904D01*
X109624761Y-117324285D01*
X109672380Y-117229047D01*
X109672380Y-117038571D01*
X109624761Y-116943333D01*
X109577142Y-116895714D01*
X109481904Y-116848095D01*
X109243809Y-116848095D01*
X109148571Y-116895714D01*
X109100952Y-116943333D01*
X109053333Y-117038571D01*
X109053333Y-117229047D01*
X109100952Y-117324285D01*
X109148571Y-117371904D01*
X109243809Y-117419523D01*
%TO.C,R31*%
X113482380Y-92082857D02*
X113006190Y-92416190D01*
X113482380Y-92654285D02*
X112482380Y-92654285D01*
X112482380Y-92273333D01*
X112530000Y-92178095D01*
X112577619Y-92130476D01*
X112672857Y-92082857D01*
X112815714Y-92082857D01*
X112910952Y-92130476D01*
X112958571Y-92178095D01*
X113006190Y-92273333D01*
X113006190Y-92654285D01*
X112482380Y-91749523D02*
X112482380Y-91130476D01*
X112863333Y-91463809D01*
X112863333Y-91320952D01*
X112910952Y-91225714D01*
X112958571Y-91178095D01*
X113053809Y-91130476D01*
X113291904Y-91130476D01*
X113387142Y-91178095D01*
X113434761Y-91225714D01*
X113482380Y-91320952D01*
X113482380Y-91606666D01*
X113434761Y-91701904D01*
X113387142Y-91749523D01*
X113482380Y-90178095D02*
X113482380Y-90749523D01*
X113482380Y-90463809D02*
X112482380Y-90463809D01*
X112625238Y-90559047D01*
X112720476Y-90654285D01*
X112768095Y-90749523D01*
%TO.C,R14*%
X108402380Y-81922857D02*
X107926190Y-82256190D01*
X108402380Y-82494285D02*
X107402380Y-82494285D01*
X107402380Y-82113333D01*
X107450000Y-82018095D01*
X107497619Y-81970476D01*
X107592857Y-81922857D01*
X107735714Y-81922857D01*
X107830952Y-81970476D01*
X107878571Y-82018095D01*
X107926190Y-82113333D01*
X107926190Y-82494285D01*
X108402380Y-80970476D02*
X108402380Y-81541904D01*
X108402380Y-81256190D02*
X107402380Y-81256190D01*
X107545238Y-81351428D01*
X107640476Y-81446666D01*
X107688095Y-81541904D01*
X107735714Y-80113333D02*
X108402380Y-80113333D01*
X107354761Y-80351428D02*
X108069047Y-80589523D01*
X108069047Y-79970476D01*
%TO.C,D1*%
X43711904Y-83002380D02*
X43711904Y-82002380D01*
X43950000Y-82002380D01*
X44092857Y-82050000D01*
X44188095Y-82145238D01*
X44235714Y-82240476D01*
X44283333Y-82430952D01*
X44283333Y-82573809D01*
X44235714Y-82764285D01*
X44188095Y-82859523D01*
X44092857Y-82954761D01*
X43950000Y-83002380D01*
X43711904Y-83002380D01*
X45235714Y-83002380D02*
X44664285Y-83002380D01*
X44950000Y-83002380D02*
X44950000Y-82002380D01*
X44854761Y-82145238D01*
X44759523Y-82240476D01*
X44664285Y-82288095D01*
%TO.C,D7*%
X74191904Y-83002380D02*
X74191904Y-82002380D01*
X74430000Y-82002380D01*
X74572857Y-82050000D01*
X74668095Y-82145238D01*
X74715714Y-82240476D01*
X74763333Y-82430952D01*
X74763333Y-82573809D01*
X74715714Y-82764285D01*
X74668095Y-82859523D01*
X74572857Y-82954761D01*
X74430000Y-83002380D01*
X74191904Y-83002380D01*
X75096666Y-82002380D02*
X75763333Y-82002380D01*
X75334761Y-83002380D01*
%TO.C,R29*%
X103322380Y-92082857D02*
X102846190Y-92416190D01*
X103322380Y-92654285D02*
X102322380Y-92654285D01*
X102322380Y-92273333D01*
X102370000Y-92178095D01*
X102417619Y-92130476D01*
X102512857Y-92082857D01*
X102655714Y-92082857D01*
X102750952Y-92130476D01*
X102798571Y-92178095D01*
X102846190Y-92273333D01*
X102846190Y-92654285D01*
X102417619Y-91701904D02*
X102370000Y-91654285D01*
X102322380Y-91559047D01*
X102322380Y-91320952D01*
X102370000Y-91225714D01*
X102417619Y-91178095D01*
X102512857Y-91130476D01*
X102608095Y-91130476D01*
X102750952Y-91178095D01*
X103322380Y-91749523D01*
X103322380Y-91130476D01*
X103322380Y-90654285D02*
X103322380Y-90463809D01*
X103274761Y-90368571D01*
X103227142Y-90320952D01*
X103084285Y-90225714D01*
X102893809Y-90178095D01*
X102512857Y-90178095D01*
X102417619Y-90225714D01*
X102370000Y-90273333D01*
X102322380Y-90368571D01*
X102322380Y-90559047D01*
X102370000Y-90654285D01*
X102417619Y-90701904D01*
X102512857Y-90749523D01*
X102750952Y-90749523D01*
X102846190Y-90701904D01*
X102893809Y-90654285D01*
X102941428Y-90559047D01*
X102941428Y-90368571D01*
X102893809Y-90273333D01*
X102846190Y-90225714D01*
X102750952Y-90178095D01*
%TO.C,T4*%
X55967380Y-101091904D02*
X55967380Y-100520476D01*
X56967380Y-100806190D02*
X55967380Y-100806190D01*
X56300714Y-99758571D02*
X56967380Y-99758571D01*
X55919761Y-99996666D02*
X56634047Y-100234761D01*
X56634047Y-99615714D01*
%TO.C,T7*%
X71207380Y-101091904D02*
X71207380Y-100520476D01*
X72207380Y-100806190D02*
X71207380Y-100806190D01*
X71207380Y-100282380D02*
X71207380Y-99615714D01*
X72207380Y-100044285D01*
%TO.C,H0*%
X66548095Y-56332380D02*
X66548095Y-55332380D01*
X66548095Y-55808571D02*
X67119523Y-55808571D01*
X67119523Y-56332380D02*
X67119523Y-55332380D01*
X67786190Y-55332380D02*
X67881428Y-55332380D01*
X67976666Y-55380000D01*
X68024285Y-55427619D01*
X68071904Y-55522857D01*
X68119523Y-55713333D01*
X68119523Y-55951428D01*
X68071904Y-56141904D01*
X68024285Y-56237142D01*
X67976666Y-56284761D01*
X67881428Y-56332380D01*
X67786190Y-56332380D01*
X67690952Y-56284761D01*
X67643333Y-56237142D01*
X67595714Y-56141904D01*
X67548095Y-55951428D01*
X67548095Y-55713333D01*
X67595714Y-55522857D01*
X67643333Y-55427619D01*
X67690952Y-55380000D01*
X67786190Y-55332380D01*
%TO.C,R30*%
X108402380Y-92082857D02*
X107926190Y-92416190D01*
X108402380Y-92654285D02*
X107402380Y-92654285D01*
X107402380Y-92273333D01*
X107450000Y-92178095D01*
X107497619Y-92130476D01*
X107592857Y-92082857D01*
X107735714Y-92082857D01*
X107830952Y-92130476D01*
X107878571Y-92178095D01*
X107926190Y-92273333D01*
X107926190Y-92654285D01*
X107402380Y-91749523D02*
X107402380Y-91130476D01*
X107783333Y-91463809D01*
X107783333Y-91320952D01*
X107830952Y-91225714D01*
X107878571Y-91178095D01*
X107973809Y-91130476D01*
X108211904Y-91130476D01*
X108307142Y-91178095D01*
X108354761Y-91225714D01*
X108402380Y-91320952D01*
X108402380Y-91606666D01*
X108354761Y-91701904D01*
X108307142Y-91749523D01*
X107402380Y-90511428D02*
X107402380Y-90416190D01*
X107450000Y-90320952D01*
X107497619Y-90273333D01*
X107592857Y-90225714D01*
X107783333Y-90178095D01*
X108021428Y-90178095D01*
X108211904Y-90225714D01*
X108307142Y-90273333D01*
X108354761Y-90320952D01*
X108402380Y-90416190D01*
X108402380Y-90511428D01*
X108354761Y-90606666D01*
X108307142Y-90654285D01*
X108211904Y-90701904D01*
X108021428Y-90749523D01*
X107783333Y-90749523D01*
X107592857Y-90701904D01*
X107497619Y-90654285D01*
X107450000Y-90606666D01*
X107402380Y-90511428D01*
%TO.C,C15*%
X115927142Y-93352857D02*
X115974761Y-93400476D01*
X116022380Y-93543333D01*
X116022380Y-93638571D01*
X115974761Y-93781428D01*
X115879523Y-93876666D01*
X115784285Y-93924285D01*
X115593809Y-93971904D01*
X115450952Y-93971904D01*
X115260476Y-93924285D01*
X115165238Y-93876666D01*
X115070000Y-93781428D01*
X115022380Y-93638571D01*
X115022380Y-93543333D01*
X115070000Y-93400476D01*
X115117619Y-93352857D01*
X116022380Y-92400476D02*
X116022380Y-92971904D01*
X116022380Y-92686190D02*
X115022380Y-92686190D01*
X115165238Y-92781428D01*
X115260476Y-92876666D01*
X115308095Y-92971904D01*
X115022380Y-91495714D02*
X115022380Y-91971904D01*
X115498571Y-92019523D01*
X115450952Y-91971904D01*
X115403333Y-91876666D01*
X115403333Y-91638571D01*
X115450952Y-91543333D01*
X115498571Y-91495714D01*
X115593809Y-91448095D01*
X115831904Y-91448095D01*
X115927142Y-91495714D01*
X115974761Y-91543333D01*
X116022380Y-91638571D01*
X116022380Y-91876666D01*
X115974761Y-91971904D01*
X115927142Y-92019523D01*
%TO.C,R17*%
X42362380Y-92082857D02*
X41886190Y-92416190D01*
X42362380Y-92654285D02*
X41362380Y-92654285D01*
X41362380Y-92273333D01*
X41410000Y-92178095D01*
X41457619Y-92130476D01*
X41552857Y-92082857D01*
X41695714Y-92082857D01*
X41790952Y-92130476D01*
X41838571Y-92178095D01*
X41886190Y-92273333D01*
X41886190Y-92654285D01*
X42362380Y-91130476D02*
X42362380Y-91701904D01*
X42362380Y-91416190D02*
X41362380Y-91416190D01*
X41505238Y-91511428D01*
X41600476Y-91606666D01*
X41648095Y-91701904D01*
X41362380Y-90797142D02*
X41362380Y-90130476D01*
X42362380Y-90559047D01*
%TO.C,C12*%
X100687142Y-93352857D02*
X100734761Y-93400476D01*
X100782380Y-93543333D01*
X100782380Y-93638571D01*
X100734761Y-93781428D01*
X100639523Y-93876666D01*
X100544285Y-93924285D01*
X100353809Y-93971904D01*
X100210952Y-93971904D01*
X100020476Y-93924285D01*
X99925238Y-93876666D01*
X99830000Y-93781428D01*
X99782380Y-93638571D01*
X99782380Y-93543333D01*
X99830000Y-93400476D01*
X99877619Y-93352857D01*
X100782380Y-92400476D02*
X100782380Y-92971904D01*
X100782380Y-92686190D02*
X99782380Y-92686190D01*
X99925238Y-92781428D01*
X100020476Y-92876666D01*
X100068095Y-92971904D01*
X99877619Y-92019523D02*
X99830000Y-91971904D01*
X99782380Y-91876666D01*
X99782380Y-91638571D01*
X99830000Y-91543333D01*
X99877619Y-91495714D01*
X99972857Y-91448095D01*
X100068095Y-91448095D01*
X100210952Y-91495714D01*
X100782380Y-92067142D01*
X100782380Y-91448095D01*
%TO.C,R2*%
X47442380Y-81446666D02*
X46966190Y-81780000D01*
X47442380Y-82018095D02*
X46442380Y-82018095D01*
X46442380Y-81637142D01*
X46490000Y-81541904D01*
X46537619Y-81494285D01*
X46632857Y-81446666D01*
X46775714Y-81446666D01*
X46870952Y-81494285D01*
X46918571Y-81541904D01*
X46966190Y-81637142D01*
X46966190Y-82018095D01*
X46537619Y-81065714D02*
X46490000Y-81018095D01*
X46442380Y-80922857D01*
X46442380Y-80684761D01*
X46490000Y-80589523D01*
X46537619Y-80541904D01*
X46632857Y-80494285D01*
X46728095Y-80494285D01*
X46870952Y-80541904D01*
X47442380Y-81113333D01*
X47442380Y-80494285D01*
%TO.C,T13*%
X101687380Y-101568095D02*
X101687380Y-100996666D01*
X102687380Y-101282380D02*
X101687380Y-101282380D01*
X102687380Y-100139523D02*
X102687380Y-100710952D01*
X102687380Y-100425238D02*
X101687380Y-100425238D01*
X101830238Y-100520476D01*
X101925476Y-100615714D01*
X101973095Y-100710952D01*
X101687380Y-99806190D02*
X101687380Y-99187142D01*
X102068333Y-99520476D01*
X102068333Y-99377619D01*
X102115952Y-99282380D01*
X102163571Y-99234761D01*
X102258809Y-99187142D01*
X102496904Y-99187142D01*
X102592142Y-99234761D01*
X102639761Y-99282380D01*
X102687380Y-99377619D01*
X102687380Y-99663333D01*
X102639761Y-99758571D01*
X102592142Y-99806190D01*
%TO.C,D12*%
X99115714Y-83002380D02*
X99115714Y-82002380D01*
X99353809Y-82002380D01*
X99496666Y-82050000D01*
X99591904Y-82145238D01*
X99639523Y-82240476D01*
X99687142Y-82430952D01*
X99687142Y-82573809D01*
X99639523Y-82764285D01*
X99591904Y-82859523D01*
X99496666Y-82954761D01*
X99353809Y-83002380D01*
X99115714Y-83002380D01*
X100639523Y-83002380D02*
X100068095Y-83002380D01*
X100353809Y-83002380D02*
X100353809Y-82002380D01*
X100258571Y-82145238D01*
X100163333Y-82240476D01*
X100068095Y-82288095D01*
X101020476Y-82097619D02*
X101068095Y-82050000D01*
X101163333Y-82002380D01*
X101401428Y-82002380D01*
X101496666Y-82050000D01*
X101544285Y-82097619D01*
X101591904Y-82192857D01*
X101591904Y-82288095D01*
X101544285Y-82430952D01*
X100972857Y-83002380D01*
X101591904Y-83002380D01*
%TO.C,D13*%
X104195714Y-83002380D02*
X104195714Y-82002380D01*
X104433809Y-82002380D01*
X104576666Y-82050000D01*
X104671904Y-82145238D01*
X104719523Y-82240476D01*
X104767142Y-82430952D01*
X104767142Y-82573809D01*
X104719523Y-82764285D01*
X104671904Y-82859523D01*
X104576666Y-82954761D01*
X104433809Y-83002380D01*
X104195714Y-83002380D01*
X105719523Y-83002380D02*
X105148095Y-83002380D01*
X105433809Y-83002380D02*
X105433809Y-82002380D01*
X105338571Y-82145238D01*
X105243333Y-82240476D01*
X105148095Y-82288095D01*
X106052857Y-82002380D02*
X106671904Y-82002380D01*
X106338571Y-82383333D01*
X106481428Y-82383333D01*
X106576666Y-82430952D01*
X106624285Y-82478571D01*
X106671904Y-82573809D01*
X106671904Y-82811904D01*
X106624285Y-82907142D01*
X106576666Y-82954761D01*
X106481428Y-83002380D01*
X106195714Y-83002380D01*
X106100476Y-82954761D01*
X106052857Y-82907142D01*
%TO.C,T9*%
X81367380Y-101091904D02*
X81367380Y-100520476D01*
X82367380Y-100806190D02*
X81367380Y-100806190D01*
X82367380Y-100139523D02*
X82367380Y-99949047D01*
X82319761Y-99853809D01*
X82272142Y-99806190D01*
X82129285Y-99710952D01*
X81938809Y-99663333D01*
X81557857Y-99663333D01*
X81462619Y-99710952D01*
X81415000Y-99758571D01*
X81367380Y-99853809D01*
X81367380Y-100044285D01*
X81415000Y-100139523D01*
X81462619Y-100187142D01*
X81557857Y-100234761D01*
X81795952Y-100234761D01*
X81891190Y-100187142D01*
X81938809Y-100139523D01*
X81986428Y-100044285D01*
X81986428Y-99853809D01*
X81938809Y-99758571D01*
X81891190Y-99710952D01*
X81795952Y-99663333D01*
%TO.C,R26*%
X88082380Y-92082857D02*
X87606190Y-92416190D01*
X88082380Y-92654285D02*
X87082380Y-92654285D01*
X87082380Y-92273333D01*
X87130000Y-92178095D01*
X87177619Y-92130476D01*
X87272857Y-92082857D01*
X87415714Y-92082857D01*
X87510952Y-92130476D01*
X87558571Y-92178095D01*
X87606190Y-92273333D01*
X87606190Y-92654285D01*
X87177619Y-91701904D02*
X87130000Y-91654285D01*
X87082380Y-91559047D01*
X87082380Y-91320952D01*
X87130000Y-91225714D01*
X87177619Y-91178095D01*
X87272857Y-91130476D01*
X87368095Y-91130476D01*
X87510952Y-91178095D01*
X88082380Y-91749523D01*
X88082380Y-91130476D01*
X87082380Y-90273333D02*
X87082380Y-90463809D01*
X87130000Y-90559047D01*
X87177619Y-90606666D01*
X87320476Y-90701904D01*
X87510952Y-90749523D01*
X87891904Y-90749523D01*
X87987142Y-90701904D01*
X88034761Y-90654285D01*
X88082380Y-90559047D01*
X88082380Y-90368571D01*
X88034761Y-90273333D01*
X87987142Y-90225714D01*
X87891904Y-90178095D01*
X87653809Y-90178095D01*
X87558571Y-90225714D01*
X87510952Y-90273333D01*
X87463333Y-90368571D01*
X87463333Y-90559047D01*
X87510952Y-90654285D01*
X87558571Y-90701904D01*
X87653809Y-90749523D01*
%TO.C,T2*%
X45807380Y-101091904D02*
X45807380Y-100520476D01*
X46807380Y-100806190D02*
X45807380Y-100806190D01*
X45902619Y-100234761D02*
X45855000Y-100187142D01*
X45807380Y-100091904D01*
X45807380Y-99853809D01*
X45855000Y-99758571D01*
X45902619Y-99710952D01*
X45997857Y-99663333D01*
X46093095Y-99663333D01*
X46235952Y-99710952D01*
X46807380Y-100282380D01*
X46807380Y-99663333D01*
%TO.C,R23*%
X72842380Y-92082857D02*
X72366190Y-92416190D01*
X72842380Y-92654285D02*
X71842380Y-92654285D01*
X71842380Y-92273333D01*
X71890000Y-92178095D01*
X71937619Y-92130476D01*
X72032857Y-92082857D01*
X72175714Y-92082857D01*
X72270952Y-92130476D01*
X72318571Y-92178095D01*
X72366190Y-92273333D01*
X72366190Y-92654285D01*
X71937619Y-91701904D02*
X71890000Y-91654285D01*
X71842380Y-91559047D01*
X71842380Y-91320952D01*
X71890000Y-91225714D01*
X71937619Y-91178095D01*
X72032857Y-91130476D01*
X72128095Y-91130476D01*
X72270952Y-91178095D01*
X72842380Y-91749523D01*
X72842380Y-91130476D01*
X71842380Y-90797142D02*
X71842380Y-90178095D01*
X72223333Y-90511428D01*
X72223333Y-90368571D01*
X72270952Y-90273333D01*
X72318571Y-90225714D01*
X72413809Y-90178095D01*
X72651904Y-90178095D01*
X72747142Y-90225714D01*
X72794761Y-90273333D01*
X72842380Y-90368571D01*
X72842380Y-90654285D01*
X72794761Y-90749523D01*
X72747142Y-90797142D01*
%TO.C,T11*%
X91527380Y-101568095D02*
X91527380Y-100996666D01*
X92527380Y-101282380D02*
X91527380Y-101282380D01*
X92527380Y-100139523D02*
X92527380Y-100710952D01*
X92527380Y-100425238D02*
X91527380Y-100425238D01*
X91670238Y-100520476D01*
X91765476Y-100615714D01*
X91813095Y-100710952D01*
X92527380Y-99187142D02*
X92527380Y-99758571D01*
X92527380Y-99472857D02*
X91527380Y-99472857D01*
X91670238Y-99568095D01*
X91765476Y-99663333D01*
X91813095Y-99758571D01*
%TO.C,R16*%
X37282380Y-92082857D02*
X36806190Y-92416190D01*
X37282380Y-92654285D02*
X36282380Y-92654285D01*
X36282380Y-92273333D01*
X36330000Y-92178095D01*
X36377619Y-92130476D01*
X36472857Y-92082857D01*
X36615714Y-92082857D01*
X36710952Y-92130476D01*
X36758571Y-92178095D01*
X36806190Y-92273333D01*
X36806190Y-92654285D01*
X37282380Y-91130476D02*
X37282380Y-91701904D01*
X37282380Y-91416190D02*
X36282380Y-91416190D01*
X36425238Y-91511428D01*
X36520476Y-91606666D01*
X36568095Y-91701904D01*
X36282380Y-90273333D02*
X36282380Y-90463809D01*
X36330000Y-90559047D01*
X36377619Y-90606666D01*
X36520476Y-90701904D01*
X36710952Y-90749523D01*
X37091904Y-90749523D01*
X37187142Y-90701904D01*
X37234761Y-90654285D01*
X37282380Y-90559047D01*
X37282380Y-90368571D01*
X37234761Y-90273333D01*
X37187142Y-90225714D01*
X37091904Y-90178095D01*
X36853809Y-90178095D01*
X36758571Y-90225714D01*
X36710952Y-90273333D01*
X36663333Y-90368571D01*
X36663333Y-90559047D01*
X36710952Y-90654285D01*
X36758571Y-90701904D01*
X36853809Y-90749523D01*
%TO.C,C14*%
X110847142Y-93352857D02*
X110894761Y-93400476D01*
X110942380Y-93543333D01*
X110942380Y-93638571D01*
X110894761Y-93781428D01*
X110799523Y-93876666D01*
X110704285Y-93924285D01*
X110513809Y-93971904D01*
X110370952Y-93971904D01*
X110180476Y-93924285D01*
X110085238Y-93876666D01*
X109990000Y-93781428D01*
X109942380Y-93638571D01*
X109942380Y-93543333D01*
X109990000Y-93400476D01*
X110037619Y-93352857D01*
X110942380Y-92400476D02*
X110942380Y-92971904D01*
X110942380Y-92686190D02*
X109942380Y-92686190D01*
X110085238Y-92781428D01*
X110180476Y-92876666D01*
X110228095Y-92971904D01*
X110275714Y-91543333D02*
X110942380Y-91543333D01*
X109894761Y-91781428D02*
X110609047Y-92019523D01*
X110609047Y-91400476D01*
%TO.C,D8*%
X79271904Y-83002380D02*
X79271904Y-82002380D01*
X79510000Y-82002380D01*
X79652857Y-82050000D01*
X79748095Y-82145238D01*
X79795714Y-82240476D01*
X79843333Y-82430952D01*
X79843333Y-82573809D01*
X79795714Y-82764285D01*
X79748095Y-82859523D01*
X79652857Y-82954761D01*
X79510000Y-83002380D01*
X79271904Y-83002380D01*
X80414761Y-82430952D02*
X80319523Y-82383333D01*
X80271904Y-82335714D01*
X80224285Y-82240476D01*
X80224285Y-82192857D01*
X80271904Y-82097619D01*
X80319523Y-82050000D01*
X80414761Y-82002380D01*
X80605238Y-82002380D01*
X80700476Y-82050000D01*
X80748095Y-82097619D01*
X80795714Y-82192857D01*
X80795714Y-82240476D01*
X80748095Y-82335714D01*
X80700476Y-82383333D01*
X80605238Y-82430952D01*
X80414761Y-82430952D01*
X80319523Y-82478571D01*
X80271904Y-82526190D01*
X80224285Y-82621428D01*
X80224285Y-82811904D01*
X80271904Y-82907142D01*
X80319523Y-82954761D01*
X80414761Y-83002380D01*
X80605238Y-83002380D01*
X80700476Y-82954761D01*
X80748095Y-82907142D01*
X80795714Y-82811904D01*
X80795714Y-82621428D01*
X80748095Y-82526190D01*
X80700476Y-82478571D01*
X80605238Y-82430952D01*
%TO.C,T3*%
X50887380Y-101091904D02*
X50887380Y-100520476D01*
X51887380Y-100806190D02*
X50887380Y-100806190D01*
X50887380Y-100282380D02*
X50887380Y-99663333D01*
X51268333Y-99996666D01*
X51268333Y-99853809D01*
X51315952Y-99758571D01*
X51363571Y-99710952D01*
X51458809Y-99663333D01*
X51696904Y-99663333D01*
X51792142Y-99710952D01*
X51839761Y-99758571D01*
X51887380Y-99853809D01*
X51887380Y-100139523D01*
X51839761Y-100234761D01*
X51792142Y-100282380D01*
%TO.C,D2*%
X48791904Y-83002380D02*
X48791904Y-82002380D01*
X49030000Y-82002380D01*
X49172857Y-82050000D01*
X49268095Y-82145238D01*
X49315714Y-82240476D01*
X49363333Y-82430952D01*
X49363333Y-82573809D01*
X49315714Y-82764285D01*
X49268095Y-82859523D01*
X49172857Y-82954761D01*
X49030000Y-83002380D01*
X48791904Y-83002380D01*
X49744285Y-82097619D02*
X49791904Y-82050000D01*
X49887142Y-82002380D01*
X50125238Y-82002380D01*
X50220476Y-82050000D01*
X50268095Y-82097619D01*
X50315714Y-82192857D01*
X50315714Y-82288095D01*
X50268095Y-82430952D01*
X49696666Y-83002380D01*
X50315714Y-83002380D01*
%TO.C,T15*%
X111847380Y-101568095D02*
X111847380Y-100996666D01*
X112847380Y-101282380D02*
X111847380Y-101282380D01*
X112847380Y-100139523D02*
X112847380Y-100710952D01*
X112847380Y-100425238D02*
X111847380Y-100425238D01*
X111990238Y-100520476D01*
X112085476Y-100615714D01*
X112133095Y-100710952D01*
X111847380Y-99234761D02*
X111847380Y-99710952D01*
X112323571Y-99758571D01*
X112275952Y-99710952D01*
X112228333Y-99615714D01*
X112228333Y-99377619D01*
X112275952Y-99282380D01*
X112323571Y-99234761D01*
X112418809Y-99187142D01*
X112656904Y-99187142D01*
X112752142Y-99234761D01*
X112799761Y-99282380D01*
X112847380Y-99377619D01*
X112847380Y-99615714D01*
X112799761Y-99710952D01*
X112752142Y-99758571D01*
%TO.C,C17*%
X99417142Y-118752857D02*
X99464761Y-118800476D01*
X99512380Y-118943333D01*
X99512380Y-119038571D01*
X99464761Y-119181428D01*
X99369523Y-119276666D01*
X99274285Y-119324285D01*
X99083809Y-119371904D01*
X98940952Y-119371904D01*
X98750476Y-119324285D01*
X98655238Y-119276666D01*
X98560000Y-119181428D01*
X98512380Y-119038571D01*
X98512380Y-118943333D01*
X98560000Y-118800476D01*
X98607619Y-118752857D01*
X99512380Y-117800476D02*
X99512380Y-118371904D01*
X99512380Y-118086190D02*
X98512380Y-118086190D01*
X98655238Y-118181428D01*
X98750476Y-118276666D01*
X98798095Y-118371904D01*
X98512380Y-117467142D02*
X98512380Y-116800476D01*
X99512380Y-117229047D01*
%TO.C,T14*%
X106767380Y-101568095D02*
X106767380Y-100996666D01*
X107767380Y-101282380D02*
X106767380Y-101282380D01*
X107767380Y-100139523D02*
X107767380Y-100710952D01*
X107767380Y-100425238D02*
X106767380Y-100425238D01*
X106910238Y-100520476D01*
X107005476Y-100615714D01*
X107053095Y-100710952D01*
X107100714Y-99282380D02*
X107767380Y-99282380D01*
X106719761Y-99520476D02*
X107434047Y-99758571D01*
X107434047Y-99139523D01*
%TO.C,R8*%
X77922380Y-81446666D02*
X77446190Y-81780000D01*
X77922380Y-82018095D02*
X76922380Y-82018095D01*
X76922380Y-81637142D01*
X76970000Y-81541904D01*
X77017619Y-81494285D01*
X77112857Y-81446666D01*
X77255714Y-81446666D01*
X77350952Y-81494285D01*
X77398571Y-81541904D01*
X77446190Y-81637142D01*
X77446190Y-82018095D01*
X77350952Y-80875238D02*
X77303333Y-80970476D01*
X77255714Y-81018095D01*
X77160476Y-81065714D01*
X77112857Y-81065714D01*
X77017619Y-81018095D01*
X76970000Y-80970476D01*
X76922380Y-80875238D01*
X76922380Y-80684761D01*
X76970000Y-80589523D01*
X77017619Y-80541904D01*
X77112857Y-80494285D01*
X77160476Y-80494285D01*
X77255714Y-80541904D01*
X77303333Y-80589523D01*
X77350952Y-80684761D01*
X77350952Y-80875238D01*
X77398571Y-80970476D01*
X77446190Y-81018095D01*
X77541428Y-81065714D01*
X77731904Y-81065714D01*
X77827142Y-81018095D01*
X77874761Y-80970476D01*
X77922380Y-80875238D01*
X77922380Y-80684761D01*
X77874761Y-80589523D01*
X77827142Y-80541904D01*
X77731904Y-80494285D01*
X77541428Y-80494285D01*
X77446190Y-80541904D01*
X77398571Y-80589523D01*
X77350952Y-80684761D01*
%TO.C,R6*%
X67762380Y-81446666D02*
X67286190Y-81780000D01*
X67762380Y-82018095D02*
X66762380Y-82018095D01*
X66762380Y-81637142D01*
X66810000Y-81541904D01*
X66857619Y-81494285D01*
X66952857Y-81446666D01*
X67095714Y-81446666D01*
X67190952Y-81494285D01*
X67238571Y-81541904D01*
X67286190Y-81637142D01*
X67286190Y-82018095D01*
X66762380Y-80589523D02*
X66762380Y-80780000D01*
X66810000Y-80875238D01*
X66857619Y-80922857D01*
X67000476Y-81018095D01*
X67190952Y-81065714D01*
X67571904Y-81065714D01*
X67667142Y-81018095D01*
X67714761Y-80970476D01*
X67762380Y-80875238D01*
X67762380Y-80684761D01*
X67714761Y-80589523D01*
X67667142Y-80541904D01*
X67571904Y-80494285D01*
X67333809Y-80494285D01*
X67238571Y-80541904D01*
X67190952Y-80589523D01*
X67143333Y-80684761D01*
X67143333Y-80875238D01*
X67190952Y-80970476D01*
X67238571Y-81018095D01*
X67333809Y-81065714D01*
%TO.C,R27*%
X93162380Y-92082857D02*
X92686190Y-92416190D01*
X93162380Y-92654285D02*
X92162380Y-92654285D01*
X92162380Y-92273333D01*
X92210000Y-92178095D01*
X92257619Y-92130476D01*
X92352857Y-92082857D01*
X92495714Y-92082857D01*
X92590952Y-92130476D01*
X92638571Y-92178095D01*
X92686190Y-92273333D01*
X92686190Y-92654285D01*
X92257619Y-91701904D02*
X92210000Y-91654285D01*
X92162380Y-91559047D01*
X92162380Y-91320952D01*
X92210000Y-91225714D01*
X92257619Y-91178095D01*
X92352857Y-91130476D01*
X92448095Y-91130476D01*
X92590952Y-91178095D01*
X93162380Y-91749523D01*
X93162380Y-91130476D01*
X92162380Y-90797142D02*
X92162380Y-90130476D01*
X93162380Y-90559047D01*
%TO.C,R12*%
X98242380Y-81922857D02*
X97766190Y-82256190D01*
X98242380Y-82494285D02*
X97242380Y-82494285D01*
X97242380Y-82113333D01*
X97290000Y-82018095D01*
X97337619Y-81970476D01*
X97432857Y-81922857D01*
X97575714Y-81922857D01*
X97670952Y-81970476D01*
X97718571Y-82018095D01*
X97766190Y-82113333D01*
X97766190Y-82494285D01*
X98242380Y-80970476D02*
X98242380Y-81541904D01*
X98242380Y-81256190D02*
X97242380Y-81256190D01*
X97385238Y-81351428D01*
X97480476Y-81446666D01*
X97528095Y-81541904D01*
X97337619Y-80589523D02*
X97290000Y-80541904D01*
X97242380Y-80446666D01*
X97242380Y-80208571D01*
X97290000Y-80113333D01*
X97337619Y-80065714D01*
X97432857Y-80018095D01*
X97528095Y-80018095D01*
X97670952Y-80065714D01*
X98242380Y-80637142D01*
X98242380Y-80018095D01*
%TO.C,C7*%
X74763333Y-93067142D02*
X74715714Y-93114761D01*
X74572857Y-93162380D01*
X74477619Y-93162380D01*
X74334761Y-93114761D01*
X74239523Y-93019523D01*
X74191904Y-92924285D01*
X74144285Y-92733809D01*
X74144285Y-92590952D01*
X74191904Y-92400476D01*
X74239523Y-92305238D01*
X74334761Y-92210000D01*
X74477619Y-92162380D01*
X74572857Y-92162380D01*
X74715714Y-92210000D01*
X74763333Y-92257619D01*
X75096666Y-92162380D02*
X75763333Y-92162380D01*
X75334761Y-93162380D01*
%TO.C,C0*%
X39203333Y-93067142D02*
X39155714Y-93114761D01*
X39012857Y-93162380D01*
X38917619Y-93162380D01*
X38774761Y-93114761D01*
X38679523Y-93019523D01*
X38631904Y-92924285D01*
X38584285Y-92733809D01*
X38584285Y-92590952D01*
X38631904Y-92400476D01*
X38679523Y-92305238D01*
X38774761Y-92210000D01*
X38917619Y-92162380D01*
X39012857Y-92162380D01*
X39155714Y-92210000D01*
X39203333Y-92257619D01*
X39822380Y-92162380D02*
X39917619Y-92162380D01*
X40012857Y-92210000D01*
X40060476Y-92257619D01*
X40108095Y-92352857D01*
X40155714Y-92543333D01*
X40155714Y-92781428D01*
X40108095Y-92971904D01*
X40060476Y-93067142D01*
X40012857Y-93114761D01*
X39917619Y-93162380D01*
X39822380Y-93162380D01*
X39727142Y-93114761D01*
X39679523Y-93067142D01*
X39631904Y-92971904D01*
X39584285Y-92781428D01*
X39584285Y-92543333D01*
X39631904Y-92352857D01*
X39679523Y-92257619D01*
X39727142Y-92210000D01*
X39822380Y-92162380D01*
%TO.C,C1*%
X44283333Y-93067142D02*
X44235714Y-93114761D01*
X44092857Y-93162380D01*
X43997619Y-93162380D01*
X43854761Y-93114761D01*
X43759523Y-93019523D01*
X43711904Y-92924285D01*
X43664285Y-92733809D01*
X43664285Y-92590952D01*
X43711904Y-92400476D01*
X43759523Y-92305238D01*
X43854761Y-92210000D01*
X43997619Y-92162380D01*
X44092857Y-92162380D01*
X44235714Y-92210000D01*
X44283333Y-92257619D01*
X45235714Y-93162380D02*
X44664285Y-93162380D01*
X44950000Y-93162380D02*
X44950000Y-92162380D01*
X44854761Y-92305238D01*
X44759523Y-92400476D01*
X44664285Y-92448095D01*
%TO.C,C10*%
X90527142Y-93352857D02*
X90574761Y-93400476D01*
X90622380Y-93543333D01*
X90622380Y-93638571D01*
X90574761Y-93781428D01*
X90479523Y-93876666D01*
X90384285Y-93924285D01*
X90193809Y-93971904D01*
X90050952Y-93971904D01*
X89860476Y-93924285D01*
X89765238Y-93876666D01*
X89670000Y-93781428D01*
X89622380Y-93638571D01*
X89622380Y-93543333D01*
X89670000Y-93400476D01*
X89717619Y-93352857D01*
X90622380Y-92400476D02*
X90622380Y-92971904D01*
X90622380Y-92686190D02*
X89622380Y-92686190D01*
X89765238Y-92781428D01*
X89860476Y-92876666D01*
X89908095Y-92971904D01*
X89622380Y-91781428D02*
X89622380Y-91686190D01*
X89670000Y-91590952D01*
X89717619Y-91543333D01*
X89812857Y-91495714D01*
X90003333Y-91448095D01*
X90241428Y-91448095D01*
X90431904Y-91495714D01*
X90527142Y-91543333D01*
X90574761Y-91590952D01*
X90622380Y-91686190D01*
X90622380Y-91781428D01*
X90574761Y-91876666D01*
X90527142Y-91924285D01*
X90431904Y-91971904D01*
X90241428Y-92019523D01*
X90003333Y-92019523D01*
X89812857Y-91971904D01*
X89717619Y-91924285D01*
X89670000Y-91876666D01*
X89622380Y-91781428D01*
%TO.C,IC0*%
X63952380Y-119086190D02*
X62952380Y-119086190D01*
X63857142Y-118038571D02*
X63904761Y-118086190D01*
X63952380Y-118229047D01*
X63952380Y-118324285D01*
X63904761Y-118467142D01*
X63809523Y-118562380D01*
X63714285Y-118610000D01*
X63523809Y-118657619D01*
X63380952Y-118657619D01*
X63190476Y-118610000D01*
X63095238Y-118562380D01*
X63000000Y-118467142D01*
X62952380Y-118324285D01*
X62952380Y-118229047D01*
X63000000Y-118086190D01*
X63047619Y-118038571D01*
X62952380Y-117419523D02*
X62952380Y-117324285D01*
X63000000Y-117229047D01*
X63047619Y-117181428D01*
X63142857Y-117133809D01*
X63333333Y-117086190D01*
X63571428Y-117086190D01*
X63761904Y-117133809D01*
X63857142Y-117181428D01*
X63904761Y-117229047D01*
X63952380Y-117324285D01*
X63952380Y-117419523D01*
X63904761Y-117514761D01*
X63857142Y-117562380D01*
X63761904Y-117610000D01*
X63571428Y-117657619D01*
X63333333Y-117657619D01*
X63142857Y-117610000D01*
X63047619Y-117562380D01*
X63000000Y-117514761D01*
X62952380Y-117419523D01*
%TO.C,C8*%
X79843333Y-93067142D02*
X79795714Y-93114761D01*
X79652857Y-93162380D01*
X79557619Y-93162380D01*
X79414761Y-93114761D01*
X79319523Y-93019523D01*
X79271904Y-92924285D01*
X79224285Y-92733809D01*
X79224285Y-92590952D01*
X79271904Y-92400476D01*
X79319523Y-92305238D01*
X79414761Y-92210000D01*
X79557619Y-92162380D01*
X79652857Y-92162380D01*
X79795714Y-92210000D01*
X79843333Y-92257619D01*
X80414761Y-92590952D02*
X80319523Y-92543333D01*
X80271904Y-92495714D01*
X80224285Y-92400476D01*
X80224285Y-92352857D01*
X80271904Y-92257619D01*
X80319523Y-92210000D01*
X80414761Y-92162380D01*
X80605238Y-92162380D01*
X80700476Y-92210000D01*
X80748095Y-92257619D01*
X80795714Y-92352857D01*
X80795714Y-92400476D01*
X80748095Y-92495714D01*
X80700476Y-92543333D01*
X80605238Y-92590952D01*
X80414761Y-92590952D01*
X80319523Y-92638571D01*
X80271904Y-92686190D01*
X80224285Y-92781428D01*
X80224285Y-92971904D01*
X80271904Y-93067142D01*
X80319523Y-93114761D01*
X80414761Y-93162380D01*
X80605238Y-93162380D01*
X80700476Y-93114761D01*
X80748095Y-93067142D01*
X80795714Y-92971904D01*
X80795714Y-92781428D01*
X80748095Y-92686190D01*
X80700476Y-92638571D01*
X80605238Y-92590952D01*
%TO.C,R19*%
X52522380Y-92082857D02*
X52046190Y-92416190D01*
X52522380Y-92654285D02*
X51522380Y-92654285D01*
X51522380Y-92273333D01*
X51570000Y-92178095D01*
X51617619Y-92130476D01*
X51712857Y-92082857D01*
X51855714Y-92082857D01*
X51950952Y-92130476D01*
X51998571Y-92178095D01*
X52046190Y-92273333D01*
X52046190Y-92654285D01*
X52522380Y-91130476D02*
X52522380Y-91701904D01*
X52522380Y-91416190D02*
X51522380Y-91416190D01*
X51665238Y-91511428D01*
X51760476Y-91606666D01*
X51808095Y-91701904D01*
X52522380Y-90654285D02*
X52522380Y-90463809D01*
X52474761Y-90368571D01*
X52427142Y-90320952D01*
X52284285Y-90225714D01*
X52093809Y-90178095D01*
X51712857Y-90178095D01*
X51617619Y-90225714D01*
X51570000Y-90273333D01*
X51522380Y-90368571D01*
X51522380Y-90559047D01*
X51570000Y-90654285D01*
X51617619Y-90701904D01*
X51712857Y-90749523D01*
X51950952Y-90749523D01*
X52046190Y-90701904D01*
X52093809Y-90654285D01*
X52141428Y-90559047D01*
X52141428Y-90368571D01*
X52093809Y-90273333D01*
X52046190Y-90225714D01*
X51950952Y-90178095D01*
%TO.C,D14*%
X109275714Y-83002380D02*
X109275714Y-82002380D01*
X109513809Y-82002380D01*
X109656666Y-82050000D01*
X109751904Y-82145238D01*
X109799523Y-82240476D01*
X109847142Y-82430952D01*
X109847142Y-82573809D01*
X109799523Y-82764285D01*
X109751904Y-82859523D01*
X109656666Y-82954761D01*
X109513809Y-83002380D01*
X109275714Y-83002380D01*
X110799523Y-83002380D02*
X110228095Y-83002380D01*
X110513809Y-83002380D02*
X110513809Y-82002380D01*
X110418571Y-82145238D01*
X110323333Y-82240476D01*
X110228095Y-82288095D01*
X111656666Y-82335714D02*
X111656666Y-83002380D01*
X111418571Y-81954761D02*
X111180476Y-82669047D01*
X111799523Y-82669047D01*
%TO.C,R13*%
X103322380Y-81922857D02*
X102846190Y-82256190D01*
X103322380Y-82494285D02*
X102322380Y-82494285D01*
X102322380Y-82113333D01*
X102370000Y-82018095D01*
X102417619Y-81970476D01*
X102512857Y-81922857D01*
X102655714Y-81922857D01*
X102750952Y-81970476D01*
X102798571Y-82018095D01*
X102846190Y-82113333D01*
X102846190Y-82494285D01*
X103322380Y-80970476D02*
X103322380Y-81541904D01*
X103322380Y-81256190D02*
X102322380Y-81256190D01*
X102465238Y-81351428D01*
X102560476Y-81446666D01*
X102608095Y-81541904D01*
X102322380Y-80637142D02*
X102322380Y-80018095D01*
X102703333Y-80351428D01*
X102703333Y-80208571D01*
X102750952Y-80113333D01*
X102798571Y-80065714D01*
X102893809Y-80018095D01*
X103131904Y-80018095D01*
X103227142Y-80065714D01*
X103274761Y-80113333D01*
X103322380Y-80208571D01*
X103322380Y-80494285D01*
X103274761Y-80589523D01*
X103227142Y-80637142D01*
%TO.C,C3*%
X54443333Y-93067142D02*
X54395714Y-93114761D01*
X54252857Y-93162380D01*
X54157619Y-93162380D01*
X54014761Y-93114761D01*
X53919523Y-93019523D01*
X53871904Y-92924285D01*
X53824285Y-92733809D01*
X53824285Y-92590952D01*
X53871904Y-92400476D01*
X53919523Y-92305238D01*
X54014761Y-92210000D01*
X54157619Y-92162380D01*
X54252857Y-92162380D01*
X54395714Y-92210000D01*
X54443333Y-92257619D01*
X54776666Y-92162380D02*
X55395714Y-92162380D01*
X55062380Y-92543333D01*
X55205238Y-92543333D01*
X55300476Y-92590952D01*
X55348095Y-92638571D01*
X55395714Y-92733809D01*
X55395714Y-92971904D01*
X55348095Y-93067142D01*
X55300476Y-93114761D01*
X55205238Y-93162380D01*
X54919523Y-93162380D01*
X54824285Y-93114761D01*
X54776666Y-93067142D01*
%TO.C,R28*%
X98242380Y-92082857D02*
X97766190Y-92416190D01*
X98242380Y-92654285D02*
X97242380Y-92654285D01*
X97242380Y-92273333D01*
X97290000Y-92178095D01*
X97337619Y-92130476D01*
X97432857Y-92082857D01*
X97575714Y-92082857D01*
X97670952Y-92130476D01*
X97718571Y-92178095D01*
X97766190Y-92273333D01*
X97766190Y-92654285D01*
X97337619Y-91701904D02*
X97290000Y-91654285D01*
X97242380Y-91559047D01*
X97242380Y-91320952D01*
X97290000Y-91225714D01*
X97337619Y-91178095D01*
X97432857Y-91130476D01*
X97528095Y-91130476D01*
X97670952Y-91178095D01*
X98242380Y-91749523D01*
X98242380Y-91130476D01*
X97670952Y-90559047D02*
X97623333Y-90654285D01*
X97575714Y-90701904D01*
X97480476Y-90749523D01*
X97432857Y-90749523D01*
X97337619Y-90701904D01*
X97290000Y-90654285D01*
X97242380Y-90559047D01*
X97242380Y-90368571D01*
X97290000Y-90273333D01*
X97337619Y-90225714D01*
X97432857Y-90178095D01*
X97480476Y-90178095D01*
X97575714Y-90225714D01*
X97623333Y-90273333D01*
X97670952Y-90368571D01*
X97670952Y-90559047D01*
X97718571Y-90654285D01*
X97766190Y-90701904D01*
X97861428Y-90749523D01*
X98051904Y-90749523D01*
X98147142Y-90701904D01*
X98194761Y-90654285D01*
X98242380Y-90559047D01*
X98242380Y-90368571D01*
X98194761Y-90273333D01*
X98147142Y-90225714D01*
X98051904Y-90178095D01*
X97861428Y-90178095D01*
X97766190Y-90225714D01*
X97718571Y-90273333D01*
X97670952Y-90368571D01*
%TO.C,D9*%
X84351904Y-83002380D02*
X84351904Y-82002380D01*
X84590000Y-82002380D01*
X84732857Y-82050000D01*
X84828095Y-82145238D01*
X84875714Y-82240476D01*
X84923333Y-82430952D01*
X84923333Y-82573809D01*
X84875714Y-82764285D01*
X84828095Y-82859523D01*
X84732857Y-82954761D01*
X84590000Y-83002380D01*
X84351904Y-83002380D01*
X85399523Y-83002380D02*
X85590000Y-83002380D01*
X85685238Y-82954761D01*
X85732857Y-82907142D01*
X85828095Y-82764285D01*
X85875714Y-82573809D01*
X85875714Y-82192857D01*
X85828095Y-82097619D01*
X85780476Y-82050000D01*
X85685238Y-82002380D01*
X85494761Y-82002380D01*
X85399523Y-82050000D01*
X85351904Y-82097619D01*
X85304285Y-82192857D01*
X85304285Y-82430952D01*
X85351904Y-82526190D01*
X85399523Y-82573809D01*
X85494761Y-82621428D01*
X85685238Y-82621428D01*
X85780476Y-82573809D01*
X85828095Y-82526190D01*
X85875714Y-82430952D01*
%TO.C,C9*%
X84923333Y-93067142D02*
X84875714Y-93114761D01*
X84732857Y-93162380D01*
X84637619Y-93162380D01*
X84494761Y-93114761D01*
X84399523Y-93019523D01*
X84351904Y-92924285D01*
X84304285Y-92733809D01*
X84304285Y-92590952D01*
X84351904Y-92400476D01*
X84399523Y-92305238D01*
X84494761Y-92210000D01*
X84637619Y-92162380D01*
X84732857Y-92162380D01*
X84875714Y-92210000D01*
X84923333Y-92257619D01*
X85399523Y-93162380D02*
X85590000Y-93162380D01*
X85685238Y-93114761D01*
X85732857Y-93067142D01*
X85828095Y-92924285D01*
X85875714Y-92733809D01*
X85875714Y-92352857D01*
X85828095Y-92257619D01*
X85780476Y-92210000D01*
X85685238Y-92162380D01*
X85494761Y-92162380D01*
X85399523Y-92210000D01*
X85351904Y-92257619D01*
X85304285Y-92352857D01*
X85304285Y-92590952D01*
X85351904Y-92686190D01*
X85399523Y-92733809D01*
X85494761Y-92781428D01*
X85685238Y-92781428D01*
X85780476Y-92733809D01*
X85828095Y-92686190D01*
X85875714Y-92590952D01*
%TO.C,R11*%
X93162380Y-81922857D02*
X92686190Y-82256190D01*
X93162380Y-82494285D02*
X92162380Y-82494285D01*
X92162380Y-82113333D01*
X92210000Y-82018095D01*
X92257619Y-81970476D01*
X92352857Y-81922857D01*
X92495714Y-81922857D01*
X92590952Y-81970476D01*
X92638571Y-82018095D01*
X92686190Y-82113333D01*
X92686190Y-82494285D01*
X93162380Y-80970476D02*
X93162380Y-81541904D01*
X93162380Y-81256190D02*
X92162380Y-81256190D01*
X92305238Y-81351428D01*
X92400476Y-81446666D01*
X92448095Y-81541904D01*
X93162380Y-80018095D02*
X93162380Y-80589523D01*
X93162380Y-80303809D02*
X92162380Y-80303809D01*
X92305238Y-80399047D01*
X92400476Y-80494285D01*
X92448095Y-80589523D01*
%TO.C,D0*%
X38631904Y-83002380D02*
X38631904Y-82002380D01*
X38870000Y-82002380D01*
X39012857Y-82050000D01*
X39108095Y-82145238D01*
X39155714Y-82240476D01*
X39203333Y-82430952D01*
X39203333Y-82573809D01*
X39155714Y-82764285D01*
X39108095Y-82859523D01*
X39012857Y-82954761D01*
X38870000Y-83002380D01*
X38631904Y-83002380D01*
X39822380Y-82002380D02*
X39917619Y-82002380D01*
X40012857Y-82050000D01*
X40060476Y-82097619D01*
X40108095Y-82192857D01*
X40155714Y-82383333D01*
X40155714Y-82621428D01*
X40108095Y-82811904D01*
X40060476Y-82907142D01*
X40012857Y-82954761D01*
X39917619Y-83002380D01*
X39822380Y-83002380D01*
X39727142Y-82954761D01*
X39679523Y-82907142D01*
X39631904Y-82811904D01*
X39584285Y-82621428D01*
X39584285Y-82383333D01*
X39631904Y-82192857D01*
X39679523Y-82097619D01*
X39727142Y-82050000D01*
X39822380Y-82002380D01*
%TO.C,R10*%
X88082380Y-81922857D02*
X87606190Y-82256190D01*
X88082380Y-82494285D02*
X87082380Y-82494285D01*
X87082380Y-82113333D01*
X87130000Y-82018095D01*
X87177619Y-81970476D01*
X87272857Y-81922857D01*
X87415714Y-81922857D01*
X87510952Y-81970476D01*
X87558571Y-82018095D01*
X87606190Y-82113333D01*
X87606190Y-82494285D01*
X88082380Y-80970476D02*
X88082380Y-81541904D01*
X88082380Y-81256190D02*
X87082380Y-81256190D01*
X87225238Y-81351428D01*
X87320476Y-81446666D01*
X87368095Y-81541904D01*
X87082380Y-80351428D02*
X87082380Y-80256190D01*
X87130000Y-80160952D01*
X87177619Y-80113333D01*
X87272857Y-80065714D01*
X87463333Y-80018095D01*
X87701428Y-80018095D01*
X87891904Y-80065714D01*
X87987142Y-80113333D01*
X88034761Y-80160952D01*
X88082380Y-80256190D01*
X88082380Y-80351428D01*
X88034761Y-80446666D01*
X87987142Y-80494285D01*
X87891904Y-80541904D01*
X87701428Y-80589523D01*
X87463333Y-80589523D01*
X87272857Y-80541904D01*
X87177619Y-80494285D01*
X87130000Y-80446666D01*
X87082380Y-80351428D01*
%TO.C,R7*%
X72842380Y-81446666D02*
X72366190Y-81780000D01*
X72842380Y-82018095D02*
X71842380Y-82018095D01*
X71842380Y-81637142D01*
X71890000Y-81541904D01*
X71937619Y-81494285D01*
X72032857Y-81446666D01*
X72175714Y-81446666D01*
X72270952Y-81494285D01*
X72318571Y-81541904D01*
X72366190Y-81637142D01*
X72366190Y-82018095D01*
X71842380Y-81113333D02*
X71842380Y-80446666D01*
X72842380Y-80875238D01*
%TO.C,D11*%
X94035714Y-83002380D02*
X94035714Y-82002380D01*
X94273809Y-82002380D01*
X94416666Y-82050000D01*
X94511904Y-82145238D01*
X94559523Y-82240476D01*
X94607142Y-82430952D01*
X94607142Y-82573809D01*
X94559523Y-82764285D01*
X94511904Y-82859523D01*
X94416666Y-82954761D01*
X94273809Y-83002380D01*
X94035714Y-83002380D01*
X95559523Y-83002380D02*
X94988095Y-83002380D01*
X95273809Y-83002380D02*
X95273809Y-82002380D01*
X95178571Y-82145238D01*
X95083333Y-82240476D01*
X94988095Y-82288095D01*
X96511904Y-83002380D02*
X95940476Y-83002380D01*
X96226190Y-83002380D02*
X96226190Y-82002380D01*
X96130952Y-82145238D01*
X96035714Y-82240476D01*
X95940476Y-82288095D01*
D13*
%TO.C,R20*%
X58420000Y-96520000D02*
X55880000Y-96520000D01*
X55880000Y-96520000D02*
X55880000Y-86360000D01*
X55880000Y-86360000D02*
X58420000Y-86360000D01*
X58420000Y-86360000D02*
X58420000Y-96520000D01*
%TO.C,C4*%
X58420000Y-88900000D02*
X60960000Y-88900000D01*
X60960000Y-88900000D02*
X60960000Y-96520000D01*
X60960000Y-96520000D02*
X58420000Y-96520000D01*
X58420000Y-96520000D02*
X58420000Y-88900000D01*
%TO.C,D16*%
X115824000Y-118999000D02*
X115951000Y-118872000D01*
X116205000Y-120015000D02*
X114935000Y-120015000D01*
X115951000Y-119126000D02*
X115824000Y-118999000D01*
X114935000Y-119380000D02*
X115570000Y-120015000D01*
X115570000Y-120015000D02*
X116205000Y-119380000D01*
X116205000Y-119380000D02*
X114935000Y-119380000D01*
X115189000Y-119126000D02*
X115189000Y-118872000D01*
X115951000Y-119126000D02*
X116078000Y-119126000D01*
X115570000Y-120015000D02*
X115570000Y-120650000D01*
X115824000Y-120523000D02*
X115824000Y-120269000D01*
X115951000Y-119126000D02*
X115951000Y-118872000D01*
X114300000Y-123190000D02*
X114300000Y-113030000D01*
X115189000Y-120523000D02*
X115189000Y-120269000D01*
X116840000Y-123190000D02*
X114300000Y-123190000D01*
X114300000Y-113030000D02*
X116840000Y-113030000D01*
X115951000Y-118872000D02*
X116078000Y-118872000D01*
X116078000Y-120523000D02*
X116078000Y-120269000D01*
X116840000Y-113030000D02*
X116840000Y-123190000D01*
X115824000Y-120523000D02*
X116078000Y-120523000D01*
X115062000Y-118999000D02*
X115316000Y-118999000D01*
X115570000Y-119380000D02*
X115570000Y-118745000D01*
%TO.C,R5*%
X63500000Y-76200000D02*
X63500000Y-86360000D01*
X60960000Y-86360000D02*
X60960000Y-76200000D01*
X63500000Y-86360000D02*
X60960000Y-86360000D01*
X60960000Y-76200000D02*
X63500000Y-76200000D01*
%TO.C,R32*%
X86360000Y-123190000D02*
X86360000Y-113030000D01*
X88900000Y-123190000D02*
X86360000Y-123190000D01*
X88900000Y-113030000D02*
X88900000Y-123190000D01*
X86360000Y-113030000D02*
X88900000Y-113030000D01*
%TO.C,D17*%
X91440000Y-115570000D02*
X91440000Y-120650000D01*
X90805000Y-120142000D02*
X90932000Y-120269000D01*
X90805000Y-120142000D02*
X90678000Y-120142000D01*
X89535000Y-118414800D02*
X90805000Y-118414800D01*
X90170000Y-117779800D02*
X89535000Y-118414800D01*
X90805000Y-120142000D02*
X90805000Y-120396000D01*
X91313000Y-120269000D02*
X91059000Y-120269000D01*
X91186000Y-120142000D02*
X91186000Y-120396000D01*
X88900000Y-120650000D02*
X88900000Y-115570000D01*
X88900000Y-115570000D02*
X91440000Y-115570000D01*
X90805000Y-120396000D02*
X90678000Y-120396000D01*
X90678000Y-115824000D02*
X90678000Y-116078000D01*
X90805000Y-118414800D02*
X90170000Y-117779800D01*
X91186000Y-115824000D02*
X91186000Y-116078000D01*
X89535000Y-117779800D02*
X90805000Y-117779800D01*
X90932000Y-115824000D02*
X90678000Y-115824000D01*
X90932000Y-115824000D02*
X90932000Y-116078000D01*
X90932000Y-120269000D02*
X90805000Y-120396000D01*
X91440000Y-120650000D02*
X88900000Y-120650000D01*
%TO.C,R9*%
X83820000Y-86360000D02*
X81280000Y-86360000D01*
X81280000Y-86360000D02*
X81280000Y-76200000D01*
X81280000Y-76200000D02*
X83820000Y-76200000D01*
X83820000Y-76200000D02*
X83820000Y-86360000D01*
%TO.C,D4*%
X58928000Y-81026000D02*
X59182000Y-81026000D01*
X58928000Y-76581000D02*
X59055000Y-76454000D01*
X58674000Y-76708000D02*
X58674000Y-76454000D01*
X58547000Y-76581000D02*
X58801000Y-76581000D01*
X58928000Y-81026000D02*
X58928000Y-80772000D01*
X60325000Y-79070200D02*
X59055000Y-79070200D01*
X59055000Y-76708000D02*
X59055000Y-76454000D01*
X59055000Y-76708000D02*
X58928000Y-76581000D01*
X58674000Y-81026000D02*
X58674000Y-80772000D01*
X59690000Y-79070200D02*
X60325000Y-78435200D01*
X60960000Y-76200000D02*
X60960000Y-81280000D01*
X60960000Y-81280000D02*
X58420000Y-81280000D01*
X59055000Y-76708000D02*
X59182000Y-76708000D01*
X58420000Y-76200000D02*
X60960000Y-76200000D01*
X58420000Y-81280000D02*
X58420000Y-76200000D01*
X59055000Y-78435200D02*
X59690000Y-79070200D01*
X59055000Y-76454000D02*
X59182000Y-76454000D01*
X59182000Y-81026000D02*
X59182000Y-80772000D01*
X60325000Y-78435200D02*
X59055000Y-78435200D01*
%TO.C,D15*%
X114935000Y-76708000D02*
X114808000Y-76581000D01*
X114427000Y-76581000D02*
X114681000Y-76581000D01*
X114808000Y-76581000D02*
X114935000Y-76454000D01*
X114935000Y-76708000D02*
X114935000Y-76454000D01*
X115062000Y-81026000D02*
X115062000Y-80772000D01*
X114935000Y-76454000D02*
X115062000Y-76454000D01*
X116840000Y-76200000D02*
X116840000Y-81280000D01*
X114935000Y-76708000D02*
X115062000Y-76708000D01*
X114935000Y-78435200D02*
X115570000Y-79070200D01*
X116205000Y-79070200D02*
X114935000Y-79070200D01*
X116840000Y-81280000D02*
X114300000Y-81280000D01*
X115570000Y-79070200D02*
X116205000Y-78435200D01*
X114808000Y-81026000D02*
X115062000Y-81026000D01*
X116205000Y-78435200D02*
X114935000Y-78435200D01*
X114554000Y-81026000D02*
X114554000Y-80772000D01*
X114300000Y-81280000D02*
X114300000Y-76200000D01*
X114300000Y-76200000D02*
X116840000Y-76200000D01*
X114808000Y-81026000D02*
X114808000Y-80772000D01*
X114554000Y-76708000D02*
X114554000Y-76454000D01*
%TO.C,R1*%
X43180000Y-76200000D02*
X43180000Y-86360000D01*
X43180000Y-86360000D02*
X40640000Y-86360000D01*
X40640000Y-76200000D02*
X43180000Y-76200000D01*
X40640000Y-86360000D02*
X40640000Y-76200000D01*
%TO.C,R24*%
X78740000Y-86360000D02*
X78740000Y-96520000D01*
X78740000Y-96520000D02*
X76200000Y-96520000D01*
X76200000Y-86360000D02*
X78740000Y-86360000D01*
X76200000Y-96520000D02*
X76200000Y-86360000D01*
%TO.C,T8*%
X76200000Y-104140000D02*
X76200000Y-96520000D01*
X81280000Y-104140000D02*
X76200000Y-104140000D01*
X81280000Y-96520000D02*
X81280000Y-104140000D01*
X76200000Y-96520000D02*
X81280000Y-96520000D01*
X80010000Y-99695000D02*
X80010000Y-100965000D01*
X80010000Y-100965000D02*
G75*
G03*
X80010000Y-99695000I0J635000D01*
G01*
%TO.C,D10*%
X90805000Y-79070200D02*
X89535000Y-79070200D01*
X89154000Y-81026000D02*
X89154000Y-80772000D01*
X91440000Y-81280000D02*
X88900000Y-81280000D01*
X89535000Y-78435200D02*
X90170000Y-79070200D01*
X90170000Y-79070200D02*
X90805000Y-78435200D01*
X88900000Y-81280000D02*
X88900000Y-76200000D01*
X89408000Y-81026000D02*
X89408000Y-80772000D01*
X89027000Y-76581000D02*
X89281000Y-76581000D01*
X89662000Y-81026000D02*
X89662000Y-80772000D01*
X88900000Y-76200000D02*
X91440000Y-76200000D01*
X89535000Y-76708000D02*
X89408000Y-76581000D01*
X91440000Y-76200000D02*
X91440000Y-81280000D01*
X89535000Y-76454000D02*
X89662000Y-76454000D01*
X89535000Y-76708000D02*
X89662000Y-76708000D01*
X89408000Y-81026000D02*
X89662000Y-81026000D01*
X90805000Y-78435200D02*
X89535000Y-78435200D01*
X89154000Y-76708000D02*
X89154000Y-76454000D01*
X89408000Y-76581000D02*
X89535000Y-76454000D01*
X89535000Y-76708000D02*
X89535000Y-76454000D01*
%TO.C,C2*%
X48260000Y-88900000D02*
X50800000Y-88900000D01*
X48260000Y-96520000D02*
X48260000Y-88900000D01*
X50800000Y-88900000D02*
X50800000Y-96520000D01*
X50800000Y-96520000D02*
X48260000Y-96520000D01*
%TO.C,R25*%
X81280000Y-96520000D02*
X81280000Y-86360000D01*
X81280000Y-86360000D02*
X83820000Y-86360000D01*
X83820000Y-96520000D02*
X81280000Y-96520000D01*
X83820000Y-86360000D02*
X83820000Y-96520000D01*
%TO.C,C5*%
X63500000Y-88900000D02*
X66040000Y-88900000D01*
X66040000Y-96520000D02*
X63500000Y-96520000D01*
X66040000Y-88900000D02*
X66040000Y-96520000D01*
X63500000Y-96520000D02*
X63500000Y-88900000D01*
%TO.C,C11*%
X93980000Y-88900000D02*
X96520000Y-88900000D01*
X96520000Y-88900000D02*
X96520000Y-96520000D01*
X93980000Y-96520000D02*
X93980000Y-88900000D01*
X96520000Y-96520000D02*
X93980000Y-96520000D01*
%TO.C,C13*%
X104140000Y-96520000D02*
X104140000Y-88900000D01*
X106680000Y-88900000D02*
X106680000Y-96520000D01*
X106680000Y-96520000D02*
X104140000Y-96520000D01*
X104140000Y-88900000D02*
X106680000Y-88900000D01*
%TO.C,R3*%
X53340000Y-86360000D02*
X50800000Y-86360000D01*
X50800000Y-86360000D02*
X50800000Y-76200000D01*
X50800000Y-76200000D02*
X53340000Y-76200000D01*
X53340000Y-76200000D02*
X53340000Y-86360000D01*
%TO.C,T0*%
X40640000Y-96520000D02*
X40640000Y-104140000D01*
X35560000Y-96520000D02*
X40640000Y-96520000D01*
X35560000Y-104140000D02*
X35560000Y-96520000D01*
X40640000Y-104140000D02*
X35560000Y-104140000D01*
X39370000Y-99695000D02*
X39370000Y-100965000D01*
X39370000Y-100965000D02*
G75*
G03*
X39370000Y-99695000I0J635000D01*
G01*
%TO.C,R15*%
X114300000Y-76200000D02*
X114300000Y-86360000D01*
X114300000Y-86360000D02*
X111760000Y-86360000D01*
X111760000Y-86360000D02*
X111760000Y-76200000D01*
X111760000Y-76200000D02*
X114300000Y-76200000D01*
%TO.C,D6*%
X71120000Y-76200000D02*
X71120000Y-81280000D01*
X69215000Y-76708000D02*
X69088000Y-76581000D01*
X69215000Y-76708000D02*
X69215000Y-76454000D01*
X70485000Y-79070200D02*
X69215000Y-79070200D01*
X68834000Y-81026000D02*
X68834000Y-80772000D01*
X70485000Y-78435200D02*
X69215000Y-78435200D01*
X68834000Y-76708000D02*
X68834000Y-76454000D01*
X69088000Y-81026000D02*
X69088000Y-80772000D01*
X69342000Y-81026000D02*
X69342000Y-80772000D01*
X68580000Y-76200000D02*
X71120000Y-76200000D01*
X69215000Y-76454000D02*
X69342000Y-76454000D01*
X68580000Y-81280000D02*
X68580000Y-76200000D01*
X69088000Y-76581000D02*
X69215000Y-76454000D01*
X68707000Y-76581000D02*
X68961000Y-76581000D01*
X71120000Y-81280000D02*
X68580000Y-81280000D01*
X69215000Y-76708000D02*
X69342000Y-76708000D01*
X69850000Y-79070200D02*
X70485000Y-78435200D01*
X69215000Y-78435200D02*
X69850000Y-79070200D01*
X69088000Y-81026000D02*
X69342000Y-81026000D01*
%TO.C,R21*%
X63500000Y-96520000D02*
X60960000Y-96520000D01*
X63500000Y-86360000D02*
X63500000Y-96520000D01*
X60960000Y-86360000D02*
X63500000Y-86360000D01*
X60960000Y-96520000D02*
X60960000Y-86360000D01*
%TO.C,R4*%
X55880000Y-76200000D02*
X58420000Y-76200000D01*
X58420000Y-76200000D02*
X58420000Y-86360000D01*
X58420000Y-86360000D02*
X55880000Y-86360000D01*
X55880000Y-86360000D02*
X55880000Y-76200000D01*
%TO.C,T6*%
X66040000Y-96520000D02*
X71120000Y-96520000D01*
X69850000Y-99695000D02*
X69850000Y-100965000D01*
X71120000Y-104140000D02*
X66040000Y-104140000D01*
X66040000Y-104140000D02*
X66040000Y-96520000D01*
X71120000Y-96520000D02*
X71120000Y-104140000D01*
X69850000Y-100965000D02*
G75*
G03*
X69850000Y-99695000I0J635000D01*
G01*
%TO.C,T12*%
X101600000Y-104140000D02*
X96520000Y-104140000D01*
X101600000Y-96520000D02*
X101600000Y-104140000D01*
X96520000Y-104140000D02*
X96520000Y-96520000D01*
X96520000Y-96520000D02*
X101600000Y-96520000D01*
X100330000Y-99695000D02*
X100330000Y-100965000D01*
X100330000Y-100965000D02*
G75*
G03*
X100330000Y-99695000I0J635000D01*
G01*
%TO.C,D5*%
X65405000Y-78435200D02*
X64135000Y-78435200D01*
X64135000Y-76454000D02*
X64262000Y-76454000D01*
X63500000Y-81280000D02*
X63500000Y-76200000D01*
X64135000Y-78435200D02*
X64770000Y-79070200D01*
X63627000Y-76581000D02*
X63881000Y-76581000D01*
X66040000Y-76200000D02*
X66040000Y-81280000D01*
X64008000Y-81026000D02*
X64262000Y-81026000D01*
X64135000Y-76708000D02*
X64135000Y-76454000D01*
X64135000Y-76708000D02*
X64262000Y-76708000D01*
X65405000Y-79070200D02*
X64135000Y-79070200D01*
X64262000Y-81026000D02*
X64262000Y-80772000D01*
X64008000Y-76581000D02*
X64135000Y-76454000D01*
X64770000Y-79070200D02*
X65405000Y-78435200D01*
X66040000Y-81280000D02*
X63500000Y-81280000D01*
X63754000Y-76708000D02*
X63754000Y-76454000D01*
X63754000Y-81026000D02*
X63754000Y-80772000D01*
X64008000Y-81026000D02*
X64008000Y-80772000D01*
X64135000Y-76708000D02*
X64008000Y-76581000D01*
X63500000Y-76200000D02*
X66040000Y-76200000D01*
%TO.C,T1*%
X45720000Y-96520000D02*
X45720000Y-104140000D01*
X44450000Y-99695000D02*
X44450000Y-100965000D01*
X40640000Y-96520000D02*
X45720000Y-96520000D01*
X40640000Y-104140000D02*
X40640000Y-96520000D01*
X45720000Y-104140000D02*
X40640000Y-104140000D01*
X44450000Y-100965000D02*
G75*
G03*
X44450000Y-99695000I0J635000D01*
G01*
%TO.C,R22*%
X66040000Y-86360000D02*
X68580000Y-86360000D01*
X66040000Y-96520000D02*
X66040000Y-86360000D01*
X68580000Y-96520000D02*
X66040000Y-96520000D01*
X68580000Y-86360000D02*
X68580000Y-96520000D01*
%TO.C,C6*%
X71120000Y-88900000D02*
X71120000Y-96520000D01*
X68580000Y-88900000D02*
X71120000Y-88900000D01*
X71120000Y-96520000D02*
X68580000Y-96520000D01*
X68580000Y-96520000D02*
X68580000Y-88900000D01*
%TO.C,T10*%
X91440000Y-104140000D02*
X86360000Y-104140000D01*
X91440000Y-96520000D02*
X91440000Y-104140000D01*
X86360000Y-96520000D02*
X91440000Y-96520000D01*
X86360000Y-104140000D02*
X86360000Y-96520000D01*
X90170000Y-99695000D02*
X90170000Y-100965000D01*
X90170000Y-100965000D02*
G75*
G03*
X90170000Y-99695000I0J635000D01*
G01*
%TO.C,R18*%
X45720000Y-86360000D02*
X48260000Y-86360000D01*
X48260000Y-96520000D02*
X45720000Y-96520000D01*
X48260000Y-86360000D02*
X48260000Y-96520000D01*
X45720000Y-96520000D02*
X45720000Y-86360000D01*
%TO.C,D3*%
X53594000Y-81026000D02*
X53594000Y-80772000D01*
X53975000Y-76454000D02*
X54102000Y-76454000D01*
X55880000Y-76200000D02*
X55880000Y-81280000D01*
X53975000Y-76708000D02*
X53975000Y-76454000D01*
X54102000Y-81026000D02*
X54102000Y-80772000D01*
X53975000Y-76708000D02*
X54102000Y-76708000D01*
X55245000Y-79070200D02*
X53975000Y-79070200D01*
X55880000Y-81280000D02*
X53340000Y-81280000D01*
X53975000Y-76708000D02*
X53848000Y-76581000D01*
X53467000Y-76581000D02*
X53721000Y-76581000D01*
X54610000Y-79070200D02*
X55245000Y-78435200D01*
X53340000Y-81280000D02*
X53340000Y-76200000D01*
X53975000Y-78435200D02*
X54610000Y-79070200D01*
X53848000Y-81026000D02*
X54102000Y-81026000D01*
X53848000Y-81026000D02*
X53848000Y-80772000D01*
X53340000Y-76200000D02*
X55880000Y-76200000D01*
X53848000Y-76581000D02*
X53975000Y-76454000D01*
X53594000Y-76708000D02*
X53594000Y-76454000D01*
X55245000Y-78435200D02*
X53975000Y-78435200D01*
%TO.C,C18*%
X111760000Y-121920000D02*
X111760000Y-114300000D01*
X114300000Y-114300000D02*
X114300000Y-121920000D01*
X114300000Y-121920000D02*
X111760000Y-121920000D01*
X111760000Y-114300000D02*
X114300000Y-114300000D01*
%TO.C,T5*%
X64770000Y-99695000D02*
X64770000Y-100965000D01*
X60960000Y-104140000D02*
X60960000Y-96520000D01*
X66040000Y-96520000D02*
X66040000Y-104140000D01*
X60960000Y-96520000D02*
X66040000Y-96520000D01*
X66040000Y-104140000D02*
X60960000Y-104140000D01*
X64770000Y-100965000D02*
G75*
G03*
X64770000Y-99695000I0J635000D01*
G01*
%TO.C,R0*%
X35560000Y-86360000D02*
X35560000Y-76200000D01*
X38100000Y-86360000D02*
X35560000Y-86360000D01*
X35560000Y-76200000D02*
X38100000Y-76200000D01*
X38100000Y-76200000D02*
X38100000Y-86360000D01*
%TO.C,C16*%
X106680000Y-115570000D02*
X106680000Y-114300000D01*
X111760000Y-118110000D02*
G75*
G03*
X111760000Y-118110000I-5080000J0D01*
G01*
%TO.C,R31*%
X111760000Y-86360000D02*
X114300000Y-86360000D01*
X114300000Y-96520000D02*
X111760000Y-96520000D01*
X114300000Y-86360000D02*
X114300000Y-96520000D01*
X111760000Y-96520000D02*
X111760000Y-86360000D01*
%TO.C,R14*%
X109220000Y-86360000D02*
X106680000Y-86360000D01*
X106680000Y-86360000D02*
X106680000Y-76200000D01*
X109220000Y-76200000D02*
X109220000Y-86360000D01*
X106680000Y-76200000D02*
X109220000Y-76200000D01*
%TO.C,D1*%
X45085000Y-79070200D02*
X43815000Y-79070200D01*
X44450000Y-79070200D02*
X45085000Y-78435200D01*
X43942000Y-81026000D02*
X43942000Y-80772000D01*
X45720000Y-81280000D02*
X43180000Y-81280000D01*
X45085000Y-78435200D02*
X43815000Y-78435200D01*
X43815000Y-76708000D02*
X43815000Y-76454000D01*
X43180000Y-76200000D02*
X45720000Y-76200000D01*
X43815000Y-76454000D02*
X43942000Y-76454000D01*
X43688000Y-76581000D02*
X43815000Y-76454000D01*
X43815000Y-76708000D02*
X43688000Y-76581000D01*
X43307000Y-76581000D02*
X43561000Y-76581000D01*
X43688000Y-81026000D02*
X43942000Y-81026000D01*
X43688000Y-81026000D02*
X43688000Y-80772000D01*
X43815000Y-78435200D02*
X44450000Y-79070200D01*
X45720000Y-76200000D02*
X45720000Y-81280000D01*
X43180000Y-81280000D02*
X43180000Y-76200000D01*
X43815000Y-76708000D02*
X43942000Y-76708000D01*
X43434000Y-76708000D02*
X43434000Y-76454000D01*
X43434000Y-81026000D02*
X43434000Y-80772000D01*
%TO.C,D7*%
X74422000Y-81026000D02*
X74422000Y-80772000D01*
X74168000Y-81026000D02*
X74168000Y-80772000D01*
X76200000Y-76200000D02*
X76200000Y-81280000D01*
X75565000Y-79070200D02*
X74295000Y-79070200D01*
X76200000Y-81280000D02*
X73660000Y-81280000D01*
X74295000Y-76708000D02*
X74168000Y-76581000D01*
X75565000Y-78435200D02*
X74295000Y-78435200D01*
X74295000Y-78435200D02*
X74930000Y-79070200D01*
X73660000Y-81280000D02*
X73660000Y-76200000D01*
X74930000Y-79070200D02*
X75565000Y-78435200D01*
X74295000Y-76708000D02*
X74295000Y-76454000D01*
X73914000Y-81026000D02*
X73914000Y-80772000D01*
X74295000Y-76708000D02*
X74422000Y-76708000D01*
X74168000Y-76581000D02*
X74295000Y-76454000D01*
X73914000Y-76708000D02*
X73914000Y-76454000D01*
X74295000Y-76454000D02*
X74422000Y-76454000D01*
X73787000Y-76581000D02*
X74041000Y-76581000D01*
X73660000Y-76200000D02*
X76200000Y-76200000D01*
X74168000Y-81026000D02*
X74422000Y-81026000D01*
%TO.C,R29*%
X101600000Y-96520000D02*
X101600000Y-86360000D01*
X101600000Y-86360000D02*
X104140000Y-86360000D01*
X104140000Y-96520000D02*
X101600000Y-96520000D01*
X104140000Y-86360000D02*
X104140000Y-96520000D01*
%TO.C,T4*%
X59690000Y-99695000D02*
X59690000Y-100965000D01*
X55880000Y-104140000D02*
X55880000Y-96520000D01*
X60960000Y-96520000D02*
X60960000Y-104140000D01*
X60960000Y-104140000D02*
X55880000Y-104140000D01*
X55880000Y-96520000D02*
X60960000Y-96520000D01*
X59690000Y-100965000D02*
G75*
G03*
X59690000Y-99695000I0J635000D01*
G01*
%TO.C,T7*%
X71120000Y-96520000D02*
X76200000Y-96520000D01*
X74930000Y-99695000D02*
X74930000Y-100965000D01*
X71120000Y-104140000D02*
X71120000Y-96520000D01*
X76200000Y-96520000D02*
X76200000Y-104140000D01*
X76200000Y-104140000D02*
X71120000Y-104140000D01*
X74930000Y-100965000D02*
G75*
G03*
X74930000Y-99695000I0J635000D01*
G01*
%TO.C,H0*%
X66040000Y-58420000D02*
X35560000Y-58420000D01*
X35560000Y-58420000D02*
X35560000Y-53340000D01*
X66040000Y-53340000D02*
X66040000Y-58420000D01*
X35560000Y-53340000D02*
X66040000Y-53340000D01*
%TO.C,R30*%
X109220000Y-86360000D02*
X109220000Y-96520000D01*
X106680000Y-86360000D02*
X109220000Y-86360000D01*
X109220000Y-96520000D02*
X106680000Y-96520000D01*
X106680000Y-96520000D02*
X106680000Y-86360000D01*
%TO.C,C15*%
X114300000Y-88900000D02*
X116840000Y-88900000D01*
X116840000Y-96520000D02*
X114300000Y-96520000D01*
X114300000Y-96520000D02*
X114300000Y-88900000D01*
X116840000Y-88900000D02*
X116840000Y-96520000D01*
%TO.C,R17*%
X43180000Y-96520000D02*
X40640000Y-96520000D01*
X40640000Y-86360000D02*
X43180000Y-86360000D01*
X43180000Y-86360000D02*
X43180000Y-96520000D01*
X40640000Y-96520000D02*
X40640000Y-86360000D01*
%TO.C,C12*%
X99060000Y-88900000D02*
X101600000Y-88900000D01*
X101600000Y-96520000D02*
X99060000Y-96520000D01*
X99060000Y-96520000D02*
X99060000Y-88900000D01*
X101600000Y-88900000D02*
X101600000Y-96520000D01*
%TO.C,R2*%
X45720000Y-76200000D02*
X48260000Y-76200000D01*
X48260000Y-76200000D02*
X48260000Y-86360000D01*
X48260000Y-86360000D02*
X45720000Y-86360000D01*
X45720000Y-86360000D02*
X45720000Y-76200000D01*
%TO.C,T13*%
X101600000Y-96520000D02*
X106680000Y-96520000D01*
X106680000Y-96520000D02*
X106680000Y-104140000D01*
X101600000Y-104140000D02*
X101600000Y-96520000D01*
X106680000Y-104140000D02*
X101600000Y-104140000D01*
X105410000Y-99695000D02*
X105410000Y-100965000D01*
X105410000Y-100965000D02*
G75*
G03*
X105410000Y-99695000I0J635000D01*
G01*
%TO.C,D12*%
X99822000Y-81026000D02*
X99822000Y-80772000D01*
X99060000Y-81280000D02*
X99060000Y-76200000D01*
X99568000Y-81026000D02*
X99568000Y-80772000D01*
X101600000Y-81280000D02*
X99060000Y-81280000D01*
X99695000Y-76708000D02*
X99822000Y-76708000D01*
X99314000Y-76708000D02*
X99314000Y-76454000D01*
X99314000Y-81026000D02*
X99314000Y-80772000D01*
X100965000Y-78435200D02*
X99695000Y-78435200D01*
X99568000Y-76581000D02*
X99695000Y-76454000D01*
X99695000Y-78435200D02*
X100330000Y-79070200D01*
X99187000Y-76581000D02*
X99441000Y-76581000D01*
X99695000Y-76708000D02*
X99568000Y-76581000D01*
X99695000Y-76708000D02*
X99695000Y-76454000D01*
X100330000Y-79070200D02*
X100965000Y-78435200D01*
X99568000Y-81026000D02*
X99822000Y-81026000D01*
X101600000Y-76200000D02*
X101600000Y-81280000D01*
X100965000Y-79070200D02*
X99695000Y-79070200D01*
X99060000Y-76200000D02*
X101600000Y-76200000D01*
X99695000Y-76454000D02*
X99822000Y-76454000D01*
%TO.C,D13*%
X104902000Y-81026000D02*
X104902000Y-80772000D01*
X106680000Y-81280000D02*
X104140000Y-81280000D01*
X104394000Y-81026000D02*
X104394000Y-80772000D01*
X104267000Y-76581000D02*
X104521000Y-76581000D01*
X104394000Y-76708000D02*
X104394000Y-76454000D01*
X104775000Y-76708000D02*
X104902000Y-76708000D01*
X105410000Y-79070200D02*
X106045000Y-78435200D01*
X104775000Y-78435200D02*
X105410000Y-79070200D01*
X106045000Y-79070200D02*
X104775000Y-79070200D01*
X104775000Y-76708000D02*
X104648000Y-76581000D01*
X104140000Y-76200000D02*
X106680000Y-76200000D01*
X104775000Y-76454000D02*
X104902000Y-76454000D01*
X106680000Y-76200000D02*
X106680000Y-81280000D01*
X104775000Y-76708000D02*
X104775000Y-76454000D01*
X104648000Y-81026000D02*
X104902000Y-81026000D01*
X104648000Y-76581000D02*
X104775000Y-76454000D01*
X106045000Y-78435200D02*
X104775000Y-78435200D01*
X104140000Y-81280000D02*
X104140000Y-76200000D01*
X104648000Y-81026000D02*
X104648000Y-80772000D01*
%TO.C,T9*%
X81280000Y-96520000D02*
X86360000Y-96520000D01*
X86360000Y-104140000D02*
X81280000Y-104140000D01*
X81280000Y-104140000D02*
X81280000Y-96520000D01*
X85090000Y-99695000D02*
X85090000Y-100965000D01*
X86360000Y-96520000D02*
X86360000Y-104140000D01*
X85090000Y-100965000D02*
G75*
G03*
X85090000Y-99695000I0J635000D01*
G01*
%TO.C,R26*%
X88900000Y-96520000D02*
X86360000Y-96520000D01*
X86360000Y-86360000D02*
X88900000Y-86360000D01*
X88900000Y-86360000D02*
X88900000Y-96520000D01*
X86360000Y-96520000D02*
X86360000Y-86360000D01*
%TO.C,T2*%
X45720000Y-104140000D02*
X45720000Y-96520000D01*
X50800000Y-104140000D02*
X45720000Y-104140000D01*
X45720000Y-96520000D02*
X50800000Y-96520000D01*
X49530000Y-99695000D02*
X49530000Y-100965000D01*
X50800000Y-96520000D02*
X50800000Y-104140000D01*
X49530000Y-100965000D02*
G75*
G03*
X49530000Y-99695000I0J635000D01*
G01*
%TO.C,R23*%
X71120000Y-96520000D02*
X71120000Y-86360000D01*
X73660000Y-86360000D02*
X73660000Y-96520000D01*
X73660000Y-96520000D02*
X71120000Y-96520000D01*
X71120000Y-86360000D02*
X73660000Y-86360000D01*
%TO.C,T11*%
X95250000Y-99695000D02*
X95250000Y-100965000D01*
X91440000Y-104140000D02*
X91440000Y-96520000D01*
X91440000Y-96520000D02*
X96520000Y-96520000D01*
X96520000Y-104140000D02*
X91440000Y-104140000D01*
X96520000Y-96520000D02*
X96520000Y-104140000D01*
X95250000Y-100965000D02*
G75*
G03*
X95250000Y-99695000I0J635000D01*
G01*
%TO.C,R16*%
X38100000Y-86360000D02*
X38100000Y-96520000D01*
X35560000Y-86360000D02*
X38100000Y-86360000D01*
X35560000Y-96520000D02*
X35560000Y-86360000D01*
X38100000Y-96520000D02*
X35560000Y-96520000D01*
%TO.C,C14*%
X109220000Y-96520000D02*
X109220000Y-88900000D01*
X111760000Y-96520000D02*
X109220000Y-96520000D01*
X111760000Y-88900000D02*
X111760000Y-96520000D01*
X109220000Y-88900000D02*
X111760000Y-88900000D01*
%TO.C,D8*%
X79375000Y-76454000D02*
X79502000Y-76454000D01*
X79248000Y-81026000D02*
X79502000Y-81026000D01*
X79375000Y-76708000D02*
X79248000Y-76581000D01*
X78867000Y-76581000D02*
X79121000Y-76581000D01*
X80010000Y-79070200D02*
X80645000Y-78435200D01*
X81280000Y-81280000D02*
X78740000Y-81280000D01*
X79248000Y-81026000D02*
X79248000Y-80772000D01*
X79248000Y-76581000D02*
X79375000Y-76454000D01*
X81280000Y-76200000D02*
X81280000Y-81280000D01*
X79502000Y-81026000D02*
X79502000Y-80772000D01*
X79375000Y-78435200D02*
X80010000Y-79070200D01*
X78994000Y-76708000D02*
X78994000Y-76454000D01*
X78740000Y-76200000D02*
X81280000Y-76200000D01*
X80645000Y-79070200D02*
X79375000Y-79070200D01*
X78994000Y-81026000D02*
X78994000Y-80772000D01*
X78740000Y-81280000D02*
X78740000Y-76200000D01*
X79375000Y-76708000D02*
X79502000Y-76708000D01*
X79375000Y-76708000D02*
X79375000Y-76454000D01*
X80645000Y-78435200D02*
X79375000Y-78435200D01*
%TO.C,T3*%
X54610000Y-99695000D02*
X54610000Y-100965000D01*
X50800000Y-104140000D02*
X50800000Y-96520000D01*
X50800000Y-96520000D02*
X55880000Y-96520000D01*
X55880000Y-96520000D02*
X55880000Y-104140000D01*
X55880000Y-104140000D02*
X50800000Y-104140000D01*
X54610000Y-100965000D02*
G75*
G03*
X54610000Y-99695000I0J635000D01*
G01*
%TO.C,D2*%
X48895000Y-78435200D02*
X49530000Y-79070200D01*
X50800000Y-81280000D02*
X48260000Y-81280000D01*
X50800000Y-76200000D02*
X50800000Y-81280000D01*
X48514000Y-81026000D02*
X48514000Y-80772000D01*
X48768000Y-76581000D02*
X48895000Y-76454000D01*
X48895000Y-76708000D02*
X49022000Y-76708000D01*
X48514000Y-76708000D02*
X48514000Y-76454000D01*
X48768000Y-81026000D02*
X49022000Y-81026000D01*
X48260000Y-81280000D02*
X48260000Y-76200000D01*
X48387000Y-76581000D02*
X48641000Y-76581000D01*
X48895000Y-76454000D02*
X49022000Y-76454000D01*
X50165000Y-79070200D02*
X48895000Y-79070200D01*
X48768000Y-81026000D02*
X48768000Y-80772000D01*
X48895000Y-76708000D02*
X48895000Y-76454000D01*
X49022000Y-81026000D02*
X49022000Y-80772000D01*
X49530000Y-79070200D02*
X50165000Y-78435200D01*
X48895000Y-76708000D02*
X48768000Y-76581000D01*
X48260000Y-76200000D02*
X50800000Y-76200000D01*
X50165000Y-78435200D02*
X48895000Y-78435200D01*
%TO.C,T15*%
X116840000Y-96520000D02*
X116840000Y-104140000D01*
X115570000Y-99695000D02*
X115570000Y-100965000D01*
X111760000Y-96520000D02*
X116840000Y-96520000D01*
X116840000Y-104140000D02*
X111760000Y-104140000D01*
X111760000Y-104140000D02*
X111760000Y-96520000D01*
X115570000Y-100965000D02*
G75*
G03*
X115570000Y-99695000I0J635000D01*
G01*
%TO.C,C17*%
X96520000Y-115570000D02*
X96520000Y-114300000D01*
X101600000Y-118110000D02*
G75*
G03*
X101600000Y-118110000I-5080000J0D01*
G01*
%TO.C,T14*%
X111760000Y-104140000D02*
X106680000Y-104140000D01*
X110490000Y-99695000D02*
X110490000Y-100965000D01*
X106680000Y-104140000D02*
X106680000Y-96520000D01*
X106680000Y-96520000D02*
X111760000Y-96520000D01*
X111760000Y-96520000D02*
X111760000Y-104140000D01*
X110490000Y-100965000D02*
G75*
G03*
X110490000Y-99695000I0J635000D01*
G01*
%TO.C,R8*%
X76200000Y-76200000D02*
X78740000Y-76200000D01*
X78740000Y-86360000D02*
X76200000Y-86360000D01*
X76200000Y-86360000D02*
X76200000Y-76200000D01*
X78740000Y-76200000D02*
X78740000Y-86360000D01*
%TO.C,R6*%
X68580000Y-76200000D02*
X68580000Y-86360000D01*
X66040000Y-76200000D02*
X68580000Y-76200000D01*
X66040000Y-86360000D02*
X66040000Y-76200000D01*
X68580000Y-86360000D02*
X66040000Y-86360000D01*
%TO.C,R27*%
X91440000Y-96520000D02*
X91440000Y-86360000D01*
X91440000Y-86360000D02*
X93980000Y-86360000D01*
X93980000Y-96520000D02*
X91440000Y-96520000D01*
X93980000Y-86360000D02*
X93980000Y-96520000D01*
%TO.C,R12*%
X96520000Y-76200000D02*
X99060000Y-76200000D01*
X99060000Y-86360000D02*
X96520000Y-86360000D01*
X99060000Y-76200000D02*
X99060000Y-86360000D01*
X96520000Y-86360000D02*
X96520000Y-76200000D01*
%TO.C,C7*%
X76200000Y-96520000D02*
X73660000Y-96520000D01*
X76200000Y-88900000D02*
X76200000Y-96520000D01*
X73660000Y-88900000D02*
X76200000Y-88900000D01*
X73660000Y-96520000D02*
X73660000Y-88900000D01*
%TO.C,C0*%
X40640000Y-88900000D02*
X40640000Y-96520000D01*
X40640000Y-96520000D02*
X38100000Y-96520000D01*
X38100000Y-96520000D02*
X38100000Y-88900000D01*
X38100000Y-88900000D02*
X40640000Y-88900000D01*
%TO.C,C1*%
X43180000Y-88900000D02*
X45720000Y-88900000D01*
X45720000Y-96520000D02*
X43180000Y-96520000D01*
X43180000Y-96520000D02*
X43180000Y-88900000D01*
X45720000Y-88900000D02*
X45720000Y-96520000D01*
%TO.C,C10*%
X91440000Y-88900000D02*
X91440000Y-96520000D01*
X91440000Y-96520000D02*
X88900000Y-96520000D01*
X88900000Y-88900000D02*
X91440000Y-88900000D01*
X88900000Y-96520000D02*
X88900000Y-88900000D01*
%TO.C,IC0*%
X66040000Y-113030000D02*
X35560000Y-113030000D01*
X35560000Y-113030000D02*
X35560000Y-123190000D01*
X66040000Y-123190000D02*
X66040000Y-113030000D01*
X35560000Y-123190000D02*
X66040000Y-123190000D01*
X66040000Y-116840000D02*
G75*
G03*
X66040000Y-119380000I0J-1270000D01*
G01*
%TO.C,C8*%
X81280000Y-88900000D02*
X81280000Y-96520000D01*
X78740000Y-96520000D02*
X78740000Y-88900000D01*
X78740000Y-88900000D02*
X81280000Y-88900000D01*
X81280000Y-96520000D02*
X78740000Y-96520000D01*
%TO.C,R19*%
X50800000Y-96520000D02*
X50800000Y-86360000D01*
X53340000Y-96520000D02*
X50800000Y-96520000D01*
X53340000Y-86360000D02*
X53340000Y-96520000D01*
X50800000Y-86360000D02*
X53340000Y-86360000D01*
%TO.C,D14*%
X109220000Y-81280000D02*
X109220000Y-76200000D01*
X109855000Y-76454000D02*
X109982000Y-76454000D01*
X111760000Y-76200000D02*
X111760000Y-81280000D01*
X109347000Y-76581000D02*
X109601000Y-76581000D01*
X109855000Y-78435200D02*
X110490000Y-79070200D01*
X111125000Y-78435200D02*
X109855000Y-78435200D01*
X109728000Y-76581000D02*
X109855000Y-76454000D01*
X109982000Y-81026000D02*
X109982000Y-80772000D01*
X109220000Y-76200000D02*
X111760000Y-76200000D01*
X111125000Y-79070200D02*
X109855000Y-79070200D01*
X111760000Y-81280000D02*
X109220000Y-81280000D01*
X110490000Y-79070200D02*
X111125000Y-78435200D01*
X109855000Y-76708000D02*
X109855000Y-76454000D01*
X109728000Y-81026000D02*
X109728000Y-80772000D01*
X109855000Y-76708000D02*
X109728000Y-76581000D01*
X109474000Y-76708000D02*
X109474000Y-76454000D01*
X109728000Y-81026000D02*
X109982000Y-81026000D01*
X109474000Y-81026000D02*
X109474000Y-80772000D01*
X109855000Y-76708000D02*
X109982000Y-76708000D01*
%TO.C,R13*%
X104140000Y-86360000D02*
X101600000Y-86360000D01*
X101600000Y-76200000D02*
X104140000Y-76200000D01*
X104140000Y-76200000D02*
X104140000Y-86360000D01*
X101600000Y-86360000D02*
X101600000Y-76200000D01*
%TO.C,C3*%
X55880000Y-96520000D02*
X53340000Y-96520000D01*
X55880000Y-88900000D02*
X55880000Y-96520000D01*
X53340000Y-88900000D02*
X55880000Y-88900000D01*
X53340000Y-96520000D02*
X53340000Y-88900000D01*
%TO.C,R28*%
X96520000Y-96520000D02*
X96520000Y-86360000D01*
X96520000Y-86360000D02*
X99060000Y-86360000D01*
X99060000Y-96520000D02*
X96520000Y-96520000D01*
X99060000Y-86360000D02*
X99060000Y-96520000D01*
%TO.C,D9*%
X85725000Y-79070200D02*
X84455000Y-79070200D01*
X84455000Y-78435200D02*
X85090000Y-79070200D01*
X84328000Y-81026000D02*
X84582000Y-81026000D01*
X84455000Y-76708000D02*
X84328000Y-76581000D01*
X86360000Y-81280000D02*
X83820000Y-81280000D01*
X84328000Y-76581000D02*
X84455000Y-76454000D01*
X85090000Y-79070200D02*
X85725000Y-78435200D01*
X84582000Y-81026000D02*
X84582000Y-80772000D01*
X83820000Y-76200000D02*
X86360000Y-76200000D01*
X84455000Y-76454000D02*
X84582000Y-76454000D01*
X85725000Y-78435200D02*
X84455000Y-78435200D01*
X84074000Y-76708000D02*
X84074000Y-76454000D01*
X83947000Y-76581000D02*
X84201000Y-76581000D01*
X83820000Y-81280000D02*
X83820000Y-76200000D01*
X84328000Y-81026000D02*
X84328000Y-80772000D01*
X84455000Y-76708000D02*
X84455000Y-76454000D01*
X84455000Y-76708000D02*
X84582000Y-76708000D01*
X86360000Y-76200000D02*
X86360000Y-81280000D01*
X84074000Y-81026000D02*
X84074000Y-80772000D01*
%TO.C,C9*%
X83820000Y-96520000D02*
X83820000Y-88900000D01*
X86360000Y-96520000D02*
X83820000Y-96520000D01*
X86360000Y-88900000D02*
X86360000Y-96520000D01*
X83820000Y-88900000D02*
X86360000Y-88900000D01*
%TO.C,R11*%
X91440000Y-86360000D02*
X91440000Y-76200000D01*
X93980000Y-76200000D02*
X93980000Y-86360000D01*
X91440000Y-76200000D02*
X93980000Y-76200000D01*
X93980000Y-86360000D02*
X91440000Y-86360000D01*
%TO.C,D0*%
X38100000Y-76200000D02*
X40640000Y-76200000D01*
X38100000Y-81280000D02*
X38100000Y-76200000D01*
X38735000Y-76708000D02*
X38862000Y-76708000D01*
X38608000Y-76581000D02*
X38735000Y-76454000D01*
X40640000Y-76200000D02*
X40640000Y-81280000D01*
X38608000Y-81026000D02*
X38608000Y-80772000D01*
X40005000Y-79070200D02*
X38735000Y-79070200D01*
X38735000Y-76454000D02*
X38862000Y-76454000D01*
X38608000Y-81026000D02*
X38862000Y-81026000D01*
X38735000Y-78435200D02*
X39370000Y-79070200D01*
X39370000Y-79070200D02*
X40005000Y-78435200D01*
X40005000Y-78435200D02*
X38735000Y-78435200D01*
X38354000Y-81026000D02*
X38354000Y-80772000D01*
X38735000Y-76708000D02*
X38608000Y-76581000D01*
X38354000Y-76708000D02*
X38354000Y-76454000D01*
X40640000Y-81280000D02*
X38100000Y-81280000D01*
X38862000Y-81026000D02*
X38862000Y-80772000D01*
X38227000Y-76581000D02*
X38481000Y-76581000D01*
X38735000Y-76708000D02*
X38735000Y-76454000D01*
%TO.C,R10*%
X86360000Y-76200000D02*
X88900000Y-76200000D01*
X88900000Y-76200000D02*
X88900000Y-86360000D01*
X86360000Y-86360000D02*
X86360000Y-76200000D01*
X88900000Y-86360000D02*
X86360000Y-86360000D01*
%TO.C,R7*%
X71120000Y-76200000D02*
X73660000Y-76200000D01*
X73660000Y-76200000D02*
X73660000Y-86360000D01*
X73660000Y-86360000D02*
X71120000Y-86360000D01*
X71120000Y-86360000D02*
X71120000Y-76200000D01*
%TO.C,D11*%
X94742000Y-81026000D02*
X94742000Y-80772000D01*
X94234000Y-76708000D02*
X94234000Y-76454000D01*
X94615000Y-76454000D02*
X94742000Y-76454000D01*
X94615000Y-76708000D02*
X94742000Y-76708000D01*
X96520000Y-76200000D02*
X96520000Y-81280000D01*
X94615000Y-78435200D02*
X95250000Y-79070200D01*
X94488000Y-76581000D02*
X94615000Y-76454000D01*
X95885000Y-79070200D02*
X94615000Y-79070200D01*
X95250000Y-79070200D02*
X95885000Y-78435200D01*
X93980000Y-81280000D02*
X93980000Y-76200000D01*
X95885000Y-78435200D02*
X94615000Y-78435200D01*
X93980000Y-76200000D02*
X96520000Y-76200000D01*
X94107000Y-76581000D02*
X94361000Y-76581000D01*
X94234000Y-81026000D02*
X94234000Y-80772000D01*
X96520000Y-81280000D02*
X93980000Y-81280000D01*
X94615000Y-76708000D02*
X94615000Y-76454000D01*
X94615000Y-76708000D02*
X94488000Y-76581000D01*
X94488000Y-81026000D02*
X94742000Y-81026000D01*
X94488000Y-81026000D02*
X94488000Y-80772000D01*
%TD*%
M02*
