M48
; DRILL file {KiCad (6.0.0)} date Thu Jun  8 10:52:12 2023
; FORMAT={-:-/ absolute / inch / decimal}
; #@! TF.CreationDate,2023-06-08T10:52:12-04:00
; #@! TF.GenerationSoftware,Kicad,Pcbnew,(6.0.0)
; #@! TF.FileFunction,Plated,1,2,PTH
FMAT,2
INCH
; #@! TA.AperFunction,Plated,PTH,ViaDrill
T1C0.0157
; #@! TA.AperFunction,Plated,PTH,ComponentDrill
T2C0.0375
; #@! TA.AperFunction,Plated,PTH,ViaDrill
T3C0.1250
%
G90
G05
T1
X2.05Y-3.05
X2.05Y-3.15
X2.05Y-3.2
X2.05Y-3.25
X2.1Y-3.25
X2.1Y-3.3
X2.15Y-3.3
X2.2Y-3.3
X2.25Y-3.0
X2.25Y-3.3
X2.3Y-2.6
X2.3Y-2.95
X2.3Y-3.05
X2.45Y-2.75
X2.5Y-2.75
X2.65Y-2.85
X2.65Y-3.35
X2.65Y-3.35
X2.7Y-2.85
T2
X1.35Y-3.15
X1.35Y-3.35
X1.45Y-2.65
X1.45Y-2.85
X1.45Y-3.15
X1.45Y-3.35
X1.55Y-2.65
X1.55Y-2.85
X1.55Y-3.1
X1.55Y-3.4
X1.65Y-1.25
X1.65Y-1.55
X1.65Y-1.85
X1.65Y-1.95
X1.7Y-2.65
X1.7Y-2.85
X1.7Y-3.15
X1.7Y-3.35
X1.75Y-1.75
X1.75Y-2.05
X1.85Y-1.25
X1.85Y-1.55
X1.85Y-1.75
X1.85Y-2.05
X1.95Y-1.3
X1.95Y-1.5
X1.95Y-1.8
X1.95Y-2.0
X2.15Y-1.25
X2.15Y-1.55
X2.2Y-1.85
X2.2Y-1.95
X2.35Y-1.25
X2.35Y-1.55
X2.45Y-1.3
X2.45Y-1.5
X3.15Y-1.25
X3.15Y-1.35
X3.15Y-1.45
X3.15Y-1.55
X3.15Y-1.65
X3.15Y-1.75
X3.15Y-1.85
X3.15Y-1.95
X3.15Y-2.05
X3.15Y-2.15
X3.15Y-2.25
X3.15Y-2.35
X3.15Y-2.45
X3.15Y-2.55
X3.15Y-2.65
X3.15Y-2.75
X3.15Y-2.85
X3.15Y-2.95
X3.15Y-3.05
X3.15Y-3.15
X3.15Y-3.25
X3.15Y-3.35
X3.15Y-3.45
X3.15Y-3.55
X3.15Y-3.65
X3.15Y-3.75
X3.15Y-3.85
X3.15Y-3.95
X3.15Y-4.05
X3.15Y-4.15
X3.15Y-4.25
X3.15Y-4.35
X3.15Y-4.45
X3.15Y-4.55
X3.15Y-4.65
X3.15Y-4.75
X3.25Y-1.25
X3.25Y-1.35
X3.25Y-1.45
X3.25Y-1.55
X3.25Y-1.65
X3.25Y-1.75
X3.25Y-1.85
X3.25Y-1.95
X3.25Y-2.05
X3.25Y-2.15
X3.25Y-2.25
X3.25Y-2.35
X3.25Y-2.45
X3.25Y-2.55
X3.25Y-2.65
X3.25Y-2.75
X3.25Y-2.85
X3.25Y-2.95
X3.25Y-3.05
X3.25Y-3.15
X3.25Y-3.25
X3.25Y-3.35
X3.25Y-3.45
X3.25Y-3.55
X3.25Y-3.65
X3.25Y-3.75
X3.25Y-3.85
X3.25Y-3.95
X3.25Y-4.05
X3.25Y-4.15
X3.25Y-4.25
X3.25Y-4.35
X3.25Y-4.45
X3.25Y-4.55
X3.25Y-4.65
X3.25Y-4.75
X3.4Y-1.25
X3.4Y-1.35
X3.4Y-1.45
X3.4Y-1.55
X3.4Y-1.65
X3.4Y-1.75
X3.4Y-1.85
X3.4Y-1.95
X3.4Y-2.15
X3.4Y-2.25
X3.4Y-2.35
X3.4Y-2.45
X3.4Y-2.55
X3.4Y-2.65
X3.4Y-2.75
X3.4Y-2.85
X3.4Y-3.05
X3.4Y-3.15
X3.4Y-3.25
X3.4Y-3.35
X3.4Y-3.45
X3.4Y-3.55
X3.4Y-3.65
X3.4Y-3.75
X3.4Y-3.95
X3.4Y-4.05
X3.4Y-4.15
X3.4Y-4.25
X3.4Y-4.35
X3.4Y-4.45
X3.4Y-4.55
X3.4Y-4.65
X3.45Y-2.05
X3.45Y-2.95
X3.45Y-3.85
X3.45Y-4.75
X3.65Y-2.05
X3.65Y-2.95
X3.65Y-3.85
X3.65Y-4.75
X3.7Y-1.25
X3.7Y-1.35
X3.7Y-1.45
X3.7Y-1.55
X3.7Y-1.65
X3.7Y-1.75
X3.7Y-1.85
X3.7Y-1.95
X3.7Y-2.15
X3.7Y-2.25
X3.7Y-2.35
X3.7Y-2.45
X3.7Y-2.55
X3.7Y-2.65
X3.7Y-2.75
X3.7Y-2.85
X3.7Y-3.05
X3.7Y-3.15
X3.7Y-3.25
X3.7Y-3.35
X3.7Y-3.45
X3.7Y-3.55
X3.7Y-3.65
X3.7Y-3.75
X3.7Y-3.95
X3.7Y-4.05
X3.7Y-4.15
X3.7Y-4.25
X3.7Y-4.35
X3.7Y-4.45
X3.7Y-4.55
X3.7Y-4.65
X3.8Y-1.65
X3.8Y-1.75
X3.8Y-1.85
X3.8Y-1.95
X3.8Y-2.55
X3.8Y-2.65
X3.8Y-2.75
X3.8Y-2.85
X3.8Y-3.45
X3.8Y-3.55
X3.8Y-3.65
X3.8Y-3.75
X3.8Y-4.35
X3.8Y-4.45
X3.8Y-4.55
X3.8Y-4.65
X3.8009Y-1.25
X3.8009Y-1.35
X3.8009Y-1.4501
X3.8009Y-1.5501
X3.8009Y-2.15
X3.8009Y-2.25
X3.8009Y-2.3501
X3.8009Y-2.4501
X3.8009Y-3.05
X3.8009Y-3.15
X3.8009Y-3.2501
X3.8009Y-3.3501
X3.8009Y-3.95
X3.8009Y-4.05
X3.8009Y-4.1501
X3.8009Y-4.2501
X3.9Y-1.25
X3.9Y-1.35
X3.9Y-1.45
X3.9Y-1.55
X3.9Y-1.65
X3.9Y-1.75
X3.9Y-1.85
X3.9Y-1.95
X3.9Y-2.15
X3.9Y-2.25
X3.9Y-2.35
X3.9Y-2.45
X3.9Y-2.55
X3.9Y-2.65
X3.9Y-2.75
X3.9Y-2.85
X3.9Y-3.05
X3.9Y-3.15
X3.9Y-3.25
X3.9Y-3.35
X3.9Y-3.45
X3.9Y-3.55
X3.9Y-3.65
X3.9Y-3.75
X3.9Y-3.95
X3.9Y-4.05
X3.9Y-4.15
X3.9Y-4.25
X3.9Y-4.35
X3.9Y-4.45
X3.9Y-4.55
X3.9Y-4.65
X3.95Y-2.05
X3.95Y-2.95
X3.95Y-3.85
X3.95Y-4.75
X4.15Y-2.05
X4.15Y-2.95
X4.15Y-3.85
X4.15Y-4.75
X4.2Y-1.25
X4.2Y-1.35
X4.2Y-1.45
X4.2Y-1.55
X4.2Y-1.65
X4.2Y-1.75
X4.2Y-1.85
X4.2Y-1.95
X4.2Y-2.15
X4.2Y-2.25
X4.2Y-2.35
X4.2Y-2.45
X4.2Y-2.55
X4.2Y-2.65
X4.2Y-2.75
X4.2Y-2.85
X4.2Y-3.05
X4.2Y-3.15
X4.2Y-3.25
X4.2Y-3.35
X4.2Y-3.45
X4.2Y-3.55
X4.2Y-3.65
X4.2Y-3.75
X4.2Y-3.95
X4.2Y-4.05
X4.2Y-4.15
X4.2Y-4.25
X4.2Y-4.35
X4.2Y-4.45
X4.2Y-4.55
X4.2Y-4.65
X4.3Y-1.65
X4.3Y-1.75
X4.3Y-1.85
X4.3Y-1.95
X4.3Y-2.55
X4.3Y-2.65
X4.3Y-2.75
X4.3Y-2.85
X4.3Y-3.45
X4.3Y-3.55
X4.3Y-3.65
X4.3Y-3.75
X4.3Y-4.35
X4.3Y-4.45
X4.3Y-4.55
X4.3Y-4.65
X4.3009Y-1.25
X4.3009Y-1.35
X4.3009Y-1.4501
X4.3009Y-1.5501
X4.3009Y-2.15
X4.3009Y-2.25
X4.3009Y-2.3501
X4.3009Y-2.4501
X4.3009Y-3.05
X4.3009Y-3.15
X4.3009Y-3.2501
X4.3009Y-3.3501
X4.3009Y-3.95
X4.3009Y-4.05
X4.3009Y-4.1501
X4.3009Y-4.2501
X4.45Y-1.25
X4.45Y-1.35
X4.45Y-1.45
X4.45Y-1.55
X4.45Y-1.65
X4.45Y-1.75
X4.45Y-1.85
X4.45Y-1.95
X4.45Y-2.05
X4.45Y-2.15
X4.45Y-2.25
X4.45Y-2.35
X4.45Y-2.45
X4.45Y-2.55
X4.45Y-2.65
X4.45Y-2.75
X4.45Y-2.85
X4.45Y-2.95
X4.45Y-3.05
X4.45Y-3.15
X4.45Y-3.25
X4.45Y-3.35
X4.45Y-3.45
X4.45Y-3.55
X4.45Y-3.65
X4.45Y-3.75
X4.45Y-3.85
X4.45Y-3.95
X4.45Y-4.05
X4.45Y-4.15
X4.45Y-4.25
X4.45Y-4.35
X4.45Y-4.45
X4.45Y-4.55
X4.45Y-4.65
X4.45Y-4.75
X4.6Y-1.55
X4.6Y-1.85
X4.6Y-1.95
X4.65Y-2.05
X4.7Y-1.65
X4.7Y-1.75
X4.7Y-2.3
X4.8Y-1.65
X4.8Y-1.75
X4.8Y-2.3
X4.85Y-2.05
X4.9Y-1.55
X4.9Y-1.85
X4.9Y-1.95
T3
X1.25Y-1.25
X1.25Y-4.75
X4.75Y-1.25
X4.75Y-4.75
T0
M30
